<?xml version="1.0" standalone="yes"?>
<svg xmlns="http://www.w3.org/2000/svg" width="400" height="150">
<path style="fill:#c1c1c3; stroke:none;" d="M56 34L57 35L56 34z"/>
<path style="fill:#b4b0b3; stroke:none;" d="M54 35L55 36L54 35z"/>
<path style="fill:#694d61; stroke:none;" d="M28 51L28 53L29.5 54L30.0556 54.25L31 54.8333L32.5 55.7778L34 57L35.5 56.3056L36.0556 55.9444L38 54.8333L39 54.25L40 53.75L42 52.6111L44 51.3889L46 50.25L47 49.75L49 48.6111L51 47.3889L52.8889 46.2222L53.6944 45.5833L54.2222 45.2222L55 44L57 44L57.7778 45.2222L58.3056 45.5833L59.1111 46.2222L61 47.3889L63 48.6111L65 49.75L66 50.25L68 51.3889L70 52.6111L72 53.75L73 54.25L73.9444 54.8056L75.5 55.7778L77 57L78.5 56.4722L79.0556 56.1111L80.0556 55.5833L81.9444 54.4167L82.9444 53.8889L83.5 53.5278L85 53L85 51L83.5 50.4722L82.9444 50.1111L81.9444 49.5833L80 48.3889L79 47.8056L77 46.6111L75 45.3889L73 44.25L72 43.75L70 42.6111L68 41.3889L66 40.1944L65 39.6111L63 38.3889L62 37.8056L61 37.1944L60 36.6389L58 35.6667L57 35.3889L55 35.5L53 36.2778L52 36.8333L50 38L48 39.1944L46 40.3889L44 41.6111L42 42.75L41 43.25L39 44.3889L37 45.6111L35 46.8056L34 47.3889L32 48.6111L31.0556 49.1389L30.0556 49.75L29.5 50L28 51z"/>
<path style="fill:#c1c1c3; stroke:none;" d="M52 36L53 37L52 36z"/>
<path style="fill:#a3a3a4; stroke:none;" d="M59 36L60 37L59 36z"/>
<path style="fill:#b4b0b3; stroke:none;" d="M61 37L62 38L61 37z"/>
<path style="fill:#918f91; stroke:none;" d="M49 38L50 39L49 38z"/>
<path style="fill:#b4b0b3; stroke:none;" d="M47 39L48 40L47 39z"/>
<path style="fill:#918f91; stroke:none;" d="M64 39L65 40L64 39z"/>
<path style="fill:#c1c1c3; stroke:none;" d="M45 40L46 41L45 40z"/>
<path style="fill:#b4b0b3; stroke:none;" d="M66 40L67 41L66 40z"/>
<path style="fill:#918f91; stroke:none;" d="M44 41L45 42L44 41z"/>
<path style="fill:#c1c1c3; stroke:none;" d="M68 41L69 42L68 41z"/>
<path style="fill:#a3a3a4; stroke:none;" d="M42 42L43 43L42 42z"/>
<path style="fill:#7d8383; stroke:none;" d="M69 42L70 43L69 42z"/>
<path style="fill:#b4b0b3; stroke:none;" d="M40 43L41 44L40 43z"/>
<path style="fill:#a3a3a4; stroke:none;" d="M71 43L72 44L71 43z"/>
<path style="fill:#d3d5d5; stroke:none;" d="M38 44L39 45L38 44z"/>
<path style="fill:#706f70; stroke:none;" d="M55.6667 44.3333L55.6667 44.6667L56.3333 44.6667L56.3333 44.3333L55.6667 44.3333z"/>
<path style="fill:#b4b0b3; stroke:none;" d="M73 44L74 45L73 44z"/>
<path style="fill:#918f91; stroke:none;" d="M37 45L38 46L37 45z"/>
<path style="fill:#c1c1c3; stroke:none;" d="M54 45L55 46L54 45M57 45L58 46L57 45z"/>
<path style="fill:#d3d5d5; stroke:none;" d="M75 45L76 46L75 45z"/>
<path style="fill:#a3a3a4; stroke:none;" d="M35 46L36 47L35 46z"/>
<path style="fill:#b4b0b3; stroke:none;" d="M52 46L53 47L52 46z"/>
<path style="fill:#a3a3a4; stroke:none;" d="M59 46L60 47L59 46z"/>
<path style="fill:#918f91; stroke:none;" d="M76 46L77 47L76 46z"/>
<path style="fill:#c1c1c3; stroke:none;" d="M33 47L34 48L33 47z"/>
<path style="fill:#918f91; stroke:none;" d="M50 47L51 48L50 47M61 47L62 48L61 47z"/>
<path style="fill:#b4b0b3; stroke:none;" d="M78 47L79 48L78 47z"/>
<path style="fill:#7d8383; stroke:none;" d="M32 48L33 49L32 48z"/>
<path style="fill:#c1c1c3; stroke:none;" d="M80 48L81 49L80 48z"/>
<path style="fill:#918f91; stroke:none;" d="M30 49L31 50L30 49z"/>
<path style="fill:#c1c1c3; stroke:none;" d="M47 49L48 50L47 49M64 49L65 50L64 49z"/>
<path style="fill:#7d8383; stroke:none;" d="M81 49L82 50L81 49z"/>
<path style="fill:#b4b0b3; stroke:none;" d="M28 50L29 51L28 50M45 50L46 51L45 50z"/>
<path style="fill:#a3a3a4; stroke:none;" d="M66 50L67 51L66 50M83 50L84 51L83 50z"/>
<path style="fill:#d3d5d5; stroke:none;" d="M26.3333 51.6667L26.3333 52L26.6667 52.3333L26.6667 51.6667L26.3333 51.6667z"/>
<path style="fill:#706f70; stroke:none;" d="M27.3333 51.6667L27.3333 52L27.6667 52.3333L27.6667 51.6667L27.3333 51.6667z"/>
<path style="fill:#918f91; stroke:none;" d="M43 51L44 52L43 51M68 51L69 52L68 51z"/>
<path style="fill:#b4b0b3; stroke:none;" d="M85.3333 51.6667L85.3333 52.3333L85.6667 52.3333L85.6667 51.6667L85.3333 51.6667z"/>
<path style="fill:#c1c1c3; stroke:none;" d="M54 52L55 53L54 52z"/>
<path style="fill:#694d61; stroke:none;" d="M55 52L53.5 53.2222L51.9444 54.1944L51 54.75L50 55.25L48 56.3889L46 57.6111L44 58.75L43 59.25L41.1111 60.4167L40.3056 61.1944L39.7778 61.5833L39 63L40.5 63.6944L41.0556 64.0556L43 65.1667L44 65.75L45 66.25L47 67.3889L49 68.6111L50 69.1667L52 70.2222L53 70.75L55 71.4444L57 71.4444L58 71.1389L60 70.3611L62 69.3889L64 68.1389L65 67.4444L66 66.8333L68 65.6111L69 65L70.9444 63.9167L72.5 63.2778L74 63L73.2222 61.9444L72.6944 61.6111L70.9722 60.3889L69 59.25L68 58.75L66 57.6111L64 56.3889L63 55.8056L61 54.6111L60 54L58.0556 52.9167L56.5 52.2778L55 52z"/>
<path style="fill:#c1c1c3; stroke:none;" d="M57 52L58 53L57 52z"/>
<path style="fill:#d3d5d5; stroke:none;" d="M69 52L70 53L69 52z"/>
<path style="fill:#c1c1c3; stroke:none;" d="M28 53L29 54L28 53M40 53L41 54L40 53z"/>
<path style="fill:#918f91; stroke:none;" d="M53 53L54 54L53 53z"/>
<path style="fill:#c1c1c3; stroke:none;" d="M71 53L72 54L71 53z"/>
<path style="fill:#b4b0b3; stroke:none;" d="M83 53L84 54L83 53z"/>
<path style="fill:#a8b2b2; stroke:none;" d="M108 53L108 87L108.722 86.2222L108.75 85.6944L108.944 84.8889L108.972 83.9722L109 82L109 81L109 79L109 62L109 59L109 58L108.972 56.0278L108.944 55.1111L108.75 54.3056L108.722 53.7778L108 53z"/>
<path style="fill:#415051; stroke:none;" d="M109 53L109 87L128 87L128 81L118 81L118 72L127 72L127 66L118 66L118 59L128 59L128 53L109 53z"/>
<path style="fill:#080808; stroke:none;" d="M128 53L128 59L130 59L130 53L128 53z"/>
<path style="fill:#b4b0b3; stroke:none;" d="M130 53L130 59L130.722 58.2222L130.75 57.6944L130.944 56.8889L130.944 55.1111L130.75 54.3056L130.722 53.7778L130 53z"/>
<path style="fill:#d3d5d5; stroke:none;" d="M234 53L234 87L234.722 86.2222L234.75 85.6944L234.944 84.8889L234.972 83.9722L235 82L235 81L235 79L235 62L235 59L235 58L234.972 56.0278L234.944 55.1111L234.75 54.3056L234.722 53.7778L234 53z"/>
<path style="fill:#4c4b4e; stroke:none;" d="M235 53L235 87L254 87L254 81L242 81L242 72L253 72L253 66L242 66L242 59L254 59L254 53L235 53z"/>
<path style="fill:#2c2e2f; stroke:none;" d="M254 53L254 55.0556L254.028 56.0278L254.111 56.8889L254.278 57.6667L254.861 58.6389L256 59L255.5 56.9444L255.5 55.0556L256 53L254 53z"/>
<path style="fill:#7d8383; stroke:none;" d="M256 53L256 59L256.722 58.2222L256.75 57.6944L256.944 56.8889L256.944 55.1111L256.75 54.3056L256.722 53.7778L256 53z"/>
<path style="fill:#b4b0b3; stroke:none;" d="M30 54L31 55L30 54M38 54L39 55L38 54z"/>
<path style="fill:#a3a3a4; stroke:none;" d="M51 54L52 55L51 54z"/>
<path style="fill:#918f91; stroke:none;" d="M60 54L61 55L60 54z"/>
<path style="fill:#a3a3a4; stroke:none;" d="M73 54L74 55L73 54z"/>
<path style="fill:#918f91; stroke:none;" d="M81 54L82 55L81 54z"/>
<path style="fill:#080808; stroke:none;" d="M255 54L255 58L255.722 57.2222L255.722 56.7222L255.889 56L255.722 54.7778L255 54z"/>
<path style="fill:#a3a3a4; stroke:none;" d="M32 55L33 56L32 55z"/>
<path style="fill:#918f91; stroke:none;" d="M36 55L37 56L36 55z"/>
<path style="fill:#b4b0b3; stroke:none;" d="M49 55L50 56L49 55M62 55L63 56L62 55z"/>
<path style="fill:#918f91; stroke:none;" d="M75 55L76 56L75 55z"/>
<path style="fill:#d3d5d5; stroke:none;" d="M80 55L81 56L80 55z"/>
<path style="fill:#918f91; stroke:none;" d="M166.667 55.3333L167 55.6667L167.333 55.6667L167 55.3333L166.667 55.3333z"/>
<path style="fill:#706f70; stroke:none;" d="M168 55L168.778 55.7222L169.25 55.75L170.056 55.9444L172 56L171.222 55.2778L170.75 55.25L169.944 55.0556L168 55z"/>
<path style="fill:#c1c1c3; stroke:none;" d="M172 55L173 56L172 55z"/>
<path style="fill:#a3a3a4; stroke:none;" d="M292.667 55.3333L292.667 55.6667L293.333 55.6667L293.333 55.3333L292.667 55.3333z"/>
<path style="fill:#706f70; stroke:none;" d="M294 55L294.778 55.7222L295.25 55.75L296.056 55.9444L298 56L297.222 55.2778L296.75 55.25L295.944 55.0556L294 55z"/>
<path style="fill:#a3a3a4; stroke:none;" d="M298 55L299 56L298 55z"/>
<path style="fill:#d3d5d5; stroke:none;" d="M47 56L48 57L47 56z"/>
<path style="fill:#c1c1c3; stroke:none;" d="M64 56L65 57L64 56z"/>
<path style="fill:#d3d5d5; stroke:none;" d="M76 56L77 57L76 56z"/>
<path style="fill:#a3a3a4; stroke:none;" d="M78 56L79 57L78 56z"/>
<path style="fill:#a8b2b2; stroke:none;" d="M165 56L166 57L165 56z"/>
<path style="fill:#415051; stroke:none;" d="M166 56L165.167 57.5L164.917 58.0556L163.694 59.9722L162.917 60.9167L162.083 61.7778L160.722 63.3333L160.111 64.5833L160 66L161.444 66.25L162.556 66.5833L164 67L164 75L164 78L164 79L164.083 81L164.5 82.9722L165.5 84.6944L166.25 85.3611L168.028 86.2778L170 86.7778L171 86.9167L173 87L174.944 87L175.944 87L178 87L178 81L176.5 80.9722L174.944 80.8056L173.056 80.6389L172.5 80.5278L171 81L170.417 78.9444L170.222 77.9444L170.083 77L170 75L170 74L170 72L170 66L171.5 66.3333L173.056 66.3889L174.944 66.1944L175.5 66.0833L177 66L177 61L170 61L170 56L166 56z"/>
<path style="fill:#2c2e2f; stroke:none;" d="M170 56L170 61L170.75 60.2222L170.833 59.6944L171.167 58.9444L171.389 58.0278L172 56L170 56z"/>
<path style="fill:#7d8383; stroke:none;" d="M172 56L172 61L172.722 60.2222L172.75 59.6944L172.917 58.0833L172.75 57.3056L172.722 56.7778L172 56z"/>
<path style="fill:#d3d5d5; stroke:none;" d="M291 56L292 57L291 56z"/>
<path style="fill:#4c4b4e; stroke:none;" d="M292 56L291.556 57.5L291.306 58.0556L290.361 59.9167L288.917 61.5278L288.083 62.1667L286.722 63.4167L286.111 64.5833L286 66L290 66L290 76L290 78L290 79L290.028 80L290.111 81L290.722 82.9722L292.111 84.75L293.028 85.5L295 86.5L296 86.75L297 86.9167L299 87L300.944 87L304 87L304 81L297 81L296 80L296 66L298 66L298 80L298.722 79.2222L298.75 78.6944L298.944 77.8889L298.972 76.9722L299 76L299 74L299 73L299 71L299 66L304 66L304 61L299 61L299 56L298.278 56.7778L298.25 57.3056L298.056 58.0556L298.028 58.9722L298 61L296 61L296 56L292 56z"/>
<path style="fill:#2c2e2f; stroke:none;" d="M296 56L296 61L296.722 60.2222L296.75 59.6944L296.917 58.9167L296.75 57.3056L296.722 56.7778L296 56z"/>
<path style="fill:#080808; stroke:none;" d="M297 56L297 61L297.722 60.2222L297.75 59.6944L297.917 58.9167L297.75 57.3056L297.722 56.7778L297 56z"/>
<path style="fill:#918f91; stroke:none;" d="M46 57L47 58L46 57M65 57L66 58L65 57z"/>
<path style="fill:#080808; stroke:none;" d="M171 57L171 61L171.722 60.2222L171.722 59.7222L171.889 59L171.722 57.7778L171 57z"/>
<path style="fill:#a3a3a4; stroke:none;" d="M291 57L292 58L291 57z"/>
<path style="fill:#a8b2b2; stroke:none;" d="M22 58L22 94L22.7222 93.2222L22.75 92.6944L22.9444 91.8889L22.9722 90.9722L23 89L23 88L23 85L23 67L23 64L23 63L22.9722 61.0278L22.9444 60.1111L22.75 59.3056L22.7222 58.7778L22 58z"/>
<path style="fill:#a3a3a4; stroke:none;" d="M44 58L45 59L44 58M67 58L68 59L67 58z"/>
<path style="fill:#a8b2b2; stroke:none;" d="M89 58L89 94L89.7222 93.2222L89.75 92.6944L89.9444 91.8889L89.9722 90.9722L90 89L90 88L90 85L90 67L90 64L90 63L89.9722 61.0278L89.9444 60.1111L89.75 59.3056L89.7222 58.7778L89 58z"/>
<path style="fill:#d3d5d5; stroke:none;" d="M164 58L165 59L164 58z"/>
<path style="fill:#455d6d; stroke:none;" d="M23 59L23 94L24.5 94.5L25.0556 94.8333L26.0556 95.2778L28 96.3889L30 97.6111L32 98.75L33 99.25L35 100.389L37 101.611L39 102.75L40 103.25L42 104.389L44 105.611L45 106.167L46 106.75L47 107.222L48 107.75L48.9444 108.139L50.5 108.722L52 109L52 99L50.5 98.4722L49.9444 98.1111L48.9444 97.5833L47 96.3889L45 95.1944L44 94.6111L42 93.3889L40 92.25L39 91.75L37 90.6111L35 89.4167L34.0556 88.9167L32.5 88.2778L31 88L31 63L29.5 62.4722L28.9444 62.1111L27.9444 61.5833L26.0556 60.4167L25.0556 59.8889L24.5 59.5278L23 59z"/>
<path style="fill:#a8b2b2; stroke:none;" d="M24 59L25 60L24 59z"/>
<path style="fill:#c1c1c3; stroke:none;" d="M42 59L43 60L42 59z"/>
<path style="fill:#b4b0b3; stroke:none;" d="M69 59L70 60L69 59z"/>
<path style="fill:#a8b2b2; stroke:none;" d="M87 59L88 60L87 59z"/>
<path style="fill:#4e6d61; stroke:none;" d="M88 59L86.5 60.0556L85.9444 60.3889L84.0556 61.5833L83.0556 62.1111L82.5 62.4722L81 63L81 88L79.5 88.2778L77.9444 88.9167L77 89.4167L75 90.6111L73 91.75L72 92.25L70 93.3889L68 94.6111L67 95.1944L65 96.3889L63.0556 97.5833L62.0556 98.1111L61.5 98.4722L60 99L60 109L61.5 108.722L63.0556 108.139L64 107.75L65 107.222L66 106.75L67 106.167L68 105.611L70 104.389L72 103.25L73 102.75L75 101.611L77 100.389L79 99.25L80 98.75L82 97.6111L84 96.3889L85.9444 95.2778L86.9444 94.8333L87.5 94.5L89 94L89 70L89 66L89 64L88.9722 62.0278L88.9444 61.1111L88.75 60.3056L88.7222 59.7778L88 59z"/>
<path style="fill:#2c2e2f; stroke:none;" d="M115 59L115 66L115.722 65.2222L115.75 64.6944L115.944 63.8889L115.972 62.9722L115.944 61.1111L115.75 60.3056L115.722 59.7778L115 59z"/>
<path style="fill:#080808; stroke:none;" d="M116 59L116 66L116.722 65.2222L116.75 64.6944L116.944 63.8889L116.972 62.9722L116.944 61.1111L116.75 60.3056L116.722 59.7778L116 59z"/>
<path style="fill:#a3a3a4; stroke:none;" d="M164 59L165 60L164 59z"/>
<path style="fill:#080808; stroke:none;" d="M242 59L242 66L244 66L244 59L242 59z"/>
<path style="fill:#c1c1c3; stroke:none;" d="M290 59L291 60L290 59M26 60L27 61L26 60M71 60L72 61L71 60z"/>
<path style="fill:#d3d5d5; stroke:none;" d="M85 60L86 61L85 60z"/>
<path style="fill:#706f70; stroke:none;" d="M290 60L291 61L290 60z"/>
<path style="fill:#7d8383; stroke:none;" d="M27 61L28 62L27 61z"/>
<path style="fill:#d3d5d5; stroke:none;" d="M28 61L29 62L28 61z"/>
<path style="fill:#918f91; stroke:none;" d="M39 61L40 62L39 61M72 61L73 62L72 61z"/>
<path style="fill:#a3a3a4; stroke:none;" d="M84 61L85 62L84 61z"/>
<path style="fill:#415051; stroke:none;" d="M132 61L132.694 62.5L133.083 63.0556L133.694 64.0556L134.333 65L135 66L136.333 68L137 69L138.278 71L138.806 72L139.194 74L138.556 76L137.333 78L136.667 79L136 80L134.667 82L133.417 83.9444L132.889 84.9444L132.528 85.5L132 87L140 87L140.528 85.5L140.889 84.9444L141.417 83.9444L142.583 82.0556L143.111 81.0556L143.472 80.5L144 79L145.417 80.0833L146.639 81.2778L147.306 82.0833L148.583 83.9444L149.111 84.9444L149.472 85.5L150 87L158 87L157.472 85.5L157.111 84.9444L156.583 83.9444L155.333 82L154 80L153.333 79L152.667 78L151.444 76L150.806 74L151.194 72L151.722 71L153 69L153.667 68L155 66L155.667 65L156.306 64.0556L156.917 63.0556L157.306 62.5L158 61L150 61L149 62.5L148.75 63.0556L147.556 64.9167L146.194 66.5556L145.444 67.3333L144 69L143.667 67.5L143.361 66.9444L142.889 65.9444L141.694 64.0556L141.083 63.0556L140.694 62.5L140 61L132 61z"/>
<path style="fill:#2c2e2f; stroke:none;" d="M140 61L140 63L141 63L142 61L140 61z"/>
<path style="fill:#c1c1c3; stroke:none;" d="M142 61L143 62L142 61z"/>
<path style="fill:#d3d5d5; stroke:none;" d="M149 61L150 62L149 61z"/>
<path style="fill:#2c2e2f; stroke:none;" d="M158.333 61.6667L158.333 62.3333L158.667 62.3333L158.667 62L158.333 61.6667z"/>
<path style="fill:#706f70; stroke:none;" d="M159 61L160 62L159 61z"/>
<path style="fill:#2c2e2f; stroke:none;" d="M177 61L177 66L177.75 65.2222L177.833 64.6944L178.167 63.9444L178.389 63.0278L179 61L177 61z"/>
<path style="fill:#4c4b4e; stroke:none;" d="M179 61L179 66L179.722 65.2222L179.75 64.6944L179.917 63.0833L179.75 62.3056L179.722 61.7778L179 61z"/>
<path style="fill:#a8b2b2; stroke:none;" d="M183 61L183 87L183.722 86.2222L183.75 85.6944L183.944 84.8889L183.972 83.9722L184 83L184 82L184 80L184 68L184 66L184 65L183.972 64.0278L183.944 63.1111L183.75 62.3056L183.722 61.7778L183 61z"/>
<path style="fill:#415051; stroke:none;" d="M184 61L184 87L190 87L190 82L190 80L190 79L190 78L190.028 76L190.083 75L190.5 73L190.917 72L191.944 70.0556L192.306 69.5L193 68L194.5 68.3333L196.056 68.3889L198 68.1944L198.944 68.0833L200.5 68L202 68L201.333 66.9167L201.028 66.5278L200.306 64.9167L200.111 64.0278L200 62.5L200 61L198.5 61.0278L196.944 61.25L196 61.5L194.028 62.4167L193.083 63.0278L191.472 64.3611L190 66L189.417 64L189.222 63L189.083 62.5L189 61L184 61z"/>
<path style="fill:#080808; stroke:none;" d="M189 61L189.25 62.5L189.611 64L189.75 64.5L190 66L190.722 65.2222L190.75 64.6944L190.917 63.9167L190.722 62.3333L190.139 61.3611L189 61z"/>
<path style="fill:#a3a3a4; stroke:none;" d="M195 61L196 62L195 61z"/>
<path style="fill:#080808; stroke:none;" d="M200 61L200 67L202 67L202 61L200 61z"/>
<path style="fill:#7d8383; stroke:none;" d="M202 61L202 64L202.694 63.25L202.694 62.1944L202.694 61.75L202 61z"/>
<path style="fill:#918f91; stroke:none;" d="M210.667 61.3333L210.667 61.6667L211.333 61.6667L211 61.3333L210.667 61.3333z"/>
<path style="fill:#415051; stroke:none;" d="M207 63L207.083 64.5L207.222 65L207.417 66L208 68L209.611 67.8056L210.75 67.8333L212 68L212 66L213.5 66.3333L214.056 66.3889L216 66.6389L216.972 66.9167L218.667 68.0833L219.639 69.5L220 71L217.944 71L216.944 71L215 71.0833L214 71.2222L212 71.6111L211 71.8056L209 72.2778L207.083 73.1111L206.25 73.7222L205.5 74.4167L204.5 76.0833L204.083 78L204.028 79L204.111 81L204.333 82L204.722 82.9722L205.333 83.9167L207.028 85.5L208 86.0556L209 86.5L211 86.9167L213 87L213.944 87L217 87L217.667 85.8056L218.333 85.0278L219 84L220.75 85.4167L221.278 85.8056L222 87L227 87L227 76L227 74L227 73L226.917 71L226.778 70L226.361 68L225.75 66L225.306 65L223.889 63.1111L222 61.7222L221 61.3333L220 61.1111L218 61L216 61L214 61.0833L212 61.4167L211 61.6944L209.056 62.3333L208.5 62.5556L207 63z"/>
<path style="fill:#7d8383; stroke:none;" d="M222 61L223 62L222 61z"/>
<path style="fill:#c1c1c3; stroke:none;" d="M223 61L224 62L223 61z"/>
<path style="fill:#7d8383; stroke:none;" d="M258 61L259 62L258 61z"/>
<path style="fill:#4c4b4e; stroke:none;" d="M259 61L259.333 62.5L259.639 63.0556L260.111 64.0556L260.694 65L261.333 66L262.667 68L264 69.9722L264.639 70.8889L265.361 71.6944L265.75 72.2222L267 73L265.944 74.5L265.611 75.0556L264.944 76.0556L264.333 77L263.667 78L262.333 80L261 82L260.333 83L259.694 83.9444L259.083 84.9444L258.694 85.5L258 87L266 87L266.694 85.5L267.056 84.9444L268.194 83L268.833 82L269.417 81.0556L270.583 79.5L272 78L272.333 79.5L272.639 80.0556L273.083 81.0556L273.639 82L274.833 83.9722L275.472 84.8889L277.083 86.2778L279 86.8889L280 86.9722L281.944 87L284 87L283.667 85.5L283.361 84.9444L282.889 83.9444L281.667 82L281 81L279.611 79L278.861 78L277.556 76L277.194 75L277 74L277.167 73L277.5 72L278.667 70L279.333 69L280 68L281.333 66L282.583 64.0556L283.111 63.0556L283.472 62.5L284 61L276 61L275.306 62.5L274.917 63.0556L274.306 64.0556L273.111 65.9444L272.639 66.9444L272.333 67.5L272 69L270 69L269.722 67.5L269.083 65.9444L268.028 64.0556L267.389 63.0556L267.056 62.5L266 61L259 61z"/>
<path style="fill:#2c2e2f; stroke:none;" d="M266 61L266.833 62.75L267.028 63.2778L268 64L268.361 62.6111L268.083 62.2778L267.361 61.3611L266 61z"/>
<path style="fill:#a3a3a4; stroke:none;" d="M268 61L269 62L268 61z"/>
<path style="fill:#080808; stroke:none;" d="M284 61L282.944 62.5L282.611 63.0556L281.333 65L280 67L279.333 68L278.667 69L277.417 71L276.944 72L276.583 73L276.583 75L277.472 77L278.861 79L279.611 80L281 82L281.667 83L283 84.8889L283.639 85.6667L284.361 86.2778L284.75 86.6389L286 87L285.639 85.5L285.306 84.9444L284.75 83.9444L283.389 82L282 80L281.333 79L280.028 77L279.444 76L278.806 74L279.194 72L279.722 71L280.333 70L281 69L282.333 67L282.972 66L283.583 65L284.444 63.1111L284.5 62.3056L284.639 61.7778L284 61z"/>
<path style="fill:#4c4b4e; stroke:none;" d="M285 61L286 62L285 61z"/>
<path style="fill:#7d8383; stroke:none;" d="M289 61L290 62L289 61z"/>
<path style="fill:#080808; stroke:none;" d="M304 61L304 66L306 66L306 61L304 61z"/>
<path style="fill:#a3a3a4; stroke:none;" d="M29 62L30 63L29 62z"/>
<path style="fill:#b4b0b3; stroke:none;" d="M38 62L39 63L38 62z"/>
<path style="fill:#a8b2b2; stroke:none;" d="M82 62L83 63L82 62z"/>
<path style="fill:#d3d5d5; stroke:none;" d="M132 62L133 63L132 62z"/>
<path style="fill:#080808; stroke:none;" d="M141 62L141.278 63.5L141.917 65.0556L142.944 66.9444L143.306 67.5L144 69L144.694 68.2222L144.667 67.6944L144.472 65.9722L143.556 64.1111L142.806 63.3056L142.417 62.7778L141 62z"/>
<path style="fill:#4c4b4e; stroke:none;" d="M142 62L143 63L142 62z"/>
<path style="fill:#080808; stroke:none;" d="M157 62L155.944 63.5L155.611 64.0556L154.333 66L153 68L152.333 69L151.111 71L150.667 72L150.389 73L150.528 75L150.917 76L152.028 78L152.667 79L154 81L155.333 83L156 83.9722L157.361 85.6667L158.583 86.6389L160 87L159.306 85.5L158.917 84.9444L158.306 83.9444L157.667 83L157 82L155.667 80L155 79L153.694 77L153.139 76L152.556 74L152.611 73L153.417 71L154.028 70L155.333 68L156.583 66L157.444 64.1111L157.5 63.3056L157.639 62.7778L157 62z"/>
<path style="fill:#d3d5d5; stroke:none;" d="M159 62L158.667 64L158.528 64.5556L159 66L159.722 65.2222L159.722 64.7222L159.889 64L159.722 62.7778L159 62z"/>
<path style="fill:#918f91; stroke:none;" d="M161 62L162 63L161 62z"/>
<path style="fill:#080808; stroke:none;" d="M178 62L178 66L178.722 65.2222L178.722 64.7222L178.889 64L178.722 62.7778L178 62z"/>
<path style="fill:#b4b0b3; stroke:none;" d="M191 62L192 63L191 62z"/>
<path style="fill:#a3a3a4; stroke:none;" d="M193 62L194 63L193 62z"/>
<path style="fill:#c1c1c3; stroke:none;" d="M207 62L208 63L207 62z"/>
<path style="fill:#7d8383; stroke:none;" d="M208 62L209 63L208 62z"/>
<path style="fill:#2c2e2f; stroke:none;" d="M223 62L224 63L223 62z"/>
<path style="fill:#4c4b4e; stroke:none;" d="M224 62L225 63L224 62z"/>
<path style="fill:#b4b0b3; stroke:none;" d="M225 62L226 63L225 62z"/>
<path style="fill:#918f91; stroke:none;" d="M275 62L276 63L275 62z"/>
<path style="fill:#a3a3a4; stroke:none;" d="M285 62L286 63L285 62z"/>
<path style="fill:#b4b0b3; stroke:none;" d="M287 62L288 63L287 62z"/>
<path style="fill:#d3d5d5; stroke:none;" d="M31 63L31 87L31.7222 86.2222L31.75 85.6944L31.9444 84.8889L31.9722 83.9722L32 83L32 82L32 80L32 70L32 68L32 67L31.9722 66.0278L31.9444 65.1111L31.75 64.3056L31.7222 63.7778L31 63z"/>
<path style="fill:#918f91; stroke:none;" d="M40 63L41 64L40 63z"/>
<path style="fill:#7d8383; stroke:none;" d="M69 64L69.7778 64.6389L70.25 64.5278L71.0556 64.5278L73 64L72.2222 63.3611L71.75 63.4722L70.9444 63.4722L69 64z"/>
<path style="fill:#4e6d61; stroke:none;" d="M73 63L71.5 63.9722L70.9444 64.1667L69.9444 64.6389L68.0833 65.4167L67.2222 65.8889L65.6111 66.9444L63.9167 68L62.9722 68.5L61.0833 69.5L60.2222 70L58.6667 70.9722L57.8333 71.3889L57.4167 71.6667L56 72L56 93L57.5 92.5L58.0556 92.1667L59.0556 91.7222L61 90.6111L63 89.3889L65 88.25L66 87.75L68 86.6111L70 85.3889L71.9444 84.25L72.5 84L74 83L74 70L74 68L74 67L73.9722 66.0278L73.9444 65.1111L73.75 64.3056L73.7222 63.7778L73 63z"/>
<path style="fill:#d3d5d5; stroke:none;" d="M80 63L80 87L80.7222 86.2222L80.75 85.6944L80.9444 84.8889L80.9722 83.9722L81 83L81 82L81 80L81 70L81 68L81 67L80.9722 66.0278L80.9444 65.1111L80.75 64.3056L80.7222 63.7778L80 63z"/>
<path style="fill:#918f91; stroke:none;" d="M133 63L134 64L133 63z"/>
<path style="fill:#a3a3a4; stroke:none;" d="M143 63L144 64L143 63z"/>
<path style="fill:#a8b2b2; stroke:none;" d="M148 63L149 64L148 63z"/>
<path style="fill:#918f91; stroke:none;" d="M158 63L159 64L158 63z"/>
<path style="fill:#2c2e2f; stroke:none;" d="M189.333 63.6667L189.333 64L189.667 64.3333L189.667 64L189.333 63.6667z"/>
<path style="fill:#706f70; stroke:none;" d="M191.667 63.3333L192 63.6667L192.333 63.6667L192 63.3333L191.667 63.3333z"/>
<path style="fill:#7d8383; stroke:none;" d="M206 63L207 64L206 63z"/>
<path style="fill:#080808; stroke:none;" d="M224 63L224.694 64.5L225.056 65.0556L226.083 67L226.5 68L226.75 69L226.917 70L227 72L227 73L227 76L227 87L229 87L229 77L229 74L228.972 72L228.917 71L228.611 69L228.111 67L227.306 65.1111L226.722 64.3333L225.472 63.3611L224 63z"/>
<path style="fill:#918f91; stroke:none;" d="M226 63L227 64L226 63z"/>
<path style="fill:#c1c1c3; stroke:none;" d="M259 63L260 64L259 63z"/>
<path style="fill:#080808; stroke:none;" d="M268 63L268.278 64.5L268.861 66.0278L269.278 66.8889L270.417 68.2778L270.778 68.6389L272 69L271.667 67.5L271.361 66.9444L270.333 65.1111L269.639 64.3056L269.25 63.7778L268 63z"/>
<path style="fill:#706f70; stroke:none;" d="M269 63L270 64L269 63z"/>
<path style="fill:#d3d5d5; stroke:none;" d="M274 63L275 64L274 63z"/>
<path style="fill:#4e6d61; stroke:none;" d="M284 63L285 64L284 63z"/>
<path style="fill:#d3d5d5; stroke:none;" d="M41 64L42 65L41 64z"/>
<path style="fill:#4c4b4e; stroke:none;" d="M157 64L158 65L157 64z"/>
<path style="fill:#b4b0b3; stroke:none;" d="M202 64L202 67L202.694 66.25L202.694 65.1944L202.694 64.75L202 64z"/>
<path style="fill:#a8b2b2; stroke:none;" d="M206 64L207 65L206 64z"/>
<path style="fill:#a3a3a4; stroke:none;" d="M227 64L228 65L227 64z"/>
<path style="fill:#7d8383; stroke:none;" d="M260 64L261 65L260 64z"/>
<path style="fill:#b4b0b3; stroke:none;" d="M270 64L271 65L270 64z"/>
<path style="fill:#c1c1c3; stroke:none;" d="M43 65L44 66L43 65z"/>
<path style="fill:#d3d5d5; stroke:none;" d="M134 65L135 66L134 65z"/>
<path style="fill:#706f70; stroke:none;" d="M144 65L145 66L144 65z"/>
<path style="fill:#7d8383; stroke:none;" d="M147 65L148 66L147 65z"/>
<path style="fill:#c1c1c3; stroke:none;" d="M157 65L158 66L157 65z"/>
<path style="fill:#4c4b4e; stroke:none;" d="M270 65L271 66L270 65z"/>
<path style="fill:#a3a3a4; stroke:none;" d="M273 65L274 66L273 65M283 65L284 66L283 65M45 66L46 67L45 66z"/>
<path style="fill:#2c2e2f; stroke:none;" d="M127 66L127 68.0556L127.028 69.0278L127.111 69.8889L127.278 70.6667L127.861 71.6389L129 72L128.5 69.9444L128.5 68.0556L129 66L127 66z"/>
<path style="fill:#7d8383; stroke:none;" d="M129 66L129 72L129.722 71.2222L129.75 70.6944L129.944 69.8889L129.944 68.1111L129.75 67.3056L129.722 66.7778L129 66z"/>
<path style="fill:#918f91; stroke:none;" d="M135 66L136 67L135 66z"/>
<path style="fill:#b4b0b3; stroke:none;" d="M145.667 66.3333L145.667 66.6667L146.333 66.6667L146 66.3333L145.667 66.3333z"/>
<path style="fill:#918f91; stroke:none;" d="M156 66L157 67L156 66z"/>
<path style="fill:#c1c1c3; stroke:none;" d="M160 66L160.722 66.7222L161.25 66.75L163 67L162.278 66.2778L161.75 66.25L160 66z"/>
<path style="fill:#2c2e2f; stroke:none;" d="M170 66L170 80L170.722 79.2222L170.75 78.6944L170.944 77.8889L170.972 76.9722L171 76L171 75L171 73L171 72L171.083 70L171.417 68.0556L172 66L170 66z"/>
<path style="fill:#a3a3a4; stroke:none;" d="M173 66L173.778 66.7222L174.306 66.75L175.056 66.9444L175.972 66.9722L178 67L177.222 66.2778L176.694 66.25L175.944 66.0556L175.028 66.0278L173 66z"/>
<path style="fill:#d3d5d5; stroke:none;" d="M178.667 66.3333L179 66.6667L179.333 66.6667L179 66.3333L178.667 66.3333z"/>
<path style="fill:#a8b2b2; stroke:none;" d="M207 66L208 67L207 66z"/>
<path style="fill:#2c2e2f; stroke:none;" d="M212.667 66.3333L212.667 66.6667L213.333 66.6667L213.333 66.3333L212.667 66.3333z"/>
<path style="fill:#7d8383; stroke:none;" d="M215 66L215.722 66.7222L216.25 66.75L218 67L217.278 66.2778L216.75 66.25L215 66z"/>
<path style="fill:#a3a3a4; stroke:none;" d="M228 66L229 67L228 66z"/>
<path style="fill:#2c2e2f; stroke:none;" d="M253 66L253 68.0556L253.028 69.0278L253.111 69.8889L253.278 70.6667L253.861 71.6389L255 72L254.5 69.9444L254.5 68.0556L255 66L253 66z"/>
<path style="fill:#4c4b4e; stroke:none;" d="M255 66L255 72L255.722 71.2222L255.75 70.6944L255.944 69.8889L255.944 68.1111L255.75 67.3056L255.722 66.7778L255 66z"/>
<path style="fill:#c1c1c3; stroke:none;" d="M261 66L262 67L261 66z"/>
<path style="fill:#918f91; stroke:none;" d="M271 66L272 67L271 66z"/>
<path style="fill:#4e6d61; stroke:none;" d="M282 66L283 67L282 66z"/>
<path style="fill:#d3d5d5; stroke:none;" d="M286.667 66.3333L287 66.6667L287.333 66.6667L287.333 66.3333L286.667 66.3333z"/>
<path style="fill:#7d8383; stroke:none;" d="M288.667 66.3333L289 66.6667L289.333 66.6667L289.333 66.3333L288.667 66.3333z"/>
<path style="fill:#2c2e2f; stroke:none;" d="M296 66L296 80L296.722 79.2222L296.75 78.6944L296.944 77.8889L296.972 76.9722L297 76L297 75L297 73L297 71L297 70L296.972 69.0278L296.944 68.1111L296.75 67.3056L296.722 66.7778L296 66z"/>
<path style="fill:#080808; stroke:none;" d="M297 66L297 72L297 74L297 75L297 77L297.028 77.9722L297.278 79.6667L297.667 80.2778L297.861 80.6389L299 81L298.417 78.9444L298.083 77L298 75L298 73L298 71L298 70L297.972 69.0278L297.944 68.1111L297.75 67.3056L297.722 66.7778L297 66z"/>
<path style="fill:#a3a3a4; stroke:none;" d="M299 66L299.778 66.7222L300.306 66.75L301.056 66.9444L301.972 66.9722L304 67L303.222 66.2778L302.694 66.25L301.944 66.0556L301.028 66.0278L299 66z"/>
<path style="fill:#c1c1c3; stroke:none;" d="M304.667 66.3333L304.667 66.6667L305.333 66.6667L305.333 66.3333L304.667 66.3333z"/>
<path style="fill:#918f91; stroke:none;" d="M47 67L48 68L47 67z"/>
<path style="fill:#7d8383; stroke:none;" d="M64.6667 67.3333L64.6667 67.6667L65.3333 67.6667L65.3333 67.3333L64.6667 67.3333z"/>
<path style="fill:#080808; stroke:none;" d="M128 67L128 71L128.722 70.2222L128.722 69.7222L128.889 69L128.722 67.7778L128 67z"/>
<path style="fill:#4c4b4e; stroke:none;" d="M155 67L156 68L155 67z"/>
<path style="fill:#7d8383; stroke:none;" d="M163 67L163 80L163.722 79.2222L163.75 78.6944L163.944 77.8889L163.972 76.9722L164 76L164 74L164 72L164 71L163.972 70.0278L163.944 69.1111L163.75 68.3056L163.722 67.7778L163 67z"/>
<path style="fill:#080808; stroke:none;" d="M171 67L171 81L171.722 80.2222L171.75 79.6944L171.944 78.8889L171.972 77.9722L172 77L172 76L172 74L172 72L172 71L171.972 70.0278L171.944 69.1111L171.75 68.3056L171.722 67.7778L171 67z"/>
<path style="fill:#7d8383; stroke:none;" d="M172 67L172 80L172.722 79.2222L172.75 78.6944L172.944 77.8889L172.972 76.9722L173 76L173 75L173 73L173 71L172.972 70.0278L172.944 69.1111L172.75 68.3056L172.722 67.7778L172 67M209 67L210 68L209 67z"/>
<path style="fill:#a3a3a4; stroke:none;" d="M212 67L213 68L212 67z"/>
<path style="fill:#2c2e2f; stroke:none;" d="M226.333 67.6667L226.333 68L226.667 68.3333L226.667 68L226.333 67.6667z"/>
<path style="fill:#4c4b4e; stroke:none;" d="M228.333 67.6667L228.333 68L228.667 68.3333L228.667 68L228.333 67.6667z"/>
<path style="fill:#080808; stroke:none;" d="M254 67L254 71L254.722 70.2222L254.722 69.7222L254.889 69L254.722 67.7778L254 67z"/>
<path style="fill:#7d8383; stroke:none;" d="M262 67L263 68L262 67z"/>
<path style="fill:#b4b0b3; stroke:none;" d="M289 67L289 80L289.722 79.2222L289.75 78.6944L289.944 77.8889L289.972 76.9722L290 76L290 75L290 73L290 71L289.972 70.0278L289.944 69.1111L289.75 68.3056L289.722 67.7778L289 67z"/>
<path style="fill:#d3d5d5; stroke:none;" d="M48 68L49 69L48 68M136 68L137 69L136 68z"/>
<path style="fill:#c1c1c3; stroke:none;" d="M155 68L156 69L155 68z"/>
<path style="fill:#080808; stroke:none;" d="M193 68L191.861 69.5L191.278 71.0556L191.111 72L191.028 73L191 74L191 75L191 77L191 86L191.722 85.2222L191.75 84.6944L191.944 83.8889L191.972 82.9722L192 82L192 81L192 79L192 78L192.028 76L192.083 75L192.5 73L192.917 72L193.944 70.0556L194.306 69.5L195 68L193 68z"/>
<path style="fill:#b4b0b3; stroke:none;" d="M196 68L197 69L196 68z"/>
<path style="fill:#a3a3a4; stroke:none;" d="M281 68L282 69L281 68z"/>
<path style="fill:#b4b0b3; stroke:none;" d="M50 69L51 70L50 69z"/>
<path style="fill:#918f91; stroke:none;" d="M137 69L138 70L137 69M154 69L155 70L154 69M194 69L195 70L194 69z"/>
<path style="fill:#c1c1c3; stroke:none;" d="M263 69L264 70L263 69z"/>
<path style="fill:#4e6d61; stroke:none;" d="M280 69L281 70L280 69z"/>
<path style="fill:#a3a3a4; stroke:none;" d="M52 70L53 71L52 70z"/>
<path style="fill:#4c4b4e; stroke:none;" d="M153 70L154 71L153 70z"/>
<path style="fill:#706f70; stroke:none;" d="M193 70L194 71L193 70z"/>
<path style="fill:#7d8383; stroke:none;" d="M264 70L265 71L264 70z"/>
<path style="fill:#918f91; stroke:none;" d="M54 71L55 72L54 71z"/>
<path style="fill:#7d8383; stroke:none;" d="M57.6667 71.3333L58 71.6667L58.3333 71.6667L58.3333 71.3333L57.6667 71.3333z"/>
<path style="fill:#d3d5d5; stroke:none;" d="M138 71L139 72L138 71z"/>
<path style="fill:#c1c1c3; stroke:none;" d="M153 71L154 72L153 71M210 71L211 72L210 71z"/>
<path style="fill:#706f70; stroke:none;" d="M211.667 71.3333L211.667 71.6667L212.333 71.6667L212.333 71.3333L211.667 71.3333z"/>
<path style="fill:#a3a3a4; stroke:none;" d="M279 71L280 72L279 71z"/>
<path style="fill:#c1c1c3; stroke:none;" d="M55 72L56 73L55 72z"/>
<path style="fill:#2c2e2f; stroke:none;" d="M115 72L115 81L115.722 80.2222L115.75 79.6944L115.944 78.8889L115.972 77.9722L116 76L115.944 74.1111L115.75 73.3056L115.722 72.7778L115 72z"/>
<path style="fill:#080808; stroke:none;" d="M116 72L116 81L116.722 80.2222L116.75 79.6944L116.944 78.8889L116.972 77.9722L117 76L116.944 74.1111L116.75 73.3056L116.722 72.7778L116 72z"/>
<path style="fill:#918f91; stroke:none;" d="M139 72L140 73L139 72M152 72L153 73L152 72z"/>
<path style="fill:#2c2e2f; stroke:none;" d="M190 72L190 78L190 80L190 81L190 83L190.028 83.9722L190.278 85.6667L190.667 86.2778L190.861 86.6389L192 87L191.417 84.9444L191.083 83L191 81L191 79L191 77L191 76L190.972 75.0278L190.944 74.1111L190.75 73.3056L190.722 72.7778L190 72z"/>
<path style="fill:#4c4b4e; stroke:none;" d="M192 72L192 87L192.722 86.2222L192.75 85.6944L192.944 84.8889L192.972 83.9722L193 83L193 82L193 80L193 78L193 77L192.972 75.0278L192.944 74.1111L192.75 73.3056L192.722 72.7778L192 72z"/>
<path style="fill:#c1c1c3; stroke:none;" d="M207 72L208 73L207 72z"/>
<path style="fill:#080808; stroke:none;" d="M242 72L242 81L244 81L244 72L242 72z"/>
<path style="fill:#c1c1c3; stroke:none;" d="M265 72L266 73L265 72z"/>
<path style="fill:#4e6d61; stroke:none;" d="M278 72L279 73L278 72z"/>
<path style="fill:#c1c1c3; stroke:none;" d="M152.333 73.6667L152.333 74L152.667 74.3333L152.667 73.6667L152.333 73.6667z"/>
<path style="fill:#7d8383; stroke:none;" d="M206 73L207 74L206 73z"/>
<path style="fill:#706f70; stroke:none;" d="M266 73L267 74L266 73z"/>
<path style="fill:#a3a3a4; stroke:none;" d="M278.333 73.6667L278.333 74.3333L278.667 74.3333L278.667 73.6667L278.333 73.6667z"/>
<path style="fill:#c1c1c3; stroke:none;" d="M139 74L140 75L139 74z"/>
<path style="fill:#4c4b4e; stroke:none;" d="M152 75L153 76L152 75z"/>
<path style="fill:#a3a3a4; stroke:none;" d="M204 75L205 76L204 75z"/>
<path style="fill:#2c2e2f; stroke:none;" d="M213 75L213 77L215 76L215 75L213 75z"/>
<path style="fill:#918f91; stroke:none;" d="M216 75L216.778 75.7222L217.25 75.75L218.056 75.9444L220 76L219.222 75.2778L218.75 75.25L217.944 75.0556L216 75z"/>
<path style="fill:#706f70; stroke:none;" d="M265 75L266 76L265 75z"/>
<path style="fill:#7d8383; stroke:none;" d="M138 76L139 77L138 76z"/>
<path style="fill:#918f91; stroke:none;" d="M153 76L154 77L153 76z"/>
<path style="fill:#080808; stroke:none;" d="M212 76L211.278 77.5L211.278 78.0278L211.167 78.9444L211.667 80.2778L211.861 80.6389L213 81L212.778 78.9722L212.778 78.0556L212.611 77.3056L212.667 76.7778L212 76z"/>
<path style="fill:#a3a3a4; stroke:none;" d="M214 76L213 78L214.083 77L214.417 76.6667L214 76z"/>
<path style="fill:#d3d5d5; stroke:none;" d="M219 76L219 79L219.694 78.25L219.694 77.1944L219.694 76.75L219 76z"/>
<path style="fill:#b4b0b3; stroke:none;" d="M264 76L265 77L264 76z"/>
<path style="fill:#4e6d61; stroke:none;" d="M279 76L280 77L279 76z"/>
<path style="fill:#c1c1c3; stroke:none;" d="M137 77L138 78L137 77z"/>
<path style="fill:#b4b0b3; stroke:none;" d="M154 77L155 78L154 77z"/>
<path style="fill:#a8b2b2; stroke:none;" d="M203 77L203 81L203.722 80.2222L203.722 79.7222L203.889 79L203.722 77.7778L203 77z"/>
<path style="fill:#918f91; stroke:none;" d="M280 77L281 78L280 77z"/>
<path style="fill:#4c4b4e; stroke:none;" d="M154 78L155 79L154 78z"/>
<path style="fill:#2c2e2f; stroke:none;" d="M212.333 78.6667L212.333 79.3333L212.667 79.3333L212.667 79L212.333 78.6667z"/>
<path style="fill:#706f70; stroke:none;" d="M263 78L264 79L263 78z"/>
<path style="fill:#080808; stroke:none;" d="M271 78L269.778 79.5L269.417 80.0556L268.194 82L267.639 83L267.083 83.9444L266.639 84.9444L266.333 85.5L266 87L267.222 86.6389L267.583 86.2778L268.222 85.6667L269.389 83.9722L270.583 82L271.444 80.1111L271.5 79.3056L271.639 78.7778L271 78z"/>
<path style="fill:#c1c1c3; stroke:none;" d="M281 78L282 79L281 78z"/>
<path style="fill:#7d8383; stroke:none;" d="M136 79L137 80L136 79z"/>
<path style="fill:#080808; stroke:none;" d="M144 79L142.944 80.5L142.611 81.0556L141.972 82.0556L140.917 83.9444L140.278 85.5L140 87L141.25 86.2222L141.639 85.6944L142.361 84.8889L143.583 83L144.444 81.1111L144.5 80.3056L144.639 79.7778L144 79z"/>
<path style="fill:#7d8383; stroke:none;" d="M155 79L156 80L155 79z"/>
<path style="fill:#b4b0b3; stroke:none;" d="M262 79L263 80L262 79z"/>
<path style="fill:#4c4b4e; stroke:none;" d="M281 79L282 80L281 79z"/>
<path style="fill:#c1c1c3; stroke:none;" d="M135 80L136 81L135 80z"/>
<path style="fill:#918f91; stroke:none;" d="M145.667 80.3333L145.667 80.6667L146.333 80.6667L146 80.3333L145.667 80.3333z"/>
<path style="fill:#b4b0b3; stroke:none;" d="M156 80L157 81L156 80z"/>
<path style="fill:#c1c1c3; stroke:none;" d="M163.333 80.6667L163.333 81.3333L163.667 81.3333L163.667 80.6667L163.333 80.6667z"/>
<path style="fill:#a3a3a4; stroke:none;" d="M173 80L174 81L173 80z"/>
<path style="fill:#d3d5d5; stroke:none;" d="M177 80L177.722 80.7222L178.25 80.75L180 81L179.278 80.2778L178.75 80.25L177 80z"/>
<path style="fill:#a3a3a4; stroke:none;" d="M213 80L214 81L213 80z"/>
<path style="fill:#918f91; stroke:none;" d="M218 80L219 81L218 80z"/>
<path style="fill:#706f70; stroke:none;" d="M271 80L272 81L271 80z"/>
<path style="fill:#b4b0b3; stroke:none;" d="M272 80L273 81L272 80z"/>
<path style="fill:#918f91; stroke:none;" d="M282 80L283 81L282 80M299 80L300 81L299 80z"/>
<path style="fill:#d3d5d5; stroke:none;" d="M303 80L303.778 80.7222L304.25 80.75L305.056 80.9444L307 81L306.222 80.2778L305.75 80.25L304.944 80.0556L303 80z"/>
<path style="fill:#080808; stroke:none;" d="M128 81L128 87L130 87L130 81L128 81z"/>
<path style="fill:#b4b0b3; stroke:none;" d="M130 81L130 83.0556L130.028 84.0278L130.111 84.8889L130.278 85.6667L130.861 86.6389L132 87L131.417 84.9444L131.194 83.9722L130.778 82.3056L130.722 81.7778L130 81z"/>
<path style="fill:#4c4b4e; stroke:none;" d="M144 81L145 82L144 81M156 81L157 82L156 81z"/>
<path style="fill:#080808; stroke:none;" d="M178 81L178 86L180 86L180 81L178 81z"/>
<path style="fill:#2c2e2f; stroke:none;" d="M212.667 81.3333L212.667 81.6667L213.333 81.6667L213.333 81.3333L212.667 81.3333z"/>
<path style="fill:#7d8383; stroke:none;" d="M215.667 81.3333L216 81.6667L216.333 81.6667L216 81.3333L215.667 81.3333z"/>
<path style="fill:#2c2e2f; stroke:none;" d="M254 81L254 83.0556L254.028 84.0278L254.111 84.8889L254.278 85.6667L254.861 86.6389L256 87L255.5 84.9444L255.5 83.0556L256 81L254 81z"/>
<path style="fill:#7d8383; stroke:none;" d="M256 81L256 87L256.722 86.2222L256.75 85.6944L256.944 84.8889L256.944 83.1111L256.75 82.3056L256.722 81.7778L256 81z"/>
<path style="fill:#706f70; stroke:none;" d="M261 81L262 82L261 81z"/>
<path style="fill:#7d8383; stroke:none;" d="M273 81L274 82L273 81z"/>
<path style="fill:#c1c1c3; stroke:none;" d="M283 81L284 82L283 81z"/>
<path style="fill:#080808; stroke:none;" d="M304 81L304 86L306 86L306 81L304 81z"/>
<path style="fill:#b4b0b3; stroke:none;" d="M306 81L306 86L306.722 85.2222L306.75 84.6944L306.917 83.0833L306.75 82.3056L306.722 81.7778L306 81z"/>
<path style="fill:#7d8383; stroke:none;" d="M134 82L135 83L134 82z"/>
<path style="fill:#c1c1c3; stroke:none;" d="M144 82L145 83L144 82M147 82L148 83L147 82z"/>
<path style="fill:#7d8383; stroke:none;" d="M157 82L158 83L157 82z"/>
<path style="fill:#080808; stroke:none;" d="M255 82L255 86L255.722 85.2222L255.722 84.7222L255.889 84L255.722 82.7778L255 82z"/>
<path style="fill:#b4b0b3; stroke:none;" d="M260 82L261 83L260 82z"/>
<path style="fill:#918f91; stroke:none;" d="M270 82L271 83L270 82z"/>
<path style="fill:#4c4b4e; stroke:none;" d="M283 82L284 83L283 82z"/>
<path style="fill:#c1c1c3; stroke:none;" d="M73 83L74 84L73 83M133 83L134 84L133 83z"/>
<path style="fill:#7d8383; stroke:none;" d="M143 83L144 84L143 83M148 83L149 84L148 83z"/>
<path style="fill:#b4b0b3; stroke:none;" d="M158 83L159 84L158 83z"/>
<path style="fill:#7d8383; stroke:none;" d="M164 83L165 84L164 83z"/>
<path style="fill:#a8b2b2; stroke:none;" d="M204 83L205 84L204 83z"/>
<path style="fill:#2c2e2f; stroke:none;" d="M220 83L221 84L220 83z"/>
<path style="fill:#4c4b4e; stroke:none;" d="M269 83L270 84L269 83z"/>
<path style="fill:#b4b0b3; stroke:none;" d="M274 83L275 84L274 83z"/>
<path style="fill:#918f91; stroke:none;" d="M284 83L285 84L284 83z"/>
<path style="fill:#b4b0b3; stroke:none;" d="M290 83L291 84L290 83z"/>
<path style="fill:#a8b2b2; stroke:none;" d="M71 84L72 85L71 84z"/>
<path style="fill:#2c2e2f; stroke:none;" d="M142 84L143 85L142 84z"/>
<path style="fill:#4c4b4e; stroke:none;" d="M158 84L159 85L158 84z"/>
<path style="fill:#7d8383; stroke:none;" d="M205 84L206 85L205 84z"/>
<path style="fill:#080808; stroke:none;" d="M219 84L220 85L219 84z"/>
<path style="fill:#7d8383; stroke:none;" d="M259 84L260 85L259 84z"/>
<path style="fill:#b4b0b3; stroke:none;" d="M269 84L270 85L269 84z"/>
<path style="fill:#c1c1c3; stroke:none;" d="M285 84L286 85L285 84z"/>
<path style="fill:#706f70; stroke:none;" d="M291 84L292 85L291 84z"/>
<path style="fill:#918f91; stroke:none;" d="M69 85L70 86L69 85z"/>
<path style="fill:#7d8383; stroke:none;" d="M132 85L133 86L132 85z"/>
<path style="fill:#b4b0b3; stroke:none;" d="M142 85L143 86L142 85z"/>
<path style="fill:#a8b2b2; stroke:none;" d="M149 85L150 86L149 85z"/>
<path style="fill:#7d8383; stroke:none;" d="M159 85L160 86L159 85z"/>
<path style="fill:#a3a3a4; stroke:none;" d="M206 85L207 86L206 85z"/>
<path style="fill:#2c2e2f; stroke:none;" d="M217.667 85.3333L217.667 85.6667L218.333 85.6667L218 85.3333L217.667 85.3333z"/>
<path style="fill:#706f70; stroke:none;" d="M219 85L220 86L219 85z"/>
<path style="fill:#a3a3a4; stroke:none;" d="M221 85L222 86L221 85z"/>
<path style="fill:#b4b0b3; stroke:none;" d="M258 85L259 86L258 85z"/>
<path style="fill:#7d8383; stroke:none;" d="M268 85L269 86L268 85M292 85L293 86L292 85z"/>
<path style="fill:#d3d5d5; stroke:none;" d="M68 86L69 87L68 86z"/>
<path style="fill:#706f70; stroke:none;" d="M141 86L142 87L141 86z"/>
<path style="fill:#d3d5d5; stroke:none;" d="M160 86L161 87L160 86z"/>
<path style="fill:#c1c1c3; stroke:none;" d="M167 86L168 87L167 86z"/>
<path style="fill:#7d8383; stroke:none;" d="M168 86L169 87L168 86z"/>
<path style="fill:#a3a3a4; stroke:none;" d="M178 86L179 87L178 86M208 86L209 87L208 86z"/>
<path style="fill:#7d8383; stroke:none;" d="M217 86L218 87L217 86z"/>
<path style="fill:#d3d5d5; stroke:none;" d="M221 86L222 87L221 86z"/>
<path style="fill:#918f91; stroke:none;" d="M276 86L277 87L276 86z"/>
<path style="fill:#a3a3a4; stroke:none;" d="M286 86L287 87L286 86z"/>
<path style="fill:#918f91; stroke:none;" d="M294 86L295 87L294 86M304 86L305 87L304 86z"/>
<path style="fill:#d3d5d5; stroke:none;" d="M305 86L306 87L305 86z"/>
<path style="fill:#a3a3a4; stroke:none;" d="M31 87L32 88L31 87z"/>
<path style="fill:#c1c1c3; stroke:none;" d="M66 87L67 88L66 87z"/>
<path style="fill:#a3a3a4; stroke:none;" d="M80 87L81 88L80 87z"/>
<path style="fill:#a8b2b2; stroke:none;" d="M33 88L34 89L33 88M64 88L65 89L64 88z"/>
<path style="fill:#c1c1c3; stroke:none;" d="M78 88L79 89L78 88z"/>
<path style="fill:#d3d5d5; stroke:none;" d="M35 89L36 90L35 89z"/>
<path style="fill:#918f91; stroke:none;" d="M62 89L63 90L62 89z"/>
<path style="fill:#d3d5d5; stroke:none;" d="M76 89L77 90L76 89z"/>
<path style="fill:#918f91; stroke:none;" d="M36 90L37 91L36 90z"/>
<path style="fill:#d3d5d5; stroke:none;" d="M61 90L62 91L61 90z"/>
<path style="fill:#918f91; stroke:none;" d="M75 90L76 91L75 90z"/>
<path style="fill:#a3a3a4; stroke:none;" d="M38 91L39 92L38 91z"/>
<path style="fill:#a8b2b2; stroke:none;" d="M59 91L60 92L59 91M73 91L74 92L73 91z"/>
<path style="fill:#c1c1c3; stroke:none;" d="M40 92L41 93L40 92z"/>
<path style="fill:#a3a3a4; stroke:none;" d="M57 92L58 93L57 92z"/>
<path style="fill:#c1c1c3; stroke:none;" d="M71 92L72 93L71 92M24 94L25 95L24 94z"/>
<path style="fill:#918f91; stroke:none;" d="M43 94L44 95L43 94z"/>
<path style="fill:#a3a3a4; stroke:none;" d="M68 94L69 95L68 94z"/>
<path style="fill:#c1c1c3; stroke:none;" d="M87 94L88 95L87 94z"/>
<path style="fill:#a3a3a4; stroke:none;" d="M26 95L27 96L26 95z"/>
<path style="fill:#a8b2b2; stroke:none;" d="M45 95L46 96L45 95M66 95L67 96L66 95M85 95L86 96L85 95z"/>
<path style="fill:#918f91; stroke:none;" d="M28 96L29 97L28 96z"/>
<path style="fill:#c1c1c3; stroke:none;" d="M47 96L48 97L47 96z"/>
<path style="fill:#d3d5d5; stroke:none;" d="M64 96L65 97L64 96z"/>
<path style="fill:#918f91; stroke:none;" d="M83 96L84 97L83 96z"/>
<path style="fill:#d3d5d5; stroke:none;" d="M29 97L30 98L29 97z"/>
<path style="fill:#7d8383; stroke:none;" d="M48 97L49 98L48 97z"/>
<path style="fill:#918f91; stroke:none;" d="M63 97L64 98L63 97z"/>
<path style="fill:#d3d5d5; stroke:none;" d="M82 97L83 98L82 97z"/>
<path style="fill:#c1c1c3; stroke:none;" d="M31 98L32 99L31 98z"/>
<path style="fill:#a3a3a4; stroke:none;" d="M50 98L51 99L50 98z"/>
<path style="fill:#a8b2b2; stroke:none;" d="M61 98L62 99L61 98z"/>
<path style="fill:#c1c1c3; stroke:none;" d="M80 98L81 99L80 98z"/>
<path style="fill:#a3a3a4; stroke:none;" d="M33 99L34 100L33 99z"/>
<path style="fill:#c1c1c3; stroke:none;" d="M52 99L53 100L52 99M59 99L60 100L59 99z"/>
<path style="fill:#a8b2b2; stroke:none;" d="M78 99L79 100L78 99z"/>
<path style="fill:#918f91; stroke:none;" d="M35 100L36 101L35 100z"/>
<path style="fill:#7d8383; stroke:none;" d="M52 100L52 102.056L52 103.056L52 104L51.9167 106L51.7778 106.944L51.5833 107.944L51 110L52.1389 109.639L52.7222 108.667L52.8889 107.889L52.9722 106.972L53 105L52.9722 103.028L52.9444 102.111L52.75 101.306L52.7222 100.778L52 100z"/>
<path style="fill:#918f91; stroke:none;" d="M59 100L59 104L59 106L59.1111 107.889L59.2778 108.667L59.8611 109.639L61 110L60.4167 107.944L60.0833 106L60 104L59.9722 103.028L59.9444 102.111L59.75 101.306L59.7222 100.778L59 100M76 100L77 101L76 100z"/>
<path style="fill:#d3d5d5; stroke:none;" d="M126 100L127 101L126 100z"/>
<path style="fill:#918f91; stroke:none;" d="M127 100L127 102L129 101L129 100L127 100z"/>
<path style="fill:#2c2e2f; stroke:none;" d="M129 100L130 101L129 100z"/>
<path style="fill:#a3a3a4; stroke:none;" d="M105 101L105 112L105.722 111.222L105.75 110.694L105.944 109.889L105.972 108.972L106 107L106 105L105.972 104.028L105.944 103.111L105.75 102.306L105.722 101.778L105 101z"/>
<path style="fill:#080808; stroke:none;" d="M106 101L106.778 101.722L107.306 101.75L108.056 101.944L108.972 101.972L111 102L110.222 101.278L109.694 101.25L108.944 101.056L108.028 101.028L106 101z"/>
<path style="fill:#706f70; stroke:none;" d="M111 101L112 102L111 101z"/>
<path style="fill:#2c2e2f; stroke:none;" d="M125 101L124 103L125.083 102L125.417 101.667L125 101z"/>
<path style="fill:#4e6d61; stroke:none;" d="M126 101L127 102L126 101z"/>
<path style="fill:#d3d5d5; stroke:none;" d="M128.667 101.333L129 101.667L129.333 101.667L129 101.333L128.667 101.333z"/>
<path style="fill:#4c4b4e; stroke:none;" d="M311 101L311 102L313 103L312 101L311 101z"/>
<path style="fill:#c1c1c3; stroke:none;" d="M312 101L313 102L312 101z"/>
<path style="fill:#4c4b4e; stroke:none;" d="M315 101L316 102L315 101z"/>
<path style="fill:#c1c1c3; stroke:none;" d="M316 101L317 102L316 101z"/>
<path style="fill:#d3d5d5; stroke:none;" d="M351 101L351 112L351.722 111.222L351.75 110.694L351.944 109.889L351.972 108.972L352 108L352 106L351.972 104.028L351.944 103.111L351.75 102.306L351.722 101.778L351 101z"/>
<path style="fill:#080808; stroke:none;" d="M352 101L352 112L357 112L356.222 111.278L355.75 111.25L354.944 111.056L353 111L353 107L357 107L356.222 106.278L355.75 106.25L354.944 106.056L353 106L353 102L357 102L356.222 101.278L355.694 101.25L354.944 101.056L354.028 101.028L352 101z"/>
<path style="fill:#706f70; stroke:none;" d="M357 101L358 102L357 101z"/>
<path style="fill:#d3d5d5; stroke:none;" d="M372 101L372 113L372.722 112.222L372.75 111.694L372.944 110.889L372.972 109.972L373 109L373 107L373 105L372.972 104.028L372.944 103.111L372.75 102.306L372.722 101.778L372 101z"/>
<path style="fill:#080808; stroke:none;" d="M373 101L373 112L373.722 111.222L373.75 110.694L373.944 109.889L373.972 108.972L374 108L374 106L373.972 104.028L373.944 103.111L373.75 102.306L373.722 101.778L373 101z"/>
<path style="fill:#c1c1c3; stroke:none;" d="M38 102L39 103L38 102M73 102L74 103L73 102z"/>
<path style="fill:#706f70; stroke:none;" d="M106 102L106 106L106.722 105.222L106.889 104L106.722 103.278L106.722 102.778L106 102z"/>
<path style="fill:#c1c1c3; stroke:none;" d="M125 102L126 103L125 102z"/>
<path style="fill:#d3d5d5; stroke:none;" d="M311 102L312 103L311 102z"/>
<path style="fill:#080808; stroke:none;" d="M313.667 102.333L314 102.667L314.333 102.667L314 102.333L313.667 102.333z"/>
<path style="fill:#918f91; stroke:none;" d="M315 102L316 103L315 102z"/>
<path style="fill:#d3d5d5; stroke:none;" d="M367 102L368 103L367 102z"/>
<path style="fill:#a3a3a4; stroke:none;" d="M368 102L367 104L369 104L369 102L368 102M40 103L41 104L40 103z"/>
<path style="fill:#a8b2b2; stroke:none;" d="M71 103L72 104L71 103z"/>
<path style="fill:#b4b0b3; stroke:none;" d="M123 103L124 104L123 103z"/>
<path style="fill:#4e6d61; stroke:none;" d="M124 103L125 104L124 103z"/>
<path style="fill:#918f91; stroke:none;" d="M42 104L43 105L42 104M69 104L70 105L69 104z"/>
<path style="fill:#706f70; stroke:none;" d="M114 104L114 112L115.389 111.472L115.722 111.139L116.639 110.222L117 109L115.5 109.167L115 108L115 106L114.833 105.167L114.833 104.5L114 104z"/>
<path style="fill:#a3a3a4; stroke:none;" d="M115 104L115 110L115.722 109.222L115.75 108.694L115.944 107.889L115.944 106.111L115.75 105.306L115.722 104.778L115 104z"/>
<path style="fill:#918f91; stroke:none;" d="M119 104L120 105L119 104z"/>
<path style="fill:#080808; stroke:none;" d="M120 104L121 105L120 104z"/>
<path style="fill:#d3d5d5; stroke:none;" d="M121 104L121 112L121.722 111.222L121.75 110.694L121.944 109.889L122 108L121.972 107.028L121.944 106.111L121.75 105.306L121.722 104.778L121 104z"/>
<path style="fill:#706f70; stroke:none;" d="M123 104L123 109L123.722 108.222L123.75 107.694L123.917 106.083L123.75 105.306L123.722 104.778L123 104z"/>
<path style="fill:#a3a3a4; stroke:none;" d="M124 104L124 105L126 106L126 104L124 104z"/>
<path style="fill:#2c2e2f; stroke:none;" d="M126 104L127 105L126 104z"/>
<path style="fill:#080808; stroke:none;" d="M127 104L128 105L127 104z"/>
<path style="fill:#918f91; stroke:none;" d="M128.333 104.667L128.333 105L128.667 105.333L128.667 104.667L128.333 104.667z"/>
<path style="fill:#706f70; stroke:none;" d="M133.333 104.667L133.333 105L133.667 105.333L133.667 104.667L133.333 104.667z"/>
<path style="fill:#080808; stroke:none;" d="M134 104L134.722 104.722L135.25 104.75L137 105L137 112L137.722 111.222L137.75 110.694L137.944 109.889L137.972 108.972L138 107.056L138 106.056L138 104L134 104z"/>
<path style="fill:#706f70; stroke:none;" d="M140 104L140 112L141.389 111.472L141.722 111.139L142.639 110.222L143 109L141.5 109.167L141 108L141 106L140.833 105.167L140.833 104.5L140 104z"/>
<path style="fill:#a3a3a4; stroke:none;" d="M141 104L141 110L141.722 109.222L141.75 108.694L141.944 107.889L141.944 106.111L141.75 105.306L141.722 104.778L141 104z"/>
<path style="fill:#918f91; stroke:none;" d="M145 104L146 105L145 104z"/>
<path style="fill:#080808; stroke:none;" d="M146 104L147 105L146 104z"/>
<path style="fill:#d3d5d5; stroke:none;" d="M147 104L147 112L147.722 111.222L147.75 110.694L147.944 109.889L147.972 108.972L148 108L147.944 106.111L147.75 105.306L147.722 104.778L147 104z"/>
<path style="fill:#c1c1c3; stroke:none;" d="M150 104L150 105L152 106L152 105L150 104z"/>
<path style="fill:#4e6d61; stroke:none;" d="M151 104L152 105L151 104z"/>
<path style="fill:#080808; stroke:none;" d="M152 104L153 105L152 104z"/>
<path style="fill:#2c2e2f; stroke:none;" d="M153 104L154 105L153 104z"/>
<path style="fill:#7d8383; stroke:none;" d="M154 104L154 106L156 106L155 104L154 104z"/>
<path style="fill:#706f70; stroke:none;" d="M157 104L158 105L157 104z"/>
<path style="fill:#080808; stroke:none;" d="M158 104L158.667 105.083L158.972 105.472L159.694 107.083L159.889 108.028L159.972 108.944L160 109.944L160 112L160.722 111.222L160.75 110.694L160.944 109.889L161 108.972L161.278 107.111L161.861 105.778L163 105L162.222 104.278L161.694 104.25L160.944 104.056L160.028 104.028L158 104z"/>
<path style="fill:#706f70; stroke:none;" d="M163 104L164 105L163 104z"/>
<path style="fill:#918f91; stroke:none;" d="M166 104L165 106L167 106L167 104L166 104z"/>
<path style="fill:#080808; stroke:none;" d="M167.667 104.333L168 104.667L168.333 104.667L168 104.333L167.667 104.333z"/>
<path style="fill:#706f70; stroke:none;" d="M169 104L170 105L169 104M173 104L173 112L173.75 111.222L173.833 110.694L174.139 109.889L174.389 108L174.25 106.111L173.944 105.306L173.806 104.778L173 104z"/>
<path style="fill:#a3a3a4; stroke:none;" d="M174 104L174 107L174.694 106.25L174.694 105.194L174.694 104.75L174 104z"/>
<path style="fill:#b4b0b3; stroke:none;" d="M177 104L178 105L177 104z"/>
<path style="fill:#4e6d61; stroke:none;" d="M178 104L179 105L178 104z"/>
<path style="fill:#c1c1c3; stroke:none;" d="M181.333 104.667L181.333 105L181.667 105.333L181.667 105L181.333 104.667z"/>
<path style="fill:#4e6d61; stroke:none;" d="M182 104L183 105L182 104z"/>
<path style="fill:#080808; stroke:none;" d="M183.667 104.333L184 104.667L184.333 104.667L184 104.333L183.667 104.333z"/>
<path style="fill:#918f91; stroke:none;" d="M185 104L186 105L185 104z"/>
<path style="fill:#a3a3a4; stroke:none;" d="M192 104L192 112L192.722 111.222L192.75 110.694L192.944 109.889L193 108L192.972 107.028L192.944 106.111L192.75 105.306L192.722 104.778L192 104z"/>
<path style="fill:#080808; stroke:none;" d="M193 104L193.778 104.722L194.25 104.75L195.056 104.944L197 105L196.222 104.278L195.75 104.25L194.944 104.056L193 104z"/>
<path style="fill:#a3a3a4; stroke:none;" d="M197 104L198 105L197 104z"/>
<path style="fill:#918f91; stroke:none;" d="M200.333 104.667L200.333 105L200.667 105.333L200.667 105L200.333 104.667z"/>
<path style="fill:#080808; stroke:none;" d="M201.667 104.333L202 104.667L202.333 104.667L202.333 104.333L201.667 104.333z"/>
<path style="fill:#a3a3a4; stroke:none;" d="M203.333 104.667L203.333 105L203.667 105.333L203.667 104.667L203.333 104.667M206 104L207 105L206 104z"/>
<path style="fill:#080808; stroke:none;" d="M207 104L207.667 105.083L207.972 105.472L208.694 107.083L208.889 108.028L208.972 108.944L209 109.944L209 112L209.722 111.222L209.75 110.694L209.944 109.889L210.111 108.028L210.667 106.333L211.611 105.361L213 105L212.222 104.278L211.694 104.25L210.889 104.056L210.028 104.028L209.056 104L207 104z"/>
<path style="fill:#a3a3a4; stroke:none;" d="M215 104L214 106L215.083 105L215.417 104.667L215 104z"/>
<path style="fill:#4c4b4e; stroke:none;" d="M216 104L215 106L216.083 105L216.417 104.667L216 104z"/>
<path style="fill:#080808; stroke:none;" d="M217 104L218 105L217 104z"/>
<path style="fill:#4c4b4e; stroke:none;" d="M218 104L219 105L218 104z"/>
<path style="fill:#a3a3a4; stroke:none;" d="M219 104L220 105L219 104z"/>
<path style="fill:#080808; stroke:none;" d="M223 104L223 112L227 112L226.25 111.167L225.806 110.917L224.694 109.75L224.361 109.389L224 108L228 108L227.222 107.278L226.75 107.25L225.944 107.056L224 107L224 105L228 105L227.222 104.278L226.694 104.25L225.944 104.056L225.028 104.028L223 104z"/>
<path style="fill:#706f70; stroke:none;" d="M228 104L228 105.5L228.056 107.028L228.139 107.917L228.194 109.528L228 111L229.139 110.639L229.639 109.667L229.583 107.972L229.167 106.111L228.833 105.306L228.75 104.778L228 104M231 104L231 112L231.722 111.222L231.75 110.694L231.944 109.889L231.972 108.972L232 108L231.944 106.111L231.75 105.306L231.722 104.778L231 104z"/>
<path style="fill:#a3a3a4; stroke:none;" d="M232 104L232 107L232.694 106.25L232.694 105.194L232.694 104.75L232 104z"/>
<path style="fill:#080808; stroke:none;" d="M239 104L239 112L239.722 111.222L239.75 110.694L239.944 109.889L239.972 108.972L240 108L239.944 106.111L239.75 105.306L239.722 104.778L239 104z"/>
<path style="fill:#d3d5d5; stroke:none;" d="M240 104L240 112L240.722 111.222L240.75 110.694L240.944 109.889L240.972 108.972L241 108L240.944 106.111L240.75 105.306L240.722 104.778L240 104z"/>
<path style="fill:#4c4b4e; stroke:none;" d="M242 104L243 105L242 104z"/>
<path style="fill:#b4b0b3; stroke:none;" d="M243 104L244 105L243 104z"/>
<path style="fill:#2c2e2f; stroke:none;" d="M247 104L248 105L247 104z"/>
<path style="fill:#c1c1c3; stroke:none;" d="M248 104L249 105L248 104z"/>
<path style="fill:#d3d5d5; stroke:none;" d="M253 104L253 116L253.722 115.222L253.75 114.694L253.944 113.889L253.972 112.972L254 112L254 110L254 108L253.972 107.028L253.944 106.111L253.75 105.306L253.722 104.778L253 104z"/>
<path style="fill:#4e6d61; stroke:none;" d="M254 104L255 105L254 104z"/>
<path style="fill:#c1c1c3; stroke:none;" d="M255 104L256 105L255 104z"/>
<path style="fill:#4c4b4e; stroke:none;" d="M256 104L257 105L256 104z"/>
<path style="fill:#080808; stroke:none;" d="M257 104L258 105L257 104z"/>
<path style="fill:#4c4b4e; stroke:none;" d="M258 104L259 105L258 104z"/>
<path style="fill:#c1c1c3; stroke:none;" d="M259 104L260 105L259 104z"/>
<path style="fill:#706f70; stroke:none;" d="M264 104L265 105L264 104z"/>
<path style="fill:#080808; stroke:none;" d="M265.667 104.333L266 104.667L266.333 104.667L266 104.333L265.667 104.333z"/>
<path style="fill:#7d8383; stroke:none;" d="M267 104L267 106L269 106L268 104L267 104z"/>
<path style="fill:#d3d5d5; stroke:none;" d="M270 104L269.778 105.5L269.611 107.056L269.611 108L269.806 109.944L269.917 110.5L270 112L270.722 111.222L270.75 110.694L270.944 109.889L270.972 108.972L271 108L270.944 106.111L270.75 105.306L270.722 104.778L270 104z"/>
<path style="fill:#080808; stroke:none;" d="M271 104L271 112L281 112L280.222 111.278L279.694 111.25L278.889 111.056L277.972 111.028L276 111L275.056 111L272 111L272 108.944L272 107.944L271.972 107.028L271.944 106.111L271.75 105.306L271.722 104.778L271 104z"/>
<path style="fill:#a3a3a4; stroke:none;" d="M275 104L275 111L275.722 110.222L275.75 109.694L275.944 108.889L275.972 107.972L275.944 106.111L275.75 105.306L275.722 104.778L275 104z"/>
<path style="fill:#706f70; stroke:none;" d="M276 104L276 111L276.722 110.222L276.75 109.694L276.944 108.889L276.972 107.972L276.944 106.111L276.75 105.306L276.722 104.778L276 104M280 104L280 111L280.722 110.222L280.75 109.694L280.944 108.889L280.972 107.972L280.944 106.111L280.75 105.306L280.722 104.778L280 104z"/>
<path style="fill:#a3a3a4; stroke:none;" d="M281 104L281 112L281.722 111.222L281.75 110.694L281.944 109.889L282 108L281.972 107.028L281.944 106.111L281.75 105.306L281.722 104.778L281 104z"/>
<path style="fill:#706f70; stroke:none;" d="M285 104L286 105L285 104z"/>
<path style="fill:#080808; stroke:none;" d="M286.667 104.333L286.667 104.667L287.333 104.667L287.333 104.333L286.667 104.333z"/>
<path style="fill:#7d8383; stroke:none;" d="M288 104L288 106L290 106L289 104L288 104z"/>
<path style="fill:#080808; stroke:none;" d="M292 104L292 112L292.722 111.222L292.75 110.75L292.944 109.944L293 108L298 108L298 112L298.722 111.222L298.75 110.694L298.944 109.889L298.972 108.972L299 107.056L299 106.056L299 104L298.278 104.722L298.25 105.25L298 107L295.972 106.889L295.056 106.667L294.306 106.306L293.083 105.194L292.833 104.75L292 104z"/>
<path style="fill:#d3d5d5; stroke:none;" d="M293 104L293 107L293.694 106.25L293.694 105.194L293.694 104.75L293 104M297 104L297 107L297.694 106.25L297.694 105.194L297.694 104.75L297 104z"/>
<path style="fill:#080808; stroke:none;" d="M301 104L301 112L301.722 111.222L301.75 110.694L301.944 109.889L301.972 108.972L302 108L301.944 106.111L301.75 105.306L301.722 104.778L301 104z"/>
<path style="fill:#d3d5d5; stroke:none;" d="M302 104L302 110L303.056 109.222L303.111 108.694L303.333 107.889L303.139 106.111L302.833 105.306L302.75 104.778L302 104z"/>
<path style="fill:#706f70; stroke:none;" d="M306.333 104.667L306.333 105.333L306.667 105.333L306.667 104.667L306.333 104.667z"/>
<path style="fill:#080808; stroke:none;" d="M307 104L307 112L307.722 111.222L307.75 110.694L307.944 109.889L307.972 108.972L308 108L307.944 106.111L307.75 105.306L307.722 104.778L307 104z"/>
<path style="fill:#706f70; stroke:none;" d="M310 104L310 112L311.389 111.472L311.722 111.139L312.639 110.222L313 109L311.5 109.167L311 108L311 106L310.833 105.167L310.833 104.5L310 104z"/>
<path style="fill:#a3a3a4; stroke:none;" d="M311 104L311 110L311.722 109.222L311.75 108.694L311.944 107.889L311.944 106.111L311.75 105.306L311.722 104.778L311 104z"/>
<path style="fill:#918f91; stroke:none;" d="M315 104L316 105L315 104z"/>
<path style="fill:#080808; stroke:none;" d="M316 104L317 105L316 104z"/>
<path style="fill:#d3d5d5; stroke:none;" d="M317 104L317 112L317.722 111.222L317.75 110.694L317.944 109.889L317.972 108.972L318 108L317.944 106.111L317.75 105.306L317.722 104.778L317 104z"/>
<path style="fill:#080808; stroke:none;" d="M325 107L326.028 106.333L326.806 105.667L328 105L328 111L323 111L323.778 111.722L324.306 111.75L326 112.083L327.667 112.667L328.639 113.611L329 115L329.722 114.222L329.722 113.694L329.861 112.889L329.611 111L329.222 109L329.083 108L329 106.056L329 104L327.528 104.028L326.278 104.333L325.722 104.667L325.111 105.611L325 107z"/>
<path style="fill:#d3d5d5; stroke:none;" d="M332.333 104.667L332.333 105.333L332.667 105.333L332.667 104.667L332.333 104.667z"/>
<path style="fill:#080808; stroke:none;" d="M333 104L333.778 104.722L334.25 104.75L335.056 104.944L337 105L336.222 104.278L335.75 104.25L334.944 104.056L333 104z"/>
<path style="fill:#a3a3a4; stroke:none;" d="M337 104L337 112L337.722 111.222L337.75 110.694L337.944 109.889L337.972 108.972L338 108L337.944 106.111L337.75 105.306L337.722 104.778L337 104z"/>
<path style="fill:#7d8383; stroke:none;" d="M340 104L339.306 105.5L339.306 107L339.306 107.5L340 109L340.667 108.25L340.611 107.778L340.778 107.111L340.778 105.722L340.611 105.083L340.667 104.694L340 104z"/>
<path style="fill:#080808; stroke:none;" d="M341 104L341.778 104.722L342.25 104.75L343.056 104.944L345 105L344.222 104.278L343.75 104.25L342.944 104.056L341 104z"/>
<path style="fill:#a3a3a4; stroke:none;" d="M345 104L345 112L345.722 111.222L345.75 110.694L345.944 109.889L345.972 108.972L346 108L345.944 106.111L345.75 105.306L345.722 104.778L345 104z"/>
<path style="fill:#7d8383; stroke:none;" d="M359.667 104.333L359.667 104.667L360.333 104.667L360 104.333L359.667 104.333z"/>
<path style="fill:#4e6d61; stroke:none;" d="M364.333 104.667L364.333 105.333L364.667 105.333L364.667 104.667L364.333 104.667z"/>
<path style="fill:#918f91; stroke:none;" d="M365.667 104.333L366 104.667L366.333 104.667L366 104.333L365.667 104.333z"/>
<path style="fill:#080808; stroke:none;" d="M367 104L367.778 104.722L368.25 104.75L369.056 104.944L371 105L370.222 104.278L369.75 104.25L368.944 104.056L367 104z"/>
<path style="fill:#c1c1c3; stroke:none;" d="M376 104L377 105L376 104z"/>
<path style="fill:#4c4b4e; stroke:none;" d="M377 104L378 105L377 104z"/>
<path style="fill:#080808; stroke:none;" d="M378.667 104.333L378.667 104.667L379.333 104.667L379.333 104.333L378.667 104.333z"/>
<path style="fill:#706f70; stroke:none;" d="M380 104L381 105L380 104z"/>
<path style="fill:#d3d5d5; stroke:none;" d="M118 105L119 106L118 105z"/>
<path style="fill:#4c4b4e; stroke:none;" d="M118 107L119 107L121 106L120.25 105.389L119.806 105.528L118.75 105.889L118 107z"/>
<path style="fill:#2c2e2f; stroke:none;" d="M124 105L125 106L124 105z"/>
<path style="fill:#4e6d61; stroke:none;" d="M129 105L130 106L129 105z"/>
<path style="fill:#d3d5d5; stroke:none;" d="M134.333 105.667L134.333 106L134.667 106.333L134.667 106L134.333 105.667M136 105L136 112L136.722 111.222L136.75 110.694L136.944 109.889L136.972 108.972L136.944 107.111L136.75 106.306L136.722 105.778L136 105M144 105L145 106L144 105z"/>
<path style="fill:#4c4b4e; stroke:none;" d="M144 107L146 106L147 106L146.25 105.389L145.806 105.528L144.75 105.889L144 107z"/>
<path style="fill:#d3d5d5; stroke:none;" d="M149 105L150 106L149 105z"/>
<path style="fill:#080808; stroke:none;" d="M150 105L151 106L150 105z"/>
<path style="fill:#d3d5d5; stroke:none;" d="M159 105L159 112L159.722 111.222L159.75 110.694L159.944 109.889L159.972 108.972L159.944 107.111L159.75 106.306L159.722 105.778L159 105z"/>
<path style="fill:#a3a3a4; stroke:none;" d="M169 105L170 106L169 105z"/>
<path style="fill:#2c2e2f; stroke:none;" d="M170 105L171 106L170 105z"/>
<path style="fill:#c1c1c3; stroke:none;" d="M176 105L177 106L176 105z"/>
<path style="fill:#4c4b4e; stroke:none;" d="M177 105L178 106L177 105M185 105L186 106L185 105z"/>
<path style="fill:#b4b0b3; stroke:none;" d="M186 105L187 106L186 105z"/>
<path style="fill:#706f70; stroke:none;" d="M193 105L193 112L193.722 111.222L193.75 110.694L193.944 109.889L193.972 108.972L193.944 107.111L193.75 106.306L193.722 105.778L193 105z"/>
<path style="fill:#2c2e2f; stroke:none;" d="M199 105L200 106L199 105M204 105L205 106L204 105z"/>
<path style="fill:#d3d5d5; stroke:none;" d="M210 105L210 112L210.722 111.222L210.75 110.694L210.944 109.889L210.972 108.972L210.944 107.111L210.75 106.306L210.722 105.778L210 105M216 105L217 106L216 105M218 105L219 106L218 105z"/>
<path style="fill:#4e6d61; stroke:none;" d="M219 105L220 106L219 105z"/>
<path style="fill:#918f91; stroke:none;" d="M220 105L221 106L220 105z"/>
<path style="fill:#d3d5d5; stroke:none;" d="M224.333 105.667L224.333 106L224.667 106.333L224.667 106L224.333 105.667z"/>
<path style="fill:#b4b0b3; stroke:none;" d="M229.333 105.667L229.333 106L229.667 106.333L229.667 106L229.333 105.667z"/>
<path style="fill:#d3d5d5; stroke:none;" d="M242 105L243 106L242 105z"/>
<path style="fill:#2c2e2f; stroke:none;" d="M243 105L244 106L243 105z"/>
<path style="fill:#4e6d61; stroke:none;" d="M246.333 105.667L246.333 106L246.667 106.333L246.667 105.667L246.333 105.667z"/>
<path style="fill:#918f91; stroke:none;" d="M247 105L248 106L247 105z"/>
<path style="fill:#080808; stroke:none;" d="M254 105L254 116L254.722 115.222L254.75 114.694L254.944 113.889L254.972 112.972L255 111L255 109L254.972 108.028L254.944 107.111L254.75 106.306L254.722 105.778L254 105z"/>
<path style="fill:#706f70; stroke:none;" d="M255 105L256 106L255 105z"/>
<path style="fill:#b4b0b3; stroke:none;" d="M258 105L259 106L258 105z"/>
<path style="fill:#080808; stroke:none;" d="M259 105L260 106L259 105z"/>
<path style="fill:#d3d5d5; stroke:none;" d="M260 105L261 106L260 105z"/>
<path style="fill:#2c2e2f; stroke:none;" d="M263 105L264 106L263 105z"/>
<path style="fill:#b4b0b3; stroke:none;" d="M264 105L265 106L264 105z"/>
<path style="fill:#2c2e2f; stroke:none;" d="M284 105L285 106L284 105z"/>
<path style="fill:#b4b0b3; stroke:none;" d="M285 105L286 106L285 105z"/>
<path style="fill:#a3a3a4; stroke:none;" d="M305 105L306 106L305 105z"/>
<path style="fill:#d3d5d5; stroke:none;" d="M314 105L315 106L314 105z"/>
<path style="fill:#4c4b4e; stroke:none;" d="M314 107L315 107L317 106L316.25 105.389L315.806 105.528L314.75 105.889L314 107z"/>
<path style="fill:#706f70; stroke:none;" d="M333.333 105.667L333.333 106.333L333.667 106.333L333.667 105.667L333.333 105.667M336 105L336 112L336.722 111.222L336.75 110.694L336.944 109.889L336.972 108.972L336.944 107.111L336.75 106.306L336.722 105.778L336 105M344 105L344 108L344.694 107.25L344.694 106.194L344.694 105.75L344 105z"/>
<path style="fill:#2c2e2f; stroke:none;" d="M360 105L360 106L362 107L361 105L360 105z"/>
<path style="fill:#c1c1c3; stroke:none;" d="M361 105L361 106L363 107L362 105L361 105z"/>
<path style="fill:#a3a3a4; stroke:none;" d="M363 105L364 106L363 105z"/>
<path style="fill:#706f70; stroke:none;" d="M367 105L367 109L367.722 108.222L367.722 107.722L367.889 107L367.722 105.778L367 105z"/>
<path style="fill:#a3a3a4; stroke:none;" d="M368 105L367.917 106.5L367.778 107.056L367.611 108L367.25 109.5L367 111L368.139 110.222L368.333 109.694L368.722 108.889L368.917 107.111L368.75 106.306L368.722 105.778L368 105z"/>
<path style="fill:#080808; stroke:none;" d="M376.333 105.667L376.333 106.333L376.667 106.333L376.667 105.667L376.333 105.667z"/>
<path style="fill:#c1c1c3; stroke:none;" d="M380 105L381 106L380 105M45 106L46 107L45 106M66 106L67 107L66 106z"/>
<path style="fill:#080808; stroke:none;" d="M106 106L106.778 106.722L107.25 106.75L108.056 106.944L110 107L109.222 106.278L108.75 106.25L107.944 106.056L106 106z"/>
<path style="fill:#918f91; stroke:none;" d="M110.333 106.667L110.333 107.333L110.667 107.333L110.667 107L110.333 106.667z"/>
<path style="fill:#d3d5d5; stroke:none;" d="M111 106L112 107L111 106z"/>
<path style="fill:#c1c1c3; stroke:none;" d="M119 106L120 107L119 106z"/>
<path style="fill:#080808; stroke:none;" d="M120 106L120 112L120.722 111.222L120.75 110.694L120.944 109.889L120.944 108.111L120.75 107.306L120.722 106.778L120 106z"/>
<path style="fill:#c1c1c3; stroke:none;" d="M124 106L124 109L124.694 108.25L124.694 107.194L124.694 106.75L124 106z"/>
<path style="fill:#080808; stroke:none;" d="M129 106L129 110L129.722 109.222L129.722 108.722L129.889 108L129.722 106.778L129 106z"/>
<path style="fill:#d3d5d5; stroke:none;" d="M130 106L130 109L130.694 108.25L130.694 107.194L130.694 106.75L130 106z"/>
<path style="fill:#2c2e2f; stroke:none;" d="M133 106L134 107L133 106z"/>
<path style="fill:#c1c1c3; stroke:none;" d="M145 106L146 107L145 106z"/>
<path style="fill:#080808; stroke:none;" d="M146 106L146 112L146.722 111.222L146.75 110.694L146.944 109.889L146.944 108.111L146.75 107.306L146.722 106.778L146 106z"/>
<path style="fill:#918f91; stroke:none;" d="M149.667 106.333L150 106.667L150.333 106.667L150 106.333L149.667 106.333z"/>
<path style="fill:#080808; stroke:none;" d="M155 106L156 107L155 106z"/>
<path style="fill:#d3d5d5; stroke:none;" d="M156 106L157 107L156 106z"/>
<path style="fill:#080808; stroke:none;" d="M165 106L165.361 107.139L165.722 107.333L166.333 107.722L168 107.944L168.889 107.889L169.667 107.722L170.278 107.333L170.639 107.139L171 106L168.944 106.5L167.056 106.5L165 106z"/>
<path style="fill:#a3a3a4; stroke:none;" d="M171.333 106.667L171.333 107L171.667 107.333L171.667 107L171.333 106.667z"/>
<path style="fill:#d3d5d5; stroke:none;" d="M175 106L176 107L175 106z"/>
<path style="fill:#2c2e2f; stroke:none;" d="M176 106L175 107L175 109L177 110.75L177.556 111.278L179 112L178.278 110.5L177.889 109.944L177.028 108.111L176.583 106.778L176 106z"/>
<path style="fill:#a3a3a4; stroke:none;" d="M185 106L186 107L185 106z"/>
<path style="fill:#706f70; stroke:none;" d="M186 106L185.306 107.5L185.333 108.056L185.278 109L185.444 109.944L186 112L186.722 111.222L186.75 110.694L186.944 109.889L186.944 108.111L186.75 107.306L186.722 106.778L186 106z"/>
<path style="fill:#b4b0b3; stroke:none;" d="M198 106L199 107L198 106z"/>
<path style="fill:#4e6d61; stroke:none;" d="M199 106L200 107L199 106M204 106L205 107L204 106z"/>
<path style="fill:#a3a3a4; stroke:none;" d="M205 106L204.5 108L204.333 108.556L205 110L205.556 109.222L205.667 108L205.556 107.278L205.556 106.778L205 106z"/>
<path style="fill:#2c2e2f; stroke:none;" d="M214 106L215 107L214 106z"/>
<path style="fill:#c1c1c3; stroke:none;" d="M219 106L220 107L219 106z"/>
<path style="fill:#080808; stroke:none;" d="M220 106L220 110L220.722 109.222L220.722 108.722L220.889 108L220.722 106.778L220 106z"/>
<path style="fill:#a3a3a4; stroke:none;" d="M243 106L244 107L243 106z"/>
<path style="fill:#4e6d61; stroke:none;" d="M244 106L244 109L244.694 108.25L244.694 107.194L244.694 106.75L244 106z"/>
<path style="fill:#b4b0b3; stroke:none;" d="M245 106L246 107L245 106z"/>
<path style="fill:#706f70; stroke:none;" d="M259 106L259.167 107.444L259.167 108.556L259 110L260.139 109.639L260.333 109.278L260.694 108.694L260.694 107.306L260.139 106.361L259 106z"/>
<path style="fill:#7d8383; stroke:none;" d="M262 106L262 109L264 109L263.833 107.806L263.833 107.028L264 106L262 106z"/>
<path style="fill:#d3d5d5; stroke:none;" d="M267 106L268 107L267 106z"/>
<path style="fill:#080808; stroke:none;" d="M268 106L266.5 106.722L266 106.75L265 106.944L263 107L263.778 107.722L264.306 107.75L265.111 107.944L266.889 107.889L267.639 107.694L268.222 107.389L268.611 106.667L268 106z"/>
<path style="fill:#7d8383; stroke:none;" d="M283 106L283 109L285 109L284.833 107.806L284.833 107.028L285 106L283 106z"/>
<path style="fill:#d3d5d5; stroke:none;" d="M288 106L289 107L288 106z"/>
<path style="fill:#080808; stroke:none;" d="M289 106L287.5 106.722L287 106.75L286 106.944L284 107L284.778 107.722L285.306 107.75L286.111 107.944L287.889 107.889L288.639 107.694L289.222 107.389L289.611 106.667L289 106z"/>
<path style="fill:#2c2e2f; stroke:none;" d="M305 106L306 107L305 106z"/>
<path style="fill:#d3d5d5; stroke:none;" d="M306 106L305.528 107.5L305.639 108.056L305.667 109L305.917 110.5L306 112L306.722 111.222L306.75 110.694L306.944 109.889L306.944 108.111L306.75 107.306L306.722 106.778L306 106z"/>
<path style="fill:#c1c1c3; stroke:none;" d="M315 106L316 107L315 106z"/>
<path style="fill:#080808; stroke:none;" d="M316 106L316 112L316.722 111.222L316.75 110.694L316.944 109.889L316.944 108.111L316.75 107.306L316.722 106.778L316 106z"/>
<path style="fill:#b4b0b3; stroke:none;" d="M324.333 106.667L324.333 107.333L324.667 107.333L324.667 106.667L324.333 106.667z"/>
<path style="fill:#a3a3a4; stroke:none;" d="M332 106L332.667 107.75L332.861 108.278L334 109L333.333 107.25L333.139 106.722L332 106z"/>
<path style="fill:#c1c1c3; stroke:none;" d="M340 106L341 107L340 106z"/>
<path style="fill:#a3a3a4; stroke:none;" d="M357 106L358 107L357 106z"/>
<path style="fill:#d3d5d5; stroke:none;" d="M360 106L361 107L360 106z"/>
<path style="fill:#2c2e2f; stroke:none;" d="M363 106L364 107L363 106z"/>
<path style="fill:#a8b2b2; stroke:none;" d="M47 107L48 108L47 107M64 107L65 108L64 107z"/>
<path style="fill:#706f70; stroke:none;" d="M106 107L106 111L106.722 110.222L106.722 109.722L106.889 109L106.722 107.778L106 107z"/>
<path style="fill:#d3d5d5; stroke:none;" d="M109 107L110 108L109 107z"/>
<path style="fill:#080808; stroke:none;" d="M111 107L111 110L111.694 109.25L111.694 108.194L111.694 107.75L111 107z"/>
<path style="fill:#7d8383; stroke:none;" d="M117.667 107.333L118 107.667L118.333 107.667L118 107.333L117.667 107.333z"/>
<path style="fill:#080808; stroke:none;" d="M133.333 107.667L133.333 108L133.667 108.333L133.667 107.667L133.333 107.667z"/>
<path style="fill:#7d8383; stroke:none;" d="M143.667 107.333L144 107.667L144.333 107.667L144 107.333L143.667 107.333z"/>
<path style="fill:#4c4b4e; stroke:none;" d="M149.333 107.667L149.333 108L149.667 108.333L149.667 107.667L149.333 107.667z"/>
<path style="fill:#c1c1c3; stroke:none;" d="M150.333 107.667L150.333 108L150.667 108.333L150.667 108L150.333 107.667z"/>
<path style="fill:#706f70; stroke:none;" d="M155.333 107.667L155.333 108L155.667 108.333L155.667 107.667L155.333 107.667z"/>
<path style="fill:#a3a3a4; stroke:none;" d="M156.333 107.667L156.333 108L156.667 108.333L156.667 108L156.333 107.667z"/>
<path style="fill:#b4b0b3; stroke:none;" d="M164.333 107.667L164.333 108L164.667 108.333L164.667 107.667L164.333 107.667M181 107L182 108L181 107z"/>
<path style="fill:#706f70; stroke:none;" d="M182 107L183 108L182 107z"/>
<path style="fill:#080808; stroke:none;" d="M183.667 107.333L184 107.667L184.333 107.667L184 107.333L183.667 107.333z"/>
<path style="fill:#918f91; stroke:none;" d="M198 107L198 110L199.139 109.278L199.333 108.75L200 107L198 107z"/>
<path style="fill:#706f70; stroke:none;" d="M205.333 107.667L205.333 108L205.667 108.333L205.667 107.667L205.333 107.667z"/>
<path style="fill:#080808; stroke:none;" d="M214.333 107.667L214.333 108L214.667 108.333L214.667 107.667L214.333 107.667z"/>
<path style="fill:#d3d5d5; stroke:none;" d="M221.333 107.667L221.333 108L221.667 108.333L221.667 108L221.333 107.667z"/>
<path style="fill:#080808; stroke:none;" d="M232 107L232.778 107.722L233.25 107.75L234.056 107.944L236 108L235.222 107.278L234.75 107.25L233.944 107.056L232 107z"/>
<path style="fill:#918f91; stroke:none;" d="M236 107L237 108L236 107z"/>
<path style="fill:#080808; stroke:none;" d="M245.333 107.667L245.333 108L245.667 108.333L245.667 107.667L245.333 107.667z"/>
<path style="fill:#c1c1c3; stroke:none;" d="M246.333 107.667L246.333 108L246.667 108.333L246.667 107.667L246.333 107.667z"/>
<path style="fill:#a3a3a4; stroke:none;" d="M259.333 107.667L259.333 108.333L259.667 108.333L259.667 107.667L259.333 107.667z"/>
<path style="fill:#d3d5d5; stroke:none;" d="M290 107L291 108L290 107z"/>
<path style="fill:#706f70; stroke:none;" d="M304.333 107.667L304.333 108.333L304.667 108.333L304.667 107.667L304.333 107.667z"/>
<path style="fill:#7d8383; stroke:none;" d="M313.667 107.333L314 107.667L314.333 107.667L314.333 107.333L313.667 107.333M325 107L326 108L325 107M361.333 107.667L361.333 108.333L361.667 108.333L361.667 107.667L361.333 107.667z"/>
<path style="fill:#080808; stroke:none;" d="M362.333 107.667L362.333 108L362.667 108.333L362.667 107.667L362.333 107.667z"/>
<path style="fill:#918f91; stroke:none;" d="M363.333 107.667L363.333 108.333L363.667 108.333L363.667 107.667L363.333 107.667z"/>
<path style="fill:#c1c1c3; stroke:none;" d="M376 107L377 108L376 107z"/>
<path style="fill:#2c2e2f; stroke:none;" d="M377 107L378 108L377 107z"/>
<path style="fill:#706f70; stroke:none;" d="M378 107L379 108L378 107z"/>
<path style="fill:#c1c1c3; stroke:none;" d="M379 107L378 109L379.083 108L379.417 107.667L379 107z"/>
<path style="fill:#918f91; stroke:none;" d="M49 108L50 109L49 108M62 108L63 109L62 108z"/>
<path style="fill:#c1c1c3; stroke:none;" d="M112.333 108.667L112.333 109.333L112.667 109.333L112.667 108.667L112.333 108.667z"/>
<path style="fill:#2c2e2f; stroke:none;" d="M117 108L118 109L117 108z"/>
<path style="fill:#b4b0b3; stroke:none;" d="M132.333 108.667L132.333 109L132.667 109.333L132.667 109L132.333 108.667z"/>
<path style="fill:#2c2e2f; stroke:none;" d="M143 108L144 109L143 108M165 108L166 109L165 108z"/>
<path style="fill:#a3a3a4; stroke:none;" d="M174 108L174 112L174.722 111.222L174.722 110.722L174.889 110L174.722 108.778L174 108z"/>
<path style="fill:#c1c1c3; stroke:none;" d="M176 108L176 109L178 110L177 108L176 108z"/>
<path style="fill:#a3a3a4; stroke:none;" d="M180 108L181 109L180 108z"/>
<path style="fill:#4c4b4e; stroke:none;" d="M181 108L182 109L181 108z"/>
<path style="fill:#d3d5d5; stroke:none;" d="M224 108L224 111L224.694 110.25L224.694 109.194L224.694 108.75L224 108z"/>
<path style="fill:#a3a3a4; stroke:none;" d="M232 108L232 111L232.694 110.25L232.694 109.194L232.694 108.75L232 108z"/>
<path style="fill:#706f70; stroke:none;" d="M236 108L236 109L238 110L238 108L236 108z"/>
<path style="fill:#d3d5d5; stroke:none;" d="M293 108L293 112L293.722 111.222L293.889 110L293.722 109.278L293.722 108.778L293 108M297 108L297 112L297.722 111.222L297.722 110.722L297.889 110L297.722 108.778L297 108z"/>
<path style="fill:#2c2e2f; stroke:none;" d="M313 108L314 109L313 108z"/>
<path style="fill:#4e6d61; stroke:none;" d="M324 108L325 109L324 108z"/>
<path style="fill:#c1c1c3; stroke:none;" d="M325 108L326 109L325 108z"/>
<path style="fill:#706f70; stroke:none;" d="M332 108L333 109L332 108z"/>
<path style="fill:#080808; stroke:none;" d="M341 108L341.778 108.722L342.25 108.75L343.056 108.944L345 109L344.222 108.278L343.75 108.25L342.944 108.056L341 108z"/>
<path style="fill:#4c4b4e; stroke:none;" d="M379 108L379.167 109.444L379.167 110.556L379 112L380.139 111.222L380.611 110L380.611 109.306L380.139 108.361L379 108z"/>
<path style="fill:#b4b0b3; stroke:none;" d="M117 109L118 110L117 109M123 109L124 110L123 109z"/>
<path style="fill:#4e6d61; stroke:none;" d="M124 109L125 110L124 109z"/>
<path style="fill:#706f70; stroke:none;" d="M133 109L134 110L133 109z"/>
<path style="fill:#b4b0b3; stroke:none;" d="M143 109L144 110L143 109z"/>
<path style="fill:#918f91; stroke:none;" d="M149.667 109.333L150 109.667L150.333 109.667L150 109.333L149.667 109.333z"/>
<path style="fill:#080808; stroke:none;" d="M155 109L156 110L155 109z"/>
<path style="fill:#d3d5d5; stroke:none;" d="M156 109L157 110L156 109z"/>
<path style="fill:#080808; stroke:none;" d="M165 109L166 110L165 109z"/>
<path style="fill:#706f70; stroke:none;" d="M180 109L180.667 110.75L180.861 111.278L182 112L182 109L180 109z"/>
<path style="fill:#2c2e2f; stroke:none;" d="M199.333 109.667L199.333 110L199.667 110.333L199.667 109.667L199.333 109.667z"/>
<path style="fill:#4e6d61; stroke:none;" d="M204 109L205 110L204 109z"/>
<path style="fill:#2c2e2f; stroke:none;" d="M214 109L215 110L214 109z"/>
<path style="fill:#c1c1c3; stroke:none;" d="M215 109L216 110L215 109M219 109L220 110L219 109z"/>
<path style="fill:#a3a3a4; stroke:none;" d="M228 109L229 110L228 109M236 109L236 110L238 111L237 109L236 109z"/>
<path style="fill:#7d8383; stroke:none;" d="M243.667 109.333L244 109.667L244.333 109.667L244 109.333L243.667 109.333z"/>
<path style="fill:#d3d5d5; stroke:none;" d="M245 109L246 110L245 109z"/>
<path style="fill:#2c2e2f; stroke:none;" d="M246 109L247 110L246 109z"/>
<path style="fill:#b4b0b3; stroke:none;" d="M262 109L263 110L262 109z"/>
<path style="fill:#2c2e2f; stroke:none;" d="M263.333 109.667L263.333 110.333L263.667 110.333L263.667 109.667L263.333 109.667z"/>
<path style="fill:#b4b0b3; stroke:none;" d="M283 109L284 110L283 109z"/>
<path style="fill:#2c2e2f; stroke:none;" d="M284.333 109.667L284.333 110.333L284.667 110.333L284.667 109.667L284.333 109.667M303 109L304 110L303 109z"/>
<path style="fill:#b4b0b3; stroke:none;" d="M313 109L314 110L313 109z"/>
<path style="fill:#d3d5d5; stroke:none;" d="M323 109L324 110L323 109z"/>
<path style="fill:#2c2e2f; stroke:none;" d="M324 109L325 110L324 109z"/>
<path style="fill:#4c4b4e; stroke:none;" d="M332.333 109.667L332.333 110.333L332.667 110.333L332.667 109.667L332.333 109.667z"/>
<path style="fill:#d3d5d5; stroke:none;" d="M333 109L334 110L333 109z"/>
<path style="fill:#b4b0b3; stroke:none;" d="M340 109L341 110L340 109z"/>
<path style="fill:#4c4b4e; stroke:none;" d="M341 109L342 110L341 109z"/>
<path style="fill:#706f70; stroke:none;" d="M344 109L344 112L344.694 111.25L344.694 110.194L344.694 109.75L344 109z"/>
<path style="fill:#b4b0b3; stroke:none;" d="M360 109L361 110L360 109z"/>
<path style="fill:#4c4b4e; stroke:none;" d="M361 109L362 110L361 109z"/>
<path style="fill:#2c2e2f; stroke:none;" d="M363 109L363 110L365 111L364 109L363 109z"/>
<path style="fill:#d3d5d5; stroke:none;" d="M364 109L365 110L364 109z"/>
<path style="fill:#c1c1c3; stroke:none;" d="M381.333 109.667L381.333 110.333L381.667 110.333L381.667 109.667L381.333 109.667M52 110L53 111L52 110M59 110L60 111L59 110z"/>
<path style="fill:#7d8383; stroke:none;" d="M110.333 110.667L110.333 111.333L110.667 111.333L110.667 111L110.333 110.667z"/>
<path style="fill:#2c2e2f; stroke:none;" d="M111 110L112 111L111 110M124 110L125 111L124 110z"/>
<path style="fill:#b4b0b3; stroke:none;" d="M125 110L126 111L125 110z"/>
<path style="fill:#7d8383; stroke:none;" d="M128 110L128 112L129 112L130 110L128 110z"/>
<path style="fill:#4c4b4e; stroke:none;" d="M132 110L133 111L132 110z"/>
<path style="fill:#c1c1c3; stroke:none;" d="M133 110L134 111L133 110z"/>
<path style="fill:#d3d5d5; stroke:none;" d="M149 110L150 111L149 110z"/>
<path style="fill:#080808; stroke:none;" d="M150 110L151 111L150 110z"/>
<path style="fill:#c1c1c3; stroke:none;" d="M151 110L150 112L151.083 111L151.417 110.667L151 110z"/>
<path style="fill:#918f91; stroke:none;" d="M154.333 110.667L154.333 111L154.667 111.333L154.667 110.667L154.333 110.667z"/>
<path style="fill:#4e6d61; stroke:none;" d="M155 110L156 111L155 110M165.667 110.333L166 110.667L166.333 110.667L166 110.333L165.667 110.333z"/>
<path style="fill:#c1c1c3; stroke:none;" d="M170 110L171 111L170 110z"/>
<path style="fill:#d3d5d5; stroke:none;" d="M178 110L179 111L178 110z"/>
<path style="fill:#918f91; stroke:none;" d="M184 110L184 112L186 112L185 110L184 110z"/>
<path style="fill:#080808; stroke:none;" d="M185 110L186 111L185 110z"/>
<path style="fill:#7d8383; stroke:none;" d="M200.333 110.667L200.333 111L200.667 111.333L200.667 111L200.333 110.667z"/>
<path style="fill:#b4b0b3; stroke:none;" d="M203 110L204 111L203 110z"/>
<path style="fill:#2c2e2f; stroke:none;" d="M204 110L205 111L204 110z"/>
<path style="fill:#a3a3a4; stroke:none;" d="M214 110L214 111L216 112L216 111L214 110z"/>
<path style="fill:#4c4b4e; stroke:none;" d="M215 110L215 111L217 112L216 110L215 110z"/>
<path style="fill:#d3d5d5; stroke:none;" d="M216 110L217 111L216 110z"/>
<path style="fill:#4e6d61; stroke:none;" d="M219 110L220 111L219 110z"/>
<path style="fill:#918f91; stroke:none;" d="M220 110L221 111L220 110z"/>
<path style="fill:#4e6d61; stroke:none;" d="M236 110L237 111L236 110z"/>
<path style="fill:#c1c1c3; stroke:none;" d="M242 110L243 111L242 110z"/>
<path style="fill:#2c2e2f; stroke:none;" d="M243 110L242 112L243.083 111L243.417 110.667L243 110z"/>
<path style="fill:#706f70; stroke:none;" d="M246 110L246 111L248 112L248 110L246 110M255 110L256 111L255 110z"/>
<path style="fill:#b4b0b3; stroke:none;" d="M258 110L259 111L258 110z"/>
<path style="fill:#080808; stroke:none;" d="M259 110L260 111L259 110z"/>
<path style="fill:#d3d5d5; stroke:none;" d="M260 110L261 111L260 110z"/>
<path style="fill:#7d8383; stroke:none;" d="M264.333 110.667L264.333 111.333L264.667 111.333L264.667 110.667L264.333 110.667z"/>
<path style="fill:#c1c1c3; stroke:none;" d="M267 110L267 111L269 112L269 110L267 110z"/>
<path style="fill:#7d8383; stroke:none;" d="M285.333 110.667L285.333 111.333L285.667 111.333L285.667 110.667L285.333 110.667z"/>
<path style="fill:#c1c1c3; stroke:none;" d="M288 110L288 111L290 112L290 110L288 110z"/>
<path style="fill:#4c4b4e; stroke:none;" d="M302.333 110.667L302.333 111L302.667 111.333L302.667 110.667L302.333 110.667z"/>
<path style="fill:#a3a3a4; stroke:none;" d="M303 110L304 111L303 110z"/>
<path style="fill:#706f70; stroke:none;" d="M323 110L322.278 111.5L322.25 112L322.056 113L322 115L322.75 114.222L322.833 113.694L323.139 112.917L323.361 111.306L323.472 110.778L323 110z"/>
<path style="fill:#a3a3a4; stroke:none;" d="M324 110L325 111L324 110z"/>
<path style="fill:#b4b0b3; stroke:none;" d="M331 110L332 111L331 110z"/>
<path style="fill:#2c2e2f; stroke:none;" d="M340 110L341 111L340 110z"/>
<path style="fill:#d3d5d5; stroke:none;" d="M341 110L342 111L341 110z"/>
<path style="fill:#2c2e2f; stroke:none;" d="M360 110L361 111L360 110z"/>
<path style="fill:#d3d5d5; stroke:none;" d="M361 110L362 111L361 110z"/>
<path style="fill:#c1c1c3; stroke:none;" d="M363 110L364 111L363 110z"/>
<path style="fill:#706f70; stroke:none;" d="M368.333 110.667L368.333 111.333L368.667 111.333L368.667 110.667L368.333 110.667z"/>
<path style="fill:#080808; stroke:none;" d="M106 111L106.778 111.722L107.25 111.75L108.056 111.944L110 112L109.222 111.278L108.75 111.25L107.944 111.056L106 111M115 111L116 112L115 111z"/>
<path style="fill:#706f70; stroke:none;" d="M125 111L126 112L125 111z"/>
<path style="fill:#080808; stroke:none;" d="M126 111L127 112L126 111z"/>
<path style="fill:#2c2e2f; stroke:none;" d="M127 111L128 112L127 111z"/>
<path style="fill:#d3d5d5; stroke:none;" d="M130 111L131 112L130 111z"/>
<path style="fill:#080808; stroke:none;" d="M131 111L132 112L131 111z"/>
<path style="fill:#918f91; stroke:none;" d="M132 111L133 112L132 111z"/>
<path style="fill:#080808; stroke:none;" d="M141 111L142 112L141 111z"/>
<path style="fill:#4e6d61; stroke:none;" d="M151 111L152 112L151 111z"/>
<path style="fill:#080808; stroke:none;" d="M152 111L153 112L152 111z"/>
<path style="fill:#2c2e2f; stroke:none;" d="M153 111L154 112L153 111z"/>
<path style="fill:#918f91; stroke:none;" d="M166 111L167 112L166 111z"/>
<path style="fill:#2c2e2f; stroke:none;" d="M167 111L168 112L167 111z"/>
<path style="fill:#080808; stroke:none;" d="M168.667 111.333L169 111.667L169.333 111.667L169 111.333L168.667 111.333z"/>
<path style="fill:#7d8383; stroke:none;" d="M170 111L171 112L170 111z"/>
<path style="fill:#c1c1c3; stroke:none;" d="M177 111L178 112L177 111z"/>
<path style="fill:#080808; stroke:none;" d="M182 111L183 112L182 111z"/>
<path style="fill:#2c2e2f; stroke:none;" d="M183 111L184 112L183 111z"/>
<path style="fill:#080808; stroke:none;" d="M201.667 111.333L202 111.667L202.333 111.667L202.333 111.333L201.667 111.333z"/>
<path style="fill:#7d8383; stroke:none;" d="M203 111L204 112L203 111z"/>
<path style="fill:#080808; stroke:none;" d="M217 111L218 112L217 111z"/>
<path style="fill:#4c4b4e; stroke:none;" d="M218 111L219 112L218 111z"/>
<path style="fill:#a3a3a4; stroke:none;" d="M219 111L220 112L219 111z"/>
<path style="fill:#2c2e2f; stroke:none;" d="M227 111L228 112L227 111z"/>
<path style="fill:#918f91; stroke:none;" d="M228 111L229 112L228 111z"/>
<path style="fill:#080808; stroke:none;" d="M232 111L232.722 111.722L233.25 111.75L235 112L234.278 111.278L233.75 111.25L232 111z"/>
<path style="fill:#2c2e2f; stroke:none;" d="M235 111L236 112L235 111z"/>
<path style="fill:#918f91; stroke:none;" d="M236 111L237 112L236 111z"/>
<path style="fill:#d3d5d5; stroke:none;" d="M243 111L244 112L243 111z"/>
<path style="fill:#a3a3a4; stroke:none;" d="M248 111L249 112L248 111z"/>
<path style="fill:#c1c1c3; stroke:none;" d="M255 111L256 112L255 111z"/>
<path style="fill:#4c4b4e; stroke:none;" d="M256 111L257 112L256 111z"/>
<path style="fill:#080808; stroke:none;" d="M257 111L258 112L257 111z"/>
<path style="fill:#4c4b4e; stroke:none;" d="M258 111L259 112L258 111z"/>
<path style="fill:#c1c1c3; stroke:none;" d="M259 111L260 112L259 111z"/>
<path style="fill:#080808; stroke:none;" d="M265.667 111.333L266 111.667L266.333 111.667L266.333 111.333L265.667 111.333z"/>
<path style="fill:#2c2e2f; stroke:none;" d="M267 111L268 112L267 111z"/>
<path style="fill:#080808; stroke:none;" d="M286.667 111.333L286.667 111.667L287.333 111.667L287.333 111.333L286.667 111.333z"/>
<path style="fill:#2c2e2f; stroke:none;" d="M288 111L289 112L288 111z"/>
<path style="fill:#080808; stroke:none;" d="M311 111L312 112L311 111z"/>
<path style="fill:#2c2e2f; stroke:none;" d="M330.667 111.333L330.667 111.667L331.333 111.667L331.333 111.333L330.667 111.333z"/>
<path style="fill:#4e6d61; stroke:none;" d="M339 111L340 112L339 111z"/>
<path style="fill:#918f91; stroke:none;" d="M340 111L341 112L340 111z"/>
<path style="fill:#706f70; stroke:none;" d="M357 111L358 112L357 111z"/>
<path style="fill:#4e6d61; stroke:none;" d="M359 111L360 112L359 111z"/>
<path style="fill:#a3a3a4; stroke:none;" d="M360 111L361 112L360 111z"/>
<path style="fill:#706f70; stroke:none;" d="M364.667 111.333L364.667 111.667L365.333 111.667L365.333 111.333L364.667 111.333z"/>
<path style="fill:#080808; stroke:none;" d="M369 111L370 112L369 111z"/>
<path style="fill:#2c2e2f; stroke:none;" d="M370 111L371 112L370 111z"/>
<path style="fill:#4c4b4e; stroke:none;" d="M376 111L377 112L376 111z"/>
<path style="fill:#080808; stroke:none;" d="M377.667 111.333L378 111.667L378.333 111.667L378 111.333L377.667 111.333z"/>
<path style="fill:#a3a3a4; stroke:none;" d="M380 111L381 112L380 111M323 112L323 115L323.694 114.25L323.694 113.194L323.694 112.75L323 112z"/>
<path style="fill:#d3d5d5; stroke:none;" d="M330 112L330 115L330.694 114.25L330.694 113.194L330.694 112.75L330 112z"/>
<path style="fill:#4c4b4e; stroke:none;" d="M373 112L374 113L373 112z"/>
<path style="fill:#7d8383; stroke:none;" d="M372 113L372 115L373 115L374 113L372 113z"/>
<path style="fill:#2c2e2f; stroke:none;" d="M370 114L371 115L370 114z"/>
<path style="fill:#080808; stroke:none;" d="M371 114L372 115L371 114z"/>
</svg>
