<svg width="10" height="10" viewBox="0 0 10 10" fill="none" xmlns="http://www.w3.org/2000/svg">
<path d="M4.6098 2.22203L0.159755 6.67216C0.0567477 6.77508 1.34406e-07 6.91248 1.15195e-07 7.05898C9.59831e-08 7.20549 0.0567476 7.34288 0.159755 7.44581L0.487394 7.77353C0.700889 7.98678 1.04788 7.98678 1.26105 7.77353L4.99793 4.03665L8.73895 7.77768C8.84196 7.8806 8.97928 7.93743 9.1257 7.93743C9.27228 7.93743 9.4096 7.8806 9.51269 7.77768L9.84024 7.44996C9.94325 7.34695 10 7.20963 10 7.06313C10 6.91663 9.94325 6.77923 9.84024 6.6763L5.38614 2.22203C5.2828 2.11886 5.14484 2.06219 4.99817 2.06252C4.85094 2.06219 4.71305 2.11886 4.6098 2.22203Z" fill="black"/>
</svg>
