<svg width="40" height="40" viewBox="0 0 40 40" fill="none" xmlns="http://www.w3.org/2000/svg">
<g clip-path="url(#clip0)">
<rect y="40" width="40" height="40" transform="rotate(-90 0 40)" fill="white"/>
<path d="M22.7779 19.6098L18.3278 15.1598C18.2248 15.0567 18.0875 15 17.9409 15C17.7944 15 17.657 15.0567 17.5541 15.1598L17.2264 15.4874C17.0132 15.7009 17.0132 16.0479 17.2264 16.261L20.9633 19.9979L17.2223 23.739C17.1193 23.842 17.0625 23.9793 17.0625 24.1257C17.0625 24.2723 17.1193 24.4096 17.2223 24.5127L17.55 24.8402C17.653 24.9433 17.7903 25 17.9368 25C18.0833 25 18.2207 24.9433 18.3236 24.8402L22.7779 20.3861C22.8811 20.2828 22.9377 20.1448 22.9374 19.9982C22.9377 19.8509 22.8811 19.7131 22.7779 19.6098Z" fill="black"/>
</g>
<defs>
<clipPath id="clip0">
<rect width="40" height="40" fill="white"/>
</clipPath>
</defs>
</svg>
