<svg width="18" height="18" viewBox="0 0 18 18" fill="none" xmlns="http://www.w3.org/2000/svg">
<path d="M17.8216 0.178438C17.7007 0.0648551 17.5413 0.00112308 17.3755 0L6.13383 0.289963C6.01366 0.290319 5.89634 0.326617 5.79697 0.39419C5.6976 0.461764 5.62071 0.557521 5.57621 0.669145C5.53067 0.779716 5.51907 0.901341 5.54291 1.01852C5.56674 1.13571 5.62493 1.24314 5.71004 1.32714L8.49814 4.11524L7.11524 5.50929H1.22676C1.06566 5.50929 0.906139 5.54103 0.757301 5.60268C0.608463 5.66433 0.473226 5.75469 0.35931 5.8686C0.245395 5.98252 0.155033 6.11776 0.0933821 6.2666C0.0317313 6.41544 0 6.57496 0 6.73606V16.7732C0.00291011 17.0977 0.133091 17.408 0.362527 17.6375C0.591962 17.8669 0.902307 17.9971 1.22676 18H11.2639C11.5893 18 11.9013 17.8708 12.1314 17.6407C12.3615 17.4106 12.4907 17.0986 12.4907 16.7732V10.9405L13.9294 9.50186L16.7175 12.29C16.8015 12.3751 16.9089 12.4333 17.0261 12.4571C17.1433 12.4809 17.2649 12.4693 17.3755 12.4238C17.4871 12.3793 17.5828 12.3024 17.6504 12.203C17.718 12.1037 17.7543 11.9863 17.7546 11.8662L18 0.624536C17.9989 0.458661 17.9351 0.299329 17.8216 0.178438ZM11.1301 16.5502H1.36059V6.85874H5.71004L3.10037 9.4684C3.04167 9.52462 2.99496 9.59213 2.96304 9.66688C2.93113 9.74163 2.91468 9.82207 2.91468 9.90335C2.91468 9.98462 2.93113 10.0651 2.96304 10.1398C2.99496 10.2146 3.04167 10.2821 3.10037 10.3383L7.66171 14.8996C7.7173 14.9587 7.78487 15.0051 7.85988 15.0359C7.9349 15.0667 8.01563 15.081 8.09666 15.0781C8.1775 15.0797 8.25782 15.0646 8.33263 15.034C8.40744 15.0033 8.47516 14.9575 8.5316 14.8996L11.0855 12.3457L11.1301 16.5502ZM16.4498 10.0037L14.4201 7.97398C14.364 7.91699 14.2972 7.87173 14.2235 7.84084C14.1498 7.80994 14.0706 7.79403 13.9907 7.79403C13.9108 7.79403 13.8317 7.80994 13.7579 7.84084C13.6842 7.87173 13.6174 7.91699 13.5613 7.97398L12.513 8.98885L11.1078 10.3941L8.14127 13.3717L4.62825 9.88104L7.65056 6.85874L9.05576 5.46468L10.026 4.48327C10.0844 4.42803 10.1309 4.36147 10.1627 4.28764C10.1945 4.21381 10.2109 4.13428 10.2109 4.0539C10.2109 3.97353 10.1945 3.89399 10.1627 3.82017C10.1309 3.74634 10.0844 3.67977 10.026 3.62454L8.05204 1.5948L16.5948 1.4052L16.4498 10.0037Z" fill="black"/>
</svg>
