<svg width="100" height="100" viewBox="0 0 100 100" fill="none" xmlns="http://www.w3.org/2000/svg">
<path d="M16.8491 35.3282C16.7912 31.0582 18.4213 26.9369 21.3871 23.8549C24.4075 20.6183 27.9857 19 32.1215 19C36.4004 19 39.9082 20.5814 42.6448 23.7443C45.3815 26.9071 46.7473 30.7684 46.7424 35.3282C46.7424 44.1527 42.609 52.9046 34.3424 61.584C26.2213 70.1182 17.4376 76.5902 7.99141 81L6 76.1451C18.3975 68.3511 25.7031 59.673 27.9166 50.1107C24.3755 49.3728 21.645 47.5701 19.7252 44.7024C17.8376 41.9393 16.8348 38.6709 16.8491 35.3282ZM62.8957 35.3282C62.8408 31.0566 64.475 26.9352 67.4449 23.8549C70.4579 20.6183 74.036 19 78.1792 19C82.3224 19 85.8277 20.5814 88.6952 23.7443C91.5675 26.9096 92.9975 30.7709 92.9852 35.3282C92.9852 44.01 88.8531 52.6882 80.5889 61.3626C72.3247 70.037 63.5435 76.5828 54.2453 81L52.0244 76.1451C64.4195 68.4962 71.799 59.8181 74.1631 50.1107C70.4616 49.3728 67.6571 47.5701 65.7496 44.7024C63.8699 41.9368 62.8749 38.6685 62.8957 35.3282Z" fill="black"/>
</svg>
