<svg width="18" height="18" viewBox="0 0 18 18" fill="none" xmlns="http://www.w3.org/2000/svg">
<path d="M16.528 1.69208C15.597 0.615146 14.2923 0.00238436 12.9255 0.000112766C11.5576 0.00181646 10.2516 0.614253 9.31912 1.69139L9.00132 2.05278L8.68353 1.69139C6.83326 -0.45165 3.71897 -0.574721 1.72758 1.41645C1.63934 1.50472 1.55411 1.59639 1.47209 1.69139C-0.490696 3.96972 -0.490696 7.49076 1.47209 9.76909L8.5343 17.7838C8.77863 18.0614 9.18579 18.0733 9.44373 17.8103C9.45218 17.8017 9.46039 17.7929 9.46838 17.7838L16.528 9.76909C18.4907 7.49101 18.4907 3.97016 16.528 1.69208Z" fill="black"/>
</svg>
