<svg width="20" height="20" viewBox="0 0 20 20" fill="none" xmlns="http://www.w3.org/2000/svg">
<path d="M17.528 2.76722C16.597 1.69028 15.2923 1.07752 13.9255 1.07525C12.5576 1.07695 11.2516 1.68939 10.3191 2.76653L10.0013 3.12791L9.68353 2.76653C7.83326 0.623484 4.71897 0.500413 2.72758 2.49158C2.63934 2.57985 2.55411 2.67153 2.47209 2.76653C0.509304 5.04485 0.509304 8.5659 2.47209 10.8442L9.5343 18.8589C9.77863 19.1365 10.1858 19.1484 10.4437 18.8854C10.4522 18.8768 10.4604 18.868 10.4684 18.8589L17.528 10.8442C19.4907 8.56614 19.4907 5.0453 17.528 2.76722Z" fill="white"/>
</svg>
