<svg width="20" height="20" viewBox="0 0 20 20" fill="none" xmlns="http://www.w3.org/2000/svg">
<path d="M17.528 2.69208C16.597 1.61515 15.2923 1.00238 13.9255 1.00011C12.5576 1.00182 11.2516 1.61425 10.3191 2.69139L10.0013 3.05278L9.68353 2.69139C7.83326 0.54835 4.71893 0.425279 2.72758 2.41645C2.63934 2.50472 2.55411 2.59639 2.47209 2.69139C0.509304 4.96972 0.509304 8.49076 2.47209 10.7691L9.5343 18.7838C9.77863 19.0614 10.1858 19.0733 10.4437 18.8103C10.4522 18.8017 10.4604 18.7929 10.4684 18.7838L17.528 10.7691C19.4907 8.49101 19.4907 4.97016 17.528 2.69208ZM16.5971 9.81579H16.5965L10.0013 17.3016L3.40553 9.81579C1.90608 8.07494 1.90608 5.38485 3.40553 3.644C4.76722 2.05575 7.06755 1.95617 8.54341 3.42155C8.61506 3.4927 8.684 3.56689 8.75012 3.644L9.5343 4.5343C9.79272 4.81062 10.21 4.81062 10.4684 4.5343L11.2526 3.64469C12.6142 2.05644 14.9146 1.95686 16.3904 3.42224C16.4621 3.49339 16.531 3.56758 16.5971 3.64469C18.1096 5.3883 18.1207 8.0833 16.5971 9.81579Z" fill="black" stroke="black" stroke-width="0.3"/>
</svg>
