<svg width="18" height="20" viewBox="0 0 18 20" fill="none" xmlns="http://www.w3.org/2000/svg">
<path d="M16.997 18.4084L15.592 5.38039C15.5625 5.10765 15.3264 4.90056 15.0447 4.90056H12.4039V4.3143C12.4039 2.48686 10.8769 1 9.00007 1C7.12311 1 5.59608 2.48686 5.59608 4.3143V4.90056H2.95526C2.6736 4.90056 2.4375 5.10765 2.40802 5.38039L1.00299 18.4084C0.986768 18.5593 1.03712 18.71 1.14135 18.8228C1.24572 18.9356 1.39437 19 1.55022 19H16.4496C16.6056 19 16.7543 18.9356 16.8585 18.8228C16.963 18.71 17.0132 18.5593 16.997 18.4084ZM6.69647 4.3143C6.69647 3.07765 7.72987 2.07144 9.00007 2.07144C10.2701 2.07144 11.3035 3.07765 11.3035 4.3143V4.90056H6.69647V4.3143Z" fill="black" stroke="black" stroke-width="0.2"/>
</svg>
