<svg width="30" height="30" viewBox="0 0 30 30" fill="none" xmlns="http://www.w3.org/2000/svg">
<path d="M0 0H30V30H0V0Z" fill="black"/>
<path d="M6.28059 15.0417C6.12542 15.198 6.12574 15.4503 6.28131 15.6062L11.8813 21.2168C12.0374 21.3732 12.2908 21.3734 12.4471 21.2172L23.7149 9.96057C23.872 9.80362 23.8712 9.54872 23.7131 9.39279L22.5834 8.27876C22.427 8.12446 22.1753 8.12527 22.0199 8.28055L12.4468 17.8425C12.2906 17.9985 12.0375 17.9985 11.8813 17.8423L7.95956 13.9206C7.80296 13.764 7.54893 13.7644 7.39288 13.9216L6.28059 15.0417Z" fill="white"/>
<path d="M0 0V-1H-1V0H0ZM30 0H31V-1H30V0ZM30 30V31H31V30H30ZM0 30H-1V31H0V30ZM0 1H30V-1H0V1ZM29 0V30H31V0H29ZM30 29H0V31H30V29ZM1 30V0H-1V30H1Z" fill="black"/>
</svg>
