<svg width="20" height="20" viewBox="0 0 20 20" fill="none" xmlns="http://www.w3.org/2000/svg">
<g clip-path="url(#clip0)">
<path d="M11.9825 9.99942L18.7124 3.26917C18.8976 3.0839 18.9997 2.83673 19 2.57317C19 2.30946 18.8979 2.062 18.7124 1.87702L18.1227 1.28741C17.9373 1.10171 17.6901 1 17.4262 1C17.1628 1 16.9157 1.10171 16.7302 1.28741L10.0003 8.01722L3.27005 1.28741C3.08493 1.10171 2.83761 1 2.5739 1C2.31049 1 2.06317 1.10171 1.87805 1.28741L1.288 1.87702C0.904 2.26102 0.904 2.88561 1.288 3.26917L8.0181 9.99942L1.288 16.7294C1.10273 16.9149 1.00073 17.1621 1.00073 17.4257C1.00073 17.6892 1.10273 17.9364 1.288 18.1218L1.8779 18.7114C2.06302 18.897 2.31049 18.9988 2.57376 18.9988C2.83746 18.9988 3.08478 18.897 3.2699 18.7114L10.0001 11.9815L16.7301 18.7114C16.9155 18.897 17.1627 18.9988 17.4261 18.9988H17.4264C17.69 18.9988 17.9371 18.897 18.1225 18.7114L18.7123 18.1218C18.8974 17.9365 18.9996 17.6892 18.9996 17.4257C18.9996 17.1621 18.8974 16.9149 18.7123 16.7295L11.9825 9.99942Z" fill="white"/>
</g>
<defs>
<clipPath id="clip0">
<rect width="20" height="20" fill="white"/>
</clipPath>
</defs>
</svg>
