<svg width="40" height="40" viewBox="0 0 40 40" fill="none" xmlns="http://www.w3.org/2000/svg">
<path d="M0 0H40V40H0V0Z" fill="black"/>
<path d="M26.6983 18.5908L26.484 18.5347L26.0695 18.468H23.0133L23.0098 25.1525H24.0636C24.0636 24.5944 24.2857 24.0592 24.681 23.6645C25.0762 23.2699 25.6124 23.0482 26.1714 23.0482C26.7304 23.0482 27.2665 23.2699 27.6618 23.6645C28.057 24.0592 28.2791 24.5944 28.2791 25.1525H29.333V22.1013C29.333 20.439 28.2159 19.0467 26.6983 18.5908Z" fill="white"/>
<path d="M11.333 25.1524H12.9279C12.9273 24.8368 12.9981 24.5251 13.1351 24.2406C13.1799 24.1498 13.2304 24.062 13.2862 23.9776C13.3619 23.8659 13.4478 23.7614 13.5426 23.6654C13.6621 23.546 13.7953 23.4413 13.9396 23.3533C13.9677 23.3358 13.9993 23.3182 14.0274 23.3042C14.0865 23.2715 14.1475 23.2422 14.2101 23.2165C14.4692 23.1077 14.7475 23.0517 15.0286 23.0517C15.3097 23.0517 15.5879 23.1077 15.8471 23.2165C15.9103 23.2446 15.97 23.2726 16.0297 23.3042C16.0613 23.3217 16.0894 23.3358 16.1176 23.3533C16.2908 23.4591 16.4482 23.589 16.5848 23.7391C16.6526 23.8139 16.7148 23.8936 16.7709 23.9776C16.828 24.0612 16.8785 24.1491 16.922 24.2406C17.059 24.5251 17.1299 24.8368 17.1293 25.1524H21.9419L21.956 14H11.3471L11.333 25.1524Z" fill="white"/>
<path d="M15.0569 26.1273C15.6312 26.1273 16.0967 25.6626 16.0967 25.0892C16.0967 24.5159 15.6312 24.0511 15.0569 24.0511C14.4826 24.0511 14.0171 24.5159 14.0171 25.0892C14.0171 25.6626 14.4826 26.1273 15.0569 26.1273Z" fill="white"/>
<path d="M26.2981 26.1764C26.8724 26.1764 27.3379 25.7116 27.3379 25.1383C27.3379 24.565 26.8724 24.1002 26.2981 24.1002C25.7238 24.1002 25.2583 24.565 25.2583 25.1383C25.2583 25.7116 25.7238 26.1764 26.2981 26.1764Z" fill="white"/>
<path d="M0 0V-1.33333H-1.33333V0H0ZM40 0H41.3333V-1.33333H40V0ZM40 40V41.3333H41.3333V40H40ZM0 40H-1.33333V41.3333H0V40ZM0 1.33333H40V-1.33333H0V1.33333ZM38.6667 0V40H41.3333V0H38.6667ZM40 38.6667H0V41.3333H40V38.6667ZM1.33333 40V0H-1.33333V40H1.33333Z" fill="black"/>
</svg>
