<svg width="40" height="40" viewBox="0 0 40 40" fill="none" xmlns="http://www.w3.org/2000/svg">
<rect width="40" height="40" fill="white"/>
<path d="M20.3902 22.778L24.8402 18.3278C24.9433 18.2249 25 18.0875 25 17.941C25 17.7945 24.9433 17.6571 24.8402 17.5542L24.5126 17.2265C24.2991 17.0132 23.9521 17.0132 23.739 17.2265L20.0021 20.9634L16.261 17.2223C16.158 17.1194 16.0207 17.0626 15.8743 17.0626C15.7277 17.0626 15.5904 17.1194 15.4873 17.2223L15.1598 17.55C15.0567 17.6531 15 17.7904 15 17.9369C15 18.0834 15.0567 18.2208 15.1598 18.3237L19.6139 22.778C19.7172 22.8811 19.8552 22.9378 20.0018 22.9375C20.1491 22.9378 20.2869 22.8811 20.3902 22.778Z" fill="black"/>
</svg>
