<svg width="37" height="36" viewBox="0 0 37 36" fill="none" xmlns="http://www.w3.org/2000/svg">
<path d="M18.0754 0C8.09272 0 0 8.09272 0 18.0754C0 27.0286 6.51652 34.4434 15.0608 35.8793V21.8464H10.7004V16.7965H15.0608V13.0729C15.0608 8.75252 17.6995 6.39815 21.5542 6.39815C23.4004 6.39815 24.9869 6.53571 25.4475 6.5963V11.1123L22.774 11.1136C20.6781 11.1136 20.2741 12.1093 20.2741 13.571V16.7939H25.275L24.6227 21.8438H20.2741V36C29.2172 34.9115 36.1505 27.3079 36.1505 18.0702C36.1505 8.09272 28.0578 0 18.0754 0Z" fill="white"/>
</svg>
