<svg width="40" height="40" viewBox="0 0 40 40" fill="none" xmlns="http://www.w3.org/2000/svg">
<rect y="31" width="15" height="7" fill="black"/>
<rect x="24" y="31" width="14" height="7" fill="black"/>
<path fill-rule="evenodd" clip-rule="evenodd" d="M40 0H0V40H40V0ZM28 4H12V35H28V4Z" fill="black"/>
<path d="M20.0754 0C10.0927 0 2 8.09272 2 18.0754C2 27.0286 8.51652 34.4434 17.0608 35.8793V21.8464H12.7004V16.7965H17.0608V13.0729C17.0608 8.75252 19.6995 6.39815 23.5542 6.39815C25.4004 6.39815 26.9869 6.53571 27.4475 6.5963V11.1123L24.774 11.1136C22.6781 11.1136 22.2741 12.1093 22.2741 13.571V16.7939H27.275L26.6227 21.8438H22.2741V36C31.2172 34.9115 38.1505 27.3079 38.1505 18.0702C38.1505 8.09272 30.0578 0 20.0754 0Z" fill="black"/>
</svg>
