<svg width="40" height="40" viewBox="0 0 40 40" fill="none" xmlns="http://www.w3.org/2000/svg">
<rect x="0.5" y="0.0906372" width="39" height="39.8187" fill="black" stroke="black"/>
<path d="M27.3109 11.8362H12.6893C12.4312 11.8358 12.1948 11.9792 12.0769 12.2076C11.9574 12.4391 11.9784 12.7178 12.1311 12.9292L17.4878 20.4417C17.4896 20.4443 17.4916 20.4468 17.4933 20.4494C17.688 20.7109 17.7933 21.0279 17.7938 21.3534V27.4783C17.7927 27.6596 17.8642 27.834 17.9925 27.9627C18.121 28.0912 18.2956 28.1637 18.4777 28.1637C18.5702 28.1636 18.662 28.1453 18.7475 28.1098L21.7576 26.9673C22.0271 26.8852 22.2062 26.6319 22.2062 26.3269V21.3534C22.2067 21.0279 22.312 20.7109 22.5065 20.4494C22.5083 20.4468 22.5102 20.4443 22.512 20.4417L27.8689 12.9291C28.0216 12.7178 28.0426 12.4392 27.9231 12.2077C27.8053 11.9792 27.5688 11.8358 27.3109 11.8362Z" fill="white"/>
</svg>
