<svg width="40" height="40" viewBox="0 0 40 40" fill="none" xmlns="http://www.w3.org/2000/svg">
<path d="M0 -0.000488281H40V39.9995H0V-0.000488281Z" fill="black"/>
<path fill-rule="evenodd" clip-rule="evenodd" d="M28.5117 20.5065C28.8215 20.8162 29 21.2363 29 21.687C29 22.3372 28.628 22.908 28.0738 23.187C28.1892 23.4172 28.25 23.6715 28.25 23.937C28.25 24.588 27.8772 25.1587 27.323 25.4377C27.4947 25.7797 27.545 26.1735 27.4587 26.5643C27.2908 27.324 26.576 27.8745 25.7592 27.8745H18.875C18.383 27.8745 17.6105 27.7192 17 27.4312V19.3927L17.09 19.347L19.25 14.6677V12.1245C19.25 12.0105 19.3018 11.9025 19.3902 11.8313C19.3908 11.8309 19.3916 11.8302 19.3927 11.8294C19.4393 11.7938 19.9882 11.3745 20.75 11.3745C21.6177 11.3745 23 12.7477 23 14.3745C23 15.4005 22.6325 16.6777 22.403 17.3745H27.0357C28.0452 17.3745 28.904 18.1215 28.9917 19.0747C29.0405 19.6095 28.862 20.1232 28.5117 20.5065ZM11 20.7495C11 19.716 11.8415 18.8745 12.875 18.8745H16.25V28.245C15.9357 28.482 15.5472 28.6245 15.125 28.6245H12.875C11.8415 28.6245 11 27.783 11 26.7495V20.7495Z" fill="white"/>
<path d="M0 -0.000488281V-1.00049H-1V-0.000488281H0ZM40 -0.000488281H41V-1.00049H40V-0.000488281ZM40 39.9995V40.9995H41V39.9995H40ZM0 39.9995H-1V40.9995H0V39.9995ZM0 0.999512H40V-1.00049H0V0.999512ZM39 -0.000488281V39.9995H41V-0.000488281H39ZM40 38.9995H0V40.9995H40V38.9995ZM1 39.9995V-0.000488281H-1V39.9995H1Z" fill="black"/>
</svg>
