<svg width="20" height="20" viewBox="0 0 20 20" fill="none" xmlns="http://www.w3.org/2000/svg">
<path d="M10 1C6.69162 1 4 3.65085 4 6.90912C4 11.0044 10.0059 18 10.0059 18C10.0059 18 16 10.803 16 6.90912C16 3.65085 13.3085 1 10 1ZM11.8103 8.63931C11.3112 9.13082 10.6556 9.37663 10 9.37663C9.34448 9.37663 8.68874 9.13082 8.18978 8.63931C7.19154 7.65629 7.19154 6.05673 8.18978 5.07361C8.67315 4.59735 9.31614 4.33505 10 4.33505C10.6839 4.33505 11.3267 4.59745 11.8103 5.07361C12.8086 6.05673 12.8086 7.65629 11.8103 8.63931Z" fill="#FF0000"/>
</svg>
