<svg width="20" height="20" viewBox="0 0 20 20" fill="none" xmlns="http://www.w3.org/2000/svg">
<path d="M10 1C5.02943 1 1 5.02943 1 10C1 14.9706 5.02943 19 10 19C14.9706 19 19 14.9706 19 10C19 5.02943 14.9706 1 10 1Z" fill="black"/>
<mask id="path-2-inside-1" fill="white">
<path fill-rule="evenodd" clip-rule="evenodd" d="M13.8706 7.69141C13.8706 9.72685 12.2146 11.3828 10.1792 11.3828C8.14376 11.3828 6.48779 9.72685 6.48779 7.69141C6.48779 5.65596 8.14376 4 10.1792 4C12.2146 4 13.8706 5.65596 13.8706 7.69141ZM13.3431 11.4375C14.3995 11.4375 15.4073 11.8916 16.1081 12.6835L16.3581 12.966L16.1715 13.2938C14.9475 15.445 12.6513 16.7812 10.179 16.7812C7.70677 16.7812 5.41057 15.445 4.18654 13.2939L4 12.966L4.24996 12.6835C4.95073 11.8916 5.95855 11.4375 7.01496 11.4375H13.3431Z"/>
</mask>
<path fill-rule="evenodd" clip-rule="evenodd" d="M13.8706 7.69141C13.8706 9.72685 12.2146 11.3828 10.1792 11.3828C8.14376 11.3828 6.48779 9.72685 6.48779 7.69141C6.48779 5.65596 8.14376 4 10.1792 4C12.2146 4 13.8706 5.65596 13.8706 7.69141ZM13.3431 11.4375C14.3995 11.4375 15.4073 11.8916 16.1081 12.6835L16.3581 12.966L16.1715 13.2938C14.9475 15.445 12.6513 16.7812 10.179 16.7812C7.70677 16.7812 5.41057 15.445 4.18654 13.2939L4 12.966L4.24996 12.6835C4.95073 11.8916 5.95855 11.4375 7.01496 11.4375H13.3431Z" fill="white"/>
<path d="M16.1081 12.6835L15.3592 13.3462L15.3593 13.3463L16.1081 12.6835ZM16.3581 12.966L17.2272 13.4605L17.581 12.8388L17.1069 12.3032L16.3581 12.966ZM16.1715 13.2938L17.0407 13.7884L17.0407 13.7884L16.1715 13.2938ZM4.18654 13.2939L3.31739 13.7884L3.3174 13.7884L4.18654 13.2939ZM4 12.966L3.2511 12.3033L2.77715 12.839L3.13085 13.4606L4 12.966ZM4.24996 12.6835L3.50108 12.0208L3.50106 12.0209L4.24996 12.6835ZM10.1792 12.3828C12.7669 12.3828 14.8706 10.2791 14.8706 7.69141H12.8706C12.8706 9.17456 11.6624 10.3828 10.1792 10.3828V12.3828ZM5.48779 7.69141C5.48779 10.2791 7.59147 12.3828 10.1792 12.3828V10.3828C8.69604 10.3828 7.48779 9.17456 7.48779 7.69141H5.48779ZM10.1792 3C7.59147 3 5.48779 5.10368 5.48779 7.69141H7.48779C7.48779 6.20825 8.69604 5 10.1792 5V3ZM14.8706 7.69141C14.8706 5.10368 12.7669 3 10.1792 3V5C11.6624 5 12.8706 6.20825 12.8706 7.69141H14.8706ZM16.857 12.0208C15.9666 11.0147 14.6862 10.4375 13.3431 10.4375V12.4375C14.1128 12.4375 14.8481 12.7686 15.3592 13.3462L16.857 12.0208ZM17.1069 12.3032L16.8569 12.0208L15.3593 13.3463L15.6093 13.6288L17.1069 12.3032ZM17.0407 13.7884L17.2272 13.4605L15.4889 12.4714L15.3024 12.7993L17.0407 13.7884ZM10.179 17.7812C13.0113 17.7812 15.6391 16.2516 17.0407 13.7884L15.3024 12.7993C14.2559 14.6384 12.2913 15.7812 10.179 15.7812V17.7812ZM3.3174 13.7884C4.71899 16.2516 7.34677 17.7812 10.179 17.7812V15.7812C8.06676 15.7812 6.10216 14.6384 5.05568 12.7993L3.3174 13.7884ZM3.13085 13.4606L3.31739 13.7884L5.05569 12.7993L4.86915 12.4715L3.13085 13.4606ZM3.50106 12.0209L3.2511 12.3033L4.7489 13.6287L4.99886 13.3462L3.50106 12.0209ZM7.01496 10.4375C5.67185 10.4375 4.39146 11.0147 3.50108 12.0208L4.99884 13.3462C5.51 12.7686 6.24526 12.4375 7.01496 12.4375V10.4375ZM13.3431 10.4375H7.01496V12.4375H13.3431V10.4375Z" fill="black" mask="url(#path-2-inside-1)"/>
</svg>
