<svg width="20" height="20" viewBox="0 0 20 20" fill="none" xmlns="http://www.w3.org/2000/svg">
<path d="M17.997 18.4084L16.592 5.38039C16.5625 5.10765 16.3264 4.90056 16.0447 4.90056H13.4039V4.3143C13.4039 2.48686 11.8769 1 10.0001 1C8.12311 1 6.59608 2.48686 6.59608 4.3143V4.90056H3.95526C3.6736 4.90056 3.4375 5.10765 3.40802 5.38039L2.00299 18.4084C1.98677 18.5593 2.03712 18.71 2.14135 18.8228C2.24572 18.9356 2.39437 19 2.55022 19H17.4496C17.6056 19 17.7543 18.9356 17.8585 18.8228C17.963 18.71 18.0132 18.5593 17.997 18.4084ZM7.69647 4.3143C7.69647 3.07765 8.72987 2.07144 10.0001 2.07144C11.2701 2.07144 12.3035 3.07765 12.3035 4.3143V4.90056H7.69647V4.3143Z" fill="black" stroke="black" stroke-width="0.2"/>
</svg>
