<svg width="20" height="20" viewBox="0 0 20 20" fill="none" xmlns="http://www.w3.org/2000/svg">
<circle cx="10" cy="10" r="9" fill="black"/>
<path fill-rule="evenodd" clip-rule="evenodd" d="M5 13.7529L5 10.426C5 10.0265 5.28613 9.70273 5.63909 9.70273C5.99204 9.70273 6.27817 10.0265 6.27817 10.426L6.27817 13.7529C6.27817 14.1523 5.99204 14.4761 5.63909 14.4761C5.28613 14.4761 5 14.1523 5 13.7529ZM10.1127 13.7984L10.1127 8.21096C10.1127 7.83662 10.4107 7.53315 10.7782 7.53315C11.1457 7.53315 11.4437 7.83662 11.4437 8.21096L11.4437 13.7984C11.4437 14.1727 11.1457 14.4762 10.7782 14.4762C10.4107 14.4762 10.1127 14.1727 10.1127 13.7984ZM7.55635 6.92166L7.55635 13.7984C7.55635 14.1727 7.8543 14.4762 8.22183 14.4762C8.58937 14.4762 8.88731 14.1727 8.88731 13.7984L8.88731 6.92166C8.88731 6.54732 8.58936 6.24386 8.22183 6.24386C7.8543 6.24386 7.55635 6.54732 7.55635 6.92166ZM12.6691 13.7984L12.6691 4.7519C12.6691 4.37756 12.967 4.0741 13.3345 4.0741C13.7021 4.0741 14 4.37756 14 4.7519L14 13.7984C14 14.1727 13.7021 14.4762 13.3345 14.4762C12.967 14.4762 12.6691 14.1727 12.6691 13.7984Z" fill="white"/>
</svg>
