<svg width="50" height="50" viewBox="0 0 50 50" fill="none" xmlns="http://www.w3.org/2000/svg">
<path fill-rule="evenodd" clip-rule="evenodd" d="M46.338 13.4856L38.9135 9.65241L25 2.5L11.1016 9.6671L3.66197 13.4856L11.1016 17.3189L24.7133 24.3244C24.9095 24.251 25.1207 24.251 25.3169 24.3244L38.9286 17.3189L46.338 13.4856ZM31.4738 13.4856L25 10.1518L18.5262 13.4856L25 16.8195L31.4738 13.4856ZM20.7445 45.8404L23.9738 47.5V43.9311V26.2043L5.72938 16.8048L2.5 15.1452V18.7141V36.4409L20.7445 45.8404ZM20.7445 42.2715V28.0989L5.74447 20.3737V34.5463L20.7445 42.2715ZM26.0262 26.2043L47.5 15.1452V36.4409L26.0262 47.5V26.2043Z" fill="white"/>
</svg>
