<svg width="18" height="18" viewBox="0 0 18 18" fill="none" xmlns="http://www.w3.org/2000/svg">
<path d="M8.47266 17.9998V15.1738C8.21053 15.2867 7.92696 15.3455 7.6384 15.3455C7.05994 15.3455 6.52032 15.116 6.11891 14.6992C5.71767 14.2825 5.50874 13.7342 5.53054 13.1551C5.55012 12.6354 5.76236 12.1421 6.12816 11.7661C6.4942 11.3899 6.98164 11.1644 7.50073 11.1312C7.83759 11.1095 8.16866 11.167 8.47266 11.2983V9.52715H6.40814C6.09191 9.52715 5.79966 9.35611 5.64546 9.08077C5.48975 8.80276 5.49686 8.46058 5.66402 8.18773C5.77761 8.00232 5.83024 7.78797 5.81614 7.56793C5.78211 7.03647 5.33795 6.6044 4.80502 6.58429C4.5147 6.57346 4.24058 6.67784 4.03228 6.87844C3.82384 7.07918 3.70902 7.34901 3.70902 7.6382C3.70902 7.83462 3.7633 8.02612 3.86599 8.19199C4.03246 8.46079 4.04012 8.7997 3.886 9.07641C3.7311 9.35443 3.43737 9.52715 3.11938 9.52715H0V17.2967C0 17.685 0.314789 17.9998 0.703125 17.9998H8.47266Z" fill="black"/>
<path d="M9.52734 0V2.826C9.78947 2.71311 10.073 2.6543 10.3616 2.6543C10.9401 2.6543 11.4797 2.88383 11.8811 3.30064C12.2823 3.71732 12.4913 4.26565 12.4695 4.84471C12.4499 5.36442 12.2376 5.85766 11.8718 6.23366C11.5058 6.6099 11.0184 6.83543 10.4993 6.86865C10.1624 6.89024 9.8313 6.83279 9.52734 6.70155V8.47266H11.5919C11.9081 8.47266 12.2003 8.64369 12.3545 8.91903C12.5102 9.19705 12.5031 9.53923 12.336 9.81207C12.2224 9.99749 12.1698 10.2118 12.1839 10.4319C12.2179 10.9633 12.6621 11.3954 13.195 11.4155C13.4851 11.4264 13.7594 11.322 13.9677 11.1214C14.1762 10.9206 14.291 10.6508 14.291 10.3616C14.291 10.1652 14.2367 9.97369 14.134 9.80782C13.9675 9.53902 13.9599 9.20011 14.114 8.92339C14.2689 8.64538 14.5626 8.47266 14.8806 8.47266H18V0.703125C18 0.314789 17.6852 0 17.2969 0L9.52734 0Z" fill="black"/>
<path d="M15.1743 9.52734C15.2872 9.78947 15.346 10.073 15.346 10.3616C15.346 10.9401 15.1164 11.4797 14.6996 11.8811C14.3028 12.2633 13.7864 12.471 13.2378 12.471C13.2105 12.471 13.1831 12.4705 13.1556 12.4695C12.6359 12.4499 12.1426 12.2376 11.7666 11.8718C11.3904 11.5058 11.1648 11.0184 11.1316 10.4993C11.11 10.1623 11.1675 9.83134 11.2987 9.52734H9.52762V11.5919C9.52762 11.9081 9.35659 12.2003 9.08124 12.3545C8.80319 12.5102 8.46102 12.5031 8.1882 12.336C8.00276 12.2224 7.78823 12.1698 7.5684 12.1839C7.03694 12.2179 6.60487 12.6621 6.58476 13.195C6.57383 13.485 6.67831 13.7594 6.87892 13.9677C7.07966 14.1762 7.34948 14.291 7.63868 14.291C7.8351 14.291 8.02659 14.2367 8.19246 14.134C8.46126 13.9675 8.80017 13.9599 9.07688 14.114C9.3549 14.2689 9.52762 14.5626 9.52762 14.8806V18H17.2972C17.6855 18 18.0003 17.6852 18.0003 17.2969V9.52734H15.1743Z" fill="black"/>
<path d="M2.826 8.47266C2.71311 8.21053 2.6543 7.92696 2.6543 7.6384C2.6543 7.05994 2.88383 6.52032 3.30064 6.11891C3.71732 5.71767 4.26551 5.50856 4.84471 5.53054C5.36442 5.55012 5.85766 5.76236 6.23366 6.12816C6.6099 6.4942 6.83543 6.98164 6.86865 7.50073C6.89024 7.8377 6.83279 8.16866 6.70156 8.47266H8.47266V6.40814C8.47266 6.09191 8.64369 5.79966 8.91904 5.64546C9.19702 5.48972 9.53923 5.49686 9.81208 5.66402C9.99752 5.77761 10.2119 5.83014 10.4319 5.81614C10.9633 5.78211 11.3954 5.33795 11.4155 4.80502C11.4265 4.51501 11.322 4.24058 11.1214 4.03228C10.9206 3.82384 10.6508 3.70902 10.3616 3.70902C10.1652 3.70902 9.97369 3.7633 9.80782 3.86599C9.53902 4.03246 9.20011 4.04012 8.9234 3.886C8.64538 3.7311 8.47266 3.43737 8.47266 3.11938V0H0.703125C0.314789 0 0 0.314789 0 0.703125V8.47266H2.826Z" fill="black"/>
</svg>
