<svg width="16" height="18" viewBox="0 0 16 18" fill="none" xmlns="http://www.w3.org/2000/svg">
<path d="M15.2941 2.87651H14.1176V0.653753C14.1054 0.297509 13.7964 0.0113215 13.4118 0H2.25882C1.01131 0 0 0.93662 0 2.09201V15.908C0 17.0634 1.01131 18 2.25882 18H15.2941C15.684 18 16 17.7073 16 17.3462V3.53027C16 3.16921 15.684 2.87651 15.2941 2.87651ZM8.18824 9.82809L6.49412 8.54237C6.26255 8.41311 5.97275 8.41311 5.74118 8.54237L4.04706 9.82809V4.18402H8.18824V9.82809ZM12.7059 2.87651H2.25882C1.79099 2.87651 1.41176 2.52529 1.41176 2.09201C1.41176 1.65873 1.79099 1.30751 2.25882 1.30751H12.7059V2.87651Z" fill="black"/>
</svg>
