<svg width="18" height="20" viewBox="0 0 18 20" fill="none" xmlns="http://www.w3.org/2000/svg">
<path d="M17.7144 14.0903L16.8091 6.82501H6.81592L5.89691 14.2007C5.7066 15.7662 5.625 17.2606 5.625 18.6375V19.2H18V18.6375C18 17.0923 17.9039 15.5613 17.7144 14.0903ZM14.625 9.63751C14.625 12.5236 13.416 14.7 11.8125 14.7C10.209 14.7 9 12.5236 9 9.63751V9.07501H10.125V9.63751C10.125 11.8914 11.016 13.575 11.8125 13.575C12.609 13.575 13.5 11.8914 13.5 9.63751V9.07501H14.625V9.63751Z" fill="black"/>
<path d="M4.78016 14.065L5.82221 5.69998H10.125V4.57498H0V15.825H4.61528C4.65521 15.2783 4.63256 15.2722 4.78016 14.065Z" fill="black"/>
<path d="M3.55803 3.45C3.85818 2.09696 4.48335 1.125 5.06268 1.125C5.64202 1.125 6.26718 2.09696 6.56733 3.45H7.71423C7.34343 1.44952 6.33217 0 5.06268 0C3.7932 0 2.78193 1.44952 2.41113 3.45H3.55803Z" fill="black"/>
</svg>
