<svg width="18" height="19" viewBox="0 0 18 19" fill="none" xmlns="http://www.w3.org/2000/svg">
<path d="M16.528 1.76722C15.597 0.69028 14.2923 0.0775186 12.9255 0.075247C11.5576 0.0769507 10.2516 0.689388 9.31912 1.76653L9.00132 2.12791L8.68353 1.76653C6.83326 -0.376516 3.71897 -0.499587 1.72758 1.49158C1.63934 1.57985 1.55411 1.67153 1.47209 1.76653C-0.490696 4.04485 -0.490696 7.5659 1.47209 9.84422L8.5343 17.8589C8.77863 18.1365 9.18579 18.1484 9.44373 17.8854C9.45218 17.8768 9.46039 17.868 9.46838 17.8589L16.528 9.84422C18.4907 7.56614 18.4907 4.0453 16.528 1.76722Z" fill="black"/>
</svg>
