<svg width="18" height="18" viewBox="0 0 18 18" fill="none" xmlns="http://www.w3.org/2000/svg">
<path d="M9 0C7.21997 0 5.47991 0.527841 3.99987 1.51677C2.51983 2.50571 1.36628 3.91131 0.685088 5.55585C0.00389954 7.20038 -0.17433 9.00998 0.172937 10.7558C0.520204 12.5016 1.37737 14.1053 2.63604 15.364C3.89472 16.6226 5.49836 17.4798 7.24419 17.8271C8.99002 18.1743 10.7996 17.9961 12.4442 17.3149C14.0887 16.6337 15.4943 15.4802 16.4832 14.0001C17.4722 12.5201 18 10.78 18 9C18 6.61305 17.0518 4.32387 15.364 2.63604C13.6761 0.948212 11.387 0 9 0V0Z" fill="#C4C4C4"/>
<path d="M9.17266 9.38244C10.659 9.38244 11.8639 8.17754 11.8639 6.69122C11.8639 5.2049 10.659 4 9.17266 4C7.68634 4 6.48145 5.2049 6.48145 6.69122C6.48145 8.17754 7.68634 9.38244 9.17266 9.38244Z" fill="white"/>
<path d="M6.00889 11.4376C5.35677 11.4383 4.72701 11.6754 4.23633 12.1049C4.77136 12.9267 5.50308 13.6019 6.36513 14.0693C7.22718 14.5367 8.19227 14.7815 9.17288 14.7815C10.1535 14.7815 11.1186 14.5367 11.9806 14.0693C12.8427 13.6019 13.5744 12.9267 14.1094 12.1049C13.6188 11.6754 12.989 11.4383 12.3369 11.4376H6.00889Z" fill="white"/>
</svg>
