<svg width="18" height="18" viewBox="0 0 18 18" fill="none" xmlns="http://www.w3.org/2000/svg">
<path d="M16.8261 3.49024H15.5159C15.6887 3.21673 15.8027 2.90971 15.8353 2.58501C15.9391 1.5473 15.3926 0.617065 14.4622 0.204647C13.607 -0.174443 12.6459 -0.0194745 11.9539 0.608205L10.2994 2.10762C9.97724 1.75521 9.51405 1.53373 9 1.53373C8.48503 1.53373 8.02111 1.75592 7.69883 2.10941L6.04227 0.608029C5.34909 -0.0196503 4.38841 -0.174021 3.53359 0.204858C2.60343 0.617311 2.05682 1.54786 2.16102 2.58553C2.19361 2.90999 2.30759 3.21687 2.48038 3.49024H1.1739C0.525551 3.49024 0 4.01583 0 4.66415V6.42502C0 6.74916 0.262793 7.01199 0.586969 7.01199H17.4131C17.7372 7.01199 18 6.74919 18 6.42502V4.66415C18 4.01583 17.4744 3.49024 16.8261 3.49024ZM7.23913 3.2946V3.49024H4.47785C3.74829 3.49024 3.17412 2.81011 3.35633 2.05053C3.43659 1.71601 3.67805 1.43086 3.99034 1.28651C4.41918 1.0883 4.89421 1.15193 5.25438 1.47794L7.23962 3.2773C7.23952 3.2831 7.23913 3.2888 7.23913 3.2946ZM14.6705 2.42916C14.6268 3.03922 14.0757 3.49031 13.4641 3.49031H10.7609V3.29467C10.7609 3.28774 10.7604 3.28089 10.7604 3.27396C11.2101 2.86629 12.1857 1.98204 12.7149 1.5024C13.0156 1.22984 13.4364 1.10261 13.8253 1.21862C14.3835 1.38512 14.7113 1.8598 14.6705 2.42916Z" fill="black"/>
<path d="M1.17383 8.18604V16.7947C1.17383 17.4431 1.69938 17.9686 2.34773 17.9686H7.82599V8.18604H1.17383Z" fill="black"/>
<path d="M10.1738 8.18604V17.9686H15.6521C16.3004 17.9686 16.826 17.4431 16.826 16.7947V8.18604H10.1738Z" fill="black"/>
</svg>
