<svg width="40" height="40" viewBox="0 0 40 40" fill="none" xmlns="http://www.w3.org/2000/svg">
<path d="M0 0H40V40H0V0Z" fill="black"/>
<path d="M27.8261 14.4902H26.5159C26.6887 14.2167 26.8027 13.9097 26.8353 13.585C26.9391 12.5473 26.3926 11.6171 25.4622 11.2046C24.607 10.8256 23.6459 10.9805 22.9539 11.6082L21.2994 13.1076C20.9772 12.7552 20.5141 12.5337 20 12.5337C19.485 12.5337 19.0211 12.7559 18.6988 13.1094L17.0423 11.608C16.3491 10.9803 15.3884 10.826 14.5336 11.2049C13.6034 11.6173 13.0568 12.5479 13.161 13.5855C13.1936 13.91 13.3076 14.2169 13.4804 14.4902H12.1739C11.5256 14.4902 11 15.0158 11 15.6641V17.425C11 17.7492 11.2628 18.012 11.587 18.012H28.4131C28.7372 18.012 29 17.7492 29 17.425V15.6641C29 15.0158 28.4744 14.4902 27.8261 14.4902ZM18.2391 14.2946V14.4902H15.4779C14.7483 14.4902 14.1741 13.8101 14.3563 13.0505C14.4366 12.716 14.678 12.4309 14.9903 12.2865C15.4192 12.0883 15.8942 12.1519 16.2544 12.4779L18.2396 14.2773C18.2395 14.2831 18.2391 14.2888 18.2391 14.2946ZM25.6705 13.4292C25.6268 14.0392 25.0757 14.4903 24.4641 14.4903H21.7609V14.2947C21.7609 14.2877 21.7604 14.2809 21.7604 14.274C22.2101 13.8663 23.1857 12.982 23.7149 12.5024C24.0156 12.2298 24.4364 12.1026 24.8253 12.2186C25.3835 12.3851 25.7113 12.8598 25.6705 13.4292Z" fill="white"/>
<path d="M12.1738 19.186V27.7947C12.1738 28.4431 12.6994 28.9686 13.3477 28.9686H18.826V19.186H12.1738Z" fill="white"/>
<path d="M21.1738 19.186V28.9686H26.6521C27.3004 28.9686 27.826 28.4431 27.826 27.7947V19.186H21.1738Z" fill="white"/>
<path d="M0 0V-1H-1V0H0ZM40 0H41V-1H40V0ZM40 40V41H41V40H40ZM0 40H-1V41H0V40ZM0 1H40V-1H0V1ZM39 0V40H41V0H39ZM40 39H0V41H40V39ZM1 40V0H-1V40H1Z" fill="black"/>
</svg>
