<svg width="18" height="18" viewBox="0 0 18 18" fill="none" xmlns="http://www.w3.org/2000/svg">
<path d="M9 18C13.9706 18 18 13.9706 18 9C18 4.02944 13.9706 0 9 0C4.02944 0 0 4.02944 0 9C0 13.9706 4.02944 18 9 18Z" fill="black"/>
<path d="M13.6204 11.9934L11.9362 10.305C11.8913 10.2603 11.8359 10.2275 11.7752 10.2095L11.7657 10.2074C11.7521 10.2036 11.7383 10.2008 11.7243 10.199C11.6654 10.19 11.6051 10.195 11.5485 10.2136C11.4918 10.2323 11.4404 10.2641 11.3983 10.3064L10.4433 11.2762C10.3348 11.3829 10.1988 11.4572 10.0505 11.4908C9.90216 11.5244 9.7474 11.5159 9.6036 11.4664H9.59834C9.5306 11.442 9.46641 11.4088 9.40746 11.3674C8.85065 10.9783 8.32954 10.5404 7.85027 10.059C7.41984 9.62986 7.02399 9.16737 6.66641 8.67586C6.55247 8.5202 6.49822 8.32879 6.51355 8.13649C6.52888 7.94419 6.61276 7.76379 6.74992 7.62814L7.73799 6.64007C7.77334 6.60481 7.80138 6.56291 7.82052 6.51679C7.83966 6.47067 7.8495 6.42123 7.8495 6.3713C7.8495 6.32137 7.83966 6.27192 7.82052 6.2258C7.80138 6.17968 7.77334 6.13779 7.73799 6.10253L6.05553 4.41832C6.02024 4.38301 5.97834 4.355 5.93223 4.33589C5.88611 4.31678 5.83668 4.30695 5.78676 4.30695C5.73684 4.30695 5.68741 4.31678 5.64129 4.33589C5.59518 4.355 5.55328 4.38301 5.51799 4.41832L4.9822 4.9513C4.6651 5.26326 4.44112 5.65734 4.33533 6.0894C4.22955 6.52147 4.24614 6.97445 4.38325 7.39761C4.62765 8.13156 4.97232 8.82821 5.40746 9.46779C5.80599 10.0635 6.26299 10.618 6.77167 11.1229C7.32412 11.6783 7.93599 12.1714 8.59623 12.5931C9.17277 12.9717 9.79613 13.2738 10.4506 13.4916L10.4555 13.4934C10.6048 13.5428 10.7555 13.5879 10.9078 13.6288C11.3079 13.7242 11.7259 13.7148 12.1213 13.6016C12.5168 13.4884 12.8763 13.2752 13.1654 12.9825L13.6215 12.5306V12.5334C13.6571 12.498 13.6853 12.4559 13.7045 12.4095C13.7237 12.3631 13.7335 12.3134 13.7334 12.2632C13.7333 12.213 13.7233 12.1633 13.7039 12.117C13.6845 12.0707 13.6561 12.0287 13.6204 11.9934Z" fill="white"/>
</svg>
