<svg width="17" height="19" viewBox="0 0 17 19" fill="none" xmlns="http://www.w3.org/2000/svg">
<path fill-rule="evenodd" clip-rule="evenodd" d="M-5.65322e-08 17.3067L-3.16566e-07 11.3579C-3.47786e-07 10.6436 0.521105 10.0646 1.16391 10.0646C1.80672 10.0646 2.32783 10.6436 2.32783 11.3579L2.32783 17.3067C2.32783 18.021 1.80672 18.6 1.16391 18.6C0.521106 18.6 -2.53122e-08 18.021 -5.65322e-08 17.3067ZM9.3113 17.388L9.3113 7.39714C9.3113 6.72778 9.85393 6.18515 10.5233 6.18515C11.1926 6.18515 11.7353 6.72778 11.7353 7.39714L11.7353 17.388C11.7353 18.0574 11.1926 18.6 10.5233 18.6C9.85393 18.6 9.3113 18.0574 9.3113 17.388ZM4.65566 5.09175L4.65566 17.3881C4.65566 18.0574 5.19829 18.6001 5.86764 18.6001C6.537 18.6001 7.07963 18.0574 7.07963 17.3881L7.07963 5.09175C7.07962 4.42239 6.537 3.87977 5.86764 3.87977C5.19829 3.87977 4.65566 4.42239 4.65566 5.09175ZM13.967 17.388L13.967 1.21198C13.967 0.542627 14.5096 -6.34235e-07 15.179 -6.63494e-07C15.8483 -6.92752e-07 16.391 0.542627 16.391 1.21198L16.391 17.388C16.391 18.0574 15.8483 18.6 15.179 18.6C14.5096 18.6 13.967 18.0574 13.967 17.388Z" fill="black"/>
</svg>
