<svg width="40" height="40" viewBox="0 0 40 40" fill="none" xmlns="http://www.w3.org/2000/svg">
<path fill-rule="evenodd" clip-rule="evenodd" d="M40 0H0V40H40V0ZM20 36C28.8366 36 36 28.8366 36 20C36 11.1634 28.8366 4 20 4C11.1634 4 4 11.1634 4 20C4 28.8366 11.1634 36 20 36Z" fill="white"/>
<path d="M23.4453 19.5C23.4453 21.35 21.9028 22.8496 20 22.8496C18.0972 22.8496 16.5547 21.35 16.5547 19.5C16.5547 17.65 18.0972 16.1504 20 16.1504C21.9028 16.1504 23.4453 17.65 23.4453 19.5Z" fill="white"/>
<path d="M28.0575 13.5736C27.8919 13.1372 27.6277 12.7423 27.2843 12.4181C26.9509 12.0844 26.545 11.8275 26.0959 11.6665C25.7317 11.5289 25.1846 11.3652 24.1769 11.3206C23.0867 11.2723 22.7599 11.2619 20.0001 11.2619C17.2401 11.2619 16.9132 11.272 15.8234 11.3204C14.8157 11.3652 14.2683 11.5289 13.9044 11.6665C13.4553 11.8275 13.0491 12.0844 12.7159 12.4181C12.3726 12.7423 12.1084 13.137 11.9425 13.5736C11.801 13.9277 11.6327 14.4598 11.5868 15.4396C11.5371 16.4991 11.5264 16.8169 11.5264 19.5003C11.5264 22.1834 11.5371 22.5011 11.5868 23.561C11.6327 24.5407 11.801 25.0726 11.9425 25.4267C12.1084 25.8633 12.3723 26.258 12.7156 26.5821C13.0491 26.9159 13.455 27.1728 13.9041 27.3338C14.2683 27.4716 14.8157 27.6353 15.8234 27.6799C16.9132 27.7282 17.2398 27.7384 19.9998 27.7384C22.7602 27.7384 23.087 27.7282 24.1766 27.6799C25.1843 27.6353 25.7317 27.4716 26.0959 27.3338C26.9973 26.9958 27.7098 26.3031 28.0575 25.4267C28.1989 25.0726 28.3673 24.5407 28.4135 23.561C28.4632 22.5011 28.4736 22.1834 28.4736 19.5003C28.4736 16.8169 28.4632 16.4991 28.4135 15.4396C28.3676 14.4598 28.1992 13.9277 28.0575 13.5736V13.5736ZM20.0001 24.6601C17.0687 24.6601 14.6924 22.35 14.6924 19.5C14.6924 16.65 17.0687 14.3399 20.0001 14.3399C22.9313 14.3399 25.3076 16.65 25.3076 19.5C25.3076 22.35 22.9313 24.6601 20.0001 24.6601ZM25.5175 15.3418C24.8325 15.3418 24.2771 14.8019 24.2771 14.1359C24.2771 13.47 24.8325 12.93 25.5175 12.93C26.2025 12.93 26.7578 13.47 26.7578 14.1359C26.7575 14.8019 26.2025 15.3418 25.5175 15.3418Z" fill="white"/>
<path d="M20 2C10.0604 2 2 9.83649 2 19.5C2 29.1635 10.0604 37 20 37C29.9396 37 38 29.1635 38 19.5C38 9.83649 29.9396 2 20 2ZM30.2736 23.643C30.2236 24.7127 30.0486 25.443 29.7932 26.0823C29.2563 27.4321 28.1587 28.4991 26.7703 29.0212C26.1131 29.2695 25.3616 29.4393 24.2616 29.4882C23.1594 29.5371 22.8073 29.5488 20.0003 29.5488C17.193 29.5488 16.8412 29.5371 15.7387 29.4882C14.6387 29.4393 13.8872 29.2695 13.2299 29.0212C12.54 28.7688 11.9154 28.3734 11.3991 27.862C10.8734 27.3603 10.4666 26.7528 10.2071 26.0823C9.95163 25.4433 9.77667 24.7127 9.72668 23.6432C9.67587 22.5714 9.66406 22.229 9.66406 19.5C9.66406 16.771 9.67587 16.4286 9.72641 15.357C9.7764 14.2873 9.95108 13.557 10.2065 12.9177C10.4661 12.2472 10.8731 11.6397 11.3991 11.138C11.9152 10.6266 12.54 10.2312 13.2297 9.97882C13.8872 9.73048 14.6384 9.56065 15.7387 9.51179C16.8409 9.46292 17.193 9.45117 20 9.45117C22.807 9.45117 23.1591 9.46292 24.2613 9.51205C25.3616 9.56065 26.1128 9.73048 26.7703 9.97855C27.46 10.2309 28.0848 10.6266 28.6012 11.138C29.1269 11.64 29.5339 12.2472 29.7932 12.9177C30.0489 13.557 30.2236 14.2873 30.2739 15.357C30.3241 16.4286 30.3359 16.771 30.3359 19.5C30.3359 22.229 30.3241 22.5714 30.2736 23.643V23.643Z" fill="white"/>
</svg>
