<svg width="36" height="35" viewBox="0 0 36 35" fill="none" xmlns="http://www.w3.org/2000/svg">
<path d="M21.4453 17.5C21.4453 19.35 19.9028 20.8496 18 20.8496C16.0972 20.8496 14.5547 19.35 14.5547 17.5C14.5547 15.65 16.0972 14.1504 18 14.1504C19.9028 14.1504 21.4453 15.65 21.4453 17.5Z" fill="white"/>
<path d="M26.0575 11.5736C25.8919 11.1373 25.6277 10.7424 25.2843 10.4182C24.9509 10.0844 24.545 9.82753 24.0959 9.66651C23.7317 9.52899 23.1846 9.3653 22.1769 9.32071C21.0867 9.27238 20.7599 9.26196 18.0001 9.26196C15.2401 9.26196 14.9132 9.27211 13.8234 9.32044C12.8157 9.3653 12.2683 9.52899 11.9044 9.66651C11.4553 9.82753 11.0491 10.0844 10.7159 10.4182C10.3726 10.7424 10.1084 11.137 9.94247 11.5736C9.80103 11.9277 9.63266 12.4599 9.58679 13.4396C9.53708 14.4992 9.52637 14.817 9.52637 17.5003C9.52637 20.1834 9.53708 20.5012 9.58679 21.561C9.63266 22.5408 9.80103 23.0727 9.94247 23.4268C10.1084 23.8634 10.3723 24.258 10.7156 24.5822C11.0491 24.916 11.455 25.1729 11.9041 25.3339C12.2683 25.4717 12.8157 25.6354 13.8234 25.68C14.9132 25.7283 15.2398 25.7384 17.9998 25.7384C20.7602 25.7384 21.087 25.7283 22.1766 25.68C23.1843 25.6354 23.7317 25.4717 24.0959 25.3339C24.9973 24.9958 25.7098 24.3032 26.0575 23.4268C26.1989 23.0727 26.3673 22.5408 26.4135 21.561C26.4632 20.5012 26.4736 20.1834 26.4736 17.5003C26.4736 14.817 26.4632 14.4992 26.4135 13.4396C26.3676 12.4599 26.1992 11.9277 26.0575 11.5736ZM18.0001 22.6601C15.0687 22.6601 12.6924 20.3501 12.6924 17.5001C12.6924 14.6501 15.0687 12.34 18.0001 12.34C20.9313 12.34 23.3076 14.6501 23.3076 17.5001C23.3076 20.3501 20.9313 22.6601 18.0001 22.6601ZM23.5175 13.3419C22.8325 13.3419 22.2771 12.802 22.2771 12.136C22.2771 11.47 22.8325 10.9301 23.5175 10.9301C24.2025 10.9301 24.7578 11.47 24.7578 12.136C24.7575 12.802 24.2025 13.3419 23.5175 13.3419Z" fill="white"/>
<path d="M18 0C8.06039 0 0 7.83649 0 17.5C0 27.1635 8.06039 35 18 35C27.9396 35 36 27.1635 36 17.5C36 7.83649 27.9396 0 18 0ZM28.2736 21.643C28.2236 22.7127 28.0486 23.443 27.7932 24.0823C27.2563 25.4321 26.1587 26.4991 24.7703 27.0212C24.1131 27.2695 23.3616 27.4393 22.2616 27.4882C21.1594 27.5371 20.8073 27.5488 18.0003 27.5488C15.193 27.5488 14.8412 27.5371 13.7387 27.4882C12.6387 27.4393 11.8872 27.2695 11.2299 27.0212C10.54 26.7688 9.91544 26.3734 9.39908 25.862C8.87338 25.3603 8.46661 24.7528 8.20706 24.0823C7.95163 23.4433 7.77667 22.7127 7.72668 21.6432C7.67587 20.5714 7.66406 20.229 7.66406 17.5C7.66406 14.771 7.67587 14.4286 7.72641 13.357C7.7764 12.2873 7.95108 11.557 8.20651 10.9177C8.46606 10.2472 8.87311 9.63974 9.39908 9.13799C9.91516 8.62663 10.54 8.23116 11.2297 7.97882C11.8872 7.73048 12.6384 7.56065 13.7387 7.51179C14.8409 7.46292 15.193 7.45117 18 7.45117C20.807 7.45117 21.1591 7.46292 22.2613 7.51205C23.3616 7.56065 24.1128 7.73048 24.7703 7.97855C25.46 8.2309 26.0848 8.62663 26.6012 9.13799C27.1269 9.64001 27.5339 10.2472 27.7932 10.9177C28.0489 11.557 28.2236 12.2873 28.2739 13.357C28.3241 14.4286 28.3359 14.771 28.3359 17.5C28.3359 20.229 28.3241 20.5714 28.2736 21.643Z" fill="white"/>
</svg>
