<svg width="40" height="40" viewBox="0 0 40 40" fill="none" xmlns="http://www.w3.org/2000/svg">
<path d="M0 0H40V40H0V0Z" fill="black"/>
<path d="M27.528 12.7673C26.597 11.6903 25.2923 11.0776 23.9255 11.0753C22.5576 11.077 21.2516 11.6894 20.3191 12.7666L20.0013 13.128L19.6835 12.7666C17.8333 10.6235 14.719 10.5005 12.7276 12.4916C12.6393 12.5799 12.5541 12.6716 12.4721 12.7666C10.5093 15.0449 10.5093 18.566 12.4721 20.8443L19.5343 28.859C19.7786 29.1366 20.1858 29.1484 20.4437 28.8855C20.4522 28.8769 20.4604 28.8681 20.4684 28.859L27.528 20.8443C29.4907 18.5662 29.4907 15.0454 27.528 12.7673Z" fill="white"/>
<path d="M0 0V-1H-1V0H0ZM40 0H41V-1H40V0ZM40 40V41H41V40H40ZM0 40H-1V41H0V40ZM0 1H40V-1H0V1ZM39 0V40H41V0H39ZM40 39H0V41H40V39ZM1 40V0H-1V40H1Z" fill="black"/>
</svg>
