<svg width="14" height="30" viewBox="0 0 14 30" fill="none" xmlns="http://www.w3.org/2000/svg">
<line x1="0.5" y1="2.18557e-08" x2="0.499999" y2="30" stroke="black"/>
<path d="M6.2221 15.3902L10.6722 19.8402C10.7752 19.9433 10.9125 20 11.0591 20C11.2056 20 11.343 19.9433 11.4459 19.8402L11.7736 19.5126C11.9868 19.2991 11.9868 18.9521 11.7736 18.739L8.03672 15.0021L11.7777 11.261C11.8807 11.158 11.9375 11.0207 11.9375 10.8743C11.9375 10.7277 11.8807 10.5904 11.7777 10.4873L11.45 10.1598C11.347 10.0567 11.2097 10 11.0632 10C10.9167 10 10.7793 10.0567 10.6764 10.1598L6.2221 14.6139C6.11893 14.7172 6.06226 14.8552 6.06259 15.0018C6.06226 15.1491 6.11893 15.2869 6.2221 15.3902Z" fill="black"/>
</svg>
