<svg width="15" height="30" viewBox="0 0 15 30" fill="none" xmlns="http://www.w3.org/2000/svg">
<line x1="14.5" y1="2.18557e-08" x2="14.5" y2="30" stroke="black"/>
<path d="M7.7779 14.6098L3.32777 10.1598C3.22485 10.0567 3.08745 10 2.94095 10C2.79445 10 2.65705 10.0567 2.55412 10.1598L2.2264 10.4874C2.01315 10.7009 2.01315 11.0479 2.2264 11.261L5.96328 14.9979L2.22225 18.739C2.11933 18.842 2.0625 18.9793 2.0625 19.1257C2.0625 19.2723 2.11933 19.4096 2.22225 19.5127L2.54998 19.8402C2.65298 19.9433 2.7903 20 2.9368 20C3.0833 20 3.2207 19.9433 3.32363 19.8402L7.7779 15.3861C7.88107 15.2828 7.93774 15.1448 7.93741 14.9982C7.93774 14.8509 7.88107 14.7131 7.7779 14.6098Z" fill="black"/>
</svg>
