<svg width="81" height="90" viewBox="0 0 81 90" fill="none" xmlns="http://www.w3.org/2000/svg">
<rect width="81" height="90" fill="white"/>
<path fill-rule="evenodd" clip-rule="evenodd" d="M43.8475 75.6584C42.1428 75.0785 40.3239 73.6618 38.9858 72.2771C38.378 71.6049 37.8213 70.889 37.3203 70.1351C36.5668 69.026 35.5287 67.895 34.8843 66.8248C36.7185 65.8916 38.6346 64.1519 38.3602 61.6261C38.2528 60.6219 37.8487 59.922 37.2998 59.0766C36.7509 58.2313 34.4803 56.8196 32.1858 56.6878C30.0856 56.5694 27.7076 56.5187 25.4216 56.6134C24.9426 56.6303 24.0357 56.5982 23.9863 56.6878C23.8891 56.8687 24.617 56.8399 25.333 57.0817C25.8444 57.2744 26.2689 57.5432 26.4206 58.0521C26.4973 58.4823 26.5428 58.9173 26.557 59.3539C26.6251 61.1866 26.4751 63.3556 26.4206 65.1984C26.3729 66.7927 26.5297 68.4749 26.4871 70.0066C26.4444 71.5383 26.7564 74.4023 26.2808 75.4589C26.0353 76.0101 25.3091 76.1927 24.7108 76.289C24.5182 76.3245 24.1619 76.2738 24.1994 76.3685C24.2369 76.4632 24.5625 76.5257 24.767 76.5561C25.4489 76.6542 26.2723 76.431 27.0445 76.4361C27.6735 76.4361 28.4219 76.4496 29.0577 76.5004C29.6936 76.5511 30.4215 76.7793 30.9636 76.6018C31.1136 76.5595 31.4306 76.4429 31.3522 76.3685C31.2738 76.2941 31.0113 76.3465 30.8289 76.3262C30.3947 76.2988 29.9757 76.1569 29.6151 75.9154C28.7799 75.2729 28.9248 74.1892 28.86 72.7336C28.7648 71.0435 28.7865 69.3489 28.9248 67.6617C29.9987 67.6617 31.4102 67.6617 32.7449 67.7259C34.303 70.1114 36.5464 72.9331 39.1324 74.7421C40.0529 75.3828 41.1405 76.0473 42.1173 76.3634C43.6157 76.852 45.7687 76.6897 47.0472 76.2349C47.9268 75.9222 48.474 75.3778 48.3717 75.2611C48.2694 75.1445 47.6899 75.6753 46.7744 75.8427C45.7989 75.9975 44.8006 75.9317 43.8543 75.65L43.8475 75.6584ZM28.8463 66.6287C28.8566 63.873 28.9265 61.0699 28.981 57.7326C28.981 57.6565 29.0492 57.5923 29.1873 57.6041C31.5125 57.6565 33.9212 57.9287 34.9491 59.2947C35.9583 60.6202 36.1424 63.4605 35.2287 64.8738C34.1854 66.5104 31.2857 67.1596 28.8532 66.6304L28.8463 66.6287Z" fill="black"/>
<path fill-rule="evenodd" clip-rule="evenodd" d="M79.4001 72.7809C78.9603 73.371 78.0449 74.0489 77.184 74.5223C75.0822 75.6787 70.4642 76.0642 68.7817 74.4766C68.4611 74.1438 68.222 73.7424 68.0828 73.3033C67.8935 72.1875 67.9856 70.5189 68.0163 68.9871C68.0282 68.529 68.0026 68.0235 67.9856 67.6127C67.9694 67.4695 67.966 67.3253 67.9754 67.1815C68.1731 67.1646 68.9982 67.1596 69.3391 67.1545C70.5699 67.1325 71.8126 66.9246 72.6462 67.3641C73.0005 67.5596 73.2798 67.8657 73.4406 68.2348C73.5343 68.5357 73.565 68.5729 73.6383 68.5357C73.6843 68.5121 73.7031 68.2838 73.7031 68.1537C73.6639 67.1985 73.6127 66.086 73.6315 65.1105C73.6315 64.9939 73.6485 64.6693 73.5531 64.6828C73.4985 64.6828 73.4457 64.7707 73.3587 65.1325C73.2756 65.4136 73.1173 65.6672 72.9006 65.8664C72.6839 66.0655 72.4169 66.2027 72.128 66.2635C71.8023 66.3027 71.474 66.3169 71.1461 66.3058C70.3721 66.2872 68.7595 66.3988 67.9464 66.3396V65.5298C67.9464 64.2331 67.96 62.8028 67.9464 61.0581C67.9464 59.7884 67.7759 57.6159 68.1373 57.6193C71.8774 57.6413 73.923 57.0783 75.1691 58.7182C75.5641 59.2716 75.7842 59.9289 75.8015 60.6067C75.8015 60.8586 75.6584 61.3015 75.8015 61.3252C75.88 61.3336 76.1851 61.0192 76.2737 60.5593C76.3624 60.0995 76.284 59.4469 76.2857 59.1189C76.301 58.4308 76.3965 57.4384 76.1527 56.8433C71.6046 56.8095 67.6941 56.9532 62.8869 56.7791C62.546 56.7791 62.6073 57.0411 62.9159 57.0529C63.6881 57.0969 64.9734 57.6463 65.2462 58.7233C65.374 59.2017 65.3331 59.8831 65.3877 60.4816C65.4899 61.6379 65.6843 62.8265 65.5956 64.1164C65.4899 65.709 65.7797 67.4149 65.6672 68.9871C65.5547 70.5594 65.6843 72.7218 65.3877 74.1825C65.1916 75.1326 64.2915 75.6229 63.6335 75.8444C63.1665 75.9982 62.5102 76.0253 62.6755 76.2637C62.7795 76.409 63.2227 76.3296 63.4409 76.3279C64.7177 76.3144 65.657 76.2214 66.7071 76.2637C69.1192 76.3549 71.8126 76.2806 73.7815 76.3279C75.1691 76.3617 76.5976 76.3076 77.4704 76.5223C77.9818 75.9137 78.4932 75.2138 79.0046 74.5088C79.2936 74.1344 79.5458 73.7336 79.7581 73.3118C79.9286 72.9534 80.0837 72.5476 80.0496 72.4005C79.9695 72.1064 79.7087 72.36 79.4001 72.7809Z" fill="black"/>
<path fill-rule="evenodd" clip-rule="evenodd" d="M60.7285 56.6438H60.587C55.1729 56.9329 49.6668 56.8754 44.1419 56.8399C44.0448 57.178 44.1505 57.4824 44.1419 57.8137C44.1198 58.4612 43.8931 59.1037 43.9237 59.6278C43.9323 59.8188 43.9459 60.206 44.0652 60.1502C44.1846 60.0944 44.2851 59.7664 44.3942 59.5652C44.7897 58.8332 45.2142 58.0656 45.8722 57.8746C46.7245 57.6328 48.794 57.7376 50.335 57.7393C51.2726 57.7393 51.0817 57.7816 51.0817 58.5289C51.109 61.692 51.2675 64.6929 51.3562 67.6837C51.3817 68.5814 51.3562 69.5873 51.3817 70.4935C51.5368 75.2662 51.4653 75.6297 50.4595 75.9306C50.1427 76.0287 49.8206 76.1089 49.4946 76.1707C49.1997 76.2231 49.1332 76.431 49.4623 76.4496C50.3708 76.5054 51.5079 76.3685 52.6466 76.3685C53.7853 76.3685 54.7894 76.4986 55.6877 76.5037C56.1838 76.5325 56.1872 76.2603 55.5565 76.1656C55.2366 76.1359 54.9271 76.0372 54.6496 75.8765C53.6796 75.3034 53.8603 73.7835 53.7973 72.4175C53.7478 71.4031 53.7478 70.6085 53.7342 69.944C53.683 68.321 53.4648 66.6135 53.5194 64.884C53.5842 62.791 53.4137 60.6709 53.4972 58.6388C53.5143 58.3192 53.4597 57.8256 53.5586 57.7427C53.7768 57.7089 54.1961 57.6785 54.4689 57.6497C55.7951 57.5229 57.2799 57.4452 58.4902 57.6497C59.063 57.7393 59.4329 57.7647 59.9767 58.1299C60.5205 58.495 60.6364 59.7546 60.8802 59.6903C61.008 59.6362 60.9484 58.9295 60.9484 58.4579C60.9632 57.8458 60.8891 57.2349 60.7285 56.6438Z" fill="black"/>
<path fill-rule="evenodd" clip-rule="evenodd" d="M21.8874 76.0658C20.164 75.1225 19.1599 73.2695 18.4133 71.2982C16.7171 66.7809 14.8829 62.0369 13.3095 57.67C13.093 57.0631 12.9788 56.2972 12.4281 55.8695C12.0429 56.4511 11.2621 57.1172 10.357 57.599C8.36589 63.2931 3.87918 73.4301 3.63541 73.983C3.39846 74.5354 3.04507 75.0311 2.59897 75.4369C2.23707 75.767 1.80976 76.0186 1.34432 76.1757C0.916447 76.3448 0.645403 76.218 0.626652 76.4057C0.601082 76.5375 1.30852 76.5882 1.57957 76.5747C1.85061 76.5612 3.16151 76.3127 4.15022 76.4395C5.8549 76.6559 6.21288 76.497 6.22482 76.338C6.23675 76.1791 5.47987 76.289 5.0878 75.6263C4.58662 74.781 6.21288 71.2306 6.96294 69.4216C7.28001 68.6524 7.48969 67.9001 7.92609 67.2086C9.89329 67.1055 12.302 67.3219 14.4243 67.2813C15.0943 68.7133 16.2057 71.4758 16.8671 73.3676C17.1024 74.032 17.4996 74.8401 17.3069 75.5096C17.0495 76.4429 15.7915 76.0456 15.9824 76.4073C16.0966 76.6305 17.1245 76.6271 17.7553 76.6153C19.0201 76.595 20.3873 76.4767 21.5243 76.546C22.0715 76.5815 23.1625 76.5781 23.1489 76.4073C23.125 76.1791 22.6528 76.3904 21.8908 76.0692L21.8874 76.0658ZM8.40169 65.9626C9.52678 63.829 10.166 61.1629 11.3167 59.058C11.3576 59.0394 11.3917 59.0394 11.4667 59.1967C12.244 61.315 13.2839 63.7005 14.051 66.0404C11.8468 66.0843 10.091 66.2263 8.40169 65.9626Z" fill="black"/>
<path fill-rule="evenodd" clip-rule="evenodd" d="M56.4072 50.6809C56.6191 50.5741 56.805 50.4229 56.9521 50.2378C57.0993 50.0528 57.2042 49.8382 57.2596 49.609C57.6431 47.9928 56.0254 45.303 55.0878 43.9285C52.4438 43.5413 53.3252 41.8997 53.3252 39.3114C53.335 38.6278 53.2553 37.9458 53.0882 37.2826C55.0469 38.0366 57.1897 39.6055 60.5138 43.0849C66.5773 49.4129 73.0994 47.0426 74.9592 45.0663C77.3765 42.4965 76.1525 39.9775 75.769 40.0265C75.3854 40.0755 75.4655 41.1288 74.6694 41.658C73.8734 42.1871 73.1523 43.0105 73.8171 44.3038C71.8397 46.6944 66.1955 47.2066 61.4377 42.0958C56.9101 37.2369 53.1359 34.8109 50.1391 33.8929C48.5248 33.1828 46.2183 33.1422 43.7363 33.2082C43.7363 33.2082 40.8571 33.1236 37.6404 33.0391C38.1859 31.6392 37.7393 30.6502 37.7393 30.2969C37.7393 30.214 37.8347 30.1515 38.0308 30.0889C40.8502 30.0225 43.6575 29.7005 46.4178 29.127C54.8866 27.46 56.1652 25.3923 54.7963 24.9477C57.7659 24.4405 58.5193 22.9189 57.0004 22.8868C59.2063 22.5098 60.166 20.9696 58.8756 21.0153C61.1053 20.339 60.7593 18.6822 59.3972 19.1556C61.2724 18.4472 60.761 16.9425 59.6001 17.3398L58.3693 17.7574C57.2204 18.0702 55.1645 18.9916 51.2966 19.279C45.9627 19.6746 42.6709 18.3999 36.367 18.1091C28.921 17.7709 23.2802 20.011 23.0466 22.9426C22.8131 25.8742 27.2333 27.7778 29.5466 29.3941C32.0081 31.1084 30.8217 33.1676 28.8647 32.8058C26.6964 32.2766 20.7999 26.4355 18.2156 25.9638C15.5103 25.4701 13.9812 27.5597 13.9812 27.5597C12.2236 27.8979 11.5503 28.7956 12.1572 29.3738C11.102 29.3738 10.6059 30.2191 10.2258 30.5826C9.63764 30.5826 9.69389 31.1895 9.69389 31.1895C9.69389 31.8506 10.6894 32.8362 10.8292 32.4693C11.2025 31.5192 12.6311 31.5192 12.6311 32.4C12.6311 33.2809 11.6082 33.4448 11.0235 32.8903C10.4388 32.3358 10.8531 33.4973 10.8531 34.0467C10.8531 34.5962 10.7286 34.8734 11.0747 35.2031C10.8531 34.5962 12.0702 33.5801 13.1561 34.5962C14.242 35.6122 19.2094 42.674 20.5663 43.9403C20.655 44.0265 20.7368 44.1094 20.8493 44.2007C20.4658 45.9623 19.0867 48.6234 17.6428 49.6107C16.9388 48.9514 15.1761 49.3351 15.6517 50.2684C15.7682 50.4657 15.9484 50.6182 16.1632 50.7012H0.625V52.1839H80.0409V50.7012L56.4072 50.6809ZM48.893 44.5946C50.0953 45.238 51.4343 45.5896 52.8001 45.6208C53.5076 45.6208 55.156 48.4949 55.156 49.533C54.244 49.1086 53.095 49.3994 53.6218 50.3783C53.6931 50.5031 53.7959 50.6074 53.9201 50.6809H44.3739C44.5336 50.651 44.6913 50.6115 44.8461 50.5625C46.8372 49.7561 49.3498 47.3064 49.5527 45.5414C49.2561 45.2641 48.8828 45.1187 48.8947 44.5895L48.893 44.5946ZM30.5217 46.4594C31.3058 45.4585 31.6195 44.9378 31.7439 44.4036C32.0371 44.2869 32.3303 44.1686 32.6406 44.035C37.8927 41.827 40.8367 40.9918 43.1482 40.5404C42.9778 41.9386 43.6596 42.6622 44.6552 43.5971C45.9251 44.7806 46.6786 45.0528 46.3956 45.9809C45.9558 47.4298 44.1199 48.9666 43.5949 49.4586C42.4544 48.7282 41.2492 49.3521 41.5714 50.1128C41.6703 50.3664 41.9856 50.5507 42.359 50.6809H24.661C24.8341 50.6381 25.0048 50.5862 25.1724 50.5254C26.2924 50.0334 29.0539 48.3275 30.5234 46.4594H30.5217ZM19.2537 50.5254C20.372 50.0334 23.137 48.3275 24.5996 46.4594C24.7701 46.2447 24.9116 46.0519 25.0479 45.8795C25.3247 45.8897 25.6018 45.8857 25.8781 45.8676C25.5815 47.1661 24.7479 48.4983 23.5836 49.5871C22.8796 48.9277 21.1169 49.3115 21.5874 50.2447C21.7063 50.4399 21.8857 50.5918 22.0988 50.6775H18.7474C18.9189 50.636 19.0879 50.5853 19.2537 50.5254Z" fill="black"/>
<path fill-rule="evenodd" clip-rule="evenodd" d="M5.71862 87.6197H2.09277V87.4287L2.80022 87.1565V82.9197L2.09277 82.6442V82.4514H4.27647V82.6442L3.57925 82.9197V87.2731H5.04187L5.56179 86.3145H5.84477L5.71862 87.6197Z" fill="black"/>
<path fill-rule="evenodd" clip-rule="evenodd" d="M28.1147 87.6197V87.4252L28.7471 87.1378L28.1539 85.5419H26.4049L25.7758 87.1378L26.4049 87.4252V87.6163H24.5996V87.4252L25.2286 87.1378L27.3083 82.4142H27.7737L29.579 87.1378L30.2063 87.4252V87.6163L28.1147 87.6197ZM27.4959 83.7667C27.4635 83.6686 27.443 83.6196 27.4106 83.53C27.39 83.4422 27.3638 83.3558 27.3322 83.2713L26.5361 85.2274H28.0209L27.4959 83.7667Z" fill="black"/>
<path fill-rule="evenodd" clip-rule="evenodd" d="M53.5652 87.6197V87.4286L54.2573 87.1565V83.3305L52.3873 87.6924H52.2236L50.3741 83.3305V87.1565L51.0764 87.4286V87.6197H49.2285V87.4286L49.9223 87.1565V82.9197L49.2285 82.6442V82.4514H50.8565L52.5049 86.3365L54.1721 82.4514H55.7421V82.6442L55.0415 82.9197V87.1565L55.7421 87.4286V87.6197H53.5652Z" fill="black"/>
<path fill-rule="evenodd" clip-rule="evenodd" d="M77.1551 82.4514C77.8251 82.4514 78.2785 82.5393 78.6416 82.8419C78.7973 82.9688 78.9212 83.1299 79.0035 83.3124C79.0857 83.4948 79.1241 83.6938 79.1155 83.8935C79.1241 84.1233 79.0736 84.3515 78.9686 84.5565C78.8636 84.7615 78.7076 84.9365 78.5155 85.0651C78.1 85.3248 77.6151 85.4538 77.1244 85.4354H76.55V87.1615L77.4108 87.427V87.6197H75.0635V87.4253L75.7658 87.1598V82.9163L75.0635 82.6408V82.4497L77.1551 82.4514ZM76.9284 85.1243C77.4824 85.1243 78.2921 84.9772 78.2921 83.9206C78.2921 83.3018 78.0177 82.7625 77.1159 82.7625H76.5483V85.1294L76.9284 85.1243Z" fill="black"/>
<rect width="27.0001" height="8.18376" fill="#00944D"/>
<rect x="54" width="27.0001" height="8.18376" fill="#FF0000"/>
<rect x="27" width="27.0001" height="8.18376" fill="white"/>
</svg>
