<svg width="40" height="40" viewBox="0 0 40 40" fill="none" xmlns="http://www.w3.org/2000/svg">
<path d="M0 -0.409363H40V40.4094H0V-0.409363Z" fill="black"/>
<path d="M11.1099 27.4203L16.3387 22.1914C15.347 20.967 14.75 19.4104 14.75 17.7157C14.75 13.7869 17.9463 10.5906 21.875 10.5906C25.8037 10.5906 29 13.7869 29 17.7157C29 21.6444 25.8037 24.8407 21.875 24.8407C20.1802 24.8407 18.6236 24.2437 17.3993 23.2519L12.1704 28.4808C12.0239 28.6272 11.7865 28.6272 11.64 28.4808L11.1098 27.9506C10.9634 27.8041 10.9634 27.5667 11.1099 27.4203ZM21.875 23.3407C24.9768 23.3407 27.5 20.8175 27.5 17.7157C27.5 14.6139 24.9768 12.0907 21.875 12.0907C18.7732 12.0907 16.25 14.6139 16.25 17.7157C16.25 20.8175 18.7732 23.3407 21.875 23.3407Z" fill="white"/>
<circle cx="22" cy="17.5906" r="6" fill="white"/>
<path d="M0 -0.409363V-1.40936H-1V-0.409363H0ZM40 -0.409363H41V-1.40936H40V-0.409363ZM40 40.4094V41.4094H41V40.4094H40ZM0 40.4094H-1V41.4094H0V40.4094ZM0 0.590637H40V-1.40936H0V0.590637ZM39 -0.409363V40.4094H41V-0.409363H39ZM40 39.4094H0V41.4094H40V39.4094ZM1 40.4094V-0.409363H-1V40.4094H1Z" fill="black"/>
</svg>
