<svg width="20" height="20" viewBox="0 0 20 20" fill="none" xmlns="http://www.w3.org/2000/svg">
<path d="M1.10985 17.8296L6.33872 12.6007C5.34696 11.3764 4.74997 9.81978 4.74997 8.12503C4.74997 4.19631 7.94628 1 11.875 1C15.8037 1 19 4.19631 19 8.12503C19 12.0538 15.8037 15.2501 11.875 15.2501C10.1802 15.2501 8.62364 14.653 7.39925 13.6613L2.17038 18.8902C2.02388 19.0366 1.7865 19.0366 1.64001 18.8902L1.10982 18.36C0.96339 18.2135 0.96339 17.976 1.10985 17.8296ZM11.875 13.75C14.9768 13.75 17.5 11.2268 17.5 8.12503C17.5 5.02322 14.9768 2.50002 11.875 2.50002C8.77316 2.50002 6.24996 5.02322 6.24996 8.12503C6.24996 11.2268 8.77316 13.75 11.875 13.75Z" fill="black"/>
</svg>
