<svg width="18" height="15" viewBox="0 0 18 15" fill="none" xmlns="http://www.w3.org/2000/svg">
<path d="M11.2175 14.6761L17.713 8.18056C17.8983 7.99529 18 7.74812 18 7.47929C18 7.21573 17.8983 6.96871 17.713 6.78344L11.2175 0.28778C10.8337 -0.0959271 10.2089 -0.0959272 9.82537 0.28778L9.23532 0.877536C9.0502 1.0628 8.94834 1.30998 8.94834 1.57368C8.94834 1.83724 9.0502 2.0929 9.23532 2.27802L13.025 6.07588L0.985317 6.07588C0.442684 6.07588 -2.84161e-07 6.50085 -3.07881e-07 7.04349L-3.44342e-07 7.87763C-3.68062e-07 8.42027 0.442684 8.88827 0.985317 8.88827L13.0677 8.88827L9.23532 12.7076C9.0502 12.8928 8.94834 13.1333 8.94834 13.397C8.94834 13.6608 9.0502 13.9043 9.23532 14.0897L9.82537 14.6777C10.2091 15.0615 10.8337 15.0601 11.2175 14.6761Z" fill="black"/>
<path d="M11.2175 14.6761L17.713 8.18056C17.8983 7.99529 18 7.74812 18 7.47929C18 7.21573 17.8983 6.96871 17.713 6.78344L11.2175 0.28778C10.8337 -0.0959271 10.2089 -0.0959272 9.82537 0.28778L9.23532 0.877536C9.0502 1.0628 8.94834 1.30998 8.94834 1.57368C8.94834 1.83724 9.0502 2.0929 9.23532 2.27802L13.025 6.07588L0.985317 6.07588C0.442684 6.07588 -2.84161e-07 6.50085 -3.07881e-07 7.04349L-3.44342e-07 7.87763C-3.68062e-07 8.42027 0.442684 8.88827 0.985317 8.88827L13.0677 8.88827L9.23532 12.7076C9.0502 12.8928 8.94834 13.1333 8.94834 13.397C8.94834 13.6608 9.0502 13.9043 9.23532 14.0897L9.82537 14.6777C10.2091 15.0615 10.8337 15.0601 11.2175 14.6761Z" fill="white"/>
</svg>
