<svg width="20" height="20" viewBox="0 0 20 20" fill="none" xmlns="http://www.w3.org/2000/svg">
<path d="M12.2175 17.6761L18.713 11.1806C18.8983 10.9953 19 10.7481 19 10.4793C19 10.2157 18.8983 9.96871 18.713 9.78344L12.2175 3.28778C11.8337 2.90407 11.2089 2.90407 10.8254 3.28778L10.2353 3.87754C10.0502 4.0628 9.94834 4.30998 9.94834 4.57368C9.94834 4.83724 10.0502 5.0929 10.2353 5.27802L14.025 9.07588L1.98532 9.07588C1.44268 9.07588 1 9.50085 1 10.0435L1 10.8776C1 11.4203 1.44268 11.8883 1.98532 11.8883L14.0677 11.8883L10.2353 15.7076C10.0502 15.8928 9.94834 16.1333 9.94834 16.397C9.94834 16.6608 10.0502 16.9043 10.2353 17.0897L10.8254 17.6777C11.2091 18.0615 11.8337 18.0601 12.2175 17.6761Z" fill="white"/>
<path d="M12.2175 17.6761L18.713 11.1806C18.8983 10.9953 19 10.7481 19 10.4793C19 10.2157 18.8983 9.96871 18.713 9.78344L12.2175 3.28778C11.8337 2.90407 11.2089 2.90407 10.8254 3.28778L10.2353 3.87754C10.0502 4.0628 9.94834 4.30998 9.94834 4.57368C9.94834 4.83724 10.0502 5.0929 10.2353 5.27802L14.025 9.07588L1.98532 9.07588C1.44268 9.07588 1 9.50085 1 10.0435L1 10.8776C1 11.4203 1.44268 11.8883 1.98532 11.8883L14.0677 11.8883L10.2353 15.7076C10.0502 15.8928 9.94834 16.1333 9.94834 16.397C9.94834 16.6608 10.0502 16.9043 10.2353 17.0897L10.8254 17.6777C11.2091 18.0615 11.8337 18.0601 12.2175 17.6761Z" fill="black"/>
</svg>
