<svg width="40" height="40" viewBox="0 0 40 40" fill="none" xmlns="http://www.w3.org/2000/svg">
<rect x="0.5" y="0.5" width="39" height="39" fill="black" stroke="black"/>
<path d="M24.8125 17.75H24.25V15.5C24.25 13.0182 22.2318 11 19.75 11C17.2682 11 15.25 13.0182 15.25 15.5V17.75H14.6875C13.7575 17.75 13 18.5068 13 19.4375V27.3125C13 28.2432 13.7575 29 14.6875 29H24.8125C25.7425 29 26.5 28.2432 26.5 27.3125V19.4375C26.5 18.5068 25.7425 17.75 24.8125 17.75ZM16.75 15.5C16.75 13.8455 18.0955 12.5 19.75 12.5C21.4045 12.5 22.75 13.8455 22.75 15.5V17.75H16.75V15.5ZM20.5 23.5415V25.25C20.5 25.664 20.1648 26 19.75 26C19.3352 26 19 25.664 19 25.25V23.5415C18.5538 23.2812 18.25 22.8027 18.25 22.25C18.25 21.4227 18.9227 20.75 19.75 20.75C20.5773 20.75 21.25 21.4227 21.25 22.25C21.25 22.8027 20.9462 23.2812 20.5 23.5415Z" fill="white"/>
</svg>
