<svg width="40" height="40" viewBox="0 0 40 40" fill="none" xmlns="http://www.w3.org/2000/svg">
<path d="M20.0162 16.9182C21.735 16.9119 23.1039 15.5312 23.0977 13.8088C23.0914 12.0856 21.7195 10.7144 20 10.713C18.2661 10.7111 16.8814 12.1077 16.8946 13.8463C16.9075 15.5625 18.2919 16.9245 20.0162 16.9182Z" fill="black"/>
<path d="M20 2C10.0588 2 2 10.0592 2 20C2 29.9408 10.0588 38 20 38C29.9412 38 38 29.9408 38 20C38 10.0592 29.9412 2 20 2ZM20.0258 7.47384C23.5319 7.48342 26.3459 10.3513 26.3279 13.896C26.3102 17.359 23.4501 20.1657 19.9499 20.1539C16.4854 20.1422 13.6441 17.2699 13.6647 13.7999C13.6843 10.292 16.5271 7.46427 20.0258 7.47384ZM27.1271 22.645C26.3518 23.4409 25.4186 24.0169 24.3822 24.4187C23.4026 24.7984 22.329 24.9895 21.2662 25.117C21.4271 25.2915 21.5026 25.3773 21.6028 25.4775C23.045 26.9275 24.4942 28.37 25.9316 29.824C26.4214 30.3198 26.5235 30.9341 26.2539 31.5097C25.9596 32.1395 25.2993 32.5534 24.6515 32.5088C24.2412 32.4805 23.9211 32.2768 23.6372 31.9907C22.5485 30.8954 21.4393 29.8196 20.3734 28.7037C20.0622 28.3789 19.9135 28.4408 19.6391 28.7229C18.5442 29.8506 17.4312 30.9602 16.312 32.064C15.8093 32.5597 15.2112 32.6495 14.6278 32.366C14.008 32.0662 13.6139 31.4331 13.6441 30.7963C13.6655 30.3669 13.8769 30.0376 14.1722 29.7438C15.6001 28.3189 17.0235 26.8895 18.4473 25.4613C18.542 25.3667 18.6296 25.2661 18.767 25.1188C16.825 24.9159 15.0738 24.4379 13.5745 23.2656C13.3882 23.1198 13.1963 22.9791 13.0269 22.8155C12.3702 22.1854 12.3043 21.4632 12.8232 20.72C13.2677 20.0836 14.0131 19.9135 14.7884 20.2792C14.9386 20.3495 15.0815 20.4386 15.2185 20.5329C18.0124 22.4528 21.8506 22.5055 24.6555 20.6187C24.9332 20.4066 25.2304 20.232 25.5748 20.144C26.2436 19.9716 26.8682 20.218 27.2269 20.8036C27.6375 21.4728 27.6327 22.1254 27.1271 22.645Z" fill="black"/>
<path fill-rule="evenodd" clip-rule="evenodd" d="M40 0H0V40H40V0ZM20 36C28.8366 36 36 28.8366 36 20C36 11.1634 28.8366 4 20 4C11.1634 4 4 11.1634 4 20C4 28.8366 11.1634 36 20 36Z" fill="black"/>
</svg>
