<svg width="20" height="20" viewBox="0 0 20 20" fill="none" xmlns="http://www.w3.org/2000/svg">
<path d="M19 14.6H1V18.2H19V14.6Z" fill="black"/>
<path d="M9.1 8.29999H1V11.9H9.1V8.29999Z" fill="black"/>
<path d="M5.5 2H1V5.6H5.5V2Z" fill="black"/>
<path d="M11.0563 8.16966L14.5721 11.7422C14.6724 11.8441 14.8062 11.9 14.9517 11.9C15.0943 11.9 15.2281 11.8441 15.3283 11.7422L18.8442 8.16966C19.0519 7.95854 19.0519 7.61493 18.8442 7.40398L18.525 7.07945C18.4247 6.97763 18.291 6.92161 18.1482 6.92161C18.0056 6.92161 17.8672 6.97763 17.767 7.07945L15.7113 9.16376L15.7113 2.54195C15.7113 2.2435 15.4813 2.00003 15.1876 2.00003L14.7361 2.00003C14.4424 2.00003 14.1891 2.2435 14.1891 2.54195L14.1891 9.18726L12.1217 7.07945C12.0215 6.97763 11.8913 6.92161 11.7486 6.92161C11.6059 6.92161 11.474 6.97763 11.3737 7.07945L11.0554 7.40398C10.8477 7.61501 10.8484 7.95854 11.0563 8.16966Z" fill="black"/>
</svg>
