<svg width="20" height="20" viewBox="0 0 20 20" fill="none" xmlns="http://www.w3.org/2000/svg">
<path d="M19 5.40008L1 5.40009L1 1.80009L19 1.80008L19 5.40008Z" fill="black"/>
<path d="M9.1 11.7001L1 11.7001L1 8.10007L9.1 8.10007L9.1 11.7001Z" fill="black"/>
<path d="M5.5 18L1 18L1 14.4L5.5 14.4L5.5 18Z" fill="black"/>
<path d="M11.0563 11.8303L14.5721 8.25781C14.6724 8.15592 14.8062 8.09998 14.9517 8.09998C15.0943 8.09998 15.2281 8.15592 15.3283 8.25781L18.8442 11.8303C19.0519 12.0415 19.0519 12.3851 18.8442 12.596L18.525 12.9205C18.4247 13.0224 18.291 13.0784 18.1482 13.0784C18.0056 13.0784 17.8672 13.0224 17.767 12.9206L15.7113 10.8362L15.7113 17.458C15.7113 17.7565 15.4813 18 15.1876 18L14.7361 18C14.4424 18 14.1891 17.7565 14.1891 17.458L14.1891 10.8127L12.1217 12.9206C12.0215 13.0224 11.8913 13.0784 11.7486 13.0784C11.6059 13.0784 11.474 13.0224 11.3737 12.9206L11.0554 12.596C10.8477 12.385 10.8484 12.0415 11.0563 11.8303Z" fill="black"/>
</svg>
