<svg width="40" height="40" viewBox="0 0 40 40" fill="none" xmlns="http://www.w3.org/2000/svg">
<rect width="40" height="40" fill="black"/>
<path d="M14.9218 19.5268C13.7751 19.5268 12.8351 19.114 12.1018 18.2885C11.3685 17.4629 11.0012 16.4544 11 15.2629C11 14.0888 11.3704 13.0846 12.1112 12.2504C12.8519 11.4162 13.8044 10.9994 14.9685 11C16.1151 11 17.0551 11.4128 17.7884 12.2383C18.5217 13.0639 18.8884 14.0721 18.8884 15.2629C18.8884 16.4414 18.518 17.4459 17.7772 18.2764C17.0364 19.1069 16.0846 19.5237 14.9218 19.5268ZM12.6994 27.8628L24.9363 11.1907H27.3024L15.0637 27.8628H12.6994ZM14.9685 17.693C15.51 17.693 15.9458 17.4586 16.2757 16.9897C16.6056 16.5208 16.7675 15.9452 16.7613 15.2629C16.7613 14.5807 16.5857 14.0051 16.2346 13.5362C15.8835 13.0673 15.4459 12.8331 14.9218 12.8337C14.3802 12.8337 13.946 13.0679 13.6192 13.5362C13.2924 14.0044 13.1283 14.58 13.1271 15.2629C13.1271 15.9452 13.3026 16.5208 13.6537 16.9897C14.0048 17.4586 14.4431 17.693 14.9685 17.693ZM25.0315 28.0526C23.8836 28.0526 22.9434 27.6399 22.2107 26.8143C21.478 25.9888 21.1116 24.9806 21.1116 23.7897C21.1116 22.615 21.482 21.6108 22.2228 20.7772C22.9636 19.9436 23.9157 19.5268 25.0792 19.5268C26.2264 19.5268 27.1667 19.9396 27.9 20.7651C28.6333 21.5906 29 22.5988 29 23.7897C29 24.9644 28.6293 25.9689 27.8879 26.8032C27.1465 27.6374 26.1944 28.0539 25.0315 28.0526ZM25.0792 26.2189C25.6207 26.2189 26.0565 25.9847 26.3864 25.5165C26.7163 25.0482 26.8788 24.4726 26.8738 23.7897C26.8738 23.1074 26.6986 22.5319 26.3481 22.063C25.9977 21.5941 25.5594 21.3599 25.0334 21.3605C24.4918 21.3605 24.0561 21.5947 23.7261 22.063C23.3962 22.5312 23.2328 23.1068 23.2359 23.7897C23.2359 24.472 23.4112 25.0476 23.7616 25.5165C24.1121 25.9854 24.5513 26.2195 25.0792 26.2189Z" fill="white"/>
</svg>
