<svg width="40" height="40" viewBox="0 0 40 40" fill="none" xmlns="http://www.w3.org/2000/svg">
<path d="M28.7852 25.739L25.5829 22.5014C25.4974 22.4157 25.3922 22.3528 25.2766 22.3184L25.2586 22.3143C25.2328 22.307 25.2065 22.3016 25.1799 22.2982C25.0678 22.2808 24.9532 22.2904 24.8455 22.3262C24.7378 22.362 24.64 22.4229 24.5601 22.5041L22.7441 24.3637C22.538 24.5682 22.2794 24.7107 21.9973 24.7751C21.7153 24.8396 21.4211 24.8234 21.1476 24.7284H21.1376C21.0088 24.6817 20.8868 24.6179 20.7747 24.5387C19.716 23.7925 18.7252 22.9529 17.8139 22.0297C16.9955 21.2068 16.2428 20.32 15.5629 19.3775C15.3463 19.079 15.2432 18.712 15.2723 18.3432C15.3014 17.9745 15.4609 17.6286 15.7217 17.3685L17.6004 15.4738C17.6676 15.4062 17.7209 15.3259 17.7573 15.2374C17.7937 15.149 17.8124 15.0542 17.8124 14.9584C17.8124 14.8627 17.7937 14.7679 17.7573 14.6795C17.7209 14.591 17.6676 14.5107 17.6004 14.4431L14.4014 11.2136C14.3343 11.1459 14.2547 11.0921 14.167 11.0555C14.0793 11.0189 13.9853 11 13.8904 11C13.7955 11 13.7015 11.0189 13.6138 11.0555C13.5261 11.0921 13.4465 11.1459 13.3794 11.2136L12.3606 12.2356C11.7577 12.8338 11.3318 13.5894 11.1307 14.4179C10.9296 15.2464 10.9611 16.115 11.2218 16.9264C11.6865 18.3338 12.3418 19.6696 13.1692 20.896C13.9269 22.0383 14.7959 23.1015 15.7631 24.0697C16.8135 25.1348 17.9769 26.0802 19.2323 26.8888C20.3285 27.615 21.5137 28.1942 22.7581 28.6119L22.7675 28.6152C23.0512 28.7099 23.3379 28.7964 23.6274 28.8749C24.3882 29.0578 25.1829 29.0399 25.9348 28.8228C26.6866 28.6057 27.3703 28.1968 27.9199 27.6356L28.7872 26.769V26.7744C28.8548 26.7065 28.9084 26.6257 28.9449 26.5368C28.9815 26.4479 29.0002 26.3525 29 26.2563C28.9998 26.16 28.9807 26.0647 28.9439 25.976C28.907 25.8872 28.8531 25.8066 28.7852 25.739Z" fill="black"/>
<path d="M0 0V-1H-1V0H0ZM40 0H41V-1H40V0ZM40 40V41H41V40H40ZM0 40H-1V41H0V40ZM0 1H40V-1H0V1ZM39 0V40H41V0H39ZM40 39H0V41H40V39ZM1 40V0H-1V40H1Z" fill="black"/>
</svg>
