<svg width="30" height="30" viewBox="0 0 30 30" fill="none" xmlns="http://www.w3.org/2000/svg">
<path fill-rule="evenodd" clip-rule="evenodd" d="M23.5117 15.5065C23.8215 15.8162 24 16.2363 24 16.687C24 17.3372 23.628 17.908 23.0738 18.187C23.1892 18.4172 23.25 18.6715 23.25 18.937C23.25 19.588 22.8772 20.1587 22.323 20.4377C22.4947 20.7797 22.545 21.1735 22.4587 21.5643C22.2908 22.324 21.576 22.8745 20.7592 22.8745H13.875C13.383 22.8745 12.6105 22.7192 12 22.4312V14.3927L12.09 14.347L14.25 9.66774V7.1245C14.25 7.01052 14.3018 6.90252 14.3902 6.83126C14.3908 6.83086 14.3916 6.83024 14.3927 6.82942C14.4393 6.79378 14.9882 6.37451 15.75 6.37451C16.6177 6.37451 18 7.74775 18 9.3745C18 10.4005 17.6325 11.6777 17.403 12.3745H22.0357C23.0452 12.3745 23.904 13.1215 23.9917 14.0747C24.0405 14.6095 23.862 15.1232 23.5117 15.5065ZM6 15.7495C6 14.716 6.8415 13.8745 7.87499 13.8745H11.25V23.245C10.9357 23.482 10.5472 23.6245 10.125 23.6245H7.87499C6.8415 23.6245 6 22.783 6 21.7495V15.7495Z" fill="#00960F"/>
<path d="M0 -0.000488281V-1.00049H-1V-0.000488281H0ZM30 -0.000488281H31V-1.00049H30V-0.000488281ZM30 29.9995V30.9995H31V29.9995H30ZM0 29.9995H-1V30.9995H0V29.9995ZM0 0.999512H30V-1.00049H0V0.999512ZM29 -0.000488281V29.9995H31V-0.000488281H29ZM30 28.9995H0V30.9995H30V28.9995ZM1 29.9995V-0.000488281H-1V29.9995H1Z" fill="black"/>
</svg>
