<svg width="41" height="40" viewBox="0 0 41 40" fill="none" xmlns="http://www.w3.org/2000/svg">
<path d="M0.5 -0.000488281L40.5 -0.000488281V39.9995H0.5L0.5 -0.000488281Z" fill="#EEEEEE"/>
<path d="M29.4778 17.5429C29.4421 17.4188 29.3672 17.3095 29.2645 17.2313C29.1617 17.1531 29.0365 17.1101 28.9074 17.1088H22.9138L22.863 16.9529L21.1973 11.8233C21.1792 11.7669 21.1612 11.7104 21.1409 11.6568L21.1307 11.6252C21.1121 11.5687 21.0935 11.5122 21.0743 11.4501C21.0743 11.4422 21.0686 11.4349 21.0658 11.4247C21.0182 11.2805 20.9205 11.1581 20.7904 11.0798L20.7747 11.0702C20.752 11.0582 20.7286 11.0476 20.7047 11.0386L20.6731 11.0256L20.646 11.0171L20.6184 11.0126C20.5972 11.0075 20.5757 11.0037 20.554 11.0013H20.5179H20.492C20.4732 11.0002 20.4543 11.0002 20.4355 11.0013L20.4101 11.0058H20.3972L20.3588 11.0154L20.3441 11.0188L20.3266 11.0262L20.3193 11.029L20.3402 11.0815L20.3114 11.0318C20.2216 11.0656 20.1408 11.1195 20.0751 11.1895C20.0095 11.2595 19.9608 11.3437 19.9328 11.4355C19.9306 11.4406 19.9287 11.4459 19.9271 11.4513L19.1705 13.7722C18.8262 14.8324 18.4817 15.8929 18.1367 16.9535L18.0859 17.1093H12.0918C11.9628 17.1108 11.8377 17.1539 11.735 17.2321C11.6324 17.3102 11.5576 17.4195 11.5219 17.5435C11.4333 17.8664 11.6308 18.0917 11.8125 18.221L16.5957 21.6975L16.5449 21.8539C15.9807 23.5883 15.4173 25.3226 14.855 27.0569C14.8143 27.1828 14.7731 27.3093 14.7303 27.4403C14.7072 27.5218 14.7038 27.6075 14.7204 27.6906C14.737 27.7736 14.7731 27.8515 14.8256 27.9179C14.8819 27.9991 14.9559 28.0664 15.042 28.1147C15.1282 28.163 15.2242 28.1911 15.3227 28.1968C15.4167 28.1966 15.5081 28.1661 15.5834 28.1099L20.5004 24.5356L20.633 24.6321L22.7106 26.1423L23.2315 26.5206L25.0935 27.8756L25.322 28.0415L25.4191 28.1115C25.4944 28.1679 25.5858 28.1984 25.6798 28.1985C25.7783 28.1929 25.8742 28.1649 25.9602 28.1167C26.0462 28.0685 26.1202 28.0013 26.1763 27.9202C26.229 27.8537 26.265 27.7757 26.2815 27.6925C26.298 27.6094 26.2944 27.5235 26.2711 27.442C25.9213 26.3629 25.5711 25.2844 25.2205 24.2065L24.4062 21.6987L28.8639 18.4586L29.1889 18.2221C29.4479 18.0341 29.5484 17.7987 29.4778 17.5429Z" fill="white"/>
<path d="M0.5 -0.000488281V-1.00049H-0.5V-0.000488281L0.5 -0.000488281ZM40.5 -0.000488281L41.5 -0.000488281V-1.00049L40.5 -1.00049V-0.000488281ZM40.5 39.9995V40.9995H41.5V39.9995H40.5ZM0.5 39.9995H-0.5V40.9995H0.5V39.9995ZM0.5 0.999512L40.5 0.999512V-1.00049L0.5 -1.00049V0.999512ZM39.5 -0.000488281V39.9995H41.5V-0.000488281L39.5 -0.000488281ZM40.5 38.9995H0.5V40.9995H40.5V38.9995ZM1.5 39.9995L1.5 -0.000488281L-0.5 -0.000488281L-0.5 39.9995H1.5Z" fill="#EEEEEE"/>
</svg>
