<svg width="30" height="30" viewBox="0 0 30 30" fill="none" xmlns="http://www.w3.org/2000/svg">
<path fill-rule="evenodd" clip-rule="evenodd" d="M23.5117 14.4925C23.8215 14.1828 24 13.7628 24 13.312C24 12.6618 23.628 12.091 23.0738 11.812C23.1892 11.5818 23.25 11.3275 23.25 11.062C23.25 10.411 22.8772 9.84027 22.323 9.56128C22.4947 9.21928 22.545 8.82553 22.4587 8.43476C22.2908 7.67504 21.576 7.12453 20.7592 7.12453H13.875C13.383 7.12453 12.6105 7.27978 12 7.56778V15.6063L12.09 15.652L14.25 20.3313V22.8745C14.25 22.9885 14.3018 23.0965 14.3902 23.1678C14.3908 23.1682 14.3916 23.1688 14.3927 23.1696C14.4393 23.2052 14.9882 23.6245 15.75 23.6245C16.6177 23.6245 18 22.2513 18 20.6245C18 19.5985 17.6325 18.3213 17.403 17.6245H22.0357C23.0452 17.6245 23.904 16.8775 23.9917 15.9243C24.0405 15.3895 23.862 14.8758 23.5117 14.4925ZM6 14.2495C6 15.283 6.8415 16.1245 7.87499 16.1245H11.25V6.75404C10.9357 6.51701 10.5472 6.37452 10.125 6.37452H7.87499C6.8415 6.37452 6 7.21602 6 8.24951V14.2495Z" fill="#FF0000"/>
<path d="M0 -0.000488281V-1.00049H-1V-0.000488281H0ZM30 -0.000488281H31V-1.00049H30V-0.000488281ZM30 29.9995V30.9995H31V29.9995H30ZM0 29.9995H-1V30.9995H0V29.9995ZM0 0.999512H30V-1.00049H0V0.999512ZM29 -0.000488281V29.9995H31V-0.000488281H29ZM30 28.9995H0V30.9995H30V28.9995ZM1 29.9995V-0.000488281H-1V29.9995H1Z" fill="black"/>
</svg>
