<svg width="20" height="20" viewBox="0 0 20 20" fill="none" xmlns="http://www.w3.org/2000/svg">
<rect width="20" height="20" fill="#FF0000"/>
<path d="M11.7622 10L17.7444 4.01717C17.9089 3.85248 17.9997 3.63276 18 3.39846C18 3.16404 17.9092 2.94406 17.7444 2.77963L17.2202 2.2555C17.0553 2.09041 16.8356 2 16.6011 2C16.367 2 16.1473 2.09041 15.9824 2.2555L10.0003 8.23793L4.01782 2.2555C3.85327 2.09041 3.63343 2 3.39902 2C3.16488 2 2.94504 2.09041 2.78049 2.2555L2.256 2.77963C1.91467 3.12098 1.91467 3.67621 2.256 4.01717L8.23831 10L2.256 15.9826C2.09132 16.1475 2.00065 16.3672 2.00065 16.6015C2.00065 16.8358 2.09132 17.0555 2.256 17.2204L2.78036 17.7445C2.94491 17.9095 3.16488 18 3.39889 18C3.6333 18 3.85314 17.9095 4.01769 17.7445L10.0001 11.7619L15.9823 17.7445C16.1471 17.9095 16.3668 18 16.601 18H16.6012C16.8355 18 17.0552 17.9095 17.22 17.7445L17.7443 17.2204C17.9088 17.0557 17.9996 16.8358 17.9996 16.6015C17.9996 16.3672 17.9088 16.1475 17.7443 15.9827L11.7622 10Z" fill="white"/>
</svg>
