<svg width="6" height="10" viewBox="0 0 6 10" fill="none" xmlns="http://www.w3.org/2000/svg">
<path d="M0.222097 5.3902L4.67223 9.84025C4.77515 9.94325 4.91255 10 5.05905 10C5.20555 10 5.34295 9.94325 5.44588 9.84025L5.7736 9.51261C5.98685 9.29911 5.98685 8.95212 5.7736 8.73895L2.03672 5.00207L5.77775 1.26105C5.88067 1.15804 5.9375 1.02072 5.9375 0.874302C5.9375 0.727718 5.88067 0.590402 5.77775 0.487313L5.45002 0.159755C5.34702 0.0567474 5.2097 8.90048e-07 5.0632 8.7724e-07C4.9167 8.64433e-07 4.7793 0.0567473 4.67637 0.159755L0.222097 4.61386C0.118927 4.7172 0.0622611 4.85516 0.0625863 5.00183C0.0622611 5.14906 0.118927 5.28695 0.222097 5.3902Z" fill="black"/>
</svg>
