<svg width="40" height="40" viewBox="0 0 40 40" fill="none" xmlns="http://www.w3.org/2000/svg">
<path d="M19.9998 4.53333C19.4993 4.53333 19.0935 4.93909 19.0935 5.43958V11.2638C19.0935 11.7642 19.4993 12.17 19.9998 12.17C20.5002 12.17 20.906 11.7642 20.906 11.2638V5.43958C20.906 4.93909 20.5002 4.53333 19.9998 4.53333Z" fill="black"/>
<path d="M19.9998 27.8301C19.4993 27.8301 19.0935 28.2358 19.0935 28.7363V34.5604C19.0935 35.0609 19.4993 35.4667 19.9998 35.4667C20.5002 35.4667 20.906 35.0609 20.906 34.5604V28.7363C20.906 28.2358 20.5002 27.8301 19.9998 27.8301Z" fill="black"/>
<path d="M16.417 11.981L13.5049 6.93713C13.2547 6.50364 12.7005 6.35502 12.267 6.60545C11.8335 6.85569 11.685 7.40989 11.9353 7.84338L14.8474 12.8873C15.0152 13.1781 15.3198 13.3406 15.633 13.3406C15.7868 13.3406 15.9426 13.3014 16.0853 13.219C16.5188 12.9687 16.6672 12.4145 16.417 11.981Z" fill="black"/>
<path d="M28.0654 32.1566L25.1534 27.1128C24.9031 26.6793 24.3489 26.5307 23.9154 26.7811C23.482 27.0313 23.3334 27.5855 23.5837 28.019L26.4958 33.0628C26.6636 33.3536 26.9682 33.5161 27.2814 33.5161C27.4352 33.5161 27.5911 33.477 27.7337 33.3945C28.1671 33.1442 28.3157 32.59 28.0654 32.1566Z" fill="black"/>
<path d="M12.8878 14.8472L7.84388 11.935C7.41045 11.6845 6.85618 11.8332 6.60594 12.2667C6.35569 12.7001 6.5042 13.2544 6.93763 13.5046L11.9816 16.4168C12.1243 16.4992 12.2801 16.5384 12.4338 16.5384C12.747 16.5384 13.0517 16.3758 13.2195 16.0851C13.4698 15.6517 13.3212 15.0974 12.8878 14.8472Z" fill="black"/>
<path d="M33.0628 26.4954L28.0189 23.5834C27.5853 23.333 27.0312 23.4817 26.781 23.9151C26.5308 24.3486 26.6792 24.9029 27.1127 25.1531L32.1565 28.065C32.2992 28.1474 32.455 28.1866 32.6087 28.1866C32.922 28.1866 33.2266 28.0241 33.3944 27.7333C33.6447 27.2998 33.4963 26.7456 33.0628 26.4954Z" fill="black"/>
<path d="M11.2639 19.0939H5.4397C4.93921 19.0939 4.53345 19.4996 4.53345 20.0001C4.53345 20.5006 4.93921 20.9064 5.4397 20.9064H11.2639C11.7644 20.9064 12.1702 20.5006 12.1702 20.0001C12.1702 19.4996 11.7644 19.0939 11.2639 19.0939Z" fill="black"/>
<path d="M34.5606 19.0939H28.7366C28.2361 19.0939 27.8303 19.4996 27.8303 20.0001C27.8303 20.5006 28.2361 20.9064 28.7366 20.9064H34.5606C35.0611 20.9064 35.4669 20.5006 35.4669 20.0001C35.4669 19.4996 35.0611 19.0939 34.5606 19.0939Z" fill="black"/>
<path d="M13.2193 23.9151C12.9691 23.4816 12.4149 23.333 11.9813 23.5834L6.93738 26.4955C6.50395 26.7458 6.35545 27.3 6.60569 27.7335C6.77353 28.0242 7.07815 28.1868 7.39135 28.1868C7.54511 28.1868 7.70093 28.1476 7.84363 28.0651L12.8876 25.1531C13.321 24.9028 13.4695 24.3486 13.2193 23.9151Z" fill="black"/>
<path d="M33.3947 12.2668C33.1444 11.8333 32.5902 11.6847 32.1567 11.9351L27.1129 14.8472C26.6795 15.0974 26.531 15.6516 26.7812 16.0851C26.949 16.3759 27.2536 16.5384 27.5669 16.5384C27.7206 16.5384 27.8764 16.4993 28.0191 16.4168L33.063 13.5047C33.4965 13.2545 33.6449 12.7002 33.3947 12.2668Z" fill="black"/>
<path d="M16.0853 26.7811C15.6518 26.5307 15.0976 26.6793 14.8474 27.1128L11.9353 32.1567C11.685 32.5902 11.8335 33.1444 12.267 33.3946C12.4097 33.477 12.5655 33.5162 12.7192 33.5162C13.0324 33.5162 13.3371 33.3536 13.5049 33.0629L16.417 28.019C16.6672 27.5856 16.5188 27.0313 16.0853 26.7811Z" fill="black"/>
<path d="M27.7337 6.60562C27.3002 6.35519 26.746 6.50376 26.4958 6.93731L23.5837 11.9811C23.3334 12.4144 23.482 12.9687 23.9154 13.219C24.0581 13.3014 24.214 13.3406 24.3677 13.3406C24.6809 13.3406 24.9855 13.1781 25.1534 12.8873L28.0654 7.84356C28.3157 7.41013 28.1671 6.85587 27.7337 6.60562Z" fill="black"/>
</svg>
