<svg width="40" height="40" viewBox="0 0 40 40" fill="none" xmlns="http://www.w3.org/2000/svg">
<path fill-rule="evenodd" clip-rule="evenodd" d="M13.1122 3.37003C15.2962 2.46535 17.6369 1.99981 20.0007 2C22.3645 2 24.7052 2.46572 26.8891 3.37057C29.0729 4.27543 31.0572 5.60168 32.7286 7.27362C34.4 8.94555 35.7258 10.9304 36.6303 13.1149C37.5348 15.2993 38.0002 17.6406 38 20.005C37.9996 24.7774 36.104 29.3543 32.7302 32.729C29.3564 36.1036 24.7806 37.9996 20.0092 38H19.9908C15.2192 37.9996 10.6432 36.1034 7.26929 32.7285C3.89541 29.3535 2 24.7763 2 20.0035C2 17.6392 2.46561 15.2979 3.37025 13.1136C4.27489 10.9292 5.60083 8.94442 7.27237 7.27262C8.94391 5.60081 10.9283 4.27471 13.1122 3.37003ZM10.2924 19.0124L27.2702 12.5521C28.0493 12.1968 28.7495 12.5536 28.4592 13.7556L25.6853 27.5453C25.4824 28.5222 24.8949 28.7572 24.0806 28.3055L19.6555 25.0195C18.6158 26.0346 17.9578 26.676 17.5267 27.0837C17.1576 27.4122 17.0097 27.541 16.6659 27.5368C16.3222 27.5325 16.1602 27.3258 15.9615 26.7765L14.3343 21.7618L10.0811 20.4281C9.39358 20.203 9.364 19.2813 10.2924 19.0124ZM24.6737 15.3554L15.0021 21.4532L16.642 26.516L17.0534 22.8944L25.0837 15.6385C25.2992 15.3922 25.1499 15.034 24.6737 15.3554Z" fill="white"/>
</svg>
