<svg width="40" height="40" viewBox="0 0 40 40" fill="none" xmlns="http://www.w3.org/2000/svg">
<path d="M0 0H40V40H0V0Z" fill="black"/>
<path d="M29 25.3751H14.1641V13.0001H11V14.0548H13.1094V26.4298H14.6211C14.5507 26.5882 14.521 26.7617 14.5347 26.9346C14.5484 27.1074 14.6051 27.274 14.6995 27.4194C14.794 27.5648 14.9233 27.6842 15.0757 27.7669C15.2281 27.8496 15.3987 27.8929 15.5721 27.8929C15.7454 27.8929 15.9161 27.8496 16.0684 27.7669C16.2208 27.6842 16.3501 27.5648 16.4446 27.4194C16.5391 27.274 16.5957 27.1074 16.6094 26.9346C16.6231 26.7617 16.5934 26.5882 16.523 26.4298H25.8489C25.7884 26.5874 25.7671 26.7574 25.7869 26.9251C25.8067 27.0928 25.867 27.2531 25.9626 27.3923C26.0582 27.5315 26.1863 27.6453 26.3357 27.724C26.4851 27.8026 26.6515 27.8437 26.8203 27.8437C26.9892 27.8437 27.1555 27.8026 27.3049 27.724C27.4544 27.6453 27.5824 27.5315 27.678 27.3923C27.7736 27.2531 27.834 27.0928 27.8538 26.9251C27.8736 26.7574 27.8523 26.5874 27.7917 26.4298H29V25.3751Z" fill="white"/>
<path d="M16.6158 24.5507H25.9202C25.9684 24.5508 26.016 24.5407 26.06 24.5212C26.104 24.5016 26.1435 24.473 26.1757 24.4372C26.2079 24.4015 26.2323 24.3593 26.2471 24.3135C26.262 24.2677 26.267 24.2193 26.262 24.1714L25.3848 15.8158C25.3759 15.7313 25.3361 15.6531 25.273 15.5962C25.2099 15.5394 25.128 15.5079 25.0431 15.5078H23.3939V15.132C23.3975 14.8505 23.3452 14.5712 23.24 14.3101C23.1348 14.049 22.9788 13.8114 22.7811 13.6111C22.5833 13.4108 22.3477 13.2518 22.088 13.1432C21.8283 13.0347 21.5497 12.9788 21.2682 12.9788C20.9867 12.9788 20.708 13.0347 20.4483 13.1432C20.1886 13.2518 19.9531 13.4108 19.7553 13.6111C19.5576 13.8114 19.4016 14.049 19.2964 14.3101C19.1912 14.5712 19.1388 14.8505 19.1425 15.132V15.5078H17.4933C17.4085 15.508 17.3267 15.5396 17.2638 15.5965C17.2008 15.6533 17.1611 15.7314 17.1523 15.8158L16.2734 24.1714C16.2683 24.2192 16.2734 24.2676 16.2883 24.3134C16.3032 24.3592 16.3275 24.4014 16.3598 24.4371C16.392 24.4729 16.4314 24.5015 16.4753 24.5211C16.5193 24.5406 16.5669 24.5507 16.6151 24.5507H16.6158ZM19.8294 15.132C19.8294 14.7505 19.981 14.3845 20.2508 14.1148C20.5206 13.845 20.8865 13.6934 21.268 13.6934C21.6495 13.6934 22.0155 13.845 22.2852 14.1148C22.555 14.3845 22.7066 14.7505 22.7066 15.132V15.5078H19.8294V15.132Z" fill="white"/>
<path d="M0 0V-1H-1V0H0ZM40 0H41V-1H40V0ZM40 40V41H41V40H40ZM0 40H-1V41H0V40ZM0 1H40V-1H0V1ZM39 0V40H41V0H39ZM40 39H0V41H40V39ZM1 40V0H-1V40H1Z" fill="black"/>
</svg>
