<svg width="40" height="40" viewBox="0 0 40 40" fill="none" xmlns="http://www.w3.org/2000/svg">
<path fill-rule="evenodd" clip-rule="evenodd" d="M21.9502 13H11.333V21.1873H21.9502V13ZM25.6416 16.0703H23.0049V20.164H25.6416V16.0703ZM26.6963 20.1638V16.2373C28.2157 16.6808 29.333 18.0351 29.333 19.6521V20.1638H26.6963ZM15.0244 26.3044C15.6069 26.3044 16.0791 25.8462 16.0791 25.281C16.0791 24.7158 15.6069 24.2576 15.0244 24.2576C14.4419 24.2576 13.9697 24.7158 13.9697 25.281C13.9697 25.8462 14.4419 26.3044 15.0244 26.3044ZM27.2236 25.281C27.2236 25.8462 26.7514 26.3044 26.1689 26.3044C25.5865 26.3044 25.1143 25.8462 25.1143 25.281C25.1143 24.7158 25.5865 24.2576 26.1689 24.2576C26.7514 24.2576 27.2236 24.7158 27.2236 25.281ZM23.0049 25.2809H24.0596C24.0596 24.7381 24.2818 24.2174 24.6774 23.8336C25.073 23.4497 25.6095 23.2341 26.1689 23.2341C26.7284 23.2341 27.2649 23.4497 27.6605 23.8336C28.0561 24.2174 28.2783 24.7381 28.2783 25.2809H29.333V21.1873H23.0049V25.2809ZM12.915 25.2809H11.333V22.2107H21.9502V25.2809H17.1338C17.1338 24.7381 16.9116 24.2175 16.516 23.8336C16.1204 23.4498 15.5839 23.2341 15.0244 23.2341C14.465 23.2341 13.9284 23.4498 13.5329 23.8336C13.1373 24.2175 12.915 24.7381 12.915 25.2809Z" fill="black"/>
<path d="M0 0V-1H-1V0H0ZM40 0H41V-1H40V0ZM40 40V41H41V40H40ZM0 40H-1V41H0V40ZM0 1H40V-1H0V1ZM39 0V40H41V0H39ZM40 39H0V41H40V39ZM1 40V0H-1V40H1Z" fill="black"/>
</svg>
