<svg width="40" height="40" viewBox="0 0 40 40" fill="none" xmlns="http://www.w3.org/2000/svg">
<rect x="0.5" y="0.5" width="39" height="39" fill="black" stroke="black"/>
<path d="M27.997 28.4084L26.592 15.3804C26.5625 15.1077 26.3264 14.9006 26.0447 14.9006H23.4039V14.3143C23.4039 12.4869 21.8769 11 20.0001 11C18.1231 11 16.5961 12.4869 16.5961 14.3143V14.9006H13.9553C13.6736 14.9006 13.4375 15.1077 13.408 15.3804L12.003 28.4084C11.9868 28.5593 12.0371 28.71 12.1413 28.8228C12.2457 28.9356 12.3944 29 12.5502 29H27.4496C27.6056 29 27.7543 28.9356 27.8585 28.8228C27.963 28.71 28.0132 28.5593 27.997 28.4084ZM17.6965 14.3143C17.6965 13.0777 18.7299 12.0714 20.0001 12.0714C21.2701 12.0714 22.3035 13.0777 22.3035 14.3143V14.9006H17.6965V14.3143Z" fill="white" stroke="white" stroke-width="0.2"/>
</svg>
