<svg width="40" height="40" viewBox="0 0 40 40" fill="none" xmlns="http://www.w3.org/2000/svg">
<path fill-rule="evenodd" clip-rule="evenodd" d="M20.0092 38H19.9908C15.2194 37.9996 10.6436 36.104 7.26979 32.7302C3.89595 29.3564 2.00038 24.7806 2 20.0092V19.9993C2 17.6355 2.46561 15.2948 3.37025 13.1109C4.27489 10.9271 5.60083 8.94278 7.27237 7.27137C8.94391 5.59996 10.9283 4.27417 13.1122 3.36971C15.2962 2.46524 17.6369 1.99981 20.0007 2C24.7744 2 29.3526 3.89635 32.7281 7.27187C36.1036 10.6474 38 15.2256 38 19.9993V20.0092C37.9996 24.7806 36.104 29.3564 32.7302 32.7302C29.3564 36.104 24.7806 37.9996 20.0092 38ZM20.6946 27.0871H19.3298V27.0928C19.3298 27.0928 16.3193 27.2744 13.6677 24.5136C10.7749 21.5016 8.22123 15.5274 8.22123 15.5274C8.22123 15.5274 8.07511 15.1359 8.234 14.9457C8.41418 14.7329 8.90364 14.7187 8.90364 14.7187L12.1667 14.6989C12.3547 14.7336 12.5337 14.806 12.693 14.9117C12.8163 15.0148 12.9135 15.1456 12.9768 15.2933C13.3297 16.1654 13.7387 17.0136 14.2011 17.8328C15.5645 20.1879 16.1987 20.7029 16.6612 20.4504C17.3365 20.0829 17.1336 17.1221 17.1336 17.1221C17.1336 17.1221 17.1464 16.0396 16.7946 15.5615C16.5222 15.194 16.0086 15.0819 15.7816 15.0521C15.5972 15.0294 15.9036 14.6024 16.2895 14.4166C16.8768 14.1243 17.9125 14.113 19.1383 14.1243C20.0917 14.1342 20.3669 14.1938 20.74 14.2846C21.6062 14.49 21.5793 15.1588 21.521 16.6037C21.5036 17.0354 21.4834 17.5365 21.4834 18.1152C21.4834 18.2461 21.4796 18.3856 21.4756 18.5291C21.4551 19.2689 21.4318 20.1142 21.919 20.4291C22.1687 20.5851 22.7801 20.4532 24.3053 17.8598C24.7941 17.0003 25.2181 16.1054 25.5736 15.1827C25.6425 15.0367 25.7468 14.9104 25.8772 14.8152C26.0137 14.7458 26.1678 14.7186 26.3198 14.7372L29.7531 14.7145C29.7531 14.7145 30.7845 14.5925 30.9505 15.0578C31.1265 15.5473 30.5661 16.6879 29.1629 18.5564C27.8312 20.332 27.1838 20.9844 27.2446 21.5622C27.2889 21.9834 27.7097 22.365 28.516 23.1133C30.2093 24.6831 30.6595 25.506 30.7664 25.7016C30.775 25.7172 30.7813 25.7288 30.786 25.7365C31.5421 26.9892 29.9475 27.0886 29.9475 27.0886L26.8987 27.1311C26.8987 27.1311 26.2432 27.2602 25.3806 26.6686C24.9317 26.3594 24.4944 25.8554 24.0773 25.3747C23.436 24.6357 22.8425 23.9516 22.3276 24.1149C21.4777 24.3845 21.5047 26.216 21.5047 26.216C21.5047 26.216 21.5288 26.5877 21.3174 26.8147C21.106 27.0417 20.6946 27.0871 20.6946 27.0871Z" fill="white"/>
</svg>
