<svg width="40" height="40" viewBox="0 0 40 40" fill="none" xmlns="http://www.w3.org/2000/svg">
<path fill-rule="evenodd" clip-rule="evenodd" d="M40 0H0V40H40V0ZM20 36C28.8366 36 36 28.8366 36 20C36 11.1634 28.8366 4 20 4C11.1634 4 4 11.1634 4 20C4 28.8366 11.1634 36 20 36Z" fill="white"/>
<path d="M20 2C10.0592 2 2 10.0588 2 20C2 29.9412 10.0592 38 20 38C29.9408 38 38 29.9412 38 20C38 10.0588 29.9408 2 20 2ZM29.1306 21.9468C29.9695 22.7662 30.8571 23.5374 31.6102 24.4415C31.9439 24.8415 32.2584 25.2551 32.4978 25.7202C32.8396 26.3835 32.5309 27.1109 31.9373 27.1503L28.2496 27.1495C27.2972 27.2284 26.5393 26.8442 25.9003 26.1931C25.3902 25.6742 24.917 25.1199 24.4257 24.5833C24.225 24.3631 24.0136 24.1557 23.7617 23.9926C23.259 23.6656 22.8222 23.7657 22.5342 24.2909C22.2407 24.8253 22.1736 25.4175 22.1456 26.0123C22.1055 26.8818 21.8433 27.109 20.9708 27.1499C19.1065 27.2372 17.3377 26.9544 15.6936 26.0145C14.2433 25.1855 13.1208 24.0154 12.1426 22.6907C10.2378 20.1083 8.77905 17.2739 7.46832 14.3582C7.17332 13.7016 7.38914 13.3502 8.11355 13.3366C9.31711 13.3134 10.5207 13.3163 11.7242 13.3355C12.2141 13.3432 12.5381 13.6235 12.7263 14.0857C13.3767 15.6859 14.1741 17.2084 15.1732 18.6204C15.4395 18.9964 15.7113 19.3713 16.0984 19.6369C16.5256 19.93 16.8512 19.8332 17.0526 19.3562C17.1815 19.0531 17.2371 18.729 17.2651 18.4042C17.3609 17.2916 17.3723 16.1794 17.2065 15.0712C17.1034 14.3777 16.7134 13.9299 16.0221 13.7988C15.6701 13.7321 15.7216 13.6018 15.8929 13.4007C16.1901 13.053 16.4685 12.8379 17.025 12.8379L21.1914 12.8372C21.8481 12.9661 21.9954 13.2607 22.0845 13.9222L22.0882 18.5523C22.0804 18.8082 22.2167 19.5669 22.6763 19.7345C23.0446 19.856 23.2877 19.5606 23.5079 19.3275C24.5071 18.2672 25.219 17.0158 25.8565 15.7205C26.1379 15.1493 26.3806 14.5582 26.6163 13.966C26.7916 13.5281 27.0641 13.3127 27.5583 13.32L31.5705 13.3248C31.6887 13.3248 31.8087 13.3259 31.9259 13.3462C32.602 13.4618 32.7873 13.7528 32.5781 14.4124C32.2488 15.4487 31.6091 16.312 30.9838 17.1775C30.3135 18.1041 29.5986 18.9983 28.935 19.9289C28.3251 20.7797 28.3734 21.208 29.1306 21.9468Z" fill="white"/>
</svg>
