<svg width="40" height="40" viewBox="0 0 40 40" fill="none" xmlns="http://www.w3.org/2000/svg">
<path d="M0 0H40V40H0V0Z" fill="black"/>
<path fill-rule="evenodd" clip-rule="evenodd" d="M12 27.3068L12 21.3579C12 20.6437 12.5211 20.0647 13.1639 20.0647C13.8067 20.0647 14.3278 20.6437 14.3278 21.3579L14.3278 27.3068C14.3278 28.021 13.8067 28.6 13.1639 28.6C12.5211 28.6 12 28.021 12 27.3068ZM21.3113 27.3881L21.3113 17.3972C21.3113 16.7278 21.8539 16.1852 22.5233 16.1852C23.1926 16.1852 23.7353 16.7278 23.7353 17.3972L23.7353 27.3881C23.7353 28.0574 23.1926 28.6 22.5233 28.6C21.8539 28.6 21.3113 28.0574 21.3113 27.3881ZM16.6557 15.0918L16.6557 27.3881C16.6557 28.0575 17.1983 28.6001 17.8676 28.6001C18.537 28.6001 19.0796 28.0575 19.0796 27.3881L19.0796 15.0918C19.0796 14.4224 18.537 13.8798 17.8676 13.8798C17.1983 13.8798 16.6557 14.4224 16.6557 15.0918ZM25.967 27.3881L25.967 11.212C25.967 10.5427 26.5096 10 27.179 10C27.8483 10 28.391 10.5427 28.391 11.212L28.391 27.3881C28.391 28.0574 27.8483 28.6 27.179 28.6C26.5096 28.6 25.967 28.0574 25.967 27.3881Z" fill="white"/>
<path d="M0 0V-1H-1V0H0ZM40 0H41V-1H40V0ZM40 40V41H41V40H40ZM0 40H-1V41H0V40ZM0 1H40V-1H0V1ZM39 0V40H41V0H39ZM40 39H0V41H40V39ZM1 40V0H-1V40H1Z" fill="black"/>
</svg>
