<?xml version="1.0" standalone="no"?>
<!DOCTYPE svg PUBLIC "-//W3C//DTD SVG 1.1//EN" "http://www.w3.org/Graphics/SVG/1.1/DTD/svg11.dtd" >
<svg>
<metadata>
Created by FontForge 20090914 at Thu Oct  8 13:57:56 2020
 By www-data
Copyright (c) 2002 The Hoefler Type Foundry, Inc., dba Hoefler &#38; Frere-Jones. All Rights Reserved.
</metadata>
<defs>
<font id="GothamPro-LightItalic" horiz-adv-x="500" >
  <font-face 
    font-family="Gotham Pro Light"
    font-weight="400"
    font-style="italic"
    font-stretch="normal"
    units-per-em="1000"
    panose-1="2 0 5 3 4 0 0 9 0 4"
    ascent="800"
    descent="-200"
    x-height="510"
    cap-height="700"
    bbox="-121 -214 1206 898.002"
    underline-thickness="20"
    underline-position="-153"
    slope="-15"
    unicode-range="U+0020-U+FB04"
  />
<missing-glyph 
d="M0 0v700h500v-700h-500zM81 49h339l-170 255zM49 96l171 254l-171 254v-508zM450 96v508l-171 -254zM250 395l170 255h-339z" />
    <glyph glyph-name="fi" unicode="fi" horiz-adv-x="612" 
d="M55 0l124.999 465h-74l12 45h74l20 74c26 97.333 80.333 146 163 146c38 0 72 -8 102 -24l-12 -44c-34 16 -64.667 24 -92 24c-57.333 0 -95.666 -37.667 -114.999 -113l-17 -63h184l-12 -45h-184l-125 -465h-49zM393.999 0l137 510h49l-137 -510h-49zM560.999 643l18 67
h61l-18 -67h-61z" />
    <glyph glyph-name="fl" unicode="fl" horiz-adv-x="612" 
d="M55 0l124.999 465h-74l12 45h74l20 74c26 97.333 80.333 146 163 146c38 0 72 -8 102 -24l-12 -44c-34 16 -64.667 24 -92 24c-57.333 0 -95.666 -37.667 -114.999 -113l-17 -63h184l-12 -45h-184l-125 -465h-49zM393.999 0l196 730h49l-196 -730h-49z" />
    <glyph glyph-name="ffi" unicode="ffi" horiz-adv-x="974" 
d="M55 0l124.999 465h-74l12 45h74l20 74c26 97.333 80.333 146 163 146c38 0 72 -8 102 -24l-12 -44c-34 16 -64.667 24 -92 24c-57.333 0 -95.666 -37.667 -114.999 -113l-17 -63h184l-12 -45h-184l-125 -465h-49zM416.999 0l125 465h-74l12 45h74l20 74
c26 97.333 80.333 146 163 146c38 0 72 -8 102 -24l-12 -44c-34 16 -64.667 24 -92 24c-56.667 0 -95 -37.667 -115 -113l-17 -63h184l-12 -45h-184l-125 -465h-49zM755.999 0l137 510h49l-137 -510h-49zM922.999 643l18 67h61l-18 -67h-61z" />
    <glyph glyph-name="ffl" unicode="ffl" horiz-adv-x="974" 
d="M55 0l124.999 465h-74l12 45h74l20 74c26 97.333 80.333 146 163 146c38 0 72 -8 102 -24l-12 -44c-34 16 -64.667 24 -92 24c-57.333 0 -95.666 -37.667 -114.999 -113l-17 -63h184l-12 -45h-184l-125 -465h-49zM416.999 0l125 465h-74l12 45h74l20 74
c26 97.333 80.333 146 163 146c38 0 72 -8 102 -24l-12 -44c-34 16 -64.667 24 -92 24c-56.667 0 -95 -37.667 -115 -113l-17 -63h184l-12 -45h-184l-125 -465h-49zM755.999 0l196 730h49l-196 -730h-49z" />
    <glyph glyph-name=".notdef" 
d="M0 0v700h500v-700h-500zM81 49h339l-170 255zM49 96l171 254l-171 254v-508zM450 96v508l-171 -254zM250 395l170 255h-339z" />
    <glyph glyph-name="space" unicode=" " horiz-adv-x="300" 
 />
    <glyph glyph-name="exclam" unicode="!" horiz-adv-x="251" 
d="M24 0l23 85h66l-23 -85h-66zM92 183l105 447l19 70h58l-19 -70l-135 -447h-28z" />
    <glyph glyph-name="quotedbl" unicode="&#x22;" horiz-adv-x="410" 
d="M101 446l93 254h63v-5l-127 -249h-29zM281 446l93 254h63v-5l-127 -249h-29z" />
    <glyph glyph-name="numbersign" unicode="#" horiz-adv-x="678" 
d="M91 0l65 187h-121l12 47h125l83 236h-133l12 47h137l64 183h48l-64 -183h207l64 183h48l-64 -183h121l-12 -47h-125l-83 -236h133l-12 -47h-137l-65 -187h-48l65 187h-207l-65 -187h-48zM221 234h206l83 236h-207z" />
    <glyph glyph-name="dollar" unicode="$" horiz-adv-x="618" 
d="M190 -98l28 102.998c-90.667 14 -163.667 53 -219 117l38 33c49.333 -57.333 115.333 -92 198 -104l77 288c-65.333 24.667 -111.5 49.834 -138.5 75.501s-40.5 58.5 -40.5 98.5c0 53.333 22.167 97.833 66.5 133.5s99.5 53.5 165.5 53.5
c10.667 0 25.334 -0.666992 44.001 -2l16 60h49l-18 -67c67.333 -12.667 124.666 -42.334 171.999 -89.001l-36 -36c-40.667 40.667 -91.667 67.334 -153 80.001l-73 -272c61.333 -22 105.5 -46.667 132.5 -74s40.5 -61.333 40.5 -102
c0 -61.333 -25.167 -109.666 -75.5 -144.999s-116.5 -53 -198.5 -53l-26 -98h-49zM278 46.998l11 0.000976562c57.333 0 104.5 13.5 141.5 40.5s55.5 62.167 55.5 105.5c0 28 -10 52.167 -30 72.5s-54.333 40.166 -103 59.499zM325 388.999l71 262c-8 1.33301 -20 2 -36 2
c-50 0 -91.5 -13 -124.5 -39s-49.5 -58 -49.5 -96c0 -29.333 10.5 -53.5 31.5 -72.5s56.833 -37.833 107.5 -56.5z" />
    <glyph glyph-name="percent" unicode="%" horiz-adv-x="821" 
d="M65 0l682 700h60l-682 -700h-60zM588 -7c-40 0 -72.833 13.833 -98.5 41.5s-38.5 61.5 -38.5 101.5c0 57.333 18.667 108.166 56 152.499s82.333 66.5 135 66.5c40 0 72.833 -13.833 98.5 -41.5s38.5 -61.5 38.5 -101.5c0 -57.333 -18.667 -108.166 -56 -152.499
s-82.333 -66.5 -135 -66.5zM592 36c37.333 0 69.666 17.833 96.999 53.5s41 74.834 41 117.501c0 32 -8 57.5 -24 76.5s-38.667 28.5 -68 28.5c-37.333 0 -69.666 -17.833 -96.999 -53.5s-41 -74.834 -41 -117.501c0 -32 8 -57.5 24 -76.5s38.667 -28.5 68 -28.5zM230 346
c-40 0 -72.833 13.833 -98.5 41.5s-38.5 61.5 -38.5 101.5c0 57.333 18.667 108.166 56 152.499s82.333 66.5 135 66.5c40 0 72.833 -13.833 98.5 -41.5s38.5 -61.5 38.5 -101.5c0 -57.333 -18.667 -108.166 -56 -152.499s-82.333 -66.5 -135 -66.5zM234 389
c37.333 0 69.666 17.833 96.999 53.5s41 74.834 41 117.501c0 32 -8 57.5 -24 76.5s-38.667 28.5 -68 28.5c-37.333 0 -69.666 -17.833 -96.999 -53.5s-41 -74.834 -41 -117.501c0 -32 8 -57.5 24 -76.5s38.667 -28.5 68 -28.5z" />
    <glyph glyph-name="ampersand" unicode="&#x26;" horiz-adv-x="690" 
d="M572 -14l-85.0029 121c-40.667 -40 -80.667 -69.5 -120 -88.5s-84.666 -28.5 -135.999 -28.5c-57.333 0 -105 15.667 -143 47s-57 74 -57 128c0 56.667 20.833 105.5 62.5 146.5s102.5 71.5 182.5 91.5c-31.333 50.667 -47 95 -47 133c0 50 18.167 91.833 54.5 125.5
s79.5 50.5 129.5 50.5c49.333 0 89 -13.333 119 -40s45 -61.667 45 -105c0 -87.333 -75.333 -151.333 -226 -192l142 -201c38.667 44 77.334 99.667 116.001 167l39 -23c-45.333 -74.667 -87.666 -134 -126.999 -178l90 -128zM236.997 36
c77.333 0 151.666 34.999 222.999 104.999l-159 225c-72.667 -17.333 -127 -43.333 -163 -78s-54 -73.667 -54 -117c0 -41.333 13.833 -74.166 41.5 -98.499s64.834 -36.5 111.501 -36.5zM325.997 410.999c133.333 34.667 200 86 200 154c0 30.667 -10.5 55.5 -31.5 74.5
s-48.833 28.5 -83.5 28.5c-35.333 0 -66 -12.833 -92 -38.5s-39 -56.5 -39 -92.5c0 -37.333 15.333 -79.333 46 -126z" />
    <glyph glyph-name="quotesingle" unicode="'" horiz-adv-x="230" 
d="M101 446l93 254h63v-5l-127 -249h-29z" />
    <glyph glyph-name="parenleft" unicode="(" horiz-adv-x="430" 
d="M273 -140c-116 103.333 -173.998 222.667 -173.998 358c0 102.667 33.167 198.5 99.5 287.5s165.166 160.167 296.499 213.5l17 -37c-63.333 -27.333 -118.833 -59 -166.5 -95s-85.334 -74.333 -113.001 -115s-48.167 -82 -61.5 -124s-20 -85 -20 -129
c0 -68.667 13 -128.5 39 -179.5s63 -101.167 111 -150.5z" />
    <glyph glyph-name="parenright" unicode=")" horiz-adv-x="430" 
d="M-47 -139l-17.002 36.999c63.333 27.333 118.833 59 166.5 95s85.334 74.333 113.001 115s48.167 82 61.5 124s20 85 20 129c0 68.667 -13 128.5 -39 179.5s-63 101.167 -111 150.5l28 29c116 -103.333 174 -222.666 174 -357.999
c0 -102.667 -33.167 -198.5 -99.5 -287.5s-165.166 -160.167 -296.499 -213.5z" />
    <glyph glyph-name="asterisk" unicode="*" horiz-adv-x="430" 
d="M270 406l-41 10l42 121l-121 -42l-12 41l129 24l-100 84l31 30l84 -97l24 125l41 -10l-42 -121l121 42l12 -41l-129 -24l100 -84l-31 -30l-84 97z" />
    <glyph glyph-name="plus" unicode="+" horiz-adv-x="639" 
d="M256 113l58 215h-217l13 48h217l57 215h50l-57 -215h217l-13 -48h-217l-58 -215h-50z" />
    <glyph glyph-name="comma" unicode="," horiz-adv-x="231" 
d="M-32 -106l-7 24c46 16 72.667 43.333 80 82h-27l23 85h66l-20 -74c-10 -34.667 -23.333 -60.5 -40 -77.5s-41.667 -30.167 -75 -39.5z" />
    <glyph glyph-name="hyphen" unicode="-" horiz-adv-x="409" 
d="M74 269l15 56h268l-15 -56h-268z" />
    <glyph glyph-name="period" unicode="." horiz-adv-x="231" 
d="M14 0l23 85h66l-23 -85h-66z" />
    <glyph glyph-name="slash" unicode="/" 
d="M-121 -128l716 926h54l-716 -926h-54z" />
    <glyph glyph-name="zero" unicode="0" horiz-adv-x="709" 
d="M317 -12c-74.667 0 -132.5 24.167 -173.5 72.5s-61.5 111.5 -61.5 189.5c0 76 15.333 149.333 46 220s74 128.667 130 174s117.333 68 184 68c74.667 0 132.5 -24.167 173.5 -72.5s61.5 -111.5 61.5 -189.5c0 -76 -15.333 -149.333 -46 -220s-74 -128.667 -130 -174
s-117.333 -68 -184 -68zM320 35c52.667 0 102.667 20.333 150 61s84.666 92.834 111.999 156.501s41 129.5 41 197.5c0 62.667 -16 114.167 -48 154.5s-77.333 60.5 -136 60.5c-52.667 0 -102.667 -20.333 -150 -61s-84.666 -92.834 -111.999 -156.501
s-41 -129.5 -41 -197.5c0 -62.667 16 -114.167 48 -154.5s77.333 -60.5 136 -60.5z" />
    <glyph glyph-name="one" unicode="1" horiz-adv-x="334" 
d="M93 0l173 645l-147 -46l-2 47l176 59h41l-189 -705h-52z" />
    <glyph glyph-name="two" unicode="2" horiz-adv-x="588" 
d="M-19 0l9.00098 39.001l418 325c42.667 33.333 73.834 63.5 93.501 90.5s29.5 56.167 29.5 87.5c0 35.333 -13.333 64.333 -40 87s-63.334 34 -110.001 34c-70.667 0 -137.334 -33.333 -200.001 -100l-37 32c74 76.667 153.667 115 239 115
c59.333 0 107.833 -15.5 145.5 -46.5s56.5 -71.167 56.5 -120.5c0 -38.667 -11.833 -74.334 -35.5 -107.001s-60.167 -68 -109.5 -106l-362 -280h404l-13 -50h-488z" />
    <glyph glyph-name="three" unicode="3" horiz-adv-x="606" 
d="M250 -12c-58 0 -107.5 12.168 -148.5 36.501s-71.5 57.833 -91.5 100.5l43 24c39.333 -76 106 -114 200 -114c62 0 113.333 16.5 154 49.5s61 75.167 61 126.5c0 44 -17.5 77.167 -52.5 99.5s-82.833 33.5 -143.5 33.5h-29l-11 26l312 282h-375l14 48h450l-10 -37
l-307 -277c59.333 -2.66699 108.666 -18.834 147.999 -48.501s59 -70.5 59 -122.5c0 -65.333 -26.667 -119.5 -80 -162.5s-117.666 -64.5 -192.999 -64.5z" />
    <glyph glyph-name="four" unicode="4" horiz-adv-x="645" 
d="M369 0l46 171h-379l-8 39l533 495h48l-131 -489h114l-12 -45h-114l-46 -171h-51zM99 216h328l109 406z" />
    <glyph glyph-name="five" unicode="5" horiz-adv-x="601" 
d="M252 -12c-102 0 -180.668 41.6641 -236.001 124.997l43 27c48 -71.333 113.333 -107 196 -107c66 0 120.167 19.333 162.5 58s63.5 84.667 63.5 138c0 46.667 -15.667 83.334 -47 110.001s-71.666 40 -120.999 40c-54.667 0 -108.334 -14.667 -161.001 -44l-33 26
l111 339h378l-14 -48h-332l-86 -259c15.333 8.66699 36.833 16.334 64.5 23.001s51.834 10 72.501 10c68 0 122 -17.5 162 -52.5s60 -82.5 60 -142.5c0 -67.333 -26.333 -124.666 -79 -171.999s-120.667 -71 -204 -71z" />
    <glyph glyph-name="six" unicode="6" horiz-adv-x="640" 
d="M317 -12c-68 0 -123.333 21.334 -166 64.001c-45.333 45.333 -68 109.666 -68 192.999c0 74.667 12.833 144 38.5 208s59.5 117 101.5 159c66.667 66.667 141.334 100 224.001 100c84 0 152 -31 204 -93l-38 -33c-46.667 52.667 -103 79 -169 79
s-126.333 -27.333 -181 -82c-32.667 -32.667 -60.334 -73.167 -83.001 -121.5s-35.667 -96.5 -39 -144.5c23.333 34.667 53.5 63 90.5 85s79.5 33 127.5 33c68 0 122.333 -20 163 -60s61 -88 61 -144c0 -66 -25.333 -123 -76 -171s-114 -72 -190 -72zM320 34.001
c60 0 109.833 19.335 149.5 58.002s59.5 85 59.5 139c0 41.333 -15 77.666 -45 108.999s-72.667 47 -128 47c-62 0 -113.167 -18.833 -153.5 -56.5s-60.5 -80.834 -60.5 -129.501c0 -48 15.333 -87.333 46 -118c32.667 -32.667 76.667 -49 132 -49z" />
    <glyph glyph-name="seven" unicode="7" horiz-adv-x="578" 
d="M80 0l471 650h-403l14 50h464l-11 -38l-475 -662h-60z" />
    <glyph glyph-name="eight" unicode="8" horiz-adv-x="641" 
d="M295 -10c-75.333 0 -136.667 17.667 -184 53s-71 78.666 -71 129.999c0 54 20 98.167 60 132.5s91.333 56.166 154 65.499c-30.667 11.333 -56.167 30 -76.5 56s-30.5 57 -30.5 93c0 54 24 99.167 72 135.5s107 54.5 177 54.5c67.333 0 122.833 -16.667 166.5 -50
s65.5 -76.333 65.5 -129c0 -47.333 -17.333 -87.166 -52 -119.499s-77.667 -53.166 -129 -62.499c34 -12 63 -32 87 -60s36 -60.667 36 -98c0 -58 -26.167 -106 -78.5 -144s-117.833 -57 -196.5 -57zM297.999 37c65.333 0 118.001 14.501 158.001 43.501s60 66.5 60 112.5
c0 39.333 -18.5 73.166 -55.5 101.499s-85.833 42.5 -146.5 42.5c-66 0 -119.167 -15.333 -159.5 -46s-60.5 -68 -60.5 -112c0 -42 18.667 -76.167 56 -102.5s86.666 -39.5 147.999 -39.5zM375 380.001c62 0 110.666 14.834 145.999 44.501s53 64.167 53 103.5
s-16.5 71.666 -49.5 96.999s-75.833 38 -128.5 38c-58 0 -105 -14 -141 -42s-54 -63 -54 -105c0 -38.667 16.333 -71 49 -97s74.334 -39 125.001 -39z" />
    <glyph glyph-name="nine" unicode="9" horiz-adv-x="640" 
d="M243 -13c-85.333 0 -155.335 33.001 -210.002 99.001l38 33c50 -56.667 108.333 -85 175 -85c72 0 138.5 34.5 199.5 103.5s95.167 149.5 102.5 241.5c-55.333 -82 -128.666 -123 -219.999 -123c-68 0 -122.167 20.167 -162.5 60.5s-60.5 88.833 -60.5 145.5
c0 68 25.667 126.5 77 175.5s115 73.5 191 73.5c70.667 0 127.167 -22.333 169.5 -67s63.5 -108 63.5 -190c0 -68 -10.5 -131.667 -31.5 -191s-48.667 -108.833 -83 -148.5s-73.166 -70.834 -116.499 -93.501s-87.333 -34 -132 -34zM334.998 304.001
c60 0 110.332 19.834 150.999 59.501s61 85.167 61 136.5c0 50 -17.333 90 -52 120s-76.667 45 -126 45c-59.333 0 -109.166 -19.833 -149.499 -59.5s-60.5 -86.834 -60.5 -141.501c0 -43.333 14.833 -80.833 44.5 -112.5s73.5 -47.5 131.5 -47.5z" />
    <glyph glyph-name="colon" unicode=":" horiz-adv-x="241" 
d="M19 0l23 85h66l-23 -85h-66zM133 425l23 85h66l-23 -85h-66z" />
    <glyph glyph-name="semicolon" unicode=";" horiz-adv-x="241" 
d="M-27 -106l-7 24c46 16 72.667 43.333 80 82h-27l23 85h66l-20 -74c-10 -34.667 -23.333 -60.5 -40 -77.5s-41.667 -30.167 -75 -39.5zM133 425l23 85h66l-23 -85h-66z" />
    <glyph glyph-name="less" unicode="&#x3c;" horiz-adv-x="640" 
d="M478 91l-400 241l11 40l529 241l-15 -59l-458 -206l347 -208z" />
    <glyph glyph-name="equal" unicode="=" horiz-adv-x="640" 
d="M81 214l14 51h454l-14 -51h-454zM142 439l13 51h454l-13 -51h-454z" />
    <glyph glyph-name="greater" unicode="&#x3e;" horiz-adv-x="640" 
d="M51 91l15 59l458 206l-347 208l14 49l400 -241l-11 -40z" />
    <glyph glyph-name="question" unicode="?" horiz-adv-x="534" 
d="M128 0l23 85h66l-23 -85h-66zM194 183l30.002 162.002l7 5c75.333 5.33301 135.833 24.166 181.5 56.499s68.5 74.5 68.5 126.5c0 40.667 -14.333 72.334 -43 95.001s-65 34 -109 34c-72 0 -137.333 -29.333 -196 -88l-32 34c67.333 67.333 144.666 101 231.999 101
c61.333 0 110.166 -16.333 146.499 -49s54.5 -74.667 54.5 -126c0 -62.667 -25 -113.334 -75 -152.001s-113.333 -63.334 -190 -74.001l-43 -125h-32z" />
    <glyph glyph-name="at" unicode="@" horiz-adv-x="980" 
d="M486 -161c-127.333 0 -229.164 35.832 -305.497 107.499s-114.5 166.5 -114.5 284.5c0 84.667 22 164 66 238s103.833 133 179.5 177s157.5 66 245.5 66c120.667 0 216 -33.333 286 -100s105 -151 105 -253c0 -88 -21.667 -157.667 -65 -209s-90.333 -77 -141 -77
c-34.667 0 -62.334 8.83301 -83.001 26.5s-33.334 42.167 -38.001 73.5c-52.667 -68 -114.667 -102 -186 -102c-44.667 0 -82 15.167 -112 45.5s-45 70.5 -45 120.5c0 71.333 25 133.333 75 186s106 79 168 79c40 0 72.833 -10.167 98.5 -30.5s44.167 -46.166 55.5 -77.499
l30 98l47 -13l-75 -242c-5.33301 -18 -8 -34 -8 -48c0 -24 6.66699 -43.167 20 -57.5s32.666 -21.5 57.999 -21.5c39.333 0 76.833 22 112.5 66s53.5 105 53.5 183c0 92 -32 168.5 -96 229.5s-150.667 91.5 -260 91.5c-124 0 -231 -44.667 -321 -134
s-135 -194.333 -135 -315c0 -108 35.167 -195 105.5 -261s163.5 -99 279.5 -99c72 0 141 15 207 45l14 -29c-70 -32 -143.667 -48 -221 -48zM445.002 117.999c50.667 0 97.666 21.501 140.999 64.501s65 90.5 65 142.5c0 38 -11.667 69.167 -35 93.5s-54.333 36.5 -93 36.5
c-52 0 -96.5 -21.333 -133.5 -64s-55.5 -93.334 -55.5 -152.001c0 -37.333 10.333 -66.833 31 -88.5s47.334 -32.5 80.001 -32.5z" />
    <glyph glyph-name="A" unicode="A" horiz-adv-x="759" 
d="M-34 0l515 705h50l137 -705h-53l-36 196h-413l-142 -196h-58zM200 243h369l-75 405z" />
    <glyph glyph-name="B" unicode="B" horiz-adv-x="717" 
d="M36 0l188.001 699.999h259c64 0 115 -14.167 153 -42.5s57 -67.166 57 -116.499s-17.333 -90.5 -52 -123.5s-79 -54.833 -133 -65.5c40 -10.667 72.333 -28 97 -52s37 -55.333 37 -94c0 -60.667 -26.333 -110.167 -79 -148.5s-123.334 -57.5 -212.001 -57.5h-315z
M101.001 47.999l253 0.000976562c72.667 0 130 14 172 42s63 66.667 63 116c0 39.333 -17 69.666 -51 90.999s-78.667 32 -134 32h-228zM189.001 377l215.999 0.000976562c70.667 0 127.334 14.667 170.001 44s64 67.666 64 114.999c0 38 -14.167 66.833 -42.5 86.5
s-67.833 29.5 -118.5 29.5h-215z" />
    <glyph glyph-name="C" unicode="C" horiz-adv-x="738" 
d="M378 -13c-80 0 -147.668 25.832 -203.001 77.499s-83 120.5 -83 206.5c0 74.667 18.5 146 55.5 214s88 122.833 153 164.5s134.833 62.5 209.5 62.5c61.333 0 113.833 -13.833 157.5 -41.5s76.834 -64.167 99.501 -109.5l-45 -24c-24 42 -52.833 73.833 -86.5 95.5
s-76.5 32.5 -128.5 32.5c-98.667 0 -183.5 -40 -254.5 -120s-106.5 -170.667 -106.5 -272c0 -72.667 22.167 -130.5 66.5 -173.5s101.166 -64.5 170.499 -64.5c49.333 0 92.5 8.83301 129.5 26.5s72.833 43.834 107.5 78.501l35 -32
c-77.333 -80.667 -169.666 -121 -276.999 -121z" />
    <glyph glyph-name="D" unicode="D" horiz-adv-x="771" 
d="M36 0l188 700.001h157c118.667 0 209.334 -31.333 272.001 -94c51.333 -51.333 77 -118 77 -200c0 -108 -36.333 -198.333 -109 -271c-42.667 -42.667 -94.834 -75.834 -156.501 -99.501s-128.167 -35.5 -199.5 -35.5h-229zM101 48.001h171.001c126.667 0 230 40 310 120
c62.667 62.667 94 140.667 94 234c0 72 -21.667 129 -65 171c-52.667 52.667 -130.334 79 -233.001 79h-115z" />
    <glyph glyph-name="E" unicode="E" horiz-adv-x="649" 
d="M36 0l188 700h493l-13 -48h-441l-74 -275h396l-13 -48h-396l-75 -281h446l-13 -48h-498z" />
    <glyph glyph-name="F" unicode="F" horiz-adv-x="656" 
d="M36 0l188 700h493l-13 -48h-441l-77 -287h396l-13 -48h-396l-85 -317h-52z" />
    <glyph glyph-name="G" unicode="G" horiz-adv-x="786" 
d="M396 -13c-88 0 -160.333 26.999 -217 80.999s-85 125.333 -85 214c0 72 18.333 140.833 55 206.5s88.167 119.334 154.5 161.001s138.833 62.5 217.5 62.5c115.333 0 200.666 -43.333 255.999 -130l-41 -27c-23.333 35.333 -51.666 62.5 -84.999 81.5
s-78.333 28.5 -135 28.5c-68 0 -130.667 -18.667 -188 -56s-101.666 -85 -132.999 -143s-47 -118.667 -47 -182c0 -77.333 23 -138.333 69 -183s106.667 -67 182 -67c77.333 0 144.666 19 201.999 57l64 224h-233l13 48h284l-86 -301c-76.667 -50 -159 -75 -247 -75z" />
    <glyph glyph-name="H" unicode="H" horiz-adv-x="756" 
d="M36 0l188 700h52l-87 -324h443l87 324h52l-188 -700h-52l88 328h-443l-88 -328h-52z" />
    <glyph glyph-name="I" unicode="I" horiz-adv-x="274" 
d="M43 0l188 700h52l-188 -700h-52z" />
    <glyph glyph-name="J" unicode="J" horiz-adv-x="538" 
d="M196 -10c-55.333 0 -99.5 14.667 -132.5 44s-55.833 68.333 -68.5 117l46 16c26.667 -86.667 77.667 -130 153 -130c50 0 92.333 17.333 127 52c33.333 33.333 59.333 84.333 78 153l123 458h52l-125 -465c-20.667 -78 -51.667 -137.667 -93 -179
c-44 -44 -97.333 -66 -160 -66z" />
    <glyph glyph-name="K" unicode="K" horiz-adv-x="714" 
d="M36 0l188 700h52l-122 -455l560 455h77l-389 -313l212 -387h-60l-195 357l-224 -182l-47 -175h-52z" />
    <glyph glyph-name="L" unicode="L" horiz-adv-x="600" 
d="M36 0l188 700h52l-175 -652h411l-13 -48h-463z" />
    <glyph glyph-name="M" unicode="M" horiz-adv-x="869" 
d="M36 0l188 700h43l170 -414l392 414h55l-188 -700h-52l163 608l-385 -403h-4l-169 403l-163 -608h-50z" />
    <glyph glyph-name="N" unicode="N" horiz-adv-x="786" 
d="M36 0l188 700h48l315 -613l165 613h50l-188 -700h-38l-322 626l-168 -626h-50z" />
    <glyph glyph-name="O" unicode="O" horiz-adv-x="846" 
d="M398 -13c-87.333 0 -159.5 28.833 -216.5 86.5s-85.5 129.167 -85.5 214.5c0 72 17.833 140.667 53.5 206s84.667 118 147 158s129.833 60 202.5 60c87.333 0 159.5 -28.833 216.5 -86.5s85.5 -129.167 85.5 -214.5c0 -72 -17.833 -140.667 -53.5 -206
s-84.667 -118 -147 -158s-129.833 -60 -202.5 -60zM398 34c64 0 123 18 177 54s96.167 82.833 126.5 140.5s45.5 118.5 45.5 182.5c0 72.667 -23 133.167 -69 181.5s-105.667 72.5 -179 72.5c-64 0 -123 -18 -177 -54s-96.167 -82.833 -126.5 -140.5
s-45.5 -118.5 -45.5 -182.5c0 -72.667 23 -133.167 69 -181.5s105.667 -72.5 179 -72.5z" />
    <glyph glyph-name="P" unicode="P" horiz-adv-x="663" 
d="M36 0l188 700h218c86.667 0 151 -21 193 -63c32 -32 48 -73.667 48 -125c0 -78.667 -31 -140 -93 -184s-146.333 -66 -253 -66h-178l-71 -262h-52zM171 309h168c94 0 166.167 17.5 216.5 52.5s75.5 84.5 75.5 148.5c0 38 -12 69 -36 93c-32.667 32.667 -84 49 -154 49
h-178z" />
    <glyph glyph-name="Q" unicode="Q" horiz-adv-x="846" 
d="M692 -24l-72 85.001c-68.667 -49.333 -142.667 -74 -222 -74c-87.333 0 -159.5 28.833 -216.5 86.5s-85.5 129.167 -85.5 214.5c0 72 17.833 140.667 53.5 206s84.667 118 147 158s129.833 60 202.5 60c87.333 0 159.5 -28.833 216.5 -86.5s85.5 -129.167 85.5 -214.5
c0 -60 -13 -118.333 -39 -175s-61.667 -105.334 -107 -146.001l75 -82zM398 34.001c68.667 0 132 21.001 190 63.001l-117 130l38 33l114 -134c38.667 36 69 79.167 91 129.5s33 102.166 33 155.499c0 72.667 -23 133.167 -69 181.5s-105.667 72.5 -179 72.5
c-64 0 -123 -18 -177 -54s-96.167 -82.833 -126.5 -140.5s-45.5 -118.5 -45.5 -182.5c0 -72.667 23 -133.167 69 -181.5s105.667 -72.5 179 -72.5z" />
    <glyph glyph-name="R" unicode="R" horiz-adv-x="713" 
d="M36 0l188 700h251c84 0 146.667 -20.667 188 -62c29.333 -29.333 44 -67.333 44 -114c0 -56 -20.667 -104.667 -62 -146c-45.333 -45.333 -114 -73 -206 -83l154 -295h-60l-150 290h-217l-78 -290h-52zM178 337l210.001 -0.000976562c99.333 0 172.666 23.667 219.999 71
c31.333 31.333 47 69 47 113c0 34.667 -10.333 62.334 -31 83.001c-32 32 -82.333 48 -151 48h-210z" />
    <glyph glyph-name="S" unicode="S" horiz-adv-x="638" 
d="M299 -10c-122.667 0 -215.67 44.6621 -279.003 133.995l40 29c30.667 -39.333 65.334 -68.5 104.001 -87.5s85.334 -28.5 140.001 -28.5c57.333 0 105.333 14.5 144 43.5s58 65.5 58 109.5c0 30.667 -11.333 56.334 -34 77.001s-62.334 42 -119.001 64
c-74 28.667 -125.833 56.334 -155.5 83.001s-44.5 61 -44.5 103c0 54 23.333 99.667 70 137s107 56 181 56c50.667 0 97.167 -9.83301 139.5 -29.5s76.833 -45.5 103.5 -77.5l-40 -32c-53.333 61.333 -122.666 92 -207.999 92c-58 0 -104.667 -14 -140 -42
s-53 -61.333 -53 -100c0 -31.333 12.667 -57.166 38 -77.499s68.333 -42.166 129 -65.499c66.667 -25.333 114.334 -51.833 143.001 -79.5s43 -62.5 43 -104.5c0 -57.333 -24.667 -105.666 -74 -144.999s-111.333 -59 -186 -59z" />
    <glyph glyph-name="T" unicode="T" horiz-adv-x="615" 
d="M209 0l175 652h-244l13 48h540l-13 -48h-244l-175 -652h-52z" />
    <glyph glyph-name="U" unicode="U" horiz-adv-x="756" 
d="M348 -11c-81.333 0 -143.667 20.335 -187 61.002s-65 93.667 -65 159c0 36 4.66699 72 14 108l102 383h52l-108 -407c-6 -24 -9 -50.667 -9 -80c0 -52.667 17.333 -95.334 52 -128.001s85.667 -49 153 -49c66 0 123 24 171 72c43.333 43.333 76 105.333 98 186l109 406
h52l-112 -417c-23.333 -86.667 -60.333 -155.334 -111 -206.001c-58.667 -58.667 -129 -88 -211 -88z" />
    <glyph glyph-name="V" unicode="V" horiz-adv-x="714" 
d="M259 -5l-117 705h54l99 -644l446 644h59l-495 -705h-46z" />
    <glyph glyph-name="W" unicode="W" horiz-adv-x="1074" 
d="M215 -5l-65 705h54l53 -623l372 625h40l38 -625l387 623h58l-443 -705h-42l-42 608l-368 -608h-42z" />
    <glyph glyph-name="X" unicode="X" horiz-adv-x="692" 
d="M-23 0l366 362l-186 338h56l167 -308l310 308h67l-352 -347l192 -353h-56l-173 323l-324 -323h-67z" />
    <glyph glyph-name="Y" unicode="Y" horiz-adv-x="668" 
d="M234 0l76 284l-183 416h57l161 -376l364 376h70l-421 -429l-72 -271h-52z" />
    <glyph glyph-name="Z" unicode="Z" horiz-adv-x="662" 
d="M-19 0l8 29l636 624h-452l13 47h533l-8 -29l-636 -624h472l-13 -47h-553z" />
    <glyph glyph-name="bracketleft" unicode="[" horiz-adv-x="430" 
d="M16 -130l223 830h273l-11 -38h-227l-202 -754h227l-10 -38h-273z" />
    <glyph glyph-name="backslash" unicode="\" 
d="M368 -128l-221 926h44l221 -926h-44z" />
    <glyph glyph-name="bracketright" unicode="]" horiz-adv-x="430" 
d="M-67 -130l11 38h227l202 754h-227l10 38h273l-223 -830h-273z" />
    <glyph glyph-name="asciicircum" unicode="^" 
d="M129 493l214 210h44l102 -210h-47l-83 167l-173 -167h-57z" />
    <glyph glyph-name="underscore" unicode="_" horiz-adv-x="600" 
d="M-114 -160l12 44h605l-12 -44h-605z" />
    <glyph glyph-name="grave" unicode="`" 
d="M368 595l-79 103l62 30l52 -133h-35z" />
    <glyph glyph-name="a" unicode="a" horiz-adv-x="571" 
d="M190 -12c-46 0 -85.333 12.4971 -118 37.4971s-49 60.167 -49 105.5c0 56 21.333 100.833 64 134.5s98 50.5 166 50.5c60 0 125.333 -9.66699 196 -29l4 14c4.66699 17.333 7 34.333 7 51c0 38.667 -13.167 68.334 -39.5 89.001s-64.5 31 -114.5 31
c-46.667 0 -96 -9 -148 -27l-9 44c54 19.333 107.667 29 161 29c62 0 110.5 -14.167 145.5 -42.5s52.5 -67.166 52.5 -116.499c0 -19.333 -3.33301 -41.666 -10 -66.999l-78 -292h-48l23 88c-56 -66.667 -124.333 -100 -205 -100zM199 32.9971
c50 0 97.1689 15.833 141.502 47.5s73.166 72.5 86.499 122.5l12 45c-64 16 -128.333 24 -193 24c-50.667 0 -91.834 -12.5 -123.501 -37.5s-47.5 -57.5 -47.5 -97.5c0 -31.333 11.167 -56.5 33.5 -75.5s52.5 -28.5 90.5 -28.5z" />
    <glyph glyph-name="b" unicode="b" horiz-adv-x="654" 
d="M312 -13c-52.667 0 -96.002 13.5 -130.002 40.5s-58.333 61.167 -73 102.5l-35 -130h-49l196 730h49l-87 -320c62.667 74.667 133.334 112 212.001 112c59.333 0 108.333 -20.167 147 -60.5s58 -91.833 58 -154.5c0 -89.333 -28.667 -165 -86 -227
s-124.666 -93 -201.999 -93zM309.998 33c67.333 0 123.667 26.667 169 80s68 116 68 188c0 52 -14.667 94.167 -44 126.5s-67.333 48.5 -114 48.5c-64 0 -122.5 -27.333 -175.5 -82s-79.5 -115.667 -79.5 -183c0 -50 16.5 -92.167 49.5 -126.5s75.167 -51.5 126.5 -51.5z
" />
    <glyph glyph-name="c" unicode="c" horiz-adv-x="563" 
d="M272 -12c-59.333 0 -111.169 20 -155.502 60s-66.5 93.333 -66.5 160c0 84 29.833 157.333 89.5 220s129.834 94 210.501 94c48.667 0 89.834 -11.667 123.501 -35s59.167 -52.666 76.5 -87.999l-41 -23c-38 66.667 -92 100 -162 100
c-64.667 0 -121.5 -26.667 -170.5 -80s-73.5 -115 -73.5 -185c0 -54.667 16.833 -97.834 50.5 -129.501s74.167 -47.5 121.5 -47.5c58 0 113 24.333 165 73l33 -32c-60 -58 -127 -87 -201 -87z" />
    <glyph glyph-name="d" unicode="d" horiz-adv-x="654" 
d="M259 -13c-59.333 0 -108.332 20.167 -146.999 60.5s-58 91.833 -58 154.5c0 89.333 28.667 165 86 227s124.666 93 201.999 93c52.667 0 96 -13.5 130 -40.5s58.333 -61.167 73 -102.5l94 351h49l-195 -730h-49l26 99c-62.667 -74.667 -133 -112 -211 -112zM265.001 33
c64 0 122.499 27.333 175.499 82s79.5 115.667 79.5 183c0 50 -16.5 92.167 -49.5 126.5s-75.167 51.5 -126.5 51.5c-67.333 0 -123.666 -26.667 -168.999 -80s-68 -116 -68 -188c0 -52 14.667 -94.167 44 -126.5s67.333 -48.5 114 -48.5z" />
    <glyph glyph-name="e" unicode="e" horiz-adv-x="583" 
d="M272 -12c-65.333 0 -118.667 20 -160 60s-62 91.333 -62 154c0 82 29 155.833 87 221.5s127.333 98.5 208 98.5c61.333 0 108.833 -18.667 142.5 -56s50.5 -83.666 50.5 -138.999c0 -32.667 -4.66699 -62.334 -14 -89.001h-419c-1.33301 -14.667 -2 -26 -2 -34
c0 -51.333 15.667 -92.5 47 -123.5s72 -46.5 122 -46.5c60.667 0 118.667 22.667 174 68l29 -35c-63.333 -52.667 -131 -79 -203 -79zM113.999 282l370 -0.000976562c2.66699 12 4 26 4 42c0 44 -12.167 80.5 -36.5 109.5s-60.166 43.5 -107.499 43.5
c-54.667 0 -102.834 -18.667 -144.501 -56s-70.167 -83.666 -85.5 -138.999z" />
    <glyph glyph-name="f" unicode="f" horiz-adv-x="362" 
d="M55 0l124.999 465h-74l12 45h74l20 74c26 97.333 80.333 146 163 146c38 0 72 -8 102 -24l-12 -44c-34 16 -64.667 24 -92 24c-57.333 0 -95.666 -37.667 -114.999 -113l-17 -63h184l-12 -45h-184l-125 -465h-49z" />
    <glyph glyph-name="g" unicode="g" horiz-adv-x="654" 
d="M236 -162c-44.667 0 -88.332 8.50098 -130.999 25.501s-79.334 40.167 -110.001 69.5l36 36c60 -56.667 129 -85 207 -85c66.667 0 119 19 157 57c30 30 53.333 74.667 70 134l18 64c-63.333 -67.333 -133.333 -101 -210 -101c-57.333 0 -107.166 18.167 -149.499 54.5
s-63.5 84.166 -63.5 143.499c0 82 29.333 150.167 88 204.5s125.667 81.5 201 81.5c93.333 0 159.666 -45.333 198.999 -136l33 124h49l-119 -447c-18 -66 -44.667 -116.667 -80 -152c-48.667 -48.667 -113.667 -73 -195 -73zM282.002 84.001
c63.333 0 119.833 23.5 169.5 70.5s74.5 99.5 74.5 157.5c0 43.333 -16.5 81.333 -49.5 114s-76.167 49 -129.5 49c-62 0 -116.5 -22.333 -163.5 -67s-70.5 -101 -70.5 -169c0 -48.667 16.667 -86.667 50 -114s73 -41 119 -41z" />
    <glyph glyph-name="h" unicode="h" horiz-adv-x="609" 
d="M25 0l196.001 730.001h49l-85 -315c59.333 71.333 123.666 107 192.999 107c50.667 0 91.167 -14.833 121.5 -44.5s45.5 -68.834 45.5 -117.501c0 -18.667 -3.66699 -42.667 -11 -72l-76 -288h-49l78 292c5.33301 20 8 41 8 63c0 38 -11.667 68 -35 90s-55.333 33 -96 33
c-44.667 0 -87.667 -18 -129 -54s-69.333 -81.333 -84 -136l-77 -288h-49z" />
    <glyph glyph-name="i" unicode="i" horiz-adv-x="250" 
d="M32 0l137 510h49l-137 -510h-49zM199 643l18 67h61l-18 -67h-61z" />
    <glyph glyph-name="j" unicode="j" horiz-adv-x="249" 
d="M-52 -163c-22 0 -43 3.33203 -63 9.99902l12 44c18.667 -5.33301 34.334 -8 47.001 -8c37.333 0 62.333 23 75 69l150 558h49l-151 -562c-9.33301 -35.333 -24.333 -62.666 -45 -81.999s-45.334 -29 -74.001 -29zM199 642.999l18 67h61l-18 -67h-61z" />
    <glyph glyph-name="k" unicode="k" horiz-adv-x="560" 
d="M25 0l196 730h49l-145 -541l396 321h71l-284 -228l152 -282h-57l-136 252l-160 -128l-33 -124h-49z" />
    <glyph glyph-name="l" unicode="l" horiz-adv-x="250" 
d="M32 0l196 730h49l-196 -730h-49z" />
    <glyph glyph-name="m" unicode="m" horiz-adv-x="951" 
d="M25 0l135.999 510.001h49l-25 -95c28.667 35.333 56.834 62 84.501 80s60.5 27 98.5 27c42.667 0 76.667 -12.167 102 -36.5s41 -53.833 47 -88.5c50.667 83.333 122 125 214 125c46 0 84 -15.167 114 -45.5s45 -69.166 45 -116.499c0 -13.333 -4.33301 -37.333 -13 -72
l-76 -288h-49l78 292c5.33301 20 8 41 8 63c0 37.333 -11 67.166 -33 89.499s-51.333 33.5 -88 33.5c-41.333 0 -82 -18.167 -122 -54.5s-67 -81.5 -81 -135.5l-76 -288h-49l78 292c5.33301 20 8 41 8 63c0 37.333 -11 67.166 -33 89.499s-51.333 33.5 -88 33.5
c-41.333 0 -82 -18.167 -122 -54.5s-67 -81.5 -81 -135.5l-77 -288h-49z" />
    <glyph glyph-name="n" unicode="n" horiz-adv-x="611" 
d="M25 0l136.001 510.001h49l-25 -95c59.333 71.333 123.666 107 192.999 107c50.667 0 91.167 -14.833 121.5 -44.5s45.5 -68.834 45.5 -117.501c0 -18.667 -3.66699 -42.667 -11 -72l-76 -288h-49l78 292c5.33301 20 8 41 8 63c0 38 -11.667 68 -35 90s-55.333 33 -96 33
c-44.667 0 -87.667 -18 -129 -54s-69.333 -81.333 -84 -136l-77 -288h-49z" />
    <glyph glyph-name="o" unicode="o" horiz-adv-x="633" 
d="M278 -12c-67.333 0 -122.002 21.167 -164.002 63.5s-63 96.5 -63 162.5c0 81.333 30.333 153 91 215s131.334 93 212.001 93c67.333 0 122 -21.167 164 -63.5s63 -96.5 63 -162.5c0 -82.667 -30.667 -154.667 -92 -216s-131.666 -92 -210.999 -92zM282.998 34
c63.333 0 120 26 170 78s75 112.667 75 182c0 56.667 -16.333 101.167 -49 133.5s-76 48.5 -130 48.5c-64.667 0 -121.667 -26.333 -171 -79s-74 -113 -74 -181c0 -56.667 16.333 -101.167 49 -133.5s76 -48.5 130 -48.5z" />
    <glyph glyph-name="p" unicode="p" horiz-adv-x="654" 
d="M-18 -160l179.998 670h48l-27 -100c62.667 74.667 133.334 112 212.001 112c59.333 0 108.333 -20.167 147 -60.5s58 -91.833 58 -154.5c0 -89.333 -28.667 -165 -86 -227s-124.666 -93 -201.999 -93c-52.667 0 -96 13.5 -130 40.5s-58.333 61.167 -73 102.5l-78 -290
h-49zM309.998 33c67.333 0 123.667 26.667 169 80s68 116 68 188c0 52 -14.667 94.167 -44 126.5s-67.333 48.5 -114 48.5c-64 0 -122.5 -27.333 -175.5 -82s-79.5 -115.667 -79.5 -183c0 -50 16.5 -92.167 49.5 -126.5s75.167 -51.5 126.5 -51.5z" />
    <glyph glyph-name="q" unicode="q" horiz-adv-x="654" 
d="M391 -200l80.001 300c-62.667 -75.333 -133.334 -113 -212.001 -113c-59.333 0 -108.333 20.167 -147 60.5s-58 91.833 -58 154.5c0 89.333 28.667 165 86 227s124.666 93 201.999 93c53.333 0 96.833 -13.5 130.5 -40.5s57.834 -60.833 72.501 -101.5l35 130h49
l-189 -710h-49zM265.001 33c64 0 122.499 27.5 175.499 82.5s79.5 116.167 79.5 183.5c0 50 -16.5 92 -49.5 126s-75.167 51 -126.5 51c-67.333 0 -123.666 -26.667 -168.999 -80s-68 -116 -68 -188c0 -52 14.667 -94.167 44 -126.5s67.333 -48.5 114 -48.5z" />
    <glyph glyph-name="r" unicode="r" horiz-adv-x="396" 
d="M25 0l135.999 510h49l-38 -145c76.667 107.333 164 158.333 262 153l-14 -54h-4c-61.333 0 -119.166 -23 -173.499 -69s-91.833 -108 -112.5 -186l-56 -209h-49z" />
    <glyph glyph-name="s" unicode="s" horiz-adv-x="495" 
d="M217 -11c-85.333 0 -157.331 29.334 -215.998 88.001l35 35c54 -52 116.333 -78 187 -78c34 0 64.5 9.5 91.5 28.5s40.5 43.167 40.5 72.5c0 20.667 -7.83301 38.667 -23.5 54s-44.834 31 -87.501 47c-50.667 18.667 -87.167 38.167 -109.5 58.5s-33.5 46.5 -33.5 78.5
c0 41.333 17.5 76.333 52.5 105s80.5 43 136.5 43c68.667 0 130 -22.667 184 -68l-32 -37c-48.667 40 -101 60 -157 60c-40.667 0 -72.834 -9.33301 -96.501 -28s-35.5 -41 -35.5 -67c0 -20.667 7.66699 -38 23 -52s46 -30 92 -48c50.667 -20 86.5 -40.333 107.5 -61
s31.5 -46.334 31.5 -77.001c0 -44 -18.667 -80.667 -56 -110s-82 -44 -134 -44z" />
    <glyph glyph-name="t" unicode="t" horiz-adv-x="396" 
d="M206 -9c-36 0 -65.333 8.50098 -88 25.501s-34 42.167 -34 75.5c0 15.333 2 31.666 6 48.999l87 324h-74l12 45h74l44 163h49l-44 -163h176l-12 -45h-176l-87 -325c-3.33301 -14.667 -5 -29 -5 -43c0 -40.667 27.667 -61 83 -61c21.333 0 46 5.33301 74 16l-13 -48
c-23.333 -8.66699 -47.333 -13 -72 -13z" />
    <glyph glyph-name="u" unicode="u" horiz-adv-x="609" 
d="M231 -12c-50.667 0 -91.168 14.832 -121.501 44.499s-45.5 68.834 -45.5 117.501c0 18.667 3.66699 42.667 11 72l76 288h49l-78 -292c-5.33301 -20 -8 -41 -8 -63c0 -38 11.667 -68 35 -90s55.333 -33 96 -33c44.667 0 87.667 18 129 54s69.333 81.333 84 136l77 288h49
l-136 -510h-49l25 95c-59.333 -71.333 -123.666 -107 -192.999 -107z" />
    <glyph glyph-name="v" unicode="v" horiz-adv-x="557" 
d="M179 -4l-90 514h53l71 -455l313 455h59l-364 -514h-42z" />
    <glyph glyph-name="w" unicode="w" horiz-adv-x="845" 
d="M148 -4l-49 514h50l37 -444l273 446h39l35 -446l275 444h54l-325 -514h-43l-35 437l-270 -437h-41z" />
    <glyph glyph-name="x" unicode="x" horiz-adv-x="559" 
d="M-29 0l284 264l-135 246h56l112 -215l224 215h66l-268 -250l141 -260h-56l-118 229l-240 -229h-66z" />
    <glyph glyph-name="y" unicode="y" horiz-adv-x="568" 
d="M20 -163c-38.667 0 -74.6689 11.668 -108.002 35.001l27 40c24 -19.333 53 -29 87 -29c26.667 0 52.834 9.16699 78.501 27.5s53.834 49.166 84.501 92.499l-104 507h52l89 -456l307 456h59l-363 -528c-36 -52 -70.5 -89.167 -103.5 -111.5s-68.167 -33.5 -105.5 -33.5z
" />
    <glyph glyph-name="z" unicode="z" horiz-adv-x="546" 
d="M-17 0l8 28l475 438h-344l12 44h424l-8 -28l-475 -438h361l-12 -44h-441z" />
    <glyph glyph-name="braceleft" unicode="{" horiz-adv-x="480" 
d="M312 -141c-54.667 12 -94.668 33.0039 -120.001 63.0039s-38 64.667 -38 104c0 24 7.66699 64 23 120c6 21.333 9 39.666 9 54.999c0 44.667 -31.667 67 -95 67h-26l10 38h26c51.333 0 88.833 13.5 112.5 40.5s42.5 74.833 56.5 143.5c14 72 40.5 126.167 79.5 162.5
s102.833 57.166 191.5 62.499l-3 -37c-70 -4 -121.167 -21.667 -153.5 -53s-54.5 -78 -66.5 -140c-13.333 -68.667 -31.166 -117.334 -53.499 -146.001s-55.5 -46.667 -99.5 -54c46 -14 69 -41.667 69 -83c0 -18 -3 -37 -9 -57c-14.667 -50 -22 -88.333 -22 -115
c0 -70.667 41 -117.334 123 -140.001z" />
    <glyph glyph-name="bar" unicode="|" horiz-adv-x="286" 
d="M141 -128v926h44v-926h-44z" />
    <glyph glyph-name="braceright" unicode="}" horiz-adv-x="480" 
d="M-44 -141l3.00293 36.9961c70 4 121.167 21.667 153.5 53s54.5 78 66.5 140c13.333 68.667 31.166 117.334 53.499 146.001s55.5 46.667 99.5 54c-46 14 -69 41.667 -69 83c0 18 3 37 9 57c14.667 50 22 88.333 22 115c0 70.667 -41 117.334 -123 140.001l14 31
c54.667 -12 94.667 -33 120 -63s38 -64.667 38 -104c0 -24 -7.66699 -64 -23 -120c-6 -21.333 -9 -39.666 -9 -54.999c0 -44.667 31.667 -67 95 -67h26l-10 -38h-26c-51.333 0 -88.833 -13.5 -112.5 -40.5s-42.5 -74.833 -56.5 -143.5
c-14.667 -72 -41.334 -126.167 -80.001 -162.5s-102.334 -57.166 -191.001 -62.499z" />
    <glyph glyph-name="asciitilde" unicode="~" horiz-adv-x="460" 
d="M125 245l-38 14.999c16.667 33.333 33 57.666 49 72.999s34.333 23 55 23c13.333 0 24.5 -2.66699 33.5 -8s20.167 -14.333 33.5 -27c20.667 -20 36.667 -30 48 -30c10 0 19.167 4.5 27.5 13.5s18.833 24.5 31.5 46.5l38 -15c-16.667 -33.333 -33 -57.666 -49 -72.999
s-34.333 -23 -55 -23c-13.333 0 -24.5 2.66699 -33.5 8s-20.167 14.333 -33.5 27c-20.667 20 -36.667 30 -48 30c-10 0 -19.167 -4.66699 -27.5 -14s-18.833 -24.666 -31.5 -45.999z" />
    <glyph glyph-name="uni00A0" unicode="&#xa0;" horiz-adv-x="300" 
 />
    <glyph glyph-name="exclamdown" unicode="&#xa1;" horiz-adv-x="251" 
d="M28 0l19 70l135 447h28l-105 -447l-19 -70h-58zM189 615l23 85h66l-23 -85h-66z" />
    <glyph glyph-name="cent" unicode="&#xa2;" horiz-adv-x="558" 
d="M160 -6l44.001 110.999c-39.333 16.667 -70.666 42.667 -93.999 78s-35 75.333 -35 120c0 86.667 30 161.334 90 224.001s131.667 94 215 94c12 0 21 -0.333008 27 -1l34 86h50l-38 -94c63.333 -16 108.333 -53.667 135 -113l-41 -23c-28 50.667 -66 81.667 -114 93
l-170 -433c11.333 -2 23.333 -3 36 -3c65.333 0 125 24.333 179 73l33 -32c-62.667 -58 -134.334 -87 -215.001 -87c-14.667 0 -30.334 1.66699 -47.001 5l-39 -98h-50zM223.001 147.999l168.001 427.001h-14c-68.667 0 -127.334 -26.667 -176.001 -80s-73 -117 -73 -191
c0 -36 8.33301 -67.833 25 -95.5s40 -47.834 70 -60.501z" />
    <glyph glyph-name="sterling" unicode="&#xa3;" horiz-adv-x="624" 
d="M-2 0l7.00098 25l91 20l70 260h-86l13 48h86l35 131c18 68 44.667 119.667 80 155c45.333 45.333 99.666 68 162.999 68c84 0 146 -36.667 186 -110l-43 -26c-36.667 59.333 -85.334 89 -146.001 89c-47.333 0 -87.666 -16.667 -120.999 -50
c-30.667 -30.667 -54 -75.667 -70 -135l-33 -122h298l-13 -48h-298l-69 -258h374l-13 -47h-511z" />
    <glyph glyph-name="currency" unicode="&#xa4;" horiz-adv-x="684" 
d="M372 -12c-68.667 0 -125.499 23.166 -170.499 69.499s-69.167 108.833 -72.5 187.5h-92l13 48h80c2 43.333 9 84.333 21 123h-69l13 48h73c30 74 73.5 133.833 130.5 179.5s121.833 68.5 194.5 68.5c55.333 0 101.666 -14.667 138.999 -44s64 -67.666 80 -114.999
l-45 -18c-18 42.667 -41.167 75 -69.5 97s-66.166 33 -113.499 33c-54.667 0 -105.167 -18.333 -151.5 -55s-82.833 -85.334 -109.5 -146.001h301l-13 -48h-306c-12.667 -41.333 -20 -82.333 -22 -123h296l-13 -48h-283c3.33301 -63.333 21.666 -114.166 54.999 -152.499
s78.333 -57.5 135 -57.5c75.333 0 142.333 32.667 201 98l35 -30c-68.667 -76.667 -147.667 -115 -237 -115z" />
    <glyph glyph-name="yen" unicode="&#xa5;" horiz-adv-x="700" 
d="M251 0l33 125h-210l12 45h210l26 98h-210l12 45h190l-170 387h59l161 -376l364 376h68l-380 -387h184l-12 -45h-214l-26 -98h214l-12 -45h-214l-33 -125h-52z" />
    <glyph glyph-name="brokenbar" unicode="&#xa6;" horiz-adv-x="222" 
d="M138 411h-54v250h54v-250zM138 -89h-54v250h54v-250z" />
    <glyph glyph-name="section" unicode="&#xa7;" horiz-adv-x="632" 
d="M288 -10c-44 0 -86 7.83301 -126 23.5s-71.667 35.167 -95 58.5l33 37c22 -20.667 50.333 -38.167 85 -52.5s71.334 -21.5 110.001 -21.5c34.667 0 63.667 7.16699 87 21.5s35 33.166 35 56.499c0 20.667 -10.667 38.667 -32 54s-57 31.666 -107 48.999
c-66.667 23.333 -114.667 45.666 -144 66.999s-44 47.666 -44 78.999c0 38.667 18.667 69.667 56 93s84.666 35 141.999 35c-51.333 22.667 -77 54.667 -77 96c0 38 17.333 68.167 52 90.5s77.667 33.5 129 33.5c44 0 86 -7.83301 126 -23.5s71.667 -35.167 95 -58.5
l-33 -37c-22 20.667 -50.333 38.167 -85 52.5s-71.334 21.5 -110.001 21.5c-34.667 0 -63.667 -7.16699 -87 -21.5s-35 -33.166 -35 -56.499c0 -20.667 10.667 -38.667 32 -54s57 -31.666 107 -48.999c66.667 -23.333 114.667 -45.666 144 -66.999s44 -47.666 44 -78.999
c0 -38.667 -18.667 -69.667 -56 -93s-84.666 -35 -141.999 -35c51.333 -22.667 77 -54.667 77 -96c0 -38 -17.333 -68.167 -52 -90.5s-77.667 -33.5 -129 -33.5zM392 245c41.333 0 76 8.66699 104 26s42 38.333 42 63c0 19.333 -10.167 36.666 -30.5 51.999
s-54.5 31.333 -102.5 48c-41.333 14 -80.333 21 -117 21c-41.333 0 -76 -8.66699 -104 -26s-42 -38.333 -42 -63c0 -19.333 10.167 -36.666 30.5 -51.999s54.5 -31.333 102.5 -48c40 -14 79 -21 117 -21z" />
    <glyph glyph-name="dieresis" unicode="&#xa8;" 
d="M213 595l22 80h69l-22 -80h-69zM376 595l22 80h69l-22 -80h-69z" />
    <glyph glyph-name="copyright" unicode="&#xa9;" horiz-adv-x="830" 
d="M439 -12c-100.667 0 -186 35.333 -256 106s-105 155.667 -105 255s35.333 184.666 106 255.999s156.334 107 257.001 107s186 -35.333 256 -106s105 -155.667 105 -255s-35.333 -184.666 -106 -255.999s-156.334 -107 -257.001 -107zM439 16c94 0 173 32.667 237 98
s96 144.333 96 237s-31.667 171.334 -95 236.001s-142 97 -236 97s-173 -32.667 -237 -98s-96 -144.333 -96 -237s31.667 -171.334 95 -236.001s142 -97 236 -97zM444 166c-51.333 0 -94.5 18.3311 -129.5 54.998s-52.5 81.334 -52.5 134.001c0 52 17.5 96.667 52.5 134
s78.5 56 130.5 56c51.333 0 98.333 -20.333 141 -61l-30 -31c-36 34.667 -73.333 52 -112 52c-40 0 -73 -14.5 -99 -43.5s-39 -64.167 -39 -105.5s13.5 -76.666 40.5 -105.999s59.833 -44 98.5 -44c40 0 78.333 17.333 115 52l28 -28c-44 -42.667 -92 -64 -144 -64z" />
    <glyph glyph-name="ordfeminine" unicode="&#xaa;" horiz-adv-x="390" 
d="M58 293l10 40h244l-10 -40h-244zM191 410c-24 0 -44.166 6.83203 -60.499 20.499s-24.5 31.834 -24.5 54.501c0 32 12.167 57.667 36.5 77s55.833 29 94.5 29c26 0 58.333 -5 97 -15l2 6c2.66699 9.33301 4 18.333 4 27c0 38.667 -26 58 -78 58c-25.333 0 -52 -5 -80 -15
l-7 35c32 11.333 63.333 17 94 17c35.333 0 62.666 -7.83301 81.999 -23.5s29 -37.167 29 -64.5c0 -8.66699 -2 -21.667 -6 -39l-43 -161h-40l14 50c-34 -37.333 -72 -56 -114 -56zM201.001 441.999c25.333 0 50.332 9.16699 74.999 27.5s40.334 39.833 47.001 64.5l4 14
c-33.333 8 -63.333 12 -90 12c-26 0 -47.333 -6.66699 -64 -20s-25 -30.333 -25 -51c0 -14 4.83301 -25.333 14.5 -34s22.5 -13 38.5 -13z" />
    <glyph glyph-name="guillemotleft" unicode="&#xab;" horiz-adv-x="515" 
d="M149 42l-104 209l2 8l216 209l36 -28l-192 -192l83 -184zM353 42l-104 209l2 8l216 209l36 -28l-192 -192l83 -184z" />
    <glyph glyph-name="logicalnot" unicode="&#xac;" horiz-adv-x="640" 
d="M524 259h-50l48 180h-404l14 51h454z" />
    <glyph glyph-name="uni00AD" unicode="&#xad;" horiz-adv-x="409" 
d="M74 269l15 56h268l-15 -56h-268z" />
    <glyph glyph-name="registered" unicode="&#xae;" horiz-adv-x="830" 
d="M439 -12c-100.667 0 -186 35.333 -256 106s-105 155.667 -105 255s35.333 184.666 106 255.999s156.334 107 257.001 107s186 -35.333 256 -106s105 -155.667 105 -255s-35.333 -184.666 -106 -255.999s-156.334 -107 -257.001 -107zM439 16c94 0 173 32.667 237 98
s96 144.333 96 237s-31.667 171.334 -95 236.001s-142 97 -236 97s-173 -32.667 -237 -98s-96 -144.333 -96 -237s31.667 -171.334 95 -236.001s142 -97 236 -97zM301 177l0.000976562 366h164c39.333 0 71.666 -9.66699 96.999 -29s38 -45 38 -77c0 -28.667 -9 -52 -27 -70
s-42.333 -30 -73 -36l122 -154h-56l-116 147h-106v-147h-43zM344.001 364h114c28.667 0 52 6.16699 70 18.5s27 29.833 27 52.5c0 20.667 -8.16699 37 -24.5 49s-38.833 18 -67.5 18h-119v-138z" />
    <glyph glyph-name="macron" unicode="&#xaf;" 
d="M190 600l14 53h300l-14 -53h-300z" />
    <glyph glyph-name="degree" unicode="&#xb0;" horiz-adv-x="366" 
d="M214 411c-36.667 0 -66.834 12 -90.501 36s-35.5 54 -35.5 90c0 44.667 16.5 83.834 49.5 117.501s71.833 50.5 116.5 50.5c36.667 0 66.834 -12 90.501 -36s35.5 -54 35.5 -90c0 -44.667 -16.5 -83.834 -49.5 -117.501s-71.833 -50.5 -116.5 -50.5zM219 453
c30.667 0 57.667 12.167 81 36.5s35 52.5 35 84.5c0 27.333 -8 49 -24 65s-36.667 24 -62 24c-30.667 0 -57.667 -12.167 -81 -36.5s-35 -52.5 -35 -84.5c0 -27.333 8 -49 24 -65s36.667 -24 62 -24z" />
    <glyph glyph-name="plusminus" unicode="&#xb1;" horiz-adv-x="640" 
d="M567 294h-222l-47 -178h-53l47 178h-222l13 48h222l48 177h53l-48 -177h222zM494 22h-497l13 48h497z" />
    <glyph glyph-name="twosuperior" unicode="&#xb2;" 
d="M0 0v700h500v-700h-500zM81 49h339l-170 255zM49 96l171 254l-171 254v-508zM450 96v508l-171 -254zM250 395l170 255h-339z" />
    <glyph glyph-name="threesuperior" unicode="&#xb3;" 
d="M0 0v700h500v-700h-500zM81 49h339l-170 255zM49 96l171 254l-171 254v-508zM450 96v508l-171 -254zM250 395l170 255h-339z" />
    <glyph glyph-name="acute" unicode="&#xb4;" 
d="M251 595l124 133l62 -30l-135 -103h-51z" />
    <glyph glyph-name="mu" unicode="&#xb5;" horiz-adv-x="623" 
d="M226 -12c-64 0 -107.667 30.333 -131 91l-63 -239h-49l179 670h49l-81 -303c-6 -22 -9 -42.333 -9 -61c0 -35.333 10.5 -63 31.5 -83s51.833 -30 92.5 -30c50.667 0 97.5 17.167 140.5 51.5s71.5 77.833 85.5 130.5l79 295h49l-136 -510h-49l24 89
c-56 -67.333 -126.667 -101 -212 -101z" />
    <glyph glyph-name="paragraph" unicode="&#xb6;" horiz-adv-x="486" 
d="M260 0l69.999 263.001c-67.333 4 -122.166 20.667 -164.499 50s-63.5 73.666 -63.5 132.999c0 79.333 29 141.5 87 186.5s137.667 67.5 239 67.5h73l-188 -700h-53z" />
    <glyph glyph-name="periodcentered" unicode="&#xb7;" horiz-adv-x="231" 
d="M82 255l23 85h66l-23 -85h-66z" />
    <glyph glyph-name="cedilla" unicode="&#xb8;" 
d="M118 -148l-48 26l125 132h43z" />
    <glyph glyph-name="onesuperior" unicode="&#xb9;" 
d="M0 0v700h500v-700h-500zM81 49h339l-170 255zM49 96l171 254l-171 254v-508zM450 96v508l-171 -254zM250 395l170 255h-339z" />
    <glyph glyph-name="ordmasculine" unicode="&#xba;" horiz-adv-x="390" 
d="M60 293l10 40h268l-10 -40h-268zM245 407c-38.667 0 -70 12.167 -94 36.5s-36 55.166 -36 92.499c0 44.667 16.5 84 49.5 118s72.167 51 117.5 51c38 0 69.167 -12.167 93.5 -36.5s36.5 -55.166 36.5 -92.499c0 -44.667 -16.5 -84 -49.5 -118s-72.167 -51 -117.5 -51z
M248 444c32.667 0 61.001 13 85.001 39s36 56.333 36 91c0 28 -8.33301 50.667 -25 68s-38.334 26 -65.001 26c-33.333 0 -62 -13 -86 -39s-36 -56.333 -36 -91c0 -28 8.5 -50.667 25.5 -68s38.833 -26 65.5 -26z" />
    <glyph glyph-name="guillemotright" unicode="&#xbb;" horiz-adv-x="515" 
d="M47 41l-36 28l192 192l-83 184l41 22l104 -209l-2 -8zM251 41l-36 28l192 192l-83 184l41 22l104 -209l-2 -8z" />
    <glyph glyph-name="onequarter" unicode="&#xbc;" 
d="M0 0v700h500v-700h-500zM81 49h339l-170 255zM49 96l171 254l-171 254v-508zM450 96v508l-171 -254zM250 395l170 255h-339z" />
    <glyph glyph-name="onehalf" unicode="&#xbd;" 
d="M0 0v700h500v-700h-500zM81 49h339l-170 255zM49 96l171 254l-171 254v-508zM450 96v508l-171 -254zM250 395l170 255h-339z" />
    <glyph glyph-name="threequarters" unicode="&#xbe;" 
d="M0 0v700h500v-700h-500zM81 49h339l-170 255zM49 96l171 254l-171 254v-508zM450 96v508l-171 -254zM250 395l170 255h-339z" />
    <glyph glyph-name="questiondown" unicode="&#xbf;" horiz-adv-x="534" 
d="M252 -9c-61.333 0 -110.168 16.3311 -146.501 48.998s-54.5 74.667 -54.5 126c0 62.667 25 113.334 75 152.001s113.333 63.334 190 74.001l43 125h32l-30 -162l-7 -5c-75.333 -5.33301 -135.833 -24.166 -181.5 -56.499s-68.5 -74.5 -68.5 -126.5
c0 -40.667 14.333 -72.334 43 -95.001s65 -34 109 -34c72 0 137.333 29.333 196 88l32 -34c-67.333 -67.333 -144.666 -101 -231.999 -101zM367.998 614.998l23 85h66l-23 -85h-66z" />
    <glyph glyph-name="Agrave" unicode="&#xc0;" horiz-adv-x="759" 
d="M-34 0l515 705h50l137 -705h-53l-36 196h-413l-142 -196h-58zM200 243h369l-75 405zM517 765l-79 103l62 30l52 -133h-35z" />
    <glyph glyph-name="Aacute" unicode="&#xc1;" horiz-adv-x="759" 
d="M-34 0l515 705h50l137 -705h-53l-36 196h-413l-142 -196h-58zM200 243h369l-75 405zM489 765l124 133l62 -30l-135 -103h-51z" />
    <glyph glyph-name="Acircumflex" unicode="&#xc2;" horiz-adv-x="759" 
d="M-34 0l515 705h50l137 -705h-53l-36 196h-413l-142 -196h-58zM200 243h369l-75 405zM401 765l133 122h40l67 -122h-44l-52 68l-96 -68h-48z" />
    <glyph glyph-name="Atilde" unicode="&#xc3;" horiz-adv-x="759" 
d="M-34 0l515 705h50l137 -705h-53l-36 196h-413l-142 -196h-58zM200 243h369l-75 405zM416 763l-38 15c16.667 33.333 33 57.666 49 72.999s34.333 23 55 23c13.333 0 24.5 -2.66699 33.5 -8s20.167 -14.333 33.5 -27c20.667 -20 36.667 -30 48 -30
c10 0 19.167 4.5 27.5 13.5s18.833 24.5 31.5 46.5l38 -15c-16.667 -33.333 -33 -57.666 -49 -72.999s-34.333 -23 -55 -23c-13.333 0 -24.5 2.66699 -33.5 8s-20.167 14.333 -33.5 27c-20.667 20 -36.667 30 -48 30c-10 0 -19.167 -4.5 -27.5 -13.5
s-18.833 -24.5 -31.5 -46.5z" />
    <glyph glyph-name="Adieresis" unicode="&#xc4;" horiz-adv-x="759" 
d="M-34 0l515 705h50l137 -705h-53l-36 196h-413l-142 -196h-58zM200 243h369l-75 405zM412 765l22 80h69l-22 -80h-69zM575 765l22 80h69l-22 -80h-69z" />
    <glyph glyph-name="Aring" unicode="&#xc5;" horiz-adv-x="759" 
d="M-24 0l498 680.999c-30.667 14.667 -46 38.334 -46 71.001c0 28 10.5 52 31.5 72s45.833 30 74.5 30c28 0 51 -7.66699 69 -23s27 -35 27 -59s-7.83301 -45.333 -23.5 -64s-35.5 -30.667 -59.5 -36l131 -672h-53l-36 196h-413l-142 -196h-58zM210 242.999h369l-75 405z
M524 701.999c19.333 0 35.833 6.83301 49.5 20.5s20.5 30.167 20.5 49.5c0 14.667 -5.16699 26.667 -15.5 36s-25.166 14 -44.499 14s-35.833 -6.83301 -49.5 -20.5s-20.5 -30.167 -20.5 -49.5c0 -14.667 5.16699 -26.667 15.5 -36s25.166 -14 44.499 -14z" />
    <glyph glyph-name="AE" unicode="&#xc6;" horiz-adv-x="1068" 
d="M-32 0l611 700h541l-13 -48h-431l-74 -275h386l-13 -48h-386l-75 -281h436l-13 -48h-488l53 196h-301l-170 -196h-63zM242 243h272l110 410h-27z" />
    <glyph glyph-name="Ccedilla" unicode="&#xc7;" horiz-adv-x="738" 
d="M271 -148l-48.001 25.9971l107 113c-69.333 10.667 -126.333 40.834 -171 90.501s-67 112.834 -67 189.501c0 74.667 18.5 146 55.5 214s88 122.833 153 164.5s134.833 62.5 209.5 62.5c61.333 0 113.833 -13.833 157.5 -41.5s76.834 -64.167 99.501 -109.5l-45 -24
c-24 42 -52.833 73.833 -86.5 95.5s-76.5 32.5 -128.5 32.5c-98.667 0 -183.5 -40 -254.5 -120s-106.5 -170.667 -106.5 -272c0 -72.667 22.167 -130.5 66.5 -173.5s101.166 -64.5 170.499 -64.5c49.333 0 92.5 8.83301 129.5 26.5s72.833 43.834 107.5 78.501l35 -32
c-77.333 -80.667 -169.666 -121 -276.999 -121h-4z" />
    <glyph glyph-name="Egrave" unicode="&#xc8;" horiz-adv-x="649" 
d="M36 0l188 700h493l-13 -48h-441l-74 -275h396l-13 -48h-396l-75 -281h446l-13 -48h-498zM480 765l-79 103l62 30l52 -133h-35z" />
    <glyph glyph-name="Eacute" unicode="&#xc9;" horiz-adv-x="649" 
d="M36 0l188 700h493l-13 -48h-441l-74 -275h396l-13 -48h-396l-75 -281h446l-13 -48h-498zM413 765l124 133l62 -30l-135 -103h-51z" />
    <glyph glyph-name="Ecircumflex" unicode="&#xca;" horiz-adv-x="649" 
d="M36 0l188 700h493l-13 -48h-441l-74 -275h396l-13 -48h-396l-75 -281h446l-13 -48h-498zM355 765l133 122h40l67 -122h-44l-52 68l-96 -68h-48z" />
    <glyph glyph-name="Edieresis" unicode="&#xcb;" horiz-adv-x="649" 
d="M36 0l188 700h493l-13 -48h-441l-74 -275h396l-13 -48h-396l-75 -281h446l-13 -48h-498zM365 765l22 80h69l-22 -80h-69zM528 765l22 80h69l-22 -80h-69z" />
    <glyph glyph-name="Igrave" unicode="&#xcc;" horiz-adv-x="274" 
d="M43 0l188 700h52l-188 -700h-52zM264 765l-79 103l62 30l52 -133h-35z" />
    <glyph glyph-name="Iacute" unicode="&#xcd;" horiz-adv-x="274" 
d="M43 0l188 700h52l-188 -700h-52zM232 765l124 133l62 -30l-135 -103h-51z" />
    <glyph glyph-name="Icircumflex" unicode="&#xce;" horiz-adv-x="274" 
d="M43 0l188 700h52l-188 -700h-52zM148 765l133 122h40l67 -122h-44l-52 68l-96 -68h-48z" />
    <glyph glyph-name="Idieresis" unicode="&#xcf;" horiz-adv-x="274" 
d="M43 0l188 700h52l-188 -700h-52zM159 765l22 80h69l-22 -80h-69zM322 765l22 80h69l-22 -80h-69z" />
    <glyph glyph-name="Eth" unicode="&#xd0;" horiz-adv-x="801" 
d="M66 0l88 328.001h-75l13 48h75l87 324h157c118.667 0 209.334 -31.333 272.001 -94c51.333 -51.333 77 -118 77 -200c0 -108 -36.333 -198.333 -109 -271c-42.667 -42.667 -94.834 -75.834 -156.501 -99.501s-128.167 -35.5 -199.5 -35.5h-229zM131 48.001h171.001
c126.667 0 230 40 310 120c62.667 62.667 94 140.667 94 234c0 72 -21.667 129 -65 171c-52.667 52.667 -130.334 79 -233.001 79h-115l-74 -276h232l-13 -48h-232z" />
    <glyph glyph-name="Ntilde" unicode="&#xd1;" horiz-adv-x="786" 
d="M36 0l188 700h48l315 -613l165 613h50l-188 -700h-38l-322 626l-168 -626h-50zM407 763l-38 15c16.667 33.333 33 57.666 49 72.999s34.333 23 55 23c13.333 0 24.5 -2.66699 33.5 -8s20.167 -14.333 33.5 -27c20.667 -20 36.667 -30 48 -30c10 0 19.167 4.5 27.5 13.5
s18.833 24.5 31.5 46.5l38 -15c-16.667 -33.333 -33 -57.666 -49 -72.999s-34.333 -23 -55 -23c-13.333 0 -24.5 2.66699 -33.5 8s-20.167 14.333 -33.5 27c-20.667 20 -36.667 30 -48 30c-10 0 -19.167 -4.5 -27.5 -13.5s-18.833 -24.5 -31.5 -46.5z" />
    <glyph glyph-name="Ograve" unicode="&#xd2;" horiz-adv-x="846" 
d="M398 -13c-87.333 0 -159.5 28.833 -216.5 86.5s-85.5 129.167 -85.5 214.5c0 72 17.833 140.667 53.5 206s84.667 118 147 158s129.833 60 202.5 60c87.333 0 159.5 -28.833 216.5 -86.5s85.5 -129.167 85.5 -214.5c0 -72 -17.833 -140.667 -53.5 -206
s-84.667 -118 -147 -158s-129.833 -60 -202.5 -60zM398 34c64 0 123 18 177 54s96.167 82.833 126.5 140.5s45.5 118.5 45.5 182.5c0 72.667 -23 133.167 -69 181.5s-105.667 72.5 -179 72.5c-64 0 -123 -18 -177 -54s-96.167 -82.833 -126.5 -140.5
s-45.5 -118.5 -45.5 -182.5c0 -72.667 23 -133.167 69 -181.5s105.667 -72.5 179 -72.5zM546 765l-79 103l62 30l52 -133h-35z" />
    <glyph glyph-name="Oacute" unicode="&#xd3;" horiz-adv-x="846" 
d="M398 -13c-87.333 0 -159.5 28.833 -216.5 86.5s-85.5 129.167 -85.5 214.5c0 72 17.833 140.667 53.5 206s84.667 118 147 158s129.833 60 202.5 60c87.333 0 159.5 -28.833 216.5 -86.5s85.5 -129.167 85.5 -214.5c0 -72 -17.833 -140.667 -53.5 -206
s-84.667 -118 -147 -158s-129.833 -60 -202.5 -60zM398 34c64 0 123 18 177 54s96.167 82.833 126.5 140.5s45.5 118.5 45.5 182.5c0 72.667 -23 133.167 -69 181.5s-105.667 72.5 -179 72.5c-64 0 -123 -18 -177 -54s-96.167 -82.833 -126.5 -140.5
s-45.5 -118.5 -45.5 -182.5c0 -72.667 23 -133.167 69 -181.5s105.667 -72.5 179 -72.5zM469 765l124 133l62 -30l-135 -103h-51z" />
    <glyph glyph-name="Ocircumflex" unicode="&#xd4;" horiz-adv-x="846" 
d="M398 -13c-87.333 0 -159.5 28.833 -216.5 86.5s-85.5 129.167 -85.5 214.5c0 72 17.833 140.667 53.5 206s84.667 118 147 158s129.833 60 202.5 60c87.333 0 159.5 -28.833 216.5 -86.5s85.5 -129.167 85.5 -214.5c0 -72 -17.833 -140.667 -53.5 -206
s-84.667 -118 -147 -158s-129.833 -60 -202.5 -60zM398 34c64 0 123 18 177 54s96.167 82.833 126.5 140.5s45.5 118.5 45.5 182.5c0 72.667 -23 133.167 -69 181.5s-105.667 72.5 -179 72.5c-64 0 -123 -18 -177 -54s-96.167 -82.833 -126.5 -140.5
s-45.5 -118.5 -45.5 -182.5c0 -72.667 23 -133.167 69 -181.5s105.667 -72.5 179 -72.5zM420 765l133 122h40l67 -122h-44l-52 68l-96 -68h-48z" />
    <glyph glyph-name="Otilde" unicode="&#xd5;" horiz-adv-x="846" 
d="M398 -13c-87.333 0 -159.5 28.833 -216.5 86.5s-85.5 129.167 -85.5 214.5c0 72 17.833 140.667 53.5 206s84.667 118 147 158s129.833 60 202.5 60c87.333 0 159.5 -28.833 216.5 -86.5s85.5 -129.167 85.5 -214.5c0 -72 -17.833 -140.667 -53.5 -206
s-84.667 -118 -147 -158s-129.833 -60 -202.5 -60zM398 34c64 0 123 18 177 54s96.167 82.833 126.5 140.5s45.5 118.5 45.5 182.5c0 72.667 -23 133.167 -69 181.5s-105.667 72.5 -179 72.5c-64 0 -123 -18 -177 -54s-96.167 -82.833 -126.5 -140.5
s-45.5 -118.5 -45.5 -182.5c0 -72.667 23 -133.167 69 -181.5s105.667 -72.5 179 -72.5zM421 763l-38 15c16.667 33.333 33 57.666 49 72.999s34.333 23 55 23c13.333 0 24.5 -2.66699 33.5 -8s20.167 -14.333 33.5 -27c20.667 -20 36.667 -30 48 -30
c10 0 19.167 4.5 27.5 13.5s18.833 24.5 31.5 46.5l38 -15c-16.667 -33.333 -33 -57.666 -49 -72.999s-34.333 -23 -55 -23c-13.333 0 -24.5 2.66699 -33.5 8s-20.167 14.333 -33.5 27c-20.667 20 -36.667 30 -48 30c-10 0 -19.167 -4.5 -27.5 -13.5
s-18.833 -24.5 -31.5 -46.5z" />
    <glyph glyph-name="Odieresis" unicode="&#xd6;" horiz-adv-x="846" 
d="M398 -13c-87.333 0 -159.5 28.833 -216.5 86.5s-85.5 129.167 -85.5 214.5c0 72 17.833 140.667 53.5 206s84.667 118 147 158s129.833 60 202.5 60c87.333 0 159.5 -28.833 216.5 -86.5s85.5 -129.167 85.5 -214.5c0 -72 -17.833 -140.667 -53.5 -206
s-84.667 -118 -147 -158s-129.833 -60 -202.5 -60zM398 34c64 0 123 18 177 54s96.167 82.833 126.5 140.5s45.5 118.5 45.5 182.5c0 72.667 -23 133.167 -69 181.5s-105.667 72.5 -179 72.5c-64 0 -123 -18 -177 -54s-96.167 -82.833 -126.5 -140.5
s-45.5 -118.5 -45.5 -182.5c0 -72.667 23 -133.167 69 -181.5s105.667 -72.5 179 -72.5zM421 765l22 80h69l-22 -80h-69zM584 765l22 80h69l-22 -80h-69z" />
    <glyph glyph-name="multiply" unicode="&#xd7;" horiz-adv-x="640" 
d="M589 154l-37 -37l-197 198l-196 -198l-37 37l197 197l-197 197l37 37l196 -198l197 198l37 -37l-197 -197z" />
    <glyph glyph-name="Oslash" unicode="&#xd8;" horiz-adv-x="846" 
d="M398 -13c-96 0 -173.333 34.332 -232 102.999l-114 -95h-69l157 131c-29.333 49.333 -44 103.333 -44 162c0 72 17.833 140.667 53.5 206s84.667 118 147 158s129.833 60 202.5 60c93.333 0 169 -32.333 227 -97l107 90h69l-149 -125c32 -51.333 48 -107.666 48 -168.999
c0 -72 -17.833 -140.667 -53.5 -206s-84.667 -118 -147 -158s-129.833 -60 -202.5 -60zM398 33.999c64 0 123 18 177 54s96.167 82.833 126.5 140.5s45.5 118.5 45.5 182.5c0 50.667 -11.333 96 -34 136l-509 -425c46 -58.667 110.667 -88 194 -88zM180 158.999l508 424
c-47.333 54.667 -110.333 82 -189 82c-64 0 -123 -18 -177 -54s-96.167 -82.833 -126.5 -140.5s-45.5 -118.5 -45.5 -182.5c0 -48 10 -91 30 -129z" />
    <glyph glyph-name="Ugrave" unicode="&#xd9;" horiz-adv-x="756" 
d="M348 -11c-81.333 0 -143.667 20.335 -187 61.002s-65 93.667 -65 159c0 36 4.66699 72 14 108l102 383h52l-108 -407c-6 -24 -9 -50.667 -9 -80c0 -52.667 17.333 -95.334 52 -128.001s85.667 -49 153 -49c66 0 123 24 171 72c43.333 43.333 76 105.333 98 186l109 406
h52l-112 -417c-23.333 -86.667 -60.333 -155.334 -111 -206.001c-58.667 -58.667 -129 -88 -211 -88zM505.999 765.002l-79 103l62 30l52 -133h-35z" />
    <glyph glyph-name="Uacute" unicode="&#xda;" horiz-adv-x="756" 
d="M348 -11c-81.333 0 -143.667 20.335 -187 61.002s-65 93.667 -65 159c0 36 4.66699 72 14 108l102 383h52l-108 -407c-6 -24 -9 -50.667 -9 -80c0 -52.667 17.333 -95.334 52 -128.001s85.667 -49 153 -49c66 0 123 24 171 72c43.333 43.333 76 105.333 98 186l109 406
h52l-112 -417c-23.333 -86.667 -60.333 -155.334 -111 -206.001c-58.667 -58.667 -129 -88 -211 -88zM438.999 765.002l124 133l62 -30l-135 -103h-51z" />
    <glyph glyph-name="Ucircumflex" unicode="&#xdb;" horiz-adv-x="756" 
d="M348 -11c-81.333 0 -143.667 20.335 -187 61.002s-65 93.667 -65 159c0 36 4.66699 72 14 108l102 383h52l-108 -407c-6 -24 -9 -50.667 -9 -80c0 -52.667 17.333 -95.334 52 -128.001s85.667 -49 153 -49c66 0 123 24 171 72c43.333 43.333 76 105.333 98 186l109 406
h52l-112 -417c-23.333 -86.667 -60.333 -155.334 -111 -206.001c-58.667 -58.667 -129 -88 -211 -88zM386.999 765.002l133 122h40l67 -122h-44l-52 68l-96 -68h-48z" />
    <glyph glyph-name="Udieresis" unicode="&#xdc;" horiz-adv-x="756" 
d="M348 -11c-81.333 0 -143.667 20.335 -187 61.002s-65 93.667 -65 159c0 36 4.66699 72 14 108l102 383h52l-108 -407c-6 -24 -9 -50.667 -9 -80c0 -52.667 17.333 -95.334 52 -128.001s85.667 -49 153 -49c66 0 123 24 171 72c43.333 43.333 76 105.333 98 186l109 406
h52l-112 -417c-23.333 -86.667 -60.333 -155.334 -111 -206.001c-58.667 -58.667 -129 -88 -211 -88zM391.999 765.002l22 80h69l-22 -80h-69zM554.999 765.002l22 80h69l-22 -80h-69z" />
    <glyph glyph-name="Yacute" unicode="&#xdd;" horiz-adv-x="668" 
d="M234 0l76 284l-183 416h57l161 -376l364 376h70l-421 -429l-72 -271h-52zM395 765l124 133l62 -30l-135 -103h-51z" />
    <glyph glyph-name="Thorn" unicode="&#xde;" horiz-adv-x="668" 
d="M36 0l188 700h51l-33 -127h166c86.667 0 151 -21 193 -63c32 -32 48 -73.667 48 -125c0 -78.667 -31 -140 -93 -184s-146.333 -66 -253 -66h-178l-37 -135h-52zM137 182h168c94 0 166.167 17.5 216.5 52.5s75.5 84.5 75.5 148.5c0 38 -12 69 -36 93
c-32.667 32.667 -84 49 -154 49h-178z" />
    <glyph glyph-name="germandbls" unicode="&#xdf;" horiz-adv-x="620" 
d="M220 -2l12 43.9961c86.667 0.666992 151.834 16.167 195.501 46.5s65.5 68.166 65.5 113.499c0 71.333 -60.333 118 -181 140l12 45c148 34.667 222 97 222 187c0 34.667 -12.333 62.834 -37 84.501s-58.334 32.5 -101.001 32.5c-48.667 0 -90.5 -18.167 -125.5 -54.5
s-61.167 -86.833 -78.5 -151.5l-130 -485h-49l134 500c19.333 72.667 48.333 128.334 87 167.001c46.667 46.667 102 70 166 70c54 0 98.667 -15.167 134 -45.5s53 -68.833 53 -115.5c0 -101.333 -70.667 -171.666 -212 -210.999c106 -28 159 -82.667 159 -164
c0 -59.333 -29.333 -108.166 -88 -146.499s-138 -57.166 -238 -56.499z" />
    <glyph glyph-name="agrave" unicode="&#xe0;" horiz-adv-x="571" 
d="M190 -12c-46 0 -85.333 12.4971 -118 37.4971s-49 60.167 -49 105.5c0 56 21.333 100.833 64 134.5s98 50.5 166 50.5c60 0 125.333 -9.66699 196 -29l4 14c4.66699 17.333 7 34.333 7 51c0 38.667 -13.167 68.334 -39.5 89.001s-64.5 31 -114.5 31
c-46.667 0 -96 -9 -148 -27l-9 44c54 19.333 107.667 29 161 29c62 0 110.5 -14.167 145.5 -42.5s52.5 -67.166 52.5 -116.499c0 -19.333 -3.33301 -41.666 -10 -66.999l-78 -292h-48l23 88c-56 -66.667 -124.333 -100 -205 -100zM199 32.9971
c50 0 97.1689 15.833 141.502 47.5s73.166 72.5 86.499 122.5l12 45c-64 16 -128.333 24 -193 24c-50.667 0 -91.834 -12.5 -123.501 -37.5s-47.5 -57.5 -47.5 -97.5c0 -31.333 11.167 -56.5 33.5 -75.5s52.5 -28.5 90.5 -28.5zM363.002 594.997l-79 103l62 30l52 -133h-35z
" />
    <glyph glyph-name="aacute" unicode="&#xe1;" horiz-adv-x="571" 
d="M190 -12c-46 0 -85.333 12.4971 -118 37.4971s-49 60.167 -49 105.5c0 56 21.333 100.833 64 134.5s98 50.5 166 50.5c60 0 125.333 -9.66699 196 -29l4 14c4.66699 17.333 7 34.333 7 51c0 38.667 -13.167 68.334 -39.5 89.001s-64.5 31 -114.5 31
c-46.667 0 -96 -9 -148 -27l-9 44c54 19.333 107.667 29 161 29c62 0 110.5 -14.167 145.5 -42.5s52.5 -67.166 52.5 -116.499c0 -19.333 -3.33301 -41.666 -10 -66.999l-78 -292h-48l23 88c-56 -66.667 -124.333 -100 -205 -100zM199 32.9971
c50 0 97.1689 15.833 141.502 47.5s73.166 72.5 86.499 122.5l12 45c-64 16 -128.333 24 -193 24c-50.667 0 -91.834 -12.5 -123.501 -37.5s-47.5 -57.5 -47.5 -97.5c0 -31.333 11.167 -56.5 33.5 -75.5s52.5 -28.5 90.5 -28.5zM301.002 594.997l124 133l62 -30l-135 -103
h-51z" />
    <glyph glyph-name="acircumflex" unicode="&#xe2;" horiz-adv-x="571" 
d="M190 -12c-46 0 -85.333 12.4971 -118 37.4971s-49 60.167 -49 105.5c0 56 21.333 100.833 64 134.5s98 50.5 166 50.5c60 0 125.333 -9.66699 196 -29l4 14c4.66699 17.333 7 34.333 7 51c0 38.667 -13.167 68.334 -39.5 89.001s-64.5 31 -114.5 31
c-46.667 0 -96 -9 -148 -27l-9 44c54 19.333 107.667 29 161 29c62 0 110.5 -14.167 145.5 -42.5s52.5 -67.166 52.5 -116.499c0 -19.333 -3.33301 -41.666 -10 -66.999l-78 -292h-48l23 88c-56 -66.667 -124.333 -100 -205 -100zM199 32.9971
c50 0 97.1689 15.833 141.502 47.5s73.166 72.5 86.499 122.5l12 45c-64 16 -128.333 24 -193 24c-50.667 0 -91.834 -12.5 -123.501 -37.5s-47.5 -57.5 -47.5 -97.5c0 -31.333 11.167 -56.5 33.5 -75.5s52.5 -28.5 90.5 -28.5zM246.002 594.997l133 122h40l67 -122h-44
l-52 68l-96 -68h-48z" />
    <glyph glyph-name="atilde" unicode="&#xe3;" horiz-adv-x="571" 
d="M190 -12c-46 0 -85.333 12.4971 -118 37.4971s-49 60.167 -49 105.5c0 56 21.333 100.833 64 134.5s98 50.5 166 50.5c60 0 125.333 -9.66699 196 -29l4 14c4.66699 17.333 7 34.333 7 51c0 38.667 -13.167 68.334 -39.5 89.001s-64.5 31 -114.5 31
c-46.667 0 -96 -9 -148 -27l-9 44c54 19.333 107.667 29 161 29c62 0 110.5 -14.167 145.5 -42.5s52.5 -67.166 52.5 -116.499c0 -19.333 -3.33301 -41.666 -10 -66.999l-78 -292h-48l23 88c-56 -66.667 -124.333 -100 -205 -100zM199 32.9971
c50 0 97.1689 15.833 141.502 47.5s73.166 72.5 86.499 122.5l12 45c-64 16 -128.333 24 -193 24c-50.667 0 -91.834 -12.5 -123.501 -37.5s-47.5 -57.5 -47.5 -97.5c0 -31.333 11.167 -56.5 33.5 -75.5s52.5 -28.5 90.5 -28.5zM258.002 592.997l-38 15
c16.667 33.333 33 57.666 49 72.999s34.333 23 55 23c13.333 0 24.5 -2.66699 33.5 -8s20.167 -14.333 33.5 -27c20.667 -20 36.667 -30 48 -30c10 0 19.167 4.66699 27.5 14s18.833 24.666 31.5 45.999l38 -15c-16.667 -33.333 -33 -57.666 -49 -72.999
s-34.333 -23 -55 -23c-13.333 0 -24.5 2.66699 -33.5 8s-20.167 14.333 -33.5 27c-20.667 20 -36.667 30 -48 30c-10 0 -19.167 -4.66699 -27.5 -14s-18.833 -24.666 -31.5 -45.999z" />
    <glyph glyph-name="adieresis" unicode="&#xe4;" horiz-adv-x="571" 
d="M190 -12c-46 0 -85.333 12.4971 -118 37.4971s-49 60.167 -49 105.5c0 56 21.333 100.833 64 134.5s98 50.5 166 50.5c60 0 125.333 -9.66699 196 -29l4 14c4.66699 17.333 7 34.333 7 51c0 38.667 -13.167 68.334 -39.5 89.001s-64.5 31 -114.5 31
c-46.667 0 -96 -9 -148 -27l-9 44c54 19.333 107.667 29 161 29c62 0 110.5 -14.167 145.5 -42.5s52.5 -67.166 52.5 -116.499c0 -19.333 -3.33301 -41.666 -10 -66.999l-78 -292h-48l23 88c-56 -66.667 -124.333 -100 -205 -100zM199 32.9971
c50 0 97.1689 15.833 141.502 47.5s73.166 72.5 86.499 122.5l12 45c-64 16 -128.333 24 -193 24c-50.667 0 -91.834 -12.5 -123.501 -37.5s-47.5 -57.5 -47.5 -97.5c0 -31.333 11.167 -56.5 33.5 -75.5s52.5 -28.5 90.5 -28.5zM248.002 594.997l22 80h69l-22 -80h-69z
M411.002 594.997l22 80h69l-22 -80h-69z" />
    <glyph glyph-name="aring" unicode="&#xe5;" horiz-adv-x="571" 
d="M190 -12c-46 0 -85.333 12.4971 -118 37.4971s-49 60.167 -49 105.5c0 56 21.333 100.833 64 134.5s98 50.5 166 50.5c60 0 125.333 -9.66699 196 -29l4 14c4.66699 17.333 7 34.333 7 51c0 38.667 -13.167 68.334 -39.5 89.001s-64.5 31 -114.5 31
c-46.667 0 -96 -9 -148 -27l-9 44c54 19.333 107.667 29 161 29c62 0 110.5 -14.167 145.5 -42.5s52.5 -67.166 52.5 -116.499c0 -19.333 -3.33301 -41.666 -10 -66.999l-78 -292h-48l23 88c-56 -66.667 -124.333 -100 -205 -100zM199 32.9971
c50 0 97.1689 15.833 141.502 47.5s73.166 72.5 86.499 122.5l12 45c-64 16 -128.333 24 -193 24c-50.667 0 -91.834 -12.5 -123.501 -37.5s-47.5 -57.5 -47.5 -97.5c0 -31.333 11.167 -56.5 33.5 -75.5s52.5 -28.5 90.5 -28.5zM384.002 594.997c-28 0 -51 7.66699 -69 23
s-27 35 -27 59c0 28 10.5 52 31.5 72s45.833 30 74.5 30c28 0 51 -7.66699 69 -23s27 -35 27 -59c0 -28 -10.5 -52 -31.5 -72s-45.833 -30 -74.5 -30zM384.002 626.997c19.333 0 35.833 6.83301 49.5 20.5s20.5 30.167 20.5 49.5c0 14.667 -5.16699 26.667 -15.5 36
s-25.166 14 -44.499 14s-35.833 -6.83301 -49.5 -20.5s-20.5 -30.167 -20.5 -49.5c0 -14.667 5.16699 -26.667 15.5 -36s25.166 -14 44.499 -14z" />
    <glyph glyph-name="ae" unicode="&#xe6;" horiz-adv-x="965" 
d="M200 -12c-51.333 0 -93.668 12.998 -127.001 38.998s-50 62.333 -50 109c0 54.667 22 98.334 66 131.001s100 49 168 49c64.667 0 128.667 -9.66699 192 -29l4 14c4.66699 17.333 7 34.333 7 51c0 38.667 -13.167 68.334 -39.5 89.001s-64.5 31 -114.5 31
c-46.667 0 -96 -9 -148 -27l-9 44c54 19.333 107.667 29 161 29s96.833 -10.667 130.5 -32s54.834 -51 63.501 -89c28 38 61.5 68.333 100.5 91s80.5 34 124.5 34c61.333 0 108.833 -18.667 142.5 -56s50.5 -83.666 50.5 -138.999c0 -32.667 -4.66699 -62.334 -14 -89.001
h-419c-1.33301 -14.667 -2 -26 -2 -34c0 -51.333 15.667 -92.5 47 -123.5s72 -46.5 122 -46.5c60.667 0 118.667 22.667 174 68l29 -35c-63.333 -52.667 -130 -79 -200 -79c-50 0 -92.5 11.167 -127.5 33.5s-60.5 52.833 -76.5 91.5c-80 -83.333 -165 -125 -255 -125z
M203.998 32.998c82 0 161.332 41.667 237.999 125c-2.66699 13.333 -4 29.333 -4 48c0 14.667 1 29 3 43c-54 15.333 -117.667 23 -191 23c-50.667 0 -92.5 -12.333 -125.5 -37s-49.5 -55.667 -49.5 -93c0 -33.333 11.333 -59.833 34 -79.5s54.334 -29.5 95.001 -29.5z
M497.997 281.998l370 -0.000976562c2.66699 12 4 26 4 42c0 44 -12.167 80.5 -36.5 109.5s-60.166 43.5 -107.499 43.5c-54.667 0 -102.834 -18.667 -144.501 -56s-70.167 -83.666 -85.5 -138.999z" />
    <glyph glyph-name="ccedilla" unicode="&#xe7;" horiz-adv-x="563" 
d="M166 -148l-48.002 26l108 114c-50 10 -91.833 34 -125.5 72s-50.5 86 -50.5 144c0 84 29.833 157.333 89.5 220s129.834 94 210.501 94c48.667 0 89.834 -11.667 123.501 -35s59.167 -52.666 76.5 -87.999l-41 -23c-38 66.667 -92 100 -162 100
c-64.667 0 -121.5 -26.667 -170.5 -80s-73.5 -115 -73.5 -185c0 -54.667 16.833 -97.834 50.5 -129.501s74.167 -47.5 121.5 -47.5c58 0 113 24.333 165 73l33 -32c-60 -58 -127 -87 -201 -87h-3z" />
    <glyph glyph-name="egrave" unicode="&#xe8;" horiz-adv-x="583" 
d="M272 -12c-65.333 0 -118.667 20 -160 60s-62 91.333 -62 154c0 82 29 155.833 87 221.5s127.333 98.5 208 98.5c61.333 0 108.833 -18.667 142.5 -56s50.5 -83.666 50.5 -138.999c0 -32.667 -4.66699 -62.334 -14 -89.001h-419c-1.33301 -14.667 -2 -26 -2 -34
c0 -51.333 15.667 -92.5 47 -123.5s72 -46.5 122 -46.5c60.667 0 118.667 22.667 174 68l29 -35c-63.333 -52.667 -131 -79 -203 -79zM113.999 282l370 -0.000976562c2.66699 12 4 26 4 42c0 44 -12.167 80.5 -36.5 109.5s-60.166 43.5 -107.499 43.5
c-54.667 0 -102.834 -18.667 -144.501 -56s-70.167 -83.666 -85.5 -138.999zM366.999 594.999l-79 103l62 30l52 -133h-35z" />
    <glyph glyph-name="eacute" unicode="&#xe9;" horiz-adv-x="583" 
d="M272 -12c-65.333 0 -118.667 20 -160 60s-62 91.333 -62 154c0 82 29 155.833 87 221.5s127.333 98.5 208 98.5c61.333 0 108.833 -18.667 142.5 -56s50.5 -83.666 50.5 -138.999c0 -32.667 -4.66699 -62.334 -14 -89.001h-419c-1.33301 -14.667 -2 -26 -2 -34
c0 -51.333 15.667 -92.5 47 -123.5s72 -46.5 122 -46.5c60.667 0 118.667 22.667 174 68l29 -35c-63.333 -52.667 -131 -79 -203 -79zM113.999 282l370 -0.000976562c2.66699 12 4 26 4 42c0 44 -12.167 80.5 -36.5 109.5s-60.166 43.5 -107.499 43.5
c-54.667 0 -102.834 -18.667 -144.501 -56s-70.167 -83.666 -85.5 -138.999zM309.999 594.999l124 133l62 -30l-135 -103h-51z" />
    <glyph glyph-name="ecircumflex" unicode="&#xea;" horiz-adv-x="583" 
d="M272 -12c-65.333 0 -118.667 20 -160 60s-62 91.333 -62 154c0 82 29 155.833 87 221.5s127.333 98.5 208 98.5c61.333 0 108.833 -18.667 142.5 -56s50.5 -83.666 50.5 -138.999c0 -32.667 -4.66699 -62.334 -14 -89.001h-419c-1.33301 -14.667 -2 -26 -2 -34
c0 -51.333 15.667 -92.5 47 -123.5s72 -46.5 122 -46.5c60.667 0 118.667 22.667 174 68l29 -35c-63.333 -52.667 -131 -79 -203 -79zM113.999 282l370 -0.000976562c2.66699 12 4 26 4 42c0 44 -12.167 80.5 -36.5 109.5s-60.166 43.5 -107.499 43.5
c-54.667 0 -102.834 -18.667 -144.501 -56s-70.167 -83.666 -85.5 -138.999zM243.999 594.999l133 122h40l67 -122h-44l-52 68l-96 -68h-48z" />
    <glyph glyph-name="edieresis" unicode="&#xeb;" horiz-adv-x="583" 
d="M272 -12c-65.333 0 -118.667 20 -160 60s-62 91.333 -62 154c0 82 29 155.833 87 221.5s127.333 98.5 208 98.5c61.333 0 108.833 -18.667 142.5 -56s50.5 -83.666 50.5 -138.999c0 -32.667 -4.66699 -62.334 -14 -89.001h-419c-1.33301 -14.667 -2 -26 -2 -34
c0 -51.333 15.667 -92.5 47 -123.5s72 -46.5 122 -46.5c60.667 0 118.667 22.667 174 68l29 -35c-63.333 -52.667 -131 -79 -203 -79zM113.999 282l370 -0.000976562c2.66699 12 4 26 4 42c0 44 -12.167 80.5 -36.5 109.5s-60.166 43.5 -107.499 43.5
c-54.667 0 -102.834 -18.667 -144.501 -56s-70.167 -83.666 -85.5 -138.999zM251.999 594.999l22 80h69l-22 -80h-69zM414.999 594.999l22 80h69l-22 -80h-69z" />
    <glyph glyph-name="igrave" unicode="&#xec;" horiz-adv-x="250" 
d="M32 0l137 510h49l-137 -510h-49zM180 595l-79 103l62 30l52 -133h-35z" />
    <glyph glyph-name="iacute" unicode="&#xed;" horiz-adv-x="250" 
d="M32 0l137 510h49l-137 -510h-49zM181 595l124 133l62 -30l-135 -103h-51z" />
    <glyph glyph-name="icircumflex" unicode="&#xee;" horiz-adv-x="250" 
d="M32 0l137 510h49l-137 -510h-49zM87 595l133 122h40l67 -122h-44l-52 68l-96 -68h-48z" />
    <glyph glyph-name="idieresis" unicode="&#xef;" horiz-adv-x="250" 
d="M32 0l137 510h49l-137 -510h-49zM96 595l22 80h69l-22 -80h-69zM259 595l22 80h69l-22 -80h-69z" />
    <glyph glyph-name="eth" unicode="&#xf0;" horiz-adv-x="616" 
d="M271 -11c-64 0 -117.332 20.501 -159.999 61.501s-64 91.5 -64 151.5c0 77.333 28.167 143.833 84.5 199.5s121.5 83.5 195.5 83.5c61.333 0 112.666 -17.667 153.999 -53l-82 195l-154 -68l-22 40l158 70l-26 61h59l16 -40l111 49l22 -40l-116 -51l73 -184
c31.333 -78.667 47 -142 47 -190c0 -74.667 -28.333 -140.834 -85 -198.501s-127 -86.5 -211 -86.5zM276.001 35.001c64.667 0 120.501 23.332 167.501 69.999s70.5 102.334 70.5 167.001c0 47.333 -16.833 87.333 -50.5 120s-78.834 49 -135.501 49
c-62 0 -115.5 -23.5 -160.5 -70.5s-67.5 -102.167 -67.5 -165.5c0 -52 16.333 -93.333 49 -124s75 -46 127 -46z" />
    <glyph glyph-name="ntilde" unicode="&#xf1;" horiz-adv-x="611" 
d="M25 0l136.001 510.001h49l-25 -95c59.333 71.333 123.666 107 192.999 107c50.667 0 91.167 -14.833 121.5 -44.5s45.5 -68.834 45.5 -117.501c0 -18.667 -3.66699 -42.667 -11 -72l-76 -288h-49l78 292c5.33301 20 8 41 8 63c0 38 -11.667 68 -35 90s-55.333 33 -96 33
c-44.667 0 -87.667 -18 -129 -54s-69.333 -81.333 -84 -136l-77 -288h-49zM278.001 593.001l-38 15c16.667 33.333 33 57.666 49 72.999s34.333 23 55 23c13.333 0 24.5 -2.66699 33.5 -8s20.167 -14.333 33.5 -27c20.667 -20 36.667 -30 48 -30
c10 0 19.167 4.66699 27.5 14s18.833 24.666 31.5 45.999l38 -15c-16.667 -33.333 -33 -57.666 -49 -72.999s-34.333 -23 -55 -23c-13.333 0 -24.5 2.66699 -33.5 8s-20.167 14.333 -33.5 27c-20.667 20 -36.667 30 -48 30c-10 0 -19.167 -4.66699 -27.5 -14
s-18.833 -24.666 -31.5 -45.999z" />
    <glyph glyph-name="ograve" unicode="&#xf2;" horiz-adv-x="633" 
d="M278 -12c-67.333 0 -122.002 21.167 -164.002 63.5s-63 96.5 -63 162.5c0 81.333 30.333 153 91 215s131.334 93 212.001 93c67.333 0 122 -21.167 164 -63.5s63 -96.5 63 -162.5c0 -82.667 -30.667 -154.667 -92 -216s-131.666 -92 -210.999 -92zM282.998 34
c63.333 0 120 26 170 78s75 112.667 75 182c0 56.667 -16.333 101.167 -49 133.5s-76 48.5 -130 48.5c-64.667 0 -121.667 -26.333 -171 -79s-74 -113 -74 -181c0 -56.667 16.333 -101.167 49 -133.5s76 -48.5 130 -48.5zM377.998 595l-79 103l62 30l52 -133h-35z" />
    <glyph glyph-name="oacute" unicode="&#xf3;" horiz-adv-x="633" 
d="M278 -12c-67.333 0 -122.002 21.167 -164.002 63.5s-63 96.5 -63 162.5c0 81.333 30.333 153 91 215s131.334 93 212.001 93c67.333 0 122 -21.167 164 -63.5s63 -96.5 63 -162.5c0 -82.667 -30.667 -154.667 -92 -216s-131.666 -92 -210.999 -92zM282.998 34
c63.333 0 120 26 170 78s75 112.667 75 182c0 56.667 -16.333 101.167 -49 133.5s-76 48.5 -130 48.5c-64.667 0 -121.667 -26.333 -171 -79s-74 -113 -74 -181c0 -56.667 16.333 -101.167 49 -133.5s76 -48.5 130 -48.5zM321.998 595l124 133l62 -30l-135 -103h-51z" />
    <glyph glyph-name="ocircumflex" unicode="&#xf4;" horiz-adv-x="633" 
d="M278 -12c-67.333 0 -122.002 21.167 -164.002 63.5s-63 96.5 -63 162.5c0 81.333 30.333 153 91 215s131.334 93 212.001 93c67.333 0 122 -21.167 164 -63.5s63 -96.5 63 -162.5c0 -82.667 -30.667 -154.667 -92 -216s-131.666 -92 -210.999 -92zM282.998 34
c63.333 0 120 26 170 78s75 112.667 75 182c0 56.667 -16.333 101.167 -49 133.5s-76 48.5 -130 48.5c-64.667 0 -121.667 -26.333 -171 -79s-74 -113 -74 -181c0 -56.667 16.333 -101.167 49 -133.5s76 -48.5 130 -48.5zM277.998 595l133 122h40l67 -122h-44l-52 68
l-96 -68h-48z" />
    <glyph glyph-name="otilde" unicode="&#xf5;" horiz-adv-x="633" 
d="M278 -12c-67.333 0 -122.002 21.167 -164.002 63.5s-63 96.5 -63 162.5c0 81.333 30.333 153 91 215s131.334 93 212.001 93c67.333 0 122 -21.167 164 -63.5s63 -96.5 63 -162.5c0 -82.667 -30.667 -154.667 -92 -216s-131.666 -92 -210.999 -92zM282.998 34
c63.333 0 120 26 170 78s75 112.667 75 182c0 56.667 -16.333 101.167 -49 133.5s-76 48.5 -130 48.5c-64.667 0 -121.667 -26.333 -171 -79s-74 -113 -74 -181c0 -56.667 16.333 -101.167 49 -133.5s76 -48.5 130 -48.5zM281.998 593l-38 15
c16.667 33.333 33 57.666 49 72.999s34.333 23 55 23c13.333 0 24.5 -2.66699 33.5 -8s20.167 -14.333 33.5 -27c20.667 -20 36.667 -30 48 -30c10 0 19.167 4.66699 27.5 14s18.833 24.666 31.5 45.999l38 -15c-16.667 -33.333 -33 -57.666 -49 -72.999
s-34.333 -23 -55 -23c-13.333 0 -24.5 2.66699 -33.5 8s-20.167 14.333 -33.5 27c-20.667 20 -36.667 30 -48 30c-10 0 -19.167 -4.66699 -27.5 -14s-18.833 -24.666 -31.5 -45.999z" />
    <glyph glyph-name="odieresis" unicode="&#xf6;" horiz-adv-x="633" 
d="M278 -12c-67.333 0 -122.002 21.167 -164.002 63.5s-63 96.5 -63 162.5c0 81.333 30.333 153 91 215s131.334 93 212.001 93c67.333 0 122 -21.167 164 -63.5s63 -96.5 63 -162.5c0 -82.667 -30.667 -154.667 -92 -216s-131.666 -92 -210.999 -92zM282.998 34
c63.333 0 120 26 170 78s75 112.667 75 182c0 56.667 -16.333 101.167 -49 133.5s-76 48.5 -130 48.5c-64.667 0 -121.667 -26.333 -171 -79s-74 -113 -74 -181c0 -56.667 16.333 -101.167 49 -133.5s76 -48.5 130 -48.5zM268.998 595l22 80h69l-22 -80h-69zM431.998 595
l22 80h69l-22 -80h-69z" />
    <glyph glyph-name="divide" unicode="&#xf7;" horiz-adv-x="640" 
d="M123 328l14 51h454l-14 -51h-454zM264 129l23 85h66l-23 -85h-66zM362 493l22 85h66l-22 -85h-66z" />
    <glyph glyph-name="oslash" unicode="&#xf8;" horiz-adv-x="633" 
d="M278 -12c-69.333 0 -125.669 23.333 -169.002 70l-77 -63h-67l118 96c-21.333 35.333 -32 76.333 -32 123c0 81.333 30.333 153 91 215s131.334 93 212.001 93c70 0 126.333 -23 169 -69l79 64h67l-120 -98c21.333 -35.333 32 -76.333 32 -123
c0 -82.667 -30.667 -154.667 -92 -216s-131.666 -92 -210.999 -92zM282.997 34c63.333 0 120 26 170 78s75 112.667 75 182c0 34 -6.33301 64.667 -19 92l-363 -298c32 -36 77.667 -54 137 -54zM122.997 124l363.001 298c-32.667 36 -78.334 54 -137.001 54
c-64.667 0 -121.667 -26.333 -171 -79s-74 -113 -74 -181c0 -34 6.33301 -64.667 19 -92z" />
    <glyph glyph-name="ugrave" unicode="&#xf9;" horiz-adv-x="609" 
d="M231 -12c-50.667 0 -91.168 14.832 -121.501 44.499s-45.5 68.834 -45.5 117.501c0 18.667 3.66699 42.667 11 72l76 288h49l-78 -292c-5.33301 -20 -8 -41 -8 -63c0 -38 11.667 -68 35 -90s55.333 -33 96 -33c44.667 0 87.667 18 129 54s69.333 81.333 84 136l77 288h49
l-136 -510h-49l25 95c-59.333 -71.333 -123.666 -107 -192.999 -107zM369.999 594.999l-79 103l62 30l52 -133h-35z" />
    <glyph glyph-name="uacute" unicode="&#xfa;" horiz-adv-x="609" 
d="M231 -12c-50.667 0 -91.168 14.832 -121.501 44.499s-45.5 68.834 -45.5 117.501c0 18.667 3.66699 42.667 11 72l76 288h49l-78 -292c-5.33301 -20 -8 -41 -8 -63c0 -38 11.667 -68 35 -90s55.333 -33 96 -33c44.667 0 87.667 18 129 54s69.333 81.333 84 136l77 288h49
l-136 -510h-49l25 95c-59.333 -71.333 -123.666 -107 -192.999 -107zM329.999 594.999l124 133l62 -30l-135 -103h-51z" />
    <glyph glyph-name="ucircumflex" unicode="&#xfb;" horiz-adv-x="609" 
d="M231 -12c-50.667 0 -91.168 14.832 -121.501 44.499s-45.5 68.834 -45.5 117.501c0 18.667 3.66699 42.667 11 72l76 288h49l-78 -292c-5.33301 -20 -8 -41 -8 -63c0 -38 11.667 -68 35 -90s55.333 -33 96 -33c44.667 0 87.667 18 129 54s69.333 81.333 84 136l77 288h49
l-136 -510h-49l25 95c-59.333 -71.333 -123.666 -107 -192.999 -107zM262.999 594.999l133 122h40l67 -122h-44l-52 68l-96 -68h-48z" />
    <glyph glyph-name="udieresis" unicode="&#xfc;" horiz-adv-x="609" 
d="M231 -12c-50.667 0 -91.168 14.832 -121.501 44.499s-45.5 68.834 -45.5 117.501c0 18.667 3.66699 42.667 11 72l76 288h49l-78 -292c-5.33301 -20 -8 -41 -8 -63c0 -38 11.667 -68 35 -90s55.333 -33 96 -33c44.667 0 87.667 18 129 54s69.333 81.333 84 136l77 288h49
l-136 -510h-49l25 95c-59.333 -71.333 -123.666 -107 -192.999 -107zM267.999 594.999l22 80h69l-22 -80h-69zM430.999 594.999l22 80h69l-22 -80h-69z" />
    <glyph glyph-name="yacute" unicode="&#xfd;" horiz-adv-x="568" 
d="M20 -163c-38.667 0 -74.6689 11.668 -108.002 35.001l27 40c24 -19.333 53 -29 87 -29c26.667 0 52.834 9.16699 78.501 27.5s53.834 49.166 84.501 92.499l-104 507h52l89 -456l307 456h59l-363 -528c-36 -52 -70.5 -89.167 -103.5 -111.5s-68.167 -33.5 -105.5 -33.5z
M294.998 595.001l124 133l62 -30l-135 -103h-51z" />
    <glyph glyph-name="thorn" unicode="&#xfe;" horiz-adv-x="654" 
d="M-18 -160l238.998 890h49l-87 -320c62.667 74.667 133.334 112 212.001 112c59.333 0 108.333 -20.167 147 -60.5s58 -91.833 58 -154.5c0 -89.333 -28.667 -165 -86 -227s-124.666 -93 -201.999 -93c-52.667 0 -96 13.5 -130 40.5s-58.333 61.167 -73 102.5l-78 -290
h-49zM309.998 33c67.333 0 123.667 26.667 169 80s68 116 68 188c0 52 -14.667 94.167 -44 126.5s-67.333 48.5 -114 48.5c-64 0 -122.5 -27.333 -175.5 -82s-79.5 -115.667 -79.5 -183c0 -50 16.5 -92.167 49.5 -126.5s75.167 -51.5 126.5 -51.5z" />
    <glyph glyph-name="ydieresis" unicode="&#xff;" horiz-adv-x="568" 
d="M20 -163c-38.667 0 -74.6689 11.668 -108.002 35.001l27 40c24 -19.333 53 -29 87 -29c26.667 0 52.834 9.16699 78.501 27.5s53.834 49.166 84.501 92.499l-104 507h52l89 -456l307 456h59l-363 -528c-36 -52 -70.5 -89.167 -103.5 -111.5s-68.167 -33.5 -105.5 -33.5z
M241.998 595.001l22 80h69l-22 -80h-69zM404.998 595.001l22 80h69l-22 -80h-69z" />
    <glyph glyph-name="dotlessi" unicode="&#x131;" horiz-adv-x="250" 
d="M32 0l137 510h49l-137 -510h-49z" />
    <glyph glyph-name="Lslash" unicode="&#x141;" horiz-adv-x="650" 
d="M86 0l85 316l-80 -23l12 48l81 23l90 336h52l-86 -320l243 69l-13 -48l-243 -69l-76 -284h411l-13 -48h-463z" />
    <glyph glyph-name="lslash" unicode="&#x142;" horiz-adv-x="309" 
d="M62 0l90 335l-81 -23l13 50l81 23l93 345h49l-89 -330l84 24l-14 -50l-83 -24l-94 -350h-49z" />
    <glyph glyph-name="OE" unicode="&#x152;" horiz-adv-x="1154" 
d="M441 0c-118.667 0 -209.334 31.332 -272.001 93.999c-51.333 51.333 -77 118 -77 200c0 108 36.333 198.333 109 271c42.667 42.667 94.834 75.834 156.501 99.501s128.167 35.5 199.5 35.5h649l-13 -48h-430l-74 -275h385l-13 -48h-385l-75 -281h435l-13 -48h-582z
M444 47.999h104.999l162 604h-161c-126.667 0 -230 -40 -310 -120c-62.667 -62.667 -94 -140.667 -94 -234c0 -70.667 21.667 -127.667 65 -171c52.667 -52.667 130.334 -79 233.001 -79z" />
    <glyph glyph-name="oe" unicode="&#x153;" horiz-adv-x="1046" 
d="M275 -12c-64.667 0 -118.171 21.333 -160.504 64s-63.5 96.667 -63.5 162c0 81.333 30.333 153 91 215s131.334 93 212.001 93c56 0 102.333 -15.333 139 -46s60.334 -69.667 71.001 -117c58.667 108.667 140.667 163 246 163c61.333 0 108.833 -18.667 142.5 -56
s50.5 -83.666 50.5 -138.999c0 -32.667 -4.66699 -62.334 -14 -89.001h-419c-1.33301 -14.667 -2 -26 -2 -34c0 -51.333 15.667 -92.5 47 -123.5s72 -46.5 122 -46.5c60.667 0 118.667 22.667 174 68l29 -35c-63.333 -52.667 -130 -79 -200 -79c-54 0 -100 14.167 -138 42.5
s-62.333 65.833 -73 112.5c-27.333 -45.333 -62.666 -82.5 -105.999 -111.5s-92.666 -43.5 -147.999 -43.5zM282.996 34c62.667 0 119.167 25.668 169.5 77.001s75.5 110.666 75.5 177.999c0 58.667 -16.333 104.5 -49 137.5s-76 49.5 -130 49.5
c-64.667 0 -121.667 -26.333 -171 -79s-74 -113 -74 -181c0 -56.667 16.333 -101.167 49 -133.5s76 -48.5 130 -48.5zM578.996 282.001l370 -0.000976562c2.66699 12 4 26 4 42c0 44 -12.167 80.5 -36.5 109.5s-60.166 43.5 -107.499 43.5
c-54.667 0 -102.834 -18.667 -144.501 -56s-70.167 -83.666 -85.5 -138.999z" />
    <glyph glyph-name="Scaron" unicode="&#x160;" horiz-adv-x="638" 
d="M299 -10c-122.667 0 -215.67 44.6621 -279.003 133.995l40 29c30.667 -39.333 65.334 -68.5 104.001 -87.5s85.334 -28.5 140.001 -28.5c57.333 0 105.333 14.5 144 43.5s58 65.5 58 109.5c0 30.667 -11.333 56.334 -34 77.001s-62.334 42 -119.001 64
c-74 28.667 -125.833 56.334 -155.5 83.001s-44.5 61 -44.5 103c0 54 23.333 99.667 70 137s107 56 181 56c50.667 0 97.167 -9.83301 139.5 -29.5s76.833 -45.5 103.5 -77.5l-40 -32c-53.333 61.333 -122.666 92 -207.999 92c-58 0 -104.667 -14 -140 -42
s-53 -61.333 -53 -100c0 -31.333 12.667 -57.166 38 -77.499s68.333 -42.166 129 -65.499c66.667 -25.333 114.334 -51.833 143.001 -79.5s43 -62.5 43 -104.5c0 -57.333 -24.667 -105.666 -74 -144.999s-111.333 -59 -186 -59zM419.997 764.995l-67 122h44l52 -68l96 68h48
l-133 -122h-40z" />
    <glyph glyph-name="scaron" unicode="&#x161;" horiz-adv-x="495" 
d="M217 -11c-85.333 0 -157.331 29.334 -215.998 88.001l35 35c54 -52 116.333 -78 187 -78c34 0 64.5 9.5 91.5 28.5s40.5 43.167 40.5 72.5c0 20.667 -7.83301 38.667 -23.5 54s-44.834 31 -87.501 47c-50.667 18.667 -87.167 38.167 -109.5 58.5s-33.5 46.5 -33.5 78.5
c0 41.333 17.5 76.333 52.5 105s80.5 43 136.5 43c68.667 0 130 -22.667 184 -68l-32 -37c-48.667 40 -101 60 -157 60c-40.667 0 -72.834 -9.33301 -96.501 -28s-35.5 -41 -35.5 -67c0 -20.667 7.66699 -38 23 -52s46 -30 92 -48c50.667 -20 86.5 -40.333 107.5 -61
s31.5 -46.334 31.5 -77.001c0 -44 -18.667 -80.667 -56 -110s-82 -44 -134 -44zM308.002 595.001l-67 122h44l52 -68l96 68h48l-133 -122h-40z" />
    <glyph glyph-name="Ydieresis" unicode="&#x178;" horiz-adv-x="668" 
d="M234 0l76 284l-183 416h57l161 -376l364 376h70l-421 -429l-72 -271h-52zM343 765l22 80h69l-22 -80h-69zM506 765l22 80h69l-22 -80h-69z" />
    <glyph glyph-name="Zcaron" unicode="&#x17d;" horiz-adv-x="662" 
d="M-19 0l8 29l636 624h-452l13 47h533l-8 -29l-636 -624h472l-13 -47h-553zM426 765l-67 122h44l52 -68l96 68h48l-133 -122h-40z" />
    <glyph glyph-name="zcaron" unicode="&#x17e;" horiz-adv-x="546" 
d="M-17 0l8 28l475 438h-344l12 44h424l-8 -28l-475 -438h361l-12 -44h-441zM330 595l-67 122h44l52 -68l96 68h48l-133 -122h-40z" />
    <glyph glyph-name="florin" unicode="&#x192;" horiz-adv-x="526" 
d="M33 -10c-20 0 -38.668 2.66699 -56.001 8l13 43c14 -4.66699 29.667 -7 47 -7c23.333 0 43.833 8.5 61.5 25.5s34.834 44.167 51.501 81.5l107 243h-107l12 45h114l59 134c42.667 98 102 147 178 147c28.667 0 56.334 -5 83.001 -15l-15 -42
c-24.667 8.66699 -48 13 -70 13c-53.333 0 -97 -38.333 -131 -115l-54 -122h162l-12 -45h-169l-112 -255c-22 -50.667 -45.833 -86.5 -71.5 -107.5s-55.834 -31.5 -90.501 -31.5z" />
    <glyph glyph-name="circumflex" unicode="&#x2c6;" 
d="M222 595l133 122h40l67 -122h-44l-52 68l-96 -68h-48z" />
    <glyph glyph-name="caron" unicode="&#x2c7;" 
d="M321 595l-67 122h44l52 -68l96 68h48l-133 -122h-40z" />
    <glyph glyph-name="breve" unicode="&#x2d8;" 
d="M339 593c-32 0 -57.334 8 -76.001 24s-28 38.333 -28 67c0 10.667 1.33301 21.667 4 33h40c0 -24.667 5.16699 -43 15.5 -55s28.833 -18 55.5 -18c46.667 0 83 24.333 109 73h46c-12.667 -38.667 -34.167 -69 -64.5 -91s-64.166 -33 -101.499 -33z" />
    <glyph glyph-name="dotaccent" unicode="&#x2d9;" 
d="M307 593l23 85h66l-23 -85h-66z" />
    <glyph glyph-name="ring" unicode="&#x2da;" 
d="M359 595c-28 0 -51 7.66699 -69 23s-27 35 -27 59c0 28 10.5 52 31.5 72s45.833 30 74.5 30c28 0 51 -7.66699 69 -23s27 -35 27 -59c0 -28 -10.5 -52 -31.5 -72s-45.833 -30 -74.5 -30zM359 627c19.333 0 35.833 6.83301 49.5 20.5s20.5 30.167 20.5 49.5
c0 14.667 -5.16699 26.667 -15.5 36s-25.166 14 -44.499 14s-35.833 -6.83301 -49.5 -20.5s-20.5 -30.167 -20.5 -49.5c0 -14.667 5.16699 -26.667 15.5 -36s25.166 -14 44.499 -14z" />
    <glyph glyph-name="ogonek" unicode="&#x2db;" 
d="M226 -164c-48 -1.33301 -84 5.49805 -108 20.498s-36 35.5 -36 61.5c0 26.667 12 57.334 36 92.001h43c-16.667 -32 -25 -59.333 -25 -82c0 -37.333 32.667 -57.666 98 -60.999z" />
    <glyph glyph-name="tilde" unicode="&#x2dc;" 
d="M233 593l-38 15c16.667 33.333 33 57.666 49 72.999s34.333 23 55 23c13.333 0 24.5 -2.66699 33.5 -8s20.167 -14.333 33.5 -27c20.667 -20 36.667 -30 48 -30c10 0 19.167 4.66699 27.5 14s18.833 24.666 31.5 45.999l38 -15c-16.667 -33.333 -33 -57.666 -49 -72.999
s-34.333 -23 -55 -23c-13.333 0 -24.5 2.66699 -33.5 8s-20.167 14.333 -33.5 27c-20.667 20 -36.667 30 -48 30c-10 0 -19.167 -4.66699 -27.5 -14s-18.833 -24.666 -31.5 -45.999z" />
    <glyph glyph-name="hungarumlaut" unicode="&#x2dd;" 
d="M192 595l125 133l47 -29l-129 -104h-43zM344 595l125 133l47 -29l-129 -104h-43z" />
    <glyph glyph-name="Omega" unicode="&#x3a9;" horiz-adv-x="792" 
d="M636 0h-239.999l47 176c73.333 12 134.5 44.5 183.5 97.5s73.5 117.833 73.5 194.5c0 55.333 -20 100.833 -60 136.5s-90 53.5 -150 53.5c-86.667 0 -162.334 -28.333 -227.001 -85s-97 -130 -97 -220c0 -45.333 11.667 -84.833 35 -118.5s56.666 -53.167 99.999 -58.5
l-47 -176h-240l12 47h197l24 90c-42.667 12.667 -75.834 39.334 -99.501 80.001s-35.5 86 -35.5 136c0 69.333 18.833 131.666 56.5 186.999s85.334 97 143.001 125s118.834 42 183.501 42c78 0 140.833 -22.667 188.5 -68s71.5 -102 71.5 -170
c0 -78 -26.5 -147.667 -79.5 -209s-119.833 -102.333 -200.5 -123l-24 -90h197z" />
    <glyph glyph-name="pi" unicode="&#x3c0;" 
d="M0 0v700h500v-700h-500zM81 49h339l-170 255zM49 96l171 254l-171 254v-508zM450 96v508l-171 -254zM250 395l170 255h-339z" />
    <glyph glyph-name="afii10023" unicode="&#x401;" horiz-adv-x="649" 
d="M36 0l188 700h493l-13 -48h-441l-74 -275h396l-13 -48h-396l-75 -281h446l-13 -48h-498zM365 765l22 80h69l-22 -80h-69zM528 765l22 80h69l-22 -80h-69z" />
    <glyph glyph-name="afii10051" unicode="&#x402;" horiz-adv-x="832" 
d="M492 -12c-52 0 -89 7.33301 -111 22l25 43c22.667 -12 52 -18 88 -18c69.333 0 124.666 22 165.999 66s62 99 62 165c0 38.667 -14.167 70.5 -42.5 95.5s-63.833 37.5 -106.5 37.5c-49.333 0 -93.166 -7 -131.499 -21s-81.166 -38 -128.499 -72l-82 -306h-52l175 652
h-214l13 48h540l-13 -48h-274l-78 -290c46.667 30 88.167 51.5 124.5 64.5s77.833 19.5 124.5 19.5c57.333 0 105 -16 143 -48s57 -75.333 57 -130c0 -80 -26.333 -146.667 -79 -200s-121.334 -80 -206.001 -80z" />
    <glyph glyph-name="afii10052" unicode="&#x403;" horiz-adv-x="582" 
d="M36 0l187 700h437l-12 -48h-385l-175 -652h-52zM382 765l124 133l62 -30l-135 -103h-51z" />
    <glyph glyph-name="afii10053" unicode="&#x404;" horiz-adv-x="738" 
d="M378 -13c-80 0 -147.668 25.834 -203.001 77.501s-83 120.5 -83 206.5c0 74.667 18.5 146 55.5 214s88 122.833 153 164.5s134.833 62.5 209.5 62.5c56.667 0 105.834 -11.833 147.501 -35.5s74.5 -55.5 98.5 -95.5l-45 -26c-48 73.333 -116 110 -204 110
c-80.667 0 -153 -27.833 -217 -83.5s-107.333 -123.834 -130 -204.501h371l-13 -48h-368c-2.66699 -16.667 -4 -35.334 -4 -56.001c0 -72.667 22.167 -130.5 66.5 -173.5s101.166 -64.5 170.499 -64.5c49.333 0 92.5 8.83301 129.5 26.5s72.833 43.834 107.5 78.501l35 -32
c-77.333 -80.667 -169.666 -121 -276.999 -121z" />
    <glyph glyph-name="afii10054" unicode="&#x405;" horiz-adv-x="638" 
d="M299 -10c-122.667 0 -215.67 44.6621 -279.003 133.995l40 29c30.667 -39.333 65.334 -68.5 104.001 -87.5s85.334 -28.5 140.001 -28.5c57.333 0 105.333 14.5 144 43.5s58 65.5 58 109.5c0 30.667 -11.333 56.334 -34 77.001s-62.334 42 -119.001 64
c-74 28.667 -125.833 56.334 -155.5 83.001s-44.5 61 -44.5 103c0 54 23.333 99.667 70 137s107 56 181 56c50.667 0 97.167 -9.83301 139.5 -29.5s76.833 -45.5 103.5 -77.5l-40 -32c-53.333 61.333 -122.666 92 -207.999 92c-58 0 -104.667 -14 -140 -42
s-53 -61.333 -53 -100c0 -31.333 12.667 -57.166 38 -77.499s68.333 -42.166 129 -65.499c66.667 -25.333 114.334 -51.833 143.001 -79.5s43 -62.5 43 -104.5c0 -57.333 -24.667 -105.666 -74 -144.999s-111.333 -59 -186 -59z" />
    <glyph glyph-name="afii10055" unicode="&#x406;" horiz-adv-x="274" 
d="M43 0l188 700h52l-188 -700h-52z" />
    <glyph glyph-name="afii10056" unicode="&#x407;" horiz-adv-x="274" 
d="M43 0l188 700h52l-188 -700h-52zM153 765l22 80h69l-22 -80h-69zM316 765l22 80h69l-22 -80h-69z" />
    <glyph glyph-name="afii10057" unicode="&#x408;" horiz-adv-x="538" 
d="M196 -10c-55.333 0 -99.5 14.667 -132.5 44s-55.833 68.333 -68.5 117l46 16c26.667 -86.667 77.667 -130 153 -130c50 0 92.333 17.333 127 52c33.333 33.333 59.333 84.333 78 153l123 458h52l-125 -465c-20.667 -78 -51.667 -137.667 -93 -179
c-44 -44 -97.333 -66 -160 -66z" />
    <glyph glyph-name="afii10058" unicode="&#x409;" horiz-adv-x="1162" 
d="M13 -7c-38 0 -67 6.33398 -87 19.001l26 41c14.667 -8 35.667 -12 63 -12c13.333 0 26.333 2.33301 39 7s29.334 17.167 50.001 37.5s41 48 61 83s42.833 86.667 68.5 155s51.167 149.166 76.5 242.499l36 134h429l-76 -282h181c84 0 146 -20 186 -60
c30 -30 45 -69.333 45 -118c0 -76 -30 -135 -90 -177s-142 -63 -246 -63h-240l175 652h-327l-24 -88c-26 -98 -52.167 -182.5 -78.5 -253.5s-50.5 -126.667 -72.5 -167s-45 -72 -69 -95s-45.333 -38 -64 -45s-39.334 -10.5 -62.001 -10.5zM600 48.001h176.999
c90.667 0 160.334 16.333 209.001 49s73 79.667 73 141c0 35.333 -11 64 -33 86c-30.667 30.667 -79.667 46 -147 46h-193z" />
    <glyph glyph-name="afii10059" unicode="&#x40a;" horiz-adv-x="1158" 
d="M36 0l188 700.001h52l-80 -296h443l80 296h52l-81 -296h193c82 0 142.333 -19.333 181 -58c28.667 -28.667 43 -66.334 43 -113.001c0 -74 -29.333 -131.333 -88 -172s-139 -61 -241 -61h-247l95 356h-443l-95 -356h-52zM595 48.001l184.999 -0.000976562
c88.667 0 156.667 15.833 204 47.5s71 76.834 71 135.501c0 33.333 -10.333 60.333 -31 81c-29.333 29.333 -76.666 44 -141.999 44h-204z" />
    <glyph glyph-name="afii10060" unicode="&#x40b;" horiz-adv-x="848" 
d="M179 0l174.999 651.999h-214l13 48h540l-13 -48h-274l-75 -279c98 47.333 179.667 71 245 71c58.667 0 105.334 -12.167 140.001 -36.5s52 -59.5 52 -105.5c0 -19.333 -2.66699 -38.333 -8 -57l-65 -245h-52l67 250c4 14.667 6 28.334 6 41.001
c0 34 -12.167 60.5 -36.5 79.5s-58.5 28.5 -102.5 28.5c-72.667 0 -159 -25 -259 -75l-87 -324h-52z" />
    <glyph glyph-name="afii10061" unicode="&#x40c;" horiz-adv-x="714" 
d="M36 0l188 700h52l-122 -455l560 455h77l-389 -313l212 -387h-60l-195 357l-224 -182l-47 -175h-52zM414 765l124 133l62 -30l-135 -103h-51z" />
    <glyph glyph-name="afii10062" unicode="&#x40e;" horiz-adv-x="710" 
d="M119 -12c-52.667 0 -90.668 8.66699 -114.001 26l30 43c24 -13.333 52.667 -20 86 -20c64.667 0 128 41.333 190 124l-170 539h56l152 -490l370 490h61l-423 -558c-77.333 -102.667 -156.666 -154 -237.999 -154zM463.999 765c-34.667 0 -62.668 10.5 -84.001 31.5
s-32.666 48.167 -33.999 81.5l42 9c3.33301 -24 10.833 -42.167 22.5 -54.5s29.834 -18.5 54.501 -18.5c26 0 48.667 6.5 68 19.5s33.666 30.833 42.999 53.5l40 -9c-10.667 -33.333 -30 -60.5 -58 -81.5s-59.333 -31.5 -94 -31.5z" />
    <glyph glyph-name="afii10145" unicode="&#x40f;" horiz-adv-x="742" 
d="M242 -160l43 160h-249l188 700h52l-175 -652h429l175 652h52l-188 -700h-230l-43 -160h-54z" />
    <glyph glyph-name="afii10017" unicode="&#x410;" horiz-adv-x="759" 
d="M-34 0l515 705h50l137 -705h-53l-36 196h-413l-142 -196h-58zM200 243h369l-75 405z" />
    <glyph glyph-name="afii10018" unicode="&#x411;" horiz-adv-x="700" 
d="M36 0l188 700.001h477l-12 -48h-426l-67 -248h217c82 0 142.333 -19.333 181 -58c28.667 -28.667 43 -66.334 43 -113.001c0 -74 -29.333 -131.333 -88 -172s-139 -61 -241 -61h-272zM101 48.001l208.999 -0.000976562c88.667 0 156.667 15.833 204 47.5
s71 76.834 71 135.501c0 33.333 -10.333 60.333 -31 81c-29.333 29.333 -76.666 44 -141.999 44h-228z" />
    <glyph glyph-name="afii10019" unicode="&#x412;" horiz-adv-x="717" 
d="M36 0l188.001 699.999h259c64 0 115 -14.167 153 -42.5s57 -67.166 57 -116.499s-17.333 -90.5 -52 -123.5s-79 -54.833 -133 -65.5c40 -10.667 72.333 -28 97 -52s37 -55.333 37 -94c0 -60.667 -26.333 -110.167 -79 -148.5s-123.334 -57.5 -212.001 -57.5h-315z
M101.001 47.999l253 0.000976562c72.667 0 130 14 172 42s63 66.667 63 116c0 39.333 -17 69.666 -51 90.999s-78.667 32 -134 32h-228zM189.001 377l215.999 0.000976562c70.667 0 127.334 14.667 170.001 44s64 67.666 64 114.999c0 38 -14.167 66.833 -42.5 86.5
s-67.833 29.5 -118.5 29.5h-215z" />
    <glyph glyph-name="afii10020" unicode="&#x413;" horiz-adv-x="582" 
d="M36 0l187 700h437l-12 -48h-385l-175 -652h-52z" />
    <glyph glyph-name="afii10021" unicode="&#x414;" horiz-adv-x="751" 
d="M-100 -160l55.999 208h70c102.667 105.333 184.334 267 245.001 485l46 167h429l-175 -652h95l-66 -208h-44l43 160h-603l-52 -160h-44zM89.999 48h428.998l162 604h-327l-43 -157c-25.333 -94.667 -57.166 -181 -95.499 -259s-80.166 -140.667 -125.499 -188z" />
    <glyph glyph-name="afii10022" unicode="&#x415;" horiz-adv-x="649" 
d="M36 0l188 700h493l-13 -48h-441l-74 -275h396l-13 -48h-396l-75 -281h446l-13 -48h-498z" />
    <glyph glyph-name="afii10024" unicode="&#x416;" horiz-adv-x="1072" 
d="M-43 0l402 404l-190 296h60l282 -446l119 446h52l-117 -440l511 440h73l-358 -303l188 -397h-59l-170 362l-205 -173l-50 -189h-52l51 195l-108 167l-359 -362h-70z" />
    <glyph glyph-name="afii10025" unicode="&#x417;" horiz-adv-x="600" 
d="M260 -12c-58 0 -108.832 11.502 -152.499 34.502s-77.167 53.5 -100.5 91.5l45 27c46.667 -70.667 117 -106 211 -106c59.333 0 107.833 14.833 145.5 44.5s56.5 66.167 56.5 109.5c0 46 -18.5 81 -55.5 105s-80.5 36 -130.5 36h-60l12 46h70c68.667 0 125 14.333 169 43
s66 67 66 115c0 39.333 -15.333 70.666 -46 93.999s-70 35 -118 35c-68 0 -131.333 -23 -190 -69l-32 35c66 54 140 81 222 81c61.333 0 113.166 -15.5 155.499 -46.5s63.5 -73.167 63.5 -126.5c0 -51.333 -18.667 -92.833 -56 -124.5s-89 -52.834 -155 -63.501
c41.333 -12 75 -31.167 101 -57.5s39 -59.833 39 -100.5c0 -57.333 -25.167 -105.5 -75.5 -144.5s-111.833 -58.5 -184.5 -58.5z" />
    <glyph glyph-name="afii10026" unicode="&#x418;" horiz-adv-x="766" 
d="M36 0l188 700h52l-167 -621l621 621h51l-187 -700h-52l166 621l-620 -621h-52z" />
    <glyph glyph-name="afii10027" unicode="&#x419;" horiz-adv-x="766" 
d="M36 0l188 700h52l-167 -621l621 621h51l-187 -700h-52l166 621l-620 -621h-52zM496 765c-34.667 0 -62.668 10.5 -84.001 31.5s-32.666 48.167 -33.999 81.5l42 9c3.33301 -24 10.833 -42.167 22.5 -54.5s29.834 -18.5 54.501 -18.5c26 0 48.667 6.5 68 19.5
s33.666 30.833 42.999 53.5l40 -9c-10.667 -33.333 -30 -60.5 -58 -81.5s-59.333 -31.5 -94 -31.5z" />
    <glyph glyph-name="afii10028" unicode="&#x41a;" horiz-adv-x="714" 
d="M36 0l188 700h52l-122 -455l560 455h77l-389 -313l212 -387h-60l-195 357l-224 -182l-47 -175h-52z" />
    <glyph glyph-name="afii10029" unicode="&#x41b;" horiz-adv-x="760" 
d="M13 -7c-38 0 -67 6.33398 -87 19.001l26 41c14.667 -8 35.667 -12 63 -12c13.333 0 26.333 2.33301 39 7s29.334 17.167 50.001 37.5s41 48 61 83s42.833 86.667 68.5 155s51.167 149.166 76.5 242.499l36 134h429l-188 -700h-52l175 652h-327l-24 -88
c-26 -98 -52.167 -182.5 -78.5 -253.5s-50.5 -126.667 -72.5 -167s-45 -72 -69 -95s-45.333 -38 -64 -45s-39.334 -10.5 -62.001 -10.5z" />
    <glyph glyph-name="afii10030" unicode="&#x41c;" horiz-adv-x="869" 
d="M36 0l188 700h43l170 -414l392 414h55l-188 -700h-52l163 608l-385 -403h-4l-169 403l-163 -608h-50z" />
    <glyph glyph-name="afii10031" unicode="&#x41d;" horiz-adv-x="756" 
d="M36 0l188 700h52l-87 -324h443l87 324h52l-188 -700h-52l88 328h-443l-88 -328h-52z" />
    <glyph glyph-name="afii10032" unicode="&#x41e;" horiz-adv-x="846" 
d="M398 -13c-87.333 0 -159.5 28.833 -216.5 86.5s-85.5 129.167 -85.5 214.5c0 72 17.833 140.667 53.5 206s84.667 118 147 158s129.833 60 202.5 60c87.333 0 159.5 -28.833 216.5 -86.5s85.5 -129.167 85.5 -214.5c0 -72 -17.833 -140.667 -53.5 -206
s-84.667 -118 -147 -158s-129.833 -60 -202.5 -60zM398 34c64 0 123 18 177 54s96.167 82.833 126.5 140.5s45.5 118.5 45.5 182.5c0 72.667 -23 133.167 -69 181.5s-105.667 72.5 -179 72.5c-64 0 -123 -18 -177 -54s-96.167 -82.833 -126.5 -140.5
s-45.5 -118.5 -45.5 -182.5c0 -72.667 23 -133.167 69 -181.5s105.667 -72.5 179 -72.5z" />
    <glyph glyph-name="afii10033" unicode="&#x41f;" horiz-adv-x="742" 
d="M36 0l188 700h533l-188 -700h-52l175 652h-429l-175 -652h-52z" />
    <glyph glyph-name="afii10034" unicode="&#x420;" horiz-adv-x="663" 
d="M36 0l188 700h218c86.667 0 151 -21 193 -63c32 -32 48 -73.667 48 -125c0 -78.667 -31 -140 -93 -184s-146.333 -66 -253 -66h-178l-71 -262h-52zM171 309h168c94 0 166.167 17.5 216.5 52.5s75.5 84.5 75.5 148.5c0 38 -12 69 -36 93c-32.667 32.667 -84 49 -154 49
h-178z" />
    <glyph glyph-name="afii10035" unicode="&#x421;" horiz-adv-x="738" 
d="M378 -13c-80 0 -147.668 25.832 -203.001 77.499s-83 120.5 -83 206.5c0 74.667 18.5 146 55.5 214s88 122.833 153 164.5s134.833 62.5 209.5 62.5c61.333 0 113.833 -13.833 157.5 -41.5s76.834 -64.167 99.501 -109.5l-45 -24c-24 42 -52.833 73.833 -86.5 95.5
s-76.5 32.5 -128.5 32.5c-98.667 0 -183.5 -40 -254.5 -120s-106.5 -170.667 -106.5 -272c0 -72.667 22.167 -130.5 66.5 -173.5s101.166 -64.5 170.499 -64.5c49.333 0 92.5 8.83301 129.5 26.5s72.833 43.834 107.5 78.501l35 -32
c-77.333 -80.667 -169.666 -121 -276.999 -121z" />
    <glyph glyph-name="afii10036" unicode="&#x422;" horiz-adv-x="615" 
d="M209 0l175 652h-244l13 48h540l-13 -48h-244l-175 -652h-52z" />
    <glyph glyph-name="afii10037" unicode="&#x423;" horiz-adv-x="710" 
d="M119 -12c-52.667 0 -90.668 8.66699 -114.001 26l30 43c24 -13.333 52.667 -20 86 -20c64.667 0 128 41.333 190 124l-170 539h56l152 -490l370 490h61l-423 -558c-77.333 -102.667 -156.666 -154 -237.999 -154z" />
    <glyph glyph-name="afii10038" unicode="&#x424;" horiz-adv-x="862" 
d="M329 -26l21 78c-88 0.666992 -156.5 26 -205.5 76s-73.5 112.333 -73.5 187c0 91.333 35.5 170.166 106.5 236.499s164.833 99.5 281.5 99.5h51l19 71h52l-19 -71c88 -0.666992 156.333 -26.167 205 -76.5s73 -112.5 73 -186.5c0 -91.333 -35.5 -170.166 -106.5 -236.499
s-164.833 -99.5 -281.5 -99.5h-50l-21 -78h-52zM362 99l135.001 505.001h-45c-100 0 -179.5 -27.167 -238.5 -81.5s-88.5 -122.5 -88.5 -204.5c0 -64.667 20.667 -117.334 62 -158.001s99.666 -61 174.999 -61zM414.001 99.001l44.999 -0.000976562
c100 0 179.5 27.167 238.5 81.5s88.5 122.5 88.5 204.5c0 64.667 -20.667 117.334 -62 158.001s-99.666 61 -174.999 61z" />
    <glyph glyph-name="afii10039" unicode="&#x425;" horiz-adv-x="692" 
d="M-23 0l366 362l-186 338h56l167 -308l310 308h67l-352 -347l192 -353h-56l-173 323l-324 -323h-67z" />
    <glyph glyph-name="afii10040" unicode="&#x426;" horiz-adv-x="762" 
d="M566 -160l43 160h-573l188 700h52l-175 -652h429l175 652h52l-176 -652h95l-66 -208h-44z" />
    <glyph glyph-name="afii10041" unicode="&#x427;" horiz-adv-x="684" 
d="M460 0l83.001 312c-98 -47.333 -176.333 -71 -235 -71s-105.334 12.167 -140.001 36.5s-52 59.5 -52 105.5c0 19.333 2.66699 38.333 8 57l69 260h52l-71 -265c-4 -15.333 -6 -29 -6 -41c0 -34 12.167 -60.5 36.5 -79.5s58.5 -28.5 102.5 -28.5c66 0 149 25 249 75
l91 339h52l-187 -700h-52z" />
    <glyph glyph-name="afii10042" unicode="&#x428;" horiz-adv-x="1101" 
d="M36 0l188 700h52l-175 -652h367l175 652h52l-175 -652h368l176 652h52l-188 -700h-892z" />
    <glyph glyph-name="afii10043" unicode="&#x429;" horiz-adv-x="1121" 
d="M926 -160l43 160h-933l188 700h52l-175 -652h367l175 652h52l-175 -652h368l176 652h52l-175 -652h95l-66 -208h-44z" />
    <glyph glyph-name="afii10044" unicode="&#x42a;" horiz-adv-x="783" 
d="M156 0l175 652h-191l13 48h243l-76 -282h181c84 0 146 -20 186 -60c30 -30 45 -69.333 45 -118c0 -76 -30 -135 -90 -177s-142 -63 -246 -63h-240zM221 48h176.999c90.667 0 160.334 16.333 209.001 49s73 79.667 73 141c0 35.333 -11 64 -33 86
c-30.667 30.667 -79.667 46 -147 46h-193z" />
    <glyph glyph-name="afii10045" unicode="&#x42b;" horiz-adv-x="870" 
d="M36 0l188 700h52l-76 -282h181c84 0 146 -20 186 -60c30 -30 45 -69.333 45 -118c0 -76 -30 -135 -90 -177s-142 -63 -246 -63h-240zM101 48h176.999c90.667 0 160.334 16.333 209.001 49s73 79.667 73 141c0 35.333 -11 64 -33 86c-30.667 30.667 -79.667 46 -147 46
h-193zM645.999 0l187 700h52l-187 -700h-52z" />
    <glyph glyph-name="afii10046" unicode="&#x42c;" horiz-adv-x="663" 
d="M36 0l188 700h52l-76 -282h181c84 0 146 -20 186 -60c30 -30 45 -69.333 45 -118c0 -76 -30 -135 -90 -177s-142 -63 -246 -63h-240zM101 48h176.999c90.667 0 160.334 16.333 209.001 49s73 79.667 73 141c0 35.333 -11 64 -33 86c-30.667 30.667 -79.667 46 -147 46
h-193z" />
    <glyph glyph-name="afii10047" unicode="&#x42d;" horiz-adv-x="738" 
d="M285 -13c-61.333 0 -113.831 13.835 -157.498 41.502s-76.834 64.167 -99.501 109.5l45 24c24 -42 52.833 -73.833 86.5 -95.5s76.5 -32.5 128.5 -32.5c83.333 0 156.333 28.167 219 84.5s103.334 126.5 122.001 210.5h-363l13 48h358c1.33301 17.333 2 30.333 2 39
c0 73.333 -22.333 133 -67 179s-101.334 69 -170.001 69c-49.333 0 -92.5 -8.83301 -129.5 -26.5s-72.833 -43.834 -107.5 -78.501l-35 32c77.333 80.667 169.666 121 276.999 121c79.333 0 146.833 -27.333 202.5 -82s83.5 -125.334 83.5 -212.001
c0 -75.333 -17.667 -145.833 -53 -211.5s-84.5 -118.667 -147.5 -159s-132.167 -60.5 -207.5 -60.5z" />
    <glyph glyph-name="afii10048" unicode="&#x42e;" horiz-adv-x="1041" 
d="M613 -13c-83.333 0 -150.5 27.5 -201.5 82.5s-76.5 124.833 -76.5 209.5c0 15.333 1 31.666 3 48.999h-162l-88 -328h-52l188 700h52l-88 -324h157c20 96.667 65.167 176.834 135.5 240.501s149.5 95.5 237.5 95.5c84 0 151.333 -27.5 202 -82.5s76 -124.833 76 -209.5
c0 -118.667 -38 -220.5 -114 -305.5s-165.667 -127.5 -269 -127.5zM613 34c89.333 0 166.333 38.333 231 115s97 167 97 271c0 72 -20.333 130.833 -61 176.5s-94.667 68.5 -162 68.5c-89.333 0 -166.333 -38 -231 -114s-97 -166.333 -97 -271c0 -72 20.333 -131 61 -177
s94.667 -69 162 -69z" />
    <glyph glyph-name="afii10049" unicode="&#x42f;" horiz-adv-x="713" 
d="M-9 0l296.001 286c-48.667 9.33301 -85.334 27 -110.001 53c-30 30 -45 69.667 -45 119c0 76 30.167 135.333 90.5 178s142.5 64 246.5 64h259l-187 -700h-52l75 279h-218l-286 -279h-69zM365.001 327l211 -0.000976562l88 325h-197c-90.667 0 -160.5 -16.667 -209.5 -50
s-73.5 -80.666 -73.5 -141.999c0 -36 11 -65 33 -87c30.667 -30.667 80 -46 148 -46z" />
    <glyph glyph-name="afii10065" unicode="&#x430;" horiz-adv-x="571" 
d="M190 -12c-46 0 -85.333 12.4971 -118 37.4971s-49 60.167 -49 105.5c0 56 21.333 100.833 64 134.5s98 50.5 166 50.5c60 0 125.333 -9.66699 196 -29l4 14c4.66699 17.333 7 34.333 7 51c0 38.667 -13.167 68.334 -39.5 89.001s-64.5 31 -114.5 31
c-46.667 0 -96 -9 -148 -27l-9 44c54 19.333 107.667 29 161 29c62 0 110.5 -14.167 145.5 -42.5s52.5 -67.166 52.5 -116.499c0 -19.333 -3.33301 -41.666 -10 -66.999l-78 -292h-48l23 88c-56 -66.667 -124.333 -100 -205 -100zM199 32.9971
c50 0 97.1689 15.833 141.502 47.5s73.166 72.5 86.499 122.5l12 45c-64 16 -128.333 24 -193 24c-50.667 0 -91.834 -12.5 -123.501 -37.5s-47.5 -57.5 -47.5 -97.5c0 -31.333 11.167 -56.5 33.5 -75.5s52.5 -28.5 90.5 -28.5z" />
    <glyph glyph-name="afii10066" unicode="&#x431;" horiz-adv-x="642" 
d="M361 506c68 0 122.833 -20 164.5 -60s62.5 -92.333 62.5 -157c0 -78.667 -30.833 -148.5 -92.5 -209.5s-129.5 -91.5 -203.5 -91.5c-74.667 0 -131.5 21 -170.5 63s-58.5 96.333 -58.5 163c0 30.667 2.66699 62.5 8 95.5s14.833 68 28.5 105s30.5 70.667 50.5 101
s46 57.333 78 81s68 39.834 108 48.501l299 64l11 -44l-295 -66c-55.333 -12.667 -99 -34.334 -131 -65.001s-57 -73.667 -75 -129h4c58 67.333 128.667 101 212 101zM354 462c-64 0 -119.831 -24.835 -167.498 -74.502s-71.5 -108.5 -71.5 -176.5
c0 -51.333 15.167 -93.666 45.5 -126.999s74.166 -50 131.499 -50c60 0 115.333 26.167 166 78.5s76 111.833 76 178.5c0 52.667 -15.833 94.334 -47.5 125.001s-75.834 46 -132.501 46z" />
    <glyph glyph-name="afii10067" unicode="&#x432;" horiz-adv-x="580" 
d="M25 0l136.998 510h215c46.667 0 83.834 -10.333 111.501 -31s41.5 -49 41.5 -85c0 -35.333 -12.5 -64.333 -37.5 -87s-57.5 -38 -97.5 -46c28.667 -6.66699 52.167 -19.667 70.5 -39s27.5 -43.333 27.5 -72c0 -44 -19.167 -80 -57.5 -108s-90.166 -42 -155.499 -42h-255z
M84.998 44l190.999 0.000976562c50.667 0 90.834 9.66699 120.501 29s44.5 46 44.5 80c0 27.333 -12 48.666 -36 63.999s-55 23 -93 23h-174zM148.997 282.001l164 -0.000976562c49.333 0 89 9.83301 119 29.5s45 45.834 45 78.501c0 50.667 -37 76 -111 76h-167z" />
    <glyph glyph-name="afii10068" unicode="&#x433;" horiz-adv-x="460" 
d="M25 0l137 510h337l-12 -44h-288l-125 -466h-49z" />
    <glyph glyph-name="afii10069" unicode="&#x434;" horiz-adv-x="608" 
d="M-87 -144l49 188h62c72.667 82.667 129.667 202 171 358l29 108h342l-125 -466h82l-60 -188h-40l39 144h-460l-49 -144h-40zM78 44l314 -0.000976562l114 422h-246l-25 -92c-18 -67.333 -41.167 -130.666 -69.5 -189.999s-57.5 -106 -87.5 -140z" />
    <glyph glyph-name="afii10070" unicode="&#x435;" horiz-adv-x="583" 
d="M272 -12c-65.333 0 -118.667 20 -160 60s-62 91.333 -62 154c0 82 29 155.833 87 221.5s127.333 98.5 208 98.5c61.333 0 108.833 -18.667 142.5 -56s50.5 -83.666 50.5 -138.999c0 -32.667 -4.66699 -62.334 -14 -89.001h-419c-1.33301 -14.667 -2 -26 -2 -34
c0 -51.333 15.667 -92.5 47 -123.5s72 -46.5 122 -46.5c60.667 0 118.667 22.667 174 68l29 -35c-63.333 -52.667 -131 -79 -203 -79zM113.999 282l370 -0.000976562c2.66699 12 4 26 4 42c0 44 -12.167 80.5 -36.5 109.5s-60.166 43.5 -107.499 43.5
c-54.667 0 -102.834 -18.667 -144.501 -56s-70.167 -83.666 -85.5 -138.999z" />
    <glyph glyph-name="afii10072" unicode="&#x436;" horiz-adv-x="832" 
d="M-43 0l297 293l-141 217h56l206 -325l87 325h49l-86 -322l374 322h66l-263 -223l138 -287h-55l-121 255l-156 -132l-33 -123h-49l35 130l-82 126l-257 -256h-65z" />
    <glyph glyph-name="afii10073" unicode="&#x437;" 
d="M204 -10c-80.667 0 -147.334 25.333 -200.001 76l37 40c46.667 -46.667 101.334 -70 164.001 -70c40.667 0 77.167 11.833 109.5 35.5s48.5 52.5 48.5 86.5c0 25.333 -11 45.166 -33 59.499s-52.667 21.5 -92 21.5h-70l12 44h66c39.333 0 73.5 10.5 102.5 31.5
s43.5 48.5 43.5 82.5c0 23.333 -10 41.833 -30 55.5s-46 20.5 -78 20.5c-62.667 0 -118.667 -17.333 -168 -52l-22 39c59.333 39.333 124.333 59 195 59c47.333 0 85.5 -11.667 114.5 -35s43.5 -52 43.5 -86c0 -61.333 -35 -105.666 -105 -132.999
c23.333 -8.66699 41.666 -22.667 54.999 -42s20 -41.333 20 -66c0 -46.667 -19.667 -86.167 -59 -118.5s-90.666 -48.5 -153.999 -48.5z" />
    <glyph glyph-name="afii10074" unicode="&#x438;" horiz-adv-x="623" 
d="M25 0l137 510h49l-118 -439l456 439h49l-137 -510h-49l119 441l-457 -441h-49z" />
    <glyph glyph-name="afii10075" unicode="&#x439;" horiz-adv-x="623" 
d="M25 0l137 510h49l-118 -439l456 439h49l-137 -510h-49l119 441l-457 -441h-49zM388 595c-34.667 0 -62.668 10.5 -84.001 31.5s-32.666 48.167 -33.999 81.5l42 9c3.33301 -24 10.833 -42.167 22.5 -54.5s29.834 -18.5 54.501 -18.5c26 0 48.667 6.5 68 19.5
s33.666 30.833 42.999 53.5l40 -9c-10.667 -33.333 -30 -60.5 -58 -81.5s-59.333 -31.5 -94 -31.5z" />
    <glyph glyph-name="afii10076" unicode="&#x43a;" horiz-adv-x="560" 
d="M25 0l137 510h49l-86 -321l396 321h71l-284 -228l152 -282h-57l-136 252l-160 -128l-33 -124h-49z" />
    <glyph glyph-name="afii10077" unicode="&#x43b;" horiz-adv-x="607" 
d="M-3 -8c-28 0 -47.999 3 -59.999 9l20 44c9.33301 -4.66699 21.333 -7 36 -7c20 0 37 4 51 12s30.667 26 50 54s40 73.167 62 135.5s46.667 143.5 74 243.5l8 27h344l-137 -510h-49l125 466h-248l-4 -14c-22.667 -82.667 -43.834 -152.5 -63.501 -209.5
s-37.667 -102 -54 -135s-33.5 -58.167 -51.5 -75.5s-34.333 -28.333 -49 -33s-32.667 -7 -54 -7z" />
    <glyph glyph-name="afii10078" unicode="&#x43c;" horiz-adv-x="690" 
d="M25 0l137 510h39l128 -296l290 296h47l-137 -510h-49l114 425l-280 -282l-126 284l-114 -427h-49z" />
    <glyph glyph-name="afii10079" unicode="&#x43d;" horiz-adv-x="616" 
d="M25 0l137 510h49l-61 -227h331l61 227h49l-137 -510h-49l64 239h-331l-64 -239h-49z" />
    <glyph glyph-name="afii10080" unicode="&#x43e;" horiz-adv-x="633" 
d="M278 -12c-67.333 0 -122.002 21.167 -164.002 63.5s-63 96.5 -63 162.5c0 81.333 30.333 153 91 215s131.334 93 212.001 93c67.333 0 122 -21.167 164 -63.5s63 -96.5 63 -162.5c0 -82.667 -30.667 -154.667 -92 -216s-131.666 -92 -210.999 -92zM282.998 34
c63.333 0 120 26 170 78s75 112.667 75 182c0 56.667 -16.333 101.167 -49 133.5s-76 48.5 -130 48.5c-64.667 0 -121.667 -26.333 -171 -79s-74 -113 -74 -181c0 -56.667 16.333 -101.167 49 -133.5s76 -48.5 130 -48.5z" />
    <glyph glyph-name="afii10081" unicode="&#x43f;" horiz-adv-x="603" 
d="M25 0l137 510h416l-137 -510h-49l125 466h-318l-125 -466h-49z" />
    <glyph glyph-name="afii10082" unicode="&#x440;" horiz-adv-x="654" 
d="M312 -13c-52.667 0 -96.002 13.5 -130.002 40.5s-58.333 61.167 -73 102.5l-78 -290h-49l180 670h48l-27 -100c62.667 74.667 133.334 112 212.001 112c59.333 0 108.333 -20.167 147 -60.5s58 -91.833 58 -154.5c0 -89.333 -28.667 -165 -86 -227
s-124.666 -93 -201.999 -93zM309.998 33c67.333 0 123.667 26.667 169 80s68 116 68 188c0 52 -14.667 94.167 -44 126.5s-67.333 48.5 -114 48.5c-64 0 -122.5 -27.333 -175.5 -82s-79.5 -115.667 -79.5 -183c0 -50 16.5 -92.167 49.5 -126.5s75.167 -51.5 126.5 -51.5z
" />
    <glyph glyph-name="afii10083" unicode="&#x441;" horiz-adv-x="563" 
d="M272 -12c-59.333 0 -111.169 20 -155.502 60s-66.5 93.333 -66.5 160c0 84 29.833 157.333 89.5 220s129.834 94 210.501 94c48.667 0 89.834 -11.667 123.501 -35s59.167 -52.666 76.5 -87.999l-41 -23c-38 66.667 -92 100 -162 100
c-64.667 0 -121.5 -26.667 -170.5 -80s-73.5 -115 -73.5 -185c0 -54.667 16.833 -97.834 50.5 -129.501s74.167 -47.5 121.5 -47.5c58 0 113 24.333 165 73l33 -32c-60 -58 -127 -87 -201 -87z" />
    <glyph glyph-name="afii10084" unicode="&#x442;" horiz-adv-x="491" 
d="M146 0l125 466h-191l12 44h431l-12 -44h-191l-125 -466h-49z" />
    <glyph glyph-name="afii10085" unicode="&#x443;" horiz-adv-x="568" 
d="M20 -163c-38.667 0 -74.6689 11.668 -108.002 35.001l27 40c24 -19.333 53 -29 87 -29c26.667 0 52.834 9.16699 78.501 27.5s53.834 49.166 84.501 92.499l-104 507h52l89 -456l307 456h59l-363 -528c-36 -52 -70.5 -89.167 -103.5 -111.5s-68.167 -33.5 -105.5 -33.5z
" />
    <glyph glyph-name="afii10086" unicode="&#x444;" horiz-adv-x="855" 
d="M292 -160l54.998 206.001c-46 -38.667 -93.667 -58 -143 -58s-88.166 14.667 -116.499 44s-42.5 72.666 -42.5 129.999c0 54 9.83301 107.667 29.5 161s51.334 99.833 95.001 139.5s94.5 59.5 152.5 59.5c54 0 99.333 -21.667 136 -65l64 243h49l-63 -238
c18 14 32.5 24.5 43.5 31.5s25.333 13.5 43 19.5s36.5 9 56.5 9c48 0 86.5 -16.167 115.5 -48.5s43.5 -76.5 43.5 -132.5c0 -39.333 -6 -79.333 -18 -120s-29 -78.5 -51 -113.5s-51.167 -63.667 -87.5 -86s-76.5 -33.5 -120.5 -33.5c-57.333 0 -103 19.333 -137 58l-55 -206
h-49zM213.998 35.001c47.333 0 96.668 21.667 148.001 65l84 314c-27.333 40.667 -68.666 61 -123.999 61c-47.333 0 -88.833 -16.833 -124.5 -50.5s-61.334 -73.5 -77.001 -119.5s-23.5 -93 -23.5 -141c0 -40 9.66699 -71.5 29 -94.5s48.666 -34.5 87.999 -34.5z
M533 35.001c36.667 0 69.668 9.33301 99.001 28s52.833 43.167 70.5 73.5s31 63 40 98s13.5 70.5 13.5 106.5c0 40.667 -9.66699 73.167 -29 97.5s-48 36.5 -86 36.5c-49.333 0 -98 -20.333 -146 -61l-86 -318c27.333 -40.667 68.666 -61 123.999 -61z" />
    <glyph glyph-name="afii10087" unicode="&#x445;" horiz-adv-x="559" 
d="M-29 0l284 264l-135 246h56l112 -215l224 215h66l-268 -250l141 -260h-56l-118 229l-240 -229h-66z" />
    <glyph glyph-name="afii10088" unicode="&#x446;" horiz-adv-x="620" 
d="M434 -144l39 144h-448l137 510h49l-125 -466h318l125 466h49l-125 -466h82l-61 -188h-40z" />
    <glyph glyph-name="afii10089" unicode="&#x447;" horiz-adv-x="556" 
d="M345 0l60 223c-70.667 -34.667 -134 -52 -190 -52c-41.333 0 -74 9.66699 -98 29s-36 46.333 -36 81c0 15.333 2.33301 31 7 47l49 182h49l-51 -192c-3.33301 -12 -5 -22.333 -5 -31c0 -22 8 -39.333 24 -52s38.667 -19 68 -19c66 0 131.333 18.667 196 56l64 238h49
l-137 -510h-49z" />
    <glyph glyph-name="afii10090" unicode="&#x448;" horiz-adv-x="890" 
d="M25 0l137 510h49l-125 -466h278l125 466h49l-125 -466h278l125 466h49l-137 -510h-703z" />
    <glyph glyph-name="afii10091" unicode="&#x449;" horiz-adv-x="907" 
d="M721 -144l39 144h-735l137 510h49l-125 -466h278l125 466h49l-125 -466h278l125 466h49l-125 -466h82l-61 -188h-40z" />
    <glyph glyph-name="afii10092" unicode="&#x44a;" horiz-adv-x="619" 
d="M115 0l125.001 466h-160l12 44h209l-55 -205h146c61.333 0 106.666 -14.667 135.999 -44c22 -22 33 -50.667 33 -86c0 -55.333 -21.833 -98.333 -65.5 -129s-103.5 -46 -179.5 -46h-201zM176.001 44l136 0.000976562c63.333 0 112 11.167 146 33.5s51 54.166 51 95.499
c0 30 -11.833 52.167 -35.5 66.5s-52.5 21.5 -86.5 21.5h-153z" />
    <glyph glyph-name="afii10093" unicode="&#x44b;" horiz-adv-x="733" 
d="M25 0l137.001 510h49l-55 -205h145c61.333 0 106.666 -14.667 135.999 -44c22 -22 33 -50.667 33 -86c0 -55.333 -21.833 -98.333 -65.5 -129s-103.5 -46 -179.5 -46h-200zM86.001 44l135 0.000976562c63.333 0 112 11.167 146 33.5s51 54.166 51 95.499
c0 30 -11.833 52.167 -35.5 66.5s-52.5 21.5 -86.5 21.5h-152zM522.001 0.000976562l137 510h49l-137 -510h-49z" />
    <glyph glyph-name="afii10094" unicode="&#x44c;" horiz-adv-x="529" 
d="M25 0l137.001 510h49l-55 -205h146c61.333 0 106.666 -14.667 135.999 -44c22 -22 33 -50.667 33 -86c0 -55.333 -21.833 -98.333 -65.5 -129s-103.5 -46 -179.5 -46h-201zM86.001 44l136 0.000976562c63.333 0 112 11.167 146 33.5s51 54.166 51 95.499
c0 30 -11.833 52.167 -35.5 66.5s-52.5 21.5 -86.5 21.5h-153z" />
    <glyph glyph-name="afii10095" unicode="&#x44d;" horiz-adv-x="562" 
d="M210 -12c-48.667 0 -89.8311 11.668 -123.498 35.001s-59.167 52.666 -76.5 87.999l41 23c38 -66.667 92 -100 162 -100c54.667 0 104.334 19.667 149.001 59s74 88 88 146h-256l11 44h251c0.666992 3.33301 1 8.66602 1 15.999c0 54.667 -16.833 97.834 -50.5 129.501
s-74.167 47.5 -121.5 47.5c-56 0 -108.667 -22.333 -158 -67l-29 36c57.333 51.333 120.666 77 189.999 77c59.333 0 111.166 -20 155.499 -60s66.5 -93.333 66.5 -160c0 -84 -29.833 -157.333 -89.5 -220s-129.834 -94 -210.501 -94z" />
    <glyph glyph-name="afii10096" unicode="&#x44e;" horiz-adv-x="814" 
d="M471 -12c-64 0 -115.168 20.167 -153.501 60.5s-57.5 91.833 -57.5 154.5c0 13.333 0.333008 23.666 1 30.999h-125l-62 -234h-49l136 510h49l-62 -231h120c15.333 68.667 49 126.334 101 173.001s112.667 70 182 70c64.667 0 116 -20.333 154 -61
s57 -92.334 57 -155.001c0 -85.333 -28.167 -159.666 -84.5 -222.999s-125.166 -95 -206.499 -95zM475.999 34c64.667 0 119.667 26.832 165 80.499s68 116.834 68 189.501c0 52.667 -14.5 94.5 -43.5 125.5s-68.833 46.5 -119.5 46.5c-65.333 0 -120.5 -27 -165.5 -81
s-67.5 -117 -67.5 -189c0 -52.667 14.333 -94.5 43 -125.5s68.667 -46.5 120 -46.5z" />
    <glyph glyph-name="afii10097" unicode="&#x44f;" horiz-adv-x="570" 
d="M-10 0l212 204c-74 16 -111 59.333 -111 130c0 55.333 22 98.5 66 129.5s103.667 46.5 179 46.5h209l-136 -510h-49l53 199h-156l-203 -199h-64zM260 243l165 0.000976562l60 223h-150c-64 0 -113.167 -11.5 -147.5 -34.5s-51.5 -55.833 -51.5 -98.5
c0 -28.667 10.667 -50.834 32 -66.501s52 -23.5 92 -23.5z" />
    <glyph glyph-name="afii10071" unicode="&#x451;" horiz-adv-x="583" 
d="M272 -12c-65.333 0 -118.667 20 -160 60s-62 91.333 -62 154c0 82 29 155.833 87 221.5s127.333 98.5 208 98.5c61.333 0 108.833 -18.667 142.5 -56s50.5 -83.666 50.5 -138.999c0 -32.667 -4.66699 -62.334 -14 -89.001h-419c-1.33301 -14.667 -2 -26 -2 -34
c0 -51.333 15.667 -92.5 47 -123.5s72 -46.5 122 -46.5c60.667 0 118.667 22.667 174 68l29 -35c-63.333 -52.667 -131 -79 -203 -79zM113.999 282l370 -0.000976562c2.66699 12 4 26 4 42c0 44 -12.167 80.5 -36.5 109.5s-60.166 43.5 -107.499 43.5
c-54.667 0 -102.834 -18.667 -144.501 -56s-70.167 -83.666 -85.5 -138.999zM251.999 594.999l22 80h69l-22 -80h-69zM414.999 594.999l22 80h69l-22 -80h-69z" />
    <glyph glyph-name="afii10099" unicode="&#x452;" horiz-adv-x="609" 
d="M279 -12c-42 0 -75.666 7.66797 -100.999 23.001l25 42c22.667 -12.667 50 -19 82 -19c86.667 0 144 50.333 172 151l30 107c5.33301 20 8 41 8 63c0 38 -11.667 68 -35 90s-55.333 33 -96 33c-44.667 0 -87.667 -18 -129 -54s-69.333 -81.333 -84 -136l-77 -288h-49
l156 581h-84l12 44h84l28 105h49l-28 -105h228l-12 -44h-228l-45 -166c59.333 71.333 123.666 107 192.999 107c50.667 0 91.167 -14.833 121.5 -44.5s45.5 -68.834 45.5 -117.501c0 -18.667 -3.66699 -42.667 -11 -72l-30 -112c-17.333 -63.333 -43.5 -110.5 -78.5 -141.5
s-83.833 -46.5 -146.5 -46.5z" />
    <glyph glyph-name="afii10100" unicode="&#x453;" horiz-adv-x="460" 
d="M25 0l137 510h337l-12 -44h-288l-125 -466h-49zM277 595l124 133l62 -30l-135 -103h-51z" />
    <glyph glyph-name="afii10101" unicode="&#x454;" horiz-adv-x="563" 
d="M272 -12c-59.333 0 -111.168 20.001 -155.501 60.001s-66.5 93.333 -66.5 160c0 84 29.833 157.333 89.5 220s129.834 94 210.501 94c86 0 150 -36 192 -108l-42 -24c-37.333 57.333 -88.333 86 -153 86c-52.667 0 -101 -18.5 -145 -55.5s-73.667 -82.833 -89 -137.5h262
l-11 -44h-260c-0.666992 -6.66699 -1 -16 -1 -28c0 -54.667 16.833 -97.834 50.5 -129.501s74.167 -47.5 121.5 -47.5c63.333 0 121.333 24.667 174 74l33 -32c-61.333 -58.667 -131.333 -88 -210 -88z" />
    <glyph glyph-name="afii10102" unicode="&#x455;" horiz-adv-x="495" 
d="M217 -11c-85.333 0 -157.331 29.334 -215.998 88.001l35 35c54 -52 116.333 -78 187 -78c34 0 64.5 9.5 91.5 28.5s40.5 43.167 40.5 72.5c0 20.667 -7.83301 38.667 -23.5 54s-44.834 31 -87.501 47c-50.667 18.667 -87.167 38.167 -109.5 58.5s-33.5 46.5 -33.5 78.5
c0 41.333 17.5 76.333 52.5 105s80.5 43 136.5 43c68.667 0 130 -22.667 184 -68l-32 -37c-48.667 40 -101 60 -157 60c-40.667 0 -72.834 -9.33301 -96.501 -28s-35.5 -41 -35.5 -67c0 -20.667 7.66699 -38 23 -52s46 -30 92 -48c50.667 -20 86.5 -40.333 107.5 -61
s31.5 -46.334 31.5 -77.001c0 -44 -18.667 -80.667 -56 -110s-82 -44 -134 -44z" />
    <glyph glyph-name="afii10103" unicode="&#x456;" horiz-adv-x="250" 
d="M32 0l137 510h49l-137 -510h-49zM199 643l18 67h61l-18 -67h-61z" />
    <glyph glyph-name="afii10104" unicode="&#x457;" horiz-adv-x="250" 
d="M92 595l22 80h69l-22 -80h-69zM255 595l22 80h69l-22 -80h-69zM32 0l137 510h49l-137 -510h-49z" />
    <glyph glyph-name="afii10105" unicode="&#x458;" horiz-adv-x="249" 
d="M-52 -163c-22 0 -43 3.33203 -63 9.99902l12 44c18.667 -5.33301 34.334 -8 47.001 -8c37.333 0 62.333 23 75 69l150 558h49l-151 -562c-9.33301 -35.333 -24.333 -62.666 -45 -81.999s-45.334 -29 -74.001 -29zM199 642.999l18 67h61l-18 -67h-61z" />
    <glyph glyph-name="afii10106" unicode="&#x459;" horiz-adv-x="900" 
d="M-3 -8c-28 0 -47.998 3 -59.998 9l20 44c9.33301 -4.66699 21.333 -7 36 -7c20 0 37 4 51 12s30.667 26 50 54s40 73.167 62 135.5s46.667 143.5 74 243.5l8 27h344l-55 -205h146c61.333 0 106.666 -14.667 135.999 -44c22 -22 33 -50.667 33 -86
c0 -55.333 -21.833 -98.333 -65.5 -129s-103.5 -46 -179.5 -46h-201l125 466h-248l-4 -14c-22.667 -82.667 -43.834 -152.5 -63.501 -209.5s-37.667 -102 -54 -135s-33.5 -58.167 -51.5 -75.5s-34.333 -28.333 -49 -33s-32.667 -7 -54 -7zM457.002 44l136 0.000976562
c63.333 0 112 11.167 146 33.5s51 54.166 51 95.499c0 30 -11.833 52.167 -35.5 66.5s-52.5 21.5 -86.5 21.5h-153z" />
    <glyph glyph-name="afii10107" unicode="&#x45a;" horiz-adv-x="909" 
d="M25 0l137 510.001h49l-58 -218h331l58 218h49l-58 -218h149c52 0 93.167 -11 123.5 -33s45.5 -53.333 45.5 -94c0 -50.667 -22 -90.834 -66 -120.501s-103.667 -44.5 -179 -44.5h-201l67 248h-331l-67 -248h-49zM466 44.001h136c62.667 0 111.167 10.667 145.5 32
s51.5 50.333 51.5 87c0 28.667 -11.833 50 -35.5 64s-52.5 21 -86.5 21h-156z" />
    <glyph glyph-name="afii10108" unicode="&#x45b;" horiz-adv-x="609" 
d="M25 0l156.001 581.001h-84l12 44h84l28 105h49l-28 -105h228l-12 -44h-228l-45 -166c59.333 71.333 123.666 107 192.999 107c50.667 0 91.167 -14.833 121.5 -44.5s45.5 -68.834 45.5 -117.501c0 -18.667 -3.66699 -42.667 -11 -72l-76 -288h-49l78 292
c5.33301 20 8 41 8 63c0 38 -11.667 68 -35 90s-55.333 33 -96 33c-44.667 0 -87.667 -18 -129 -54s-69.333 -81.333 -84 -136l-77 -288h-49z" />
    <glyph glyph-name="afii10109" unicode="&#x45c;" horiz-adv-x="560" 
d="M25 0l137 510h49l-86 -321l396 321h71l-284 -228l152 -282h-57l-136 252l-160 -128l-33 -124h-49zM297 595l124 133l62 -30l-135 -103h-51z" />
    <glyph glyph-name="afii10110" unicode="&#x45e;" horiz-adv-x="568" 
d="M20 -163c-38.667 0 -74.6689 11.668 -108.002 35.001l27 40c24 -19.333 53 -29 87 -29c26.667 0 52.834 9.16699 78.501 27.5s53.834 49.166 84.501 92.499l-104 507h52l89 -456l307 456h59l-363 -528c-36 -52 -70.5 -89.167 -103.5 -111.5s-68.167 -33.5 -105.5 -33.5z
M347.998 595.001c-34.667 0 -62.668 10.5 -84.001 31.5s-32.666 48.167 -33.999 81.5l42 9c3.33301 -24 10.833 -42.167 22.5 -54.5s29.834 -18.5 54.501 -18.5c26 0 48.667 6.5 68 19.5s33.666 30.833 42.999 53.5l40 -9c-10.667 -33.333 -30 -60.5 -58 -81.5
s-59.333 -31.5 -94 -31.5z" />
    <glyph glyph-name="afii10193" unicode="&#x45f;" horiz-adv-x="603" 
d="M174 -144l39 144h-187l136 510h49l-124 -466h318l124 466h49l-136 -510h-179l-39 -144h-50z" />
    <glyph glyph-name="afii10050" unicode="&#x490;" horiz-adv-x="582" 
d="M36 0l188 700h383l43 160h44l-46 -208h-385l-175 -652h-52z" />
    <glyph glyph-name="afii10098" unicode="&#x491;" horiz-adv-x="460" 
d="M25 0l137 510h286l39 144h40l-40 -188h-288l-125 -466h-49z" />
    <glyph glyph-name="endash" unicode="&#x2013;" horiz-adv-x="528" 
d="M74 271l14 52h388l-14 -52h-388z" />
    <glyph glyph-name="emdash" unicode="&#x2014;" horiz-adv-x="898" 
d="M74 271l14 52h758l-14 -52h-758z" />
    <glyph glyph-name="quoteleft" unicode="&#x2018;" horiz-adv-x="231" 
d="M147 513l20 74c9.33301 34.667 22.5 60.5 39.5 77.5s42.167 30.167 75.5 39.5l7 -24c-46 -16 -72.667 -43.333 -80 -82h27l-23 -85h-66z" />
    <glyph glyph-name="quoteright" unicode="&#x2019;" horiz-adv-x="231" 
d="M138 509l-7 24c46 16 72.667 43.333 80 82h-27l23 85h66l-20 -74c-10 -34.667 -23.333 -60.5 -40 -77.5s-41.667 -30.167 -75 -39.5z" />
    <glyph glyph-name="quotesinglbase" unicode="&#x201a;" horiz-adv-x="231" 
d="M-32 -106l-7 24c46 16 72.667 43.333 80 82h-27l23 85h66l-20 -74c-10 -34.667 -23.333 -60.5 -40 -77.5s-41.667 -30.167 -75 -39.5z" />
    <glyph glyph-name="quotedblleft" unicode="&#x201c;" horiz-adv-x="411" 
d="M146 513l20 74c9.33301 34.667 22.5 60.5 39.5 77.5s42.167 30.167 75.5 39.5l7 -24c-46 -16 -72.667 -43.333 -80 -82h27l-23 -85h-66zM326 513l20 74c9.33301 34.667 22.5 60.5 39.5 77.5s42.167 30.167 75.5 39.5l7 -24c-46 -16 -72.667 -43.333 -80 -82h27l-23 -85
h-66z" />
    <glyph glyph-name="quotedblright" unicode="&#x201d;" horiz-adv-x="411" 
d="M127 509l-7 24c46 16 72.667 43.333 80 82h-27l23 85h66l-20 -74c-10 -34.667 -23.333 -60.5 -40 -77.5s-41.667 -30.167 -75 -39.5zM307 509l-7 24c46 16 72.667 43.333 80 82h-27l23 85h66l-20 -74c-10 -34.667 -23.333 -60.5 -40 -77.5s-41.667 -30.167 -75 -39.5z
" />
    <glyph glyph-name="quotedblbase" unicode="&#x201e;" horiz-adv-x="412" 
d="M-32 -106l-7 24c46 16 72.667 43.333 80 82h-27l23 85h66l-20 -74c-10 -34.667 -23.333 -60.5 -40 -77.5s-41.667 -30.167 -75 -39.5zM149 -106l-7 24c46 16 72.667 43.333 80 82h-27l23 85h66l-20 -74c-10 -34.667 -23.333 -60.5 -40 -77.5s-41.667 -30.167 -75 -39.5z
" />
    <glyph glyph-name="dagger" unicode="&#x2020;" horiz-adv-x="410" 
d="M160 238l81 286l-126 -7l12 45l122 -7l32 145h50l-46 -145l126 7l-12 -45l-124 7l-71 -286h-44z" />
    <glyph glyph-name="daggerdbl" unicode="&#x2021;" horiz-adv-x="430" 
d="M103 0l46 145l-126 -7l12 45l123 -7l42 174l51 174l-126 -7l12 45l122 -7l32 145h50l-46 -145l126 7l-12 -45l-124 7l-41 -174l-52 -174l127 7l-12 -45l-122 7l-32 -145h-50z" />
    <glyph glyph-name="bullet" unicode="&#x2022;" horiz-adv-x="470" 
d="M232 222c-30.667 0 -55.834 9.83301 -75.501 29.5s-29.5 46.167 -29.5 79.5c0 40.667 14.167 76 42.5 106s61.833 45 100.5 45c30.667 0 55.834 -9.83301 75.501 -29.5s29.5 -46.167 29.5 -79.5c0 -40.667 -14.167 -76 -42.5 -106s-61.833 -45 -100.5 -45z" />
    <glyph glyph-name="ellipsis" unicode="&#x2026;" horiz-adv-x="683" 
d="M14 0l23 85h66l-23 -85h-66zM240 0l23 85h66l-23 -85h-66zM466 0l23 85h66l-23 -85h-66z" />
    <glyph glyph-name="perthousand" unicode="&#x2030;" horiz-adv-x="1203" 
d="M65 0l682 700h60l-682 -700h-60zM588 -7c-40 0 -72.833 13.833 -98.5 41.5s-38.5 61.5 -38.5 101.5c0 57.333 18.667 108.166 56 152.499s82.333 66.5 135 66.5c40 0 72.833 -13.833 98.5 -41.5s38.5 -61.5 38.5 -101.5c0 -57.333 -18.667 -108.166 -56 -152.499
s-82.333 -66.5 -135 -66.5zM592 36c37.333 0 69.666 17.833 96.999 53.5s41 74.834 41 117.501c0 32 -8 57.5 -24 76.5s-38.667 28.5 -68 28.5c-37.333 0 -69.666 -17.833 -96.999 -53.5s-41 -74.834 -41 -117.501c0 -32 8 -57.5 24 -76.5s38.667 -28.5 68 -28.5zM970 -7
c-40 0 -72.833 13.833 -98.5 41.5s-38.5 61.5 -38.5 101.5c0 57.333 18.667 108.166 56 152.499s82.333 66.5 135 66.5c40 0 72.833 -13.833 98.5 -41.5s38.5 -61.5 38.5 -101.5c0 -57.333 -18.667 -108.166 -56 -152.499s-82.333 -66.5 -135 -66.5zM974 36
c37.333 0 69.666 17.833 96.999 53.5s41 74.834 41 117.501c0 32 -8 57.5 -24 76.5s-38.667 28.5 -68 28.5c-37.333 0 -69.666 -17.833 -96.999 -53.5s-41 -74.834 -41 -117.501c0 -32 8 -57.5 24 -76.5s38.667 -28.5 68 -28.5zM230 346c-40 0 -72.833 13.833 -98.5 41.5
s-38.5 61.5 -38.5 101.5c0 57.333 18.667 108.166 56 152.499s82.333 66.5 135 66.5c40 0 72.833 -13.833 98.5 -41.5s38.5 -61.5 38.5 -101.5c0 -57.333 -18.667 -108.166 -56 -152.499s-82.333 -66.5 -135 -66.5zM234 389c37.333 0 69.666 17.833 96.999 53.5
s41 74.834 41 117.501c0 32 -8 57.5 -24 76.5s-38.667 28.5 -68 28.5c-37.333 0 -69.666 -17.833 -96.999 -53.5s-41 -74.834 -41 -117.501c0 -32 8 -57.5 24 -76.5s38.667 -28.5 68 -28.5z" />
    <glyph glyph-name="guilsinglleft" unicode="&#x2039;" horiz-adv-x="311" 
d="M149 42l-104 209l2 8l216 209l36 -28l-192 -192l83 -184z" />
    <glyph glyph-name="guilsinglright" unicode="&#x203a;" horiz-adv-x="311" 
d="M47 41l-36 28l192 192l-83 184l41 22l104 -209l-2 -8z" />
    <glyph glyph-name="fraction" unicode="&#x2044;" horiz-adv-x="550" 
d="M-83 -98l697 856h59l-697 -856h-59z" />
    <glyph glyph-name="Euro" unicode="&#x20ac;" horiz-adv-x="684" 
d="M372 -12c-68.667 0 -125.499 23.166 -170.499 69.499s-69.167 108.833 -72.5 187.5h-92l13 48h80c2 43.333 9 84.333 21 123h-69l13 48h73c30 74 73.5 133.833 130.5 179.5s121.833 68.5 194.5 68.5c55.333 0 101.666 -14.667 138.999 -44s64 -67.666 80 -114.999
l-45 -18c-18 42.667 -41.167 75 -69.5 97s-66.166 33 -113.499 33c-54.667 0 -105.167 -18.333 -151.5 -55s-82.833 -85.334 -109.5 -146.001h301l-13 -48h-306c-12.667 -41.333 -20 -82.333 -22 -123h296l-13 -48h-283c3.33301 -63.333 21.666 -114.166 54.999 -152.499
s78.333 -57.5 135 -57.5c75.333 0 142.333 32.667 201 98l35 -30c-68.667 -76.667 -147.667 -115 -237 -115z" />
    <glyph glyph-name="afii61352" unicode="&#x2116;" horiz-adv-x="953" 
d="M36 0l188 700h53l242 -611l164 611h52l-187 -700h-44l-248 626l-168 -626h-52zM681 174l11 40h238l-11 -40h-238zM854 292c-34.667 0 -62.834 11.333 -84.501 34s-32.5 50.334 -32.5 83.001c0 39.333 14.5 73.666 43.5 102.999s62.833 44 101.5 44
c35.333 0 63.5 -11.167 84.5 -33.5s31.5 -49.833 31.5 -82.5c0 -40 -14.167 -74.667 -42.5 -104s-62.166 -44 -101.499 -44zM855 331c28 0 51.667 10.667 71 32s29 47 29 77c0 22.667 -6.83301 41.167 -20.5 55.5s-31.5 21.5 -53.5 21.5c-27.333 0 -51 -10.667 -71 -32
s-30 -46.666 -30 -75.999c0 -22.667 7 -41.334 21 -56.001s32 -22 54 -22z" />
    <glyph glyph-name="published" unicode="&#x2117;" horiz-adv-x="830" 
d="M439 -12c-100.667 0 -186 35.333 -256 106s-105 155.667 -105 255s35.333 184.666 106 255.999s156.334 107 257.001 107s186 -35.333 256 -106s105 -155.667 105 -255s-35.333 -184.666 -106 -255.999s-156.334 -107 -257.001 -107zM439 16c94 0 173 32.667 237 98
s96 144.333 96 237s-31.667 171.334 -95 236.001s-142 97 -236 97s-173 -32.667 -237 -98s-96 -144.333 -96 -237s31.667 -171.334 95 -236.001s142 -97 236 -97zM321 175l0.000976562 366h141c44 0 78.833 -10.167 104.5 -30.5s38.5 -48.833 38.5 -85.5
c0 -39.333 -14.333 -69.5 -43 -90.5s-64.334 -31.5 -107.001 -31.5h-90v-128h-44zM365.001 344h91c32 0 57.333 6.83301 76 20.5s28 33.167 28 58.5c0 51.333 -33.667 77 -101 77h-94v-156z" />
    <glyph glyph-name="trademark" unicode="&#x2122;" horiz-adv-x="690" 
d="M154 392l78 274h-101l10 34h237l-10 -34h-101l-78 -274h-35zM360 392l88 308h32l72 -183l168 183h41l-88 -308h-35l71 246l-167 -178h-5l-71 178l-71 -246h-35z" />
    <glyph glyph-name="partialdiff" unicode="&#x2202;" 
d="M0 0v700h500v-700h-500zM81 49h339l-170 255zM49 96l171 254l-171 254v-508zM450 96v508l-171 -254zM250 395l170 255h-339z" />
    <glyph glyph-name="Delta" unicode="&#x2206;" horiz-adv-x="790" 
d="M-10 0l504 705h50l128 -705h-682zM81 48h529l-103 600z" />
    <glyph glyph-name="product" unicode="&#x220f;" 
d="M0 0v700h500v-700h-500zM81 49h339l-170 255zM49 96l171 254l-171 254v-508zM450 96v508l-171 -254zM250 395l170 255h-339z" />
    <glyph glyph-name="summation" unicode="&#x2211;" 
d="M0 0v700h500v-700h-500zM81 49h339l-170 255zM49 96l171 254l-171 254v-508zM450 96v508l-171 -254zM250 395l170 255h-339z" />
    <glyph glyph-name="minus" unicode="&#x2212;" horiz-adv-x="640" 
d="M123 328l14 51h454l-14 -51h-454z" />
    <glyph glyph-name="radical" unicode="&#x221a;" horiz-adv-x="481" 
d="M624 786l-478 -1000h-55l-75 346l-51 -22l-8 40l99 43l74 -346l445 939h49z" />
    <glyph glyph-name="infinity" unicode="&#x221e;" horiz-adv-x="722" 
d="M200 217c-39.333 0 -71.166 13.0029 -95.499 39.0029s-36.5 58.667 -36.5 98s12 72.666 36 99.999s55.333 41 94 41c10.667 0 21.167 -1 31.5 -3s20.833 -5.83301 31.5 -11.5l27.5 -14.5c7.66699 -4 17.167 -10.5 28.5 -19.5s19.5 -15.667 24.5 -20l25.5 -23
c12 -11 19.667 -17.833 23 -20.5c7.33301 6 20.666 18 39.999 36s34.166 31 44.499 39s25 16.167 44 24.5s37.833 12.5 56.5 12.5c39.333 0 71.666 -13.5 96.999 -40.5s38 -60.5 38 -100.5c0 -40.667 -11.833 -73.667 -35.5 -99s-55.834 -38 -96.501 -38
c-23.333 0 -47.333 6 -72 18s-44.667 24.167 -60 36.5s-34 29.166 -56 50.499c-3.33301 -2.66699 -14.166 -11.834 -32.499 -27.501s-31 -26 -38 -31s-18.167 -12.333 -33.5 -22s-29.666 -16.167 -42.999 -19.5s-27.666 -5 -42.999 -5zM201 265.003
c40.667 0 92.332 29.666 154.999 88.999l-33 27l-41 32.5c-10 7.66699 -23.167 15.167 -39.5 22.5s-31.166 11 -44.499 11c-24.667 0 -44.5 -9.16699 -59.5 -27.5s-22.5 -40.166 -22.5 -65.499c0 -26.667 7.66699 -48.167 23 -64.5s36 -24.5 62 -24.5zM579.998 265.002
c25.333 0 45.332 8.50195 59.999 25.502s22 38.167 22 63.5c0 27.333 -7.33301 49.666 -22 66.999s-35.667 26 -63 26c-37.333 0 -88.666 -31 -153.999 -93c1.33301 -1.33301 7.5 -6.83301 18.5 -16.5s18.167 -15.834 21.5 -18.501l20 -15.5
c10 -7.66699 17.833 -13 23.5 -16s13 -6.66699 22 -11s17.667 -7.33301 26 -9s16.833 -2.5 25.5 -2.5z" />
    <glyph glyph-name="integral" unicode="&#x222b;" 
d="M0 0v700h500v-700h-500zM81 49h339l-170 255zM49 96l171 254l-171 254v-508zM450 96v508l-171 -254zM250 395l170 255h-339z" />
    <glyph glyph-name="approxequal" unicode="&#x2248;" horiz-adv-x="640" 
d="M642 500c-13.333 -36.667 -33.168 -67.333 -59.501 -92s-57.166 -37 -92.499 -37c-30.667 0 -76.167 12.333 -136.5 37s-102.5 37 -126.5 37c-22.667 0 -43.667 -8 -63 -24s-33.666 -35.667 -42.999 -59h-38c38 87.333 89.333 131 154 131c30 0 75.167 -12.333 135.5 -37
s103.166 -37 128.499 -37c23.333 0 44 7.5 62 22.5s32 34.5 42 58.5h37zM598.998 339.001c-13.333 -36 -33.3311 -66.5 -59.998 -91.5s-57.334 -37.5 -92.001 -37.5c-31.333 0 -76.833 12.333 -136.5 37s-101.834 37 -126.501 37c-22.667 0 -43.667 -8 -63 -24
s-33.666 -35.667 -42.999 -59h-38c38 87.333 89 131 153 131c30.667 0 76.167 -12.333 136.5 -37s103.166 -37 128.499 -37c23.333 0 44 7.5 62 22.5s32 34.5 42 58.5h37z" />
    <glyph glyph-name="notequal" unicode="&#x2260;" horiz-adv-x="640" 
d="M141 439l14 51h269l100 124l36 -22l-82 -102h131l-14 -51h-158l-139 -174h251l-14 -51h-279l-94 -117l-35 23l75 94h-121l14 51h149l139 174h-242z" />
    <glyph glyph-name="lessequal" unicode="&#x2264;" horiz-adv-x="640" 
d="M502 97l-445 193l15 54l548 193l-14 -57l-476 -166l387 -166zM478 5h-497l13 48h497z" />
    <glyph glyph-name="greaterequal" unicode="&#x2265;" horiz-adv-x="640" 
d="M567 290l-549 -193l15 58l474 166l-385 166l14 50l446 -193zM491 5h-497l13 48h497z" />
    <glyph glyph-name="lozenge" unicode="&#x25ca;" horiz-adv-x="640" 
d="M554 356l-169 -391h-53l-167 391l167 391h53zM501 356l-142 335l-140 -335l140 -335z" />
    <glyph glyph-name="cyrBreve" unicode="&#xf6d1;" 
d="M348 595c-34.667 0 -62.668 10.5 -84.001 31.5s-32.666 48.167 -33.999 81.5l42 9c3.33301 -24 10.833 -42.167 22.5 -54.5s29.834 -18.5 54.501 -18.5c26 0 48.667 6.5 68 19.5s33.666 30.833 42.999 53.5l40 -9c-10.667 -33.333 -30 -60.5 -58 -81.5
s-59.333 -31.5 -94 -31.5z" />
    <glyph glyph-name="cyrbreve" unicode="&#xf6d4;" 
d="M348 595c-34.667 0 -62.668 10.5 -84.001 31.5s-32.666 48.167 -33.999 81.5l42 9c3.33301 -24 10.833 -42.167 22.5 -54.5s29.834 -18.5 54.501 -18.5c26 0 48.667 6.5 68 19.5s33.666 30.833 42.999 53.5l40 -9c-10.667 -33.333 -30 -60.5 -58 -81.5
s-59.333 -31.5 -94 -31.5z" />
    <glyph glyph-name="apple" unicode="&#xf8ff;" 
d="M0 0v700h500v-700h-500zM81 49h339l-170 255zM49 96l171 254l-171 254v-508zM450 96v508l-171 -254zM250 395l170 255h-339z" />
    <glyph glyph-name="ff" unicode="&#xfb00;" horiz-adv-x="724" 
d="M55 0l124.999 465h-74l12 45h74l20 74c26 97.333 80.333 146 163 146c38 0 72 -8 102 -24l-12 -44c-34 16 -64.667 24 -92 24c-57.333 0 -95.666 -37.667 -114.999 -113l-17 -63h184l-12 -45h-184l-125 -465h-49zM416.999 0l125 465h-74l12 45h74l20 74
c26 97.333 80.333 146 163 146c38 0 72 -8 102 -24l-12 -44c-34 16 -64.667 24 -92 24c-56.667 0 -95 -37.667 -115 -113l-17 -63h184l-12 -45h-184l-125 -465h-49z" />
    <glyph glyph-name=".null" horiz-adv-x="0" 
 />
    <glyph glyph-name="nonmarkingreturn" horiz-adv-x="333" 
 />
    <glyph glyph-name="nbspace" horiz-adv-x="300" 
 />
    </font>
</defs>
</svg>
